<?xml version="1.0" encoding="UTF-8" standalone="no"?> <svg xmlns:dc="http://purl.org/dc/elements/1.1/" xmlns:cc="http://creativecommons.org/ns#" xmlns:rdf="http://www.w3.org/1999/02/22-rdf-syntax-ns#" xmlns:svg="http://www.w3.org/2000/svg" xmlns="http://www.w3.org/2000/svg" xmlns:sodipodi="http://sodipodi.sourceforge.net/DTD/sodipodi-0.dtd" xmlns:inkscape="http://www.inkscape.org/namespaces/inkscape" sodipodi:docname="AND gate.svg" inkscape:version="1.0 (4035a4fb49, 2020-05-01)" id="svg8" version="1.1" viewBox="0 0 41.839897 9.8873882" height="9.8873882mm" width="41.839897mm"><defs id="defs2"><marker inkscape:isstock="true" style="overflow:visible" id="marker5300" refX="0" refY="0" orient="auto" inkscape:stockid="DotM"><path inkscape:connector-curvature="0" transform="matrix(0.4,0,0,0.4,2.96,0.4)" style="fill:#000000;fill-opacity:1;fill-rule:evenodd;stroke:#000000;stroke-width:1.00000003pt;stroke-opacity:1" d="m -2.5,-1 c 0,2.76 -2.24,5 -5,5 -2.76,0 -5,-2.24 -5,-5 0,-2.76 2.24,-5 5,-5 2.76,0 5,2.24 5,5 z" id="path5298"></path></marker><marker inkscape:isstock="true" style="overflow:visible" id="marker5262" refX="0" refY="0" orient="auto" inkscape:stockid="EmptyDiamondS"><path inkscape:connector-curvature="0" transform="scale(0.2)" style="fill:#ffffff;fill-rule:evenodd;stroke:#000000;stroke-width:1.00000003pt;stroke-opacity:1" d="M 0,-7.0710768 -7.0710894,0 0,7.0710589 7.0710462,0 Z" id="path5260"></path></marker><marker inkscape:collect="always" inkscape:stockid="DotM" orient="auto" refY="0" refX="0" id="marker5224" style="overflow:visible" inkscape:isstock="true"><path inkscape:connector-curvature="0" id="path5222" d="m -2.5,-1 c 0,2.76 -2.24,5 -5,5 -2.76,0 -5,-2.24 -5,-5 0,-2.76 2.24,-5 5,-5 2.76,0 5,2.24 5,5 z" style="fill:#000000;fill-opacity:1;fill-rule:evenodd;stroke:#000000;stroke-width:1.00000003pt;stroke-opacity:1" transform="matrix(0.4,0,0,0.4,2.96,0.4)"></path></marker><marker inkscape:stockid="DotL" orient="auto" refY="0" refX="0" id="marker5156" style="overflow:visible" inkscape:isstock="true"><path inkscape:connector-curvature="0" id="path5154" d="m -2.5,-1 c 0,2.76 -2.24,5 -5,5 -2.76,0 -5,-2.24 -5,-5 0,-2.76 2.24,-5 5,-5 2.76,0 5,2.24 5,5 z" style="fill:#000000;fill-opacity:1;fill-rule:evenodd;stroke:#000000;stroke-width:1.00000003pt;stroke-opacity:1" transform="matrix(0.8,0,0,0.8,5.92,0.8)"></path></marker><marker inkscape:stockid="EmptyDiamondSend" orient="auto" refY="0" refX="0" id="marker4974" style="overflow:visible" inkscape:isstock="true"><path inkscape:connector-curvature="0" id="path4972" d="M 0,-7.0710768 -7.0710894,0 0,7.0710589 7.0710462,0 Z" style="fill:#ffffff;fill-rule:evenodd;stroke:#000000;stroke-width:1.00000003pt;stroke-opacity:1" transform="matrix(0.2,0,0,0.2,-1.2,0)"></path></marker><marker inkscape:isstock="true" style="overflow:visible" id="marker5300-3" refX="0" refY="0" orient="auto" inkscape:stockid="DotM"><path transform="matrix(0.4,0,0,0.4,2.96,0.4)" style="fill:#000000;fill-opacity:1;fill-rule:evenodd;stroke:#000000;stroke-width:1.00000003pt;stroke-opacity:1" d="m -2.5,-1 c 0,2.76 -2.24,5 -5,5 -2.76,0 -5,-2.24 -5,-5 0,-2.76 2.24,-5 5,-5 2.76,0 5,2.24 5,5 z" id="path5298-8" inkscape:connector-curvature="0"></path></marker></defs><metadata id="metadata5"></metadata><g transform="translate(-16.409639,-16.889635)" id="layer1" inkscape:groupmode="layer" inkscape:label="Layer 1"><path inkscape:connector-curvature="0" id="path4635" d="m 20.726709,19.254317 c 0.190275,0.044 7.548972,0 7.548972,0" style="fill:none;stroke:#000000;stroke-width:0.264583px;stroke-linecap:round;stroke-linejoin:miter;stroke-opacity:1;marker-start:url(#marker5300)"></path><path inkscape:connector-curvature="0" id="path4635-5" d="m 20.813444,24.513606 c 0.190275,0.044 7.548973,0 7.548973,0" style="fill:none;stroke:#000000;stroke-width:0.264583px;stroke-linecap:round;stroke-linejoin:miter;stroke-opacity:1;marker-start:url(#marker5224)"></path><path inkscape:connector-curvature="0" id="path4635-9" d="m 49.729471,21.833325 c -0.219767,-0.044 -8.719054,0 -8.719054,0" style="fill:none;stroke:#000000;stroke-width:0.264583px;stroke-linecap:round;stroke-linejoin:miter;stroke-opacity:1;marker-start:url(#marker5300-3)"></path><path sodipodi:nodetypes="csc" inkscape:connector-curvature="0" id="path4601" d="m 28.349985,17.034998 c 3.083873,-0.03584 5.530066,0.02052 7.480996,10e-4 3.210576,-0.03212 5.175289,2.011447 5.179436,4.797315" style="fill:none;stroke:#000000;stroke-width:0.265;stroke-linecap:round;stroke-linejoin:miter;stroke-miterlimit:4;stroke-dasharray:none;stroke-opacity:1"></path><text id="text5977" y="23.250744" x="29.949287" style="font-style:normal;font-weight:normal;font-size:4.23333px;line-height:1.25;font-family:sans-serif;letter-spacing:0px;word-spacing:0px;fill:#000000;fill-opacity:1;stroke:none;stroke-width:0.264583" xml:space="preserve"><tspan style="font-style:normal;font-variant:normal;font-weight:normal;font-stretch:normal;font-family:Arial;-inkscape-font-specification:Arial;stroke-width:0.264583" y="23.250744" x="29.949287" id="tspan5975" sodipodi:role="line">AND</tspan></text><text id="text6017" y="19.973452" x="16.355896" style="font-style:normal;font-weight:normal;font-size:4.23333px;line-height:1.25;font-family:sans-serif;letter-spacing:0px;word-spacing:0px;fill:#000000;fill-opacity:1;stroke:none;stroke-width:0.264583" xml:space="preserve"><tspan style="stroke-width:0.264583" y="19.973452" x="16.355896" id="tspan6015" sodipodi:role="line">A</tspan></text><text id="text6021" y="25.879328" x="16.308649" style="font-style:normal;font-weight:normal;font-size:4.23333px;line-height:1.25;font-family:sans-serif;letter-spacing:0px;word-spacing:0px;fill:#000000;fill-opacity:1;stroke:none;stroke-width:0.264583" xml:space="preserve"><tspan style="stroke-width:0.264583" y="25.879328" x="16.308649" id="tspan6019" sodipodi:role="line">B</tspan></text><text id="text6025" y="23.044508" x="50.657234" style="font-style:normal;font-weight:normal;font-size:4.23333px;line-height:1.25;font-family:sans-serif;letter-spacing:0px;word-spacing:0px;fill:#000000;fill-opacity:1;stroke:none;stroke-width:0.264583" xml:space="preserve"><tspan style="stroke-width:0.264583" y="23.044508" x="50.657234" id="tspan6023" sodipodi:role="line">Out</tspan></text><path id="path963" d="M 28.349985,17.034998 V 26.63166" style="fill:none;stroke:#000000;stroke-width:0.264583px;stroke-linecap:butt;stroke-linejoin:miter;stroke-opacity:1"></path><path style="fill:none;stroke:#000000;stroke-width:0.264999;stroke-linecap:round;stroke-linejoin:miter;stroke-miterlimit:4;stroke-dasharray:none;stroke-opacity:1" d="m 28.349985,26.63164 c 3.083873,0.03584 5.530066,-0.02052 7.480996,-0.001 3.210576,0.03212 5.175289,-2.011447 5.179436,-4.797315" id="path4601-4" inkscape:connector-curvature="0" sodipodi:nodetypes="csc"></path></g></svg> 