<?xml version="1.0" encoding="UTF-8" standalone="no"?> <svg xmlns:dc="http://purl.org/dc/elements/1.1/" xmlns:cc="http://creativecommons.org/ns#" xmlns:rdf="http://www.w3.org/1999/02/22-rdf-syntax-ns#" xmlns:svg="http://www.w3.org/2000/svg" xmlns="http://www.w3.org/2000/svg" xmlns:sodipodi="http://sodipodi.sourceforge.net/DTD/sodipodi-0.dtd" xmlns:inkscape="http://www.inkscape.org/namespaces/inkscape" sodipodi:docname="Half adder.svg" inkscape:version="1.0 (4035a4fb49, 2020-05-01)" id="svg8" version="1.1" viewBox="0 0 55.448189 25.224773" height="25.224773mm" width="55.448189mm"><defs id="defs2"><marker inkscape:isstock="true" style="overflow:visible" id="marker1625" refX="0" refY="0" orient="auto" inkscape:stockid="DotM"><path inkscape:connector-curvature="0" transform="matrix(0.4,0,0,0.4,2.96,0.4)" style="fill:#003399;fill-opacity:1;fill-rule:evenodd;stroke:#003399;stroke-width:1pt;stroke-opacity:1" d="m -2.5,-1 c 0,2.76 -2.24,5 -5,5 -2.76,0 -5,-2.24 -5,-5 0,-2.76 2.24,-5 5,-5 2.76,0 5,2.24 5,5 z" id="path1623"></path></marker><marker inkscape:isstock="true" style="overflow:visible" id="marker1615" refX="0" refY="0" orient="auto" inkscape:stockid="DotM"><path inkscape:connector-curvature="0" transform="matrix(0.4,0,0,0.4,2.96,0.4)" style="fill:#003399;fill-opacity:1;fill-rule:evenodd;stroke:#003399;stroke-width:1pt;stroke-opacity:1" d="m -2.5,-1 c 0,2.76 -2.24,5 -5,5 -2.76,0 -5,-2.24 -5,-5 0,-2.76 2.24,-5 5,-5 2.76,0 5,2.24 5,5 z" id="path1613"></path></marker><marker inkscape:stockid="DotM" orient="auto" refY="0" refX="0" id="marker1469" style="overflow:visible" inkscape:isstock="true"><path id="path1467" d="m -2.5,-1 c 0,2.76 -2.24,5 -5,5 -2.76,0 -5,-2.24 -5,-5 0,-2.76 2.24,-5 5,-5 2.76,0 5,2.24 5,5 z" style="fill:#000000;fill-opacity:1;fill-rule:evenodd;stroke:#000000;stroke-width:1pt;stroke-opacity:1" transform="matrix(0.4,0,0,0.4,2.96,0.4)" inkscape:connector-curvature="0"></path></marker><marker inkscape:isstock="true" style="overflow:visible" id="marker5262" refX="0" refY="0" orient="auto" inkscape:stockid="EmptyDiamondS"><path inkscape:connector-curvature="0" transform="scale(0.2)" style="fill:#ffffff;fill-rule:evenodd;stroke:#000000;stroke-width:1pt;stroke-opacity:1" d="M 0,-7.0710768 -7.0710894,0 0,7.0710589 7.0710462,0 Z" id="path5260"></path></marker><marker inkscape:stockid="DotL" orient="auto" refY="0" refX="0" id="marker5156" style="overflow:visible" inkscape:isstock="true"><path inkscape:connector-curvature="0" id="path5154" d="m -2.5,-1 c 0,2.76 -2.24,5 -5,5 -2.76,0 -5,-2.24 -5,-5 0,-2.76 2.24,-5 5,-5 2.76,0 5,2.24 5,5 z" style="fill:#000000;fill-opacity:1;fill-rule:evenodd;stroke:#000000;stroke-width:1pt;stroke-opacity:1" transform="matrix(0.8,0,0,0.8,5.92,0.8)"></path></marker><marker inkscape:stockid="EmptyDiamondSend" orient="auto" refY="0" refX="0" id="marker4974" style="overflow:visible" inkscape:isstock="true"><path inkscape:connector-curvature="0" id="path4972" d="M 0,-7.0710768 -7.0710894,0 0,7.0710589 7.0710462,0 Z" style="fill:#ffffff;fill-rule:evenodd;stroke:#000000;stroke-width:1pt;stroke-opacity:1" transform="matrix(0.2,0,0,0.2,-1.2,0)"></path></marker><marker inkscape:isstock="true" style="overflow:visible" id="marker5300-3" refX="0" refY="0" orient="auto" inkscape:stockid="DotM"><path transform="matrix(0.4,0,0,0.4,2.96,0.4)" style="fill:#003399;fill-opacity:1;fill-rule:evenodd;stroke:#003399;stroke-width:1pt;stroke-opacity:1" d="m -2.5,-1 c 0,2.76 -2.24,5 -5,5 -2.76,0 -5,-2.24 -5,-5 0,-2.76 2.24,-5 5,-5 2.76,0 5,2.24 5,5 z" id="path5298-8" inkscape:connector-curvature="0"></path></marker><marker inkscape:stockid="DotM" orient="auto" refY="0" refX="0" id="marker5300-9" style="overflow:visible" inkscape:isstock="true"><path id="path5298-81" d="m -2.5,-1 c 0,2.76 -2.24,5 -5,5 -2.76,0 -5,-2.24 -5,-5 0,-2.76 2.24,-5 5,-5 2.76,0 5,2.24 5,5 z" style="fill:#000000;fill-opacity:1;fill-rule:evenodd;stroke:#000000;stroke-width:1pt;stroke-opacity:1" transform="matrix(0.4,0,0,0.4,2.96,0.4)" inkscape:connector-curvature="0"></path></marker><marker inkscape:isstock="true" style="overflow:visible" id="marker5224-8" refX="0" refY="0" orient="auto" inkscape:stockid="DotM" inkscape:collect="always"><path transform="matrix(0.4,0,0,0.4,2.96,0.4)" style="fill:#000000;fill-opacity:1;fill-rule:evenodd;stroke:#000000;stroke-width:1pt;stroke-opacity:1" d="m -2.5,-1 c 0,2.76 -2.24,5 -5,5 -2.76,0 -5,-2.24 -5,-5 0,-2.76 2.24,-5 5,-5 2.76,0 5,2.24 5,5 z" id="path5222-9" inkscape:connector-curvature="0"></path></marker><marker inkscape:stockid="DotM" orient="auto" refY="0" refX="0" id="marker5300-3-9" style="overflow:visible" inkscape:isstock="true"><path inkscape:connector-curvature="0" id="path5298-8-6" d="m -2.5,-1 c 0,2.76 -2.24,5 -5,5 -2.76,0 -5,-2.24 -5,-5 0,-2.76 2.24,-5 5,-5 2.76,0 5,2.24 5,5 z" style="fill:#000000;fill-opacity:1;fill-rule:evenodd;stroke:#000000;stroke-width:1pt;stroke-opacity:1" transform="matrix(0.4,0,0,0.4,2.96,0.4)"></path></marker></defs><metadata id="metadata5"></metadata><g transform="translate(-5.8250857,-30.655762)" id="layer1" inkscape:groupmode="layer" inkscape:label="Layer 1"><path inkscape:connector-curvature="0" id="path4635-9" d="m 50.107447,50.937492 c -0.219767,-0.044 -8.719054,0 -8.719054,0" style="fill:none;stroke:#003399;stroke-width:0.264583px;stroke-linecap:round;stroke-linejoin:miter;stroke-opacity:1;marker-start:url(#marker5300-3)"></path><path sodipodi:nodetypes="csc" inkscape:connector-curvature="0" id="path4601" d="m 28.727961,46.139165 c 3.083873,-0.03584 5.530066,0.02052 7.480996,0.001 3.210576,-0.03212 5.175289,2.011447 5.179436,4.797315" style="fill:none;stroke:#000000;stroke-width:0.265;stroke-linecap:round;stroke-linejoin:miter;stroke-miterlimit:4;stroke-dasharray:none;stroke-opacity:1"></path><text id="text5977" y="52.354912" x="30.327263" style="font-style:normal;font-weight:normal;font-size:3.88056px;line-height:1.25;font-family:sans-serif;letter-spacing:0px;word-spacing:0px;fill:#000000;fill-opacity:1;stroke:none;stroke-width:0.264583" xml:space="preserve"><tspan style="font-style:normal;font-variant:normal;font-weight:normal;font-stretch:normal;font-size:3.88056px;font-family:Arial;-inkscape-font-specification:Arial;stroke-width:0.264583" y="52.354912" x="30.327263" id="tspan5975" sodipodi:role="line">AND</tspan></text><text id="text6017" y="34.043705" x="5.7758207" style="font-style:normal;font-weight:normal;font-size:4.23333px;line-height:1.25;font-family:sans-serif;letter-spacing:0px;word-spacing:0px;fill:#000000;fill-opacity:1;stroke:none;stroke-width:0.264583" xml:space="preserve"><tspan style="font-size:3.88056px;stroke-width:0.264583" y="34.043705" x="5.7758207" id="tspan6015" sodipodi:role="line">A</tspan></text><text id="text6021" y="39.949581" x="5.7285738" style="font-style:normal;font-weight:normal;font-size:4.23333px;line-height:1.25;font-family:sans-serif;letter-spacing:0px;word-spacing:0px;fill:#000000;fill-opacity:1;stroke:none;stroke-width:0.264583" xml:space="preserve"><tspan style="font-size:3.88056px;stroke-width:0.264583" y="39.949581" x="5.7285738" id="tspan6019" sodipodi:role="line">B</tspan></text><path id="path963" d="m 28.727961,46.139165 v 9.596662" style="fill:none;stroke:#000000;stroke-width:0.264583px;stroke-linecap:butt;stroke-linejoin:miter;stroke-opacity:1"></path><path style="fill:none;stroke:#000000;stroke-width:0.264999;stroke-linecap:round;stroke-linejoin:miter;stroke-miterlimit:4;stroke-dasharray:none;stroke-opacity:1" d="m 28.727961,55.735807 c 3.083873,0.03584 5.530066,-0.02052 7.480996,-10e-4 3.210576,0.03212 5.175289,-2.011447 5.179436,-4.797315" id="path4601-4" inkscape:connector-curvature="0" sodipodi:nodetypes="csc"></path><path style="fill:none;stroke:#000000;stroke-width:0.264585px;stroke-linecap:round;stroke-linejoin:miter;stroke-opacity:1;marker-start:url(#marker5300-9)" d="m 10.311341,33.020339 c 0.499496,0.04447 19.817091,0 19.817091,0" id="path4635-58" inkscape:connector-curvature="0"></path><path style="fill:none;stroke:#000000;stroke-width:0.264585px;stroke-linecap:round;stroke-linejoin:miter;stroke-opacity:1;marker-start:url(#marker5224-8)" d="m 10.536606,38.279733 c 0.494172,0.044 19.605862,0 19.605862,0" id="path4635-5-1" inkscape:connector-curvature="0"></path><path style="fill:none;stroke:#000000;stroke-width:0.264583px;stroke-linecap:round;stroke-linejoin:miter;stroke-opacity:1;marker-start:url(#marker5300-3-9)" d="m 50.306921,35.599452 c -0.219767,-0.044 -8.719054,0 -8.719054,0" id="path4635-9-9" inkscape:connector-curvature="0"></path><path style="fill:none;stroke:#000000;stroke-width:0.265;stroke-linecap:round;stroke-linejoin:miter;stroke-miterlimit:4;stroke-dasharray:none;stroke-opacity:1" d="m 28.927435,30.801125 c 1.128081,1.577935 2.056337,3.548018 1.812423,5.612676 -0.169049,1.5078 -0.914107,2.861051 -1.812423,3.983981" id="path4603" inkscape:connector-curvature="0"></path><path style="fill:none;stroke:#000000;stroke-width:0.265;stroke-linecap:round;stroke-linejoin:miter;stroke-miterlimit:4;stroke-dasharray:none;stroke-opacity:1" d="m 28.927435,30.801125 c 2.041148,-0.0033 4.084954,-0.0463 6.12431,0.04622 2.706253,0.32528 5.121394,2.246669 6.536122,4.752115" id="path4601-8" inkscape:connector-curvature="0"></path><path style="fill:none;stroke:#000000;stroke-width:0.265;stroke-linecap:round;stroke-linejoin:miter;stroke-miterlimit:4;stroke-dasharray:none;stroke-opacity:1" d="m 28.927435,40.397787 c 2.041148,0.0033 4.084954,0.0463 6.12431,-0.04622 2.706253,-0.32528 5.121394,-2.246669 6.536122,-4.752115" id="path4591" inkscape:connector-curvature="0"></path><text xml:space="preserve" style="font-style:normal;font-weight:normal;font-size:3.88056px;line-height:1.25;font-family:sans-serif;letter-spacing:0px;word-spacing:0px;fill:#000000;fill-opacity:1;stroke:none;stroke-width:0.264583" x="30.994459" y="37.016872" id="text5977-0"><tspan sodipodi:role="line" id="tspan5975-7" x="30.994459" y="37.016872" style="font-style:normal;font-variant:normal;font-weight:normal;font-stretch:normal;font-size:3.88056px;font-family:Arial;-inkscape-font-specification:Arial;stroke-width:0.264583">XOR</tspan></text><path inkscape:connector-curvature="0" id="path4603-3" d="m 28.185652,30.80113 c 1.128081,1.577935 2.056337,3.548018 1.812423,5.612676 -0.169049,1.5078 -0.914107,2.861051 -1.812423,3.983981" style="fill:none;stroke:#000000;stroke-width:0.264999;stroke-linecap:round;stroke-linejoin:miter;stroke-miterlimit:4;stroke-dasharray:none;stroke-opacity:1"></path><path id="path1463" d="M 28.868745,48.624659 H 17.014968 V 32.966546" style="fill:none;stroke:#003399;stroke-width:0.265;stroke-linecap:butt;stroke-linejoin:miter;stroke-miterlimit:4;stroke-dasharray:none;stroke-opacity:1;marker-end:url(#marker1615)"></path><path sodipodi:nodetypes="ccccc" id="path1465" d="m 28.678417,53.50556 h -7.028872 l -0.0038,-3.901382 c 0.652478,-0.798049 0.569946,-1.109154 -0.01253,-1.988455 l 0.01638,-9.360373" style="fill:none;stroke:#003399;stroke-width:0.265;stroke-linecap:butt;stroke-linejoin:miter;stroke-miterlimit:4;stroke-dasharray:none;stroke-opacity:1;marker-end:url(#marker1625)"></path><text xml:space="preserve" style="font-style:normal;font-weight:normal;font-size:4.23333px;line-height:1.25;font-family:sans-serif;letter-spacing:0px;word-spacing:0px;fill:#000000;fill-opacity:1;stroke:none;stroke-width:0.264583" x="51.557976" y="36.821152" id="text6017-1"><tspan sodipodi:role="line" id="tspan6015-7" x="51.557976" y="36.821152" style="font-style:normal;font-variant:normal;font-weight:normal;font-stretch:normal;font-size:3.88056px;font-family:Arial;-inkscape-font-specification:Arial;stroke-width:0.264583">Sum</tspan></text><text id="text6017-1-6" y="52.355392" x="51.810619" style="font-style:normal;font-weight:normal;font-size:4.23333px;line-height:1.25;font-family:sans-serif;letter-spacing:0px;word-spacing:0px;fill:#000000;fill-opacity:1;stroke:none;stroke-width:0.264583" xml:space="preserve"><tspan style="font-style:normal;font-variant:normal;font-weight:normal;font-stretch:normal;font-size:3.88056px;font-family:Arial;-inkscape-font-specification:Arial;stroke-width:0.264583" y="52.355392" x="51.810619" id="tspan6015-7-8" sodipodi:role="line">Carry</tspan></text></g></svg> 