<?xml version="1.0" encoding="UTF-8" standalone="no"?> <!-- Created with Inkscape (http://www.inkscape.org/) --> <svg xmlns:dc="http://purl.org/dc/elements/1.1/" xmlns:cc="http://creativecommons.org/ns#" xmlns:rdf="http://www.w3.org/1999/02/22-rdf-syntax-ns#" xmlns:svg="http://www.w3.org/2000/svg" xmlns="http://www.w3.org/2000/svg" xmlns:sodipodi="http://sodipodi.sourceforge.net/DTD/sodipodi-0.dtd" xmlns:inkscape="http://www.inkscape.org/namespaces/inkscape" width="41.839897mm" height="9.8873882mm" viewBox="0 0 41.839897 9.8873882" version="1.1" id="svg8" inkscape:version="0.92.4 (5da689c313, 2019-01-14)" sodipodi:docname="OR gate.svg"><defs id="defs2"><marker inkscape:stockid="DotM" orient="auto" refY="0" refX="0" id="marker5300" style="overflow:visible" inkscape:isstock="true"><path id="path5298" d="m -2.5,-1 c 0,2.76 -2.24,5 -5,5 -2.76,0 -5,-2.24 -5,-5 0,-2.76 2.24,-5 5,-5 2.76,0 5,2.24 5,5 z" style="fill:#000000;fill-opacity:1;fill-rule:evenodd;stroke:#000000;stroke-width:1.00000003pt;stroke-opacity:1" transform="matrix(0.4,0,0,0.4,2.96,0.4)" inkscape:connector-curvature="0"></path></marker><marker inkscape:stockid="EmptyDiamondS" orient="auto" refY="0" refX="0" id="marker5262" style="overflow:visible" inkscape:isstock="true"><path id="path5260" d="M 0,-7.0710768 -7.0710894,0 0,7.0710589 7.0710462,0 Z" style="fill:#ffffff;fill-rule:evenodd;stroke:#000000;stroke-width:1.00000003pt;stroke-opacity:1" transform="scale(0.2)" inkscape:connector-curvature="0"></path></marker><marker inkscape:isstock="true" style="overflow:visible" id="marker5224" refX="0" refY="0" orient="auto" inkscape:stockid="DotM" inkscape:collect="always"><path transform="matrix(0.4,0,0,0.4,2.96,0.4)" style="fill:#000000;fill-opacity:1;fill-rule:evenodd;stroke:#000000;stroke-width:1.00000003pt;stroke-opacity:1" d="m -2.5,-1 c 0,2.76 -2.24,5 -5,5 -2.76,0 -5,-2.24 -5,-5 0,-2.76 2.24,-5 5,-5 2.76,0 5,2.24 5,5 z" id="path5222" inkscape:connector-curvature="0"></path></marker><marker inkscape:isstock="true" style="overflow:visible" id="marker5156" refX="0" refY="0" orient="auto" inkscape:stockid="DotL"><path transform="matrix(0.8,0,0,0.8,5.92,0.8)" style="fill:#000000;fill-opacity:1;fill-rule:evenodd;stroke:#000000;stroke-width:1.00000003pt;stroke-opacity:1" d="m -2.5,-1 c 0,2.76 -2.24,5 -5,5 -2.76,0 -5,-2.24 -5,-5 0,-2.76 2.24,-5 5,-5 2.76,0 5,2.24 5,5 z" id="path5154" inkscape:connector-curvature="0"></path></marker><marker inkscape:isstock="true" style="overflow:visible" id="marker4974" refX="0" refY="0" orient="auto" inkscape:stockid="EmptyDiamondSend"><path transform="matrix(0.2,0,0,0.2,-1.2,0)" style="fill:#ffffff;fill-rule:evenodd;stroke:#000000;stroke-width:1.00000003pt;stroke-opacity:1" d="M 0,-7.0710768 -7.0710894,0 0,7.0710589 7.0710462,0 Z" id="path4972" inkscape:connector-curvature="0"></path></marker><marker inkscape:stockid="DotM" orient="auto" refY="0" refX="0" id="marker5300-3" style="overflow:visible" inkscape:isstock="true"><path inkscape:connector-curvature="0" id="path5298-8" d="m -2.5,-1 c 0,2.76 -2.24,5 -5,5 -2.76,0 -5,-2.24 -5,-5 0,-2.76 2.24,-5 5,-5 2.76,0 5,2.24 5,5 z" style="fill:#000000;fill-opacity:1;fill-rule:evenodd;stroke:#000000;stroke-width:1.00000003pt;stroke-opacity:1" transform="matrix(0.4,0,0,0.4,2.96,0.4)"></path></marker></defs><metadata id="metadata5"></metadata><g inkscape:label="Layer 1" inkscape:groupmode="layer" id="layer1" transform="translate(-16.409639,-16.889635)"><g id="g6013"><path inkscape:connector-curvature="0" id="path4635" d="m 20.745785,19.254317 c 0.219767,0.044 8.719053,0 8.719053,0" style="fill:none;stroke:#000000;stroke-width:0.26458332px;stroke-linecap:round;stroke-linejoin:miter;stroke-opacity:1;marker-start:url(#marker5300)"></path><path inkscape:connector-curvature="0" id="path4635-5" d="m 20.845964,24.513606 c 0.219767,0.044 8.719053,0 8.719053,0" style="fill:none;stroke:#000000;stroke-width:0.26458332px;stroke-linecap:round;stroke-linejoin:miter;stroke-opacity:1;marker-start:url(#marker5224)"></path><path inkscape:connector-curvature="0" id="path4635-9" d="m 49.729471,21.833325 c -0.219767,-0.044 -8.719054,0 -8.719054,0" style="fill:none;stroke:#000000;stroke-width:0.26458332px;stroke-linecap:round;stroke-linejoin:miter;stroke-opacity:1;marker-start:url(#marker5300-3)"></path><g id="g6002"><path style="fill:none;stroke:#000000;stroke-width:0.26499999;stroke-linecap:round;stroke-linejoin:miter;stroke-miterlimit:4;stroke-dasharray:none;stroke-opacity:1" d="m 28.349985,17.034998 c 1.128081,1.577935 2.056337,3.548018 1.812423,5.612676 -0.169049,1.5078 -0.914107,2.861051 -1.812423,3.983981" id="path4603" inkscape:connector-curvature="0"></path><path style="fill:none;stroke:#000000;stroke-width:0.26499999;stroke-linecap:round;stroke-linejoin:miter;stroke-miterlimit:4;stroke-dasharray:none;stroke-opacity:1" d="m 28.349985,17.034998 c 2.041148,-0.0033 4.084954,-0.0463 6.12431,0.04622 2.706253,0.32528 5.121394,2.246669 6.536122,4.752115" id="path4601" inkscape:connector-curvature="0"></path><path style="fill:none;stroke:#000000;stroke-width:0.26499999;stroke-linecap:round;stroke-linejoin:miter;stroke-miterlimit:4;stroke-dasharray:none;stroke-opacity:1" d="m 28.349985,26.63166 c 2.041148,0.0033 4.084954,0.0463 6.12431,-0.04622 2.706253,-0.32528 5.121394,-2.246669 6.536122,-4.752115" id="path4591" inkscape:connector-curvature="0"></path><text xml:space="preserve" style="font-style:normal;font-weight:normal;font-size:4.23333311px;line-height:1.25;font-family:sans-serif;letter-spacing:0px;word-spacing:0px;fill:#000000;fill-opacity:1;stroke:none;stroke-width:0.26458332" x="31.41927" y="23.250744" id="text5977"><tspan sodipodi:role="line" id="tspan5975" x="31.41927" y="23.250744" style="font-style:normal;font-variant:normal;font-weight:normal;font-stretch:normal;font-family:Arial;-inkscape-font-specification:Arial;stroke-width:0.26458332">OR</tspan></text></g></g><text xml:space="preserve" style="font-style:normal;font-weight:normal;font-size:4.23333311px;line-height:1.25;font-family:sans-serif;letter-spacing:0px;word-spacing:0px;fill:#000000;fill-opacity:1;stroke:none;stroke-width:0.26458332" x="16.355896" y="19.973452" id="text6017"><tspan sodipodi:role="line" id="tspan6015" x="16.355896" y="19.973452" style="stroke-width:0.26458332">A</tspan></text><text xml:space="preserve" style="font-style:normal;font-weight:normal;font-size:4.23333311px;line-height:1.25;font-family:sans-serif;letter-spacing:0px;word-spacing:0px;fill:#000000;fill-opacity:1;stroke:none;stroke-width:0.26458332" x="16.308649" y="25.879328" id="text6021"><tspan sodipodi:role="line" id="tspan6019" x="16.308649" y="25.879328" style="stroke-width:0.26458332">B</tspan></text><text xml:space="preserve" style="font-style:normal;font-weight:normal;font-size:4.23333311px;line-height:1.25;font-family:sans-serif;letter-spacing:0px;word-spacing:0px;fill:#000000;fill-opacity:1;stroke:none;stroke-width:0.26458332" x="50.657234" y="23.044508" id="text6025"><tspan sodipodi:role="line" id="tspan6023" x="50.657234" y="23.044508" style="stroke-width:0.26458332">Out</tspan></text></g></svg> 