<?xml version="1.0" encoding="UTF-8" standalone="no"?> <svg xmlns:dc="http://purl.org/dc/elements/1.1/" xmlns:cc="http://creativecommons.org/ns#" xmlns:rdf="http://www.w3.org/1999/02/22-rdf-syntax-ns#" xmlns:svg="http://www.w3.org/2000/svg" xmlns="http://www.w3.org/2000/svg" xmlns:sodipodi="http://sodipodi.sourceforge.net/DTD/sodipodi-0.dtd" xmlns:inkscape="http://www.inkscape.org/namespaces/inkscape" sodipodi:docname="sum_carry.svg" inkscape:version="1.0 (4035a4fb49, 2020-05-01)" id="svg1079" version="1.1" viewBox="0 0 33.343002 32.812515" height="32.812515mm" width="33.343002mm"><defs id="defs1073"><marker inkscape:isstock="true" style="overflow:visible" id="Arrow2Mend" refX="0" refY="0" orient="auto" inkscape:stockid="Arrow2Mend"><path transform="scale(-0.6)" d="M 8.7185878,4.0337352 -2.2072895,0.01601326 8.7185884,-4.0017078 c -1.7454984,2.3720609 -1.7354408,5.6174519 -6e-7,8.035443 z" style="fill:#003399;fill-opacity:1;fill-rule:evenodd;stroke:#003399;stroke-width:0.625;stroke-linejoin:round;stroke-opacity:1" id="path4448"></path></marker><marker inkscape:isstock="true" style="overflow:visible" id="Arrow1Lstart" refX="0" refY="0" orient="auto" inkscape:stockid="Arrow1Lstart"><path transform="matrix(0.8,0,0,0.8,10,0)" style="fill:#000000;fill-opacity:1;fill-rule:evenodd;stroke:#000000;stroke-width:1pt;stroke-opacity:1" d="M 0,0 5,-5 -12.5,0 5,5 Z" id="path4421"></path></marker><defs id="id-6a8c3718-3e07-4bf0-84be-95aae2cee133"><g id="id-d3a25cce-6cdb-4df0-948b-3c2ea11ac97b"><symbol overflow="visible" id="id-5b079e19-e4b2-4e1f-a87c-946fb9ba7107"><path style="stroke:none" d="" id="id-ccfef7f0-e4da-44c9-83cc-3170dd968c32"></path></symbol><symbol overflow="visible" id="id-6104edf2-3840-4a50-b801-c73ac372b899"><path style="stroke:none" d="m 4.578125,-3.1875 c 0,-0.796875 -0.046875,-1.59375 -0.390625,-2.328125 -0.453125,-0.96875 -1.28125,-1.125 -1.6875,-1.125 -0.609375,0 -1.328125,0.265625 -1.75,1.1875 -0.3125,0.6875 -0.359375,1.46875 -0.359375,2.265625 0,0.75 0.03125,1.640625 0.453125,2.40625 0.421875,0.796875 1.15625,1 1.640625,1 0.53125,0 1.296875,-0.203125 1.734375,-1.15625 0.3125,-0.6875 0.359375,-1.46875 0.359375,-2.25 z M 2.484375,0 C 2.09375,0 1.5,-0.25 1.328125,-1.203125 1.21875,-1.796875 1.21875,-2.71875 1.21875,-3.3125 c 0,-0.640625 0,-1.296875 0.078125,-1.828125 0.1875,-1.1875 0.9375,-1.28125 1.1875,-1.28125 0.328125,0 0.984375,0.1875 1.171875,1.171875 0.109375,0.5625 0.109375,1.3125 0.109375,1.9375 0,0.75 0,1.421875 -0.109375,2.0625 C 3.5,-0.296875 2.9375,0 2.484375,0 Z m 0,0" id="id-f96ad50f-b764-4d91-bc99-171deff59728"></path></symbol><symbol overflow="visible" id="id-eb445168-91e6-43f5-8772-23c955cad36e"><path style="stroke:none" d="m 4.078125,-2.296875 h 2.78125 C 7,-2.296875 7.1875,-2.296875 7.1875,-2.5 7.1875,-2.6875 7,-2.6875 6.859375,-2.6875 h -2.78125 v -2.796875 c 0,-0.140625 0,-0.328125 -0.203125,-0.328125 -0.203125,0 -0.203125,0.1875 -0.203125,0.328125 V -2.6875 h -2.78125 c -0.140625,0 -0.328125,0 -0.328125,0.1875 0,0.203125 0.1875,0.203125 0.328125,0.203125 h 2.78125 V 0.5 c 0,0.140625 0,0.328125 0.203125,0.328125 0.203125,0 0.203125,-0.1875 0.203125,-0.328125 z m 0,0" id="id-47ace559-9b76-41e0-8ae6-30604072f6dd"></path></symbol><symbol overflow="visible" id="id-fb9779f8-cf9f-46b3-96b0-9d3324cb7d03"><path style="stroke:none" d="m 6.84375,-3.265625 c 0.15625,0 0.34375,0 0.34375,-0.1875 C 7.1875,-3.65625 7,-3.65625 6.859375,-3.65625 h -5.96875 c -0.140625,0 -0.328125,0 -0.328125,0.203125 0,0.1875 0.1875,0.1875 0.328125,0.1875 z m 0.015625,1.9375 c 0.140625,0 0.328125,0 0.328125,-0.203125 0,-0.1875 -0.1875,-0.1875 -0.34375,-0.1875 H 0.890625 c -0.140625,0 -0.328125,0 -0.328125,0.1875 0,0.203125 0.1875,0.203125 0.328125,0.203125 z m 0,0" id="id-b9386f85-bb8a-4724-89f4-6a423b0ac7e5"></path></symbol><symbol overflow="visible" id="id-d8780064-4d60-4f7a-8b7f-982c392ebf87"><path style="stroke:none" d="m 2.9375,-6.375 c 0,-0.25 0,-0.265625 -0.234375,-0.265625 C 2.078125,-6 1.203125,-6 0.890625,-6 v 0.3125 c 0.203125,0 0.78125,0 1.296875,-0.265625 v 5.171875 c 0,0.359375 -0.03125,0.46875 -0.921875,0.46875 h -0.3125 V 0 c 0.34375,-0.03125 1.203125,-0.03125 1.609375,-0.03125 0.390625,0 1.265625,0 1.609375,0.03125 v -0.3125 h -0.3125 c -0.90625,0 -0.921875,-0.109375 -0.921875,-0.46875 z m 0,0" id="id-c5a13dc0-bb4e-4e62-ad82-ea9e1b7d0b15"></path></symbol></g></defs><defs id="id-5f987c76-084f-4c25-a2a9-125e251ba421"><g id="id-2b62d972-caa5-4e26-b3eb-5e416dd7d7f8"><symbol overflow="visible" id="id-9e139b78-fe65-4016-bc25-7ac1ada99a0a"><path style="stroke:none" d="" id="id-003a7ae1-7857-4dbc-bf23-dbc380e75e9e"></path></symbol><symbol overflow="visible" id="id-f73992a4-86b4-4d8f-87f0-60097e9b6a20"><path style="stroke:none" d="m 4.578125,-3.1875 c 0,-0.796875 -0.046875,-1.59375 -0.390625,-2.328125 -0.453125,-0.96875 -1.28125,-1.125 -1.6875,-1.125 -0.609375,0 -1.328125,0.265625 -1.75,1.1875 -0.3125,0.6875 -0.359375,1.46875 -0.359375,2.265625 0,0.75 0.03125,1.640625 0.453125,2.40625 0.421875,0.796875 1.15625,1 1.640625,1 0.53125,0 1.296875,-0.203125 1.734375,-1.15625 0.3125,-0.6875 0.359375,-1.46875 0.359375,-2.25 z M 2.484375,0 C 2.09375,0 1.5,-0.25 1.328125,-1.203125 1.21875,-1.796875 1.21875,-2.71875 1.21875,-3.3125 c 0,-0.640625 0,-1.296875 0.078125,-1.828125 0.1875,-1.1875 0.9375,-1.28125 1.1875,-1.28125 0.328125,0 0.984375,0.1875 1.171875,1.171875 0.109375,0.5625 0.109375,1.3125 0.109375,1.9375 0,0.75 0,1.421875 -0.109375,2.0625 C 3.5,-0.296875 2.9375,0 2.484375,0 Z m 0,0" id="id-bd7e88cf-2ecc-46b9-8db6-9d055a15a7b9"></path></symbol><symbol overflow="visible" id="id-a0b6569a-765f-4b85-a8a5-2b721c6e1f40"><path style="stroke:none" d="m 4.078125,-2.296875 h 2.78125 C 7,-2.296875 7.1875,-2.296875 7.1875,-2.5 7.1875,-2.6875 7,-2.6875 6.859375,-2.6875 h -2.78125 v -2.796875 c 0,-0.140625 0,-0.328125 -0.203125,-0.328125 -0.203125,0 -0.203125,0.1875 -0.203125,0.328125 V -2.6875 h -2.78125 c -0.140625,0 -0.328125,0 -0.328125,0.1875 0,0.203125 0.1875,0.203125 0.328125,0.203125 h 2.78125 V 0.5 c 0,0.140625 0,0.328125 0.203125,0.328125 0.203125,0 0.203125,-0.1875 0.203125,-0.328125 z m 0,0" id="id-fb664375-5a7f-44f7-af96-e0028d8c4479"></path></symbol><symbol overflow="visible" id="id-ec9a3e61-ea60-4628-8b6c-22ec9a25d9e9"><path style="stroke:none" d="m 6.84375,-3.265625 c 0.15625,0 0.34375,0 0.34375,-0.1875 C 7.1875,-3.65625 7,-3.65625 6.859375,-3.65625 h -5.96875 c -0.140625,0 -0.328125,0 -0.328125,0.203125 0,0.1875 0.1875,0.1875 0.328125,0.1875 z m 0.015625,1.9375 c 0.140625,0 0.328125,0 0.328125,-0.203125 0,-0.1875 -0.1875,-0.1875 -0.34375,-0.1875 H 0.890625 c -0.140625,0 -0.328125,0 -0.328125,0.1875 0,0.203125 0.1875,0.203125 0.328125,0.203125 z m 0,0" id="id-e333aeb1-667b-45dc-8f87-5f64eb2bad4a"></path></symbol><symbol overflow="visible" id="id-b35b5efa-9e84-4c43-931e-f9a5fcf47a34"><path style="stroke:none" d="m 2.9375,-6.375 c 0,-0.25 0,-0.265625 -0.234375,-0.265625 C 2.078125,-6 1.203125,-6 0.890625,-6 v 0.3125 c 0.203125,0 0.78125,0 1.296875,-0.265625 v 5.171875 c 0,0.359375 -0.03125,0.46875 -0.921875,0.46875 h -0.3125 V 0 c 0.34375,-0.03125 1.203125,-0.03125 1.609375,-0.03125 0.390625,0 1.265625,0 1.609375,0.03125 v -0.3125 h -0.3125 c -0.90625,0 -0.921875,-0.109375 -0.921875,-0.46875 z m 0,0" id="id-e5911dd9-58f1-4aab-927d-7a4782bae221"></path></symbol></g></defs><marker inkscape:stockid="Arrow2Mend" orient="auto" refY="0" refX="0" id="Arrow2Mend-6" style="overflow:visible" inkscape:isstock="true"><path id="path4448-5" style="fill:#003399;fill-opacity:1;fill-rule:evenodd;stroke:#003399;stroke-width:0.625;stroke-linejoin:round;stroke-opacity:1" d="M 8.7185878,4.0337352 -2.2072895,0.01601326 8.7185884,-4.0017078 c -1.7454984,2.3720609 -1.7354408,5.6174519 -6e-7,8.035443 z" transform="scale(-0.6)"></path></marker><marker inkscape:stockid="Arrow2Mend" orient="auto" refY="0" refX="0" id="Arrow2Mend-62" style="overflow:visible" inkscape:isstock="true"><path id="path4448-1" style="fill:#003399;fill-opacity:1;fill-rule:evenodd;stroke:#003399;stroke-width:0.625;stroke-linejoin:round;stroke-opacity:1" d="M 8.7185878,4.0337352 -2.2072895,0.01601326 8.7185884,-4.0017078 c -1.7454984,2.3720609 -1.7354408,5.6174519 -6e-7,8.035443 z" transform="scale(-0.6)"></path></marker><marker inkscape:stockid="Arrow2Mend" orient="auto" refY="0" refX="0" id="Arrow2Mend-1" style="overflow:visible" inkscape:isstock="true"><path id="path4448-4" style="fill:#003399;fill-opacity:1;fill-rule:evenodd;stroke:#003399;stroke-width:0.625;stroke-linejoin:round;stroke-opacity:1" d="M 8.7185878,4.0337352 -2.2072895,0.01601326 8.7185884,-4.0017078 c -1.7454984,2.3720609 -1.7354408,5.6174519 -6e-7,8.035443 z" transform="scale(-0.6)"></path></marker></defs><metadata id="metadata1076"></metadata><g transform="translate(-48.799669,-92.817083)" id="layer1" inkscape:groupmode="layer" inkscape:label="Layer 1"><text id="text3886" y="95.899063" x="60.803814" style="font-style:normal;font-weight:normal;font-size:4.23333px;line-height:1.25;font-family:sans-serif;letter-spacing:0px;word-spacing:0px;fill:#000000;fill-opacity:1;stroke:none;stroke-width:0.264583" xml:space="preserve"><tspan style="font-style:normal;font-variant:normal;font-weight:normal;font-stretch:normal;font-family:Arial;-inkscape-font-specification:Arial;stroke-width:0.264583" y="95.899063" x="60.803814" id="tspan3884" sodipodi:role="line">Carry</tspan></text><text id="text3890" y="96.171707" x="73.704948" style="font-style:normal;font-weight:normal;font-size:4.23333px;line-height:1.25;font-family:sans-serif;letter-spacing:0px;word-spacing:0px;fill:#000000;fill-opacity:1;stroke:none;stroke-width:0.264583" xml:space="preserve"><tspan style="font-style:normal;font-variant:normal;font-weight:normal;font-stretch:normal;font-family:Arial;-inkscape-font-specification:Arial;stroke-width:0.264583" y="96.171707" x="73.704948" id="tspan3888" sodipodi:role="line">Sum</tspan></text><text xml:space="preserve" style="font-style:normal;font-weight:normal;font-size:4.23333px;line-height:1.25;font-family:sans-serif;letter-spacing:0px;word-spacing:0px;fill:#000000;fill-opacity:1;stroke:none;stroke-width:0.264583" x="48.80587" y="96.150055" id="text3890-9"><tspan sodipodi:role="line" id="tspan3888-6" x="48.80587" y="96.150055" style="font-style:normal;font-variant:normal;font-weight:normal;font-stretch:normal;font-family:Arial;-inkscape-font-specification:Arial;stroke-width:0.264583">A</tspan></text><text id="text3912" y="96.305328" x="55.04678" style="font-style:normal;font-weight:normal;font-size:4.23333px;line-height:1.25;font-family:sans-serif;letter-spacing:0px;word-spacing:0px;fill:#000000;fill-opacity:1;stroke:none;stroke-width:0.264583" xml:space="preserve"><tspan style="font-style:normal;font-variant:normal;font-weight:normal;font-stretch:normal;font-family:Arial;-inkscape-font-specification:Arial;stroke-width:0.264583" y="96.305328" x="55.04678" id="tspan3910" sodipodi:role="line">B</tspan></text><g id="g4417"><g id="g4346" transform="translate(-7.9375004)"><g transform="matrix(0.529167,0,0,0.529167,-21.139236,34.899617)" id="id-6eea8901-f089-4aff-8b92-e58b1e0997fb" style="fill:#000000;fill-opacity:1"><g transform="translate(148.712,134.765)" id="g4002"><path id="id-54e6896c-0178-4b8c-8b79-4c77b60876a9" d="m 4.578125,-3.1875 c 0,-0.796875 -0.046875,-1.59375 -0.390625,-2.328125 -0.453125,-0.96875 -1.28125,-1.125 -1.6875,-1.125 -0.609375,0 -1.328125,0.265625 -1.75,1.1875 -0.3125,0.6875 -0.359375,1.46875 -0.359375,2.265625 0,0.75 0.03125,1.640625 0.453125,2.40625 0.421875,0.796875 1.15625,1 1.640625,1 0.53125,0 1.296875,-0.203125 1.734375,-1.15625 0.3125,-0.6875 0.359375,-1.46875 0.359375,-2.25 z M 2.484375,0 C 2.09375,0 1.5,-0.25 1.328125,-1.203125 1.21875,-1.796875 1.21875,-2.71875 1.21875,-3.3125 c 0,-0.640625 0,-1.296875 0.078125,-1.828125 0.1875,-1.1875 0.9375,-1.28125 1.1875,-1.28125 0.328125,0 0.984375,0.1875 1.171875,1.171875 0.109375,0.5625 0.109375,1.3125 0.109375,1.9375 0,0.75 0,1.421875 -0.109375,2.0625 C 3.5,-0.296875 2.9375,0 2.484375,0 Z m 0,0" style="stroke:none"></path></g></g><g transform="matrix(0.529167,0,0,0.529167,-21.139236,34.899617)" id="id-2950c7b6-9461-40e5-8823-7e4e3d822069" style="fill:#000000;fill-opacity:1"><g transform="translate(155.905,134.765)" id="g4006"><path id="id-e0c3fefa-0486-4124-810e-ccff4e1af1c0" d="m 4.078125,-2.296875 h 2.78125 C 7,-2.296875 7.1875,-2.296875 7.1875,-2.5 7.1875,-2.6875 7,-2.6875 6.859375,-2.6875 h -2.78125 v -2.796875 c 0,-0.140625 0,-0.328125 -0.203125,-0.328125 -0.203125,0 -0.203125,0.1875 -0.203125,0.328125 V -2.6875 h -2.78125 c -0.140625,0 -0.328125,0 -0.328125,0.1875 0,0.203125 0.1875,0.203125 0.328125,0.203125 h 2.78125 V 0.5 c 0,0.140625 0,0.328125 0.203125,0.328125 0.203125,0 0.203125,-0.1875 0.203125,-0.328125 z m 0,0" style="stroke:none"></path></g></g><g transform="matrix(0.529167,0,0,0.529167,-21.139236,34.899617)" id="id-eb239742-7688-4e0b-be73-7d73bf919106" style="fill:#000000;fill-opacity:1"><g transform="translate(165.866,134.765)" id="g4010"><path id="id-3fb386a4-91f1-4e52-b293-624a7151c74c" d="m 4.578125,-3.1875 c 0,-0.796875 -0.046875,-1.59375 -0.390625,-2.328125 -0.453125,-0.96875 -1.28125,-1.125 -1.6875,-1.125 -0.609375,0 -1.328125,0.265625 -1.75,1.1875 -0.3125,0.6875 -0.359375,1.46875 -0.359375,2.265625 0,0.75 0.03125,1.640625 0.453125,2.40625 0.421875,0.796875 1.15625,1 1.640625,1 0.53125,0 1.296875,-0.203125 1.734375,-1.15625 0.3125,-0.6875 0.359375,-1.46875 0.359375,-2.25 z M 2.484375,0 C 2.09375,0 1.5,-0.25 1.328125,-1.203125 1.21875,-1.796875 1.21875,-2.71875 1.21875,-3.3125 c 0,-0.640625 0,-1.296875 0.078125,-1.828125 0.1875,-1.1875 0.9375,-1.28125 1.1875,-1.28125 0.328125,0 0.984375,0.1875 1.171875,1.171875 0.109375,0.5625 0.109375,1.3125 0.109375,1.9375 0,0.75 0,1.421875 -0.109375,2.0625 C 3.5,-0.296875 2.9375,0 2.484375,0 Z m 0,0" style="stroke:none"></path></g></g><g transform="matrix(0.529167,0,0,0.529167,-21.139236,34.899617)" id="id-27341844-ec6f-4b4b-b37c-b172a91d7de5" style="fill:#000000;fill-opacity:1"><g transform="translate(173.617,134.765)" id="g4014"><path id="id-f3938ee5-b2da-49ce-983e-c7597e7b4bd1" d="m 6.84375,-3.265625 c 0.15625,0 0.34375,0 0.34375,-0.1875 C 7.1875,-3.65625 7,-3.65625 6.859375,-3.65625 h -5.96875 c -0.140625,0 -0.328125,0 -0.328125,0.203125 0,0.1875 0.1875,0.1875 0.328125,0.1875 z m 0.015625,1.9375 c 0.140625,0 0.328125,0 0.328125,-0.203125 0,-0.1875 -0.1875,-0.1875 -0.34375,-0.1875 H 0.890625 c -0.140625,0 -0.328125,0 -0.328125,0.1875 0,0.203125 0.1875,0.203125 0.328125,0.203125 z m 0,0" style="stroke:none"></path></g></g><g transform="matrix(0.529167,0,0,0.529167,-21.139236,34.899617)" id="id-da61a0d6-53b9-4d13-bcb3-357096bcbebe" style="fill:#000000;fill-opacity:1"><g transform="translate(184.135,134.765)" id="g4018"><path id="id-df5aad5e-7921-4ce8-8002-e4c845482109" d="m 4.578125,-3.1875 c 0,-0.796875 -0.046875,-1.59375 -0.390625,-2.328125 -0.453125,-0.96875 -1.28125,-1.125 -1.6875,-1.125 -0.609375,0 -1.328125,0.265625 -1.75,1.1875 -0.3125,0.6875 -0.359375,1.46875 -0.359375,2.265625 0,0.75 0.03125,1.640625 0.453125,2.40625 0.421875,0.796875 1.15625,1 1.640625,1 0.53125,0 1.296875,-0.203125 1.734375,-1.15625 0.3125,-0.6875 0.359375,-1.46875 0.359375,-2.25 z M 2.484375,0 C 2.09375,0 1.5,-0.25 1.328125,-1.203125 1.21875,-1.796875 1.21875,-2.71875 1.21875,-3.3125 c 0,-0.640625 0,-1.296875 0.078125,-1.828125 0.1875,-1.1875 0.9375,-1.28125 1.1875,-1.28125 0.328125,0 0.984375,0.1875 1.171875,1.171875 0.109375,0.5625 0.109375,1.3125 0.109375,1.9375 0,0.75 0,1.421875 -0.109375,2.0625 C 3.5,-0.296875 2.9375,0 2.484375,0 Z m 0,0" style="stroke:none"></path></g><g transform="translate(189.116,134.765)" id="g4021"><path id="id-54d60199-0a7f-4255-84ec-a5cec8d94d8a" d="m 4.578125,-3.1875 c 0,-0.796875 -0.046875,-1.59375 -0.390625,-2.328125 -0.453125,-0.96875 -1.28125,-1.125 -1.6875,-1.125 -0.609375,0 -1.328125,0.265625 -1.75,1.1875 -0.3125,0.6875 -0.359375,1.46875 -0.359375,2.265625 0,0.75 0.03125,1.640625 0.453125,2.40625 0.421875,0.796875 1.15625,1 1.640625,1 0.53125,0 1.296875,-0.203125 1.734375,-1.15625 0.3125,-0.6875 0.359375,-1.46875 0.359375,-2.25 z M 2.484375,0 C 2.09375,0 1.5,-0.25 1.328125,-1.203125 1.21875,-1.796875 1.21875,-2.71875 1.21875,-3.3125 c 0,-0.640625 0,-1.296875 0.078125,-1.828125 0.1875,-1.1875 0.9375,-1.28125 1.1875,-1.28125 0.328125,0 0.984375,0.1875 1.171875,1.171875 0.109375,0.5625 0.109375,1.3125 0.109375,1.9375 0,0.75 0,1.421875 -0.109375,2.0625 C 3.5,-0.296875 2.9375,0 2.484375,0 Z m 0,0" style="stroke:none"></path></g></g></g><g style="fill:#000000;fill-opacity:1" id="id-f4a69cb0-795d-4879-956a-793a601f25f8" transform="matrix(0.529167,0,0,0.529167,-21.139236,34.899617)"><g id="g4025" transform="translate(133.768,146.72)"><path style="stroke:none" d="m 4.578125,-3.1875 c 0,-0.796875 -0.046875,-1.59375 -0.390625,-2.328125 -0.453125,-0.96875 -1.28125,-1.125 -1.6875,-1.125 -0.609375,0 -1.328125,0.265625 -1.75,1.1875 -0.3125,0.6875 -0.359375,1.46875 -0.359375,2.265625 0,0.75 0.03125,1.640625 0.453125,2.40625 0.421875,0.796875 1.15625,1 1.640625,1 0.53125,0 1.296875,-0.203125 1.734375,-1.15625 0.3125,-0.6875 0.359375,-1.46875 0.359375,-2.25 z M 2.484375,0 C 2.09375,0 1.5,-0.25 1.328125,-1.203125 1.21875,-1.796875 1.21875,-2.71875 1.21875,-3.3125 c 0,-0.640625 0,-1.296875 0.078125,-1.828125 0.1875,-1.1875 0.9375,-1.28125 1.1875,-1.28125 0.328125,0 0.984375,0.1875 1.171875,1.171875 0.109375,0.5625 0.109375,1.3125 0.109375,1.9375 0,0.75 0,1.421875 -0.109375,2.0625 C 3.5,-0.296875 2.9375,0 2.484375,0 Z m 0,0" id="id-d6e588c0-d2e1-4671-8bbc-cd331719d89f"></path></g></g><g style="fill:#000000;fill-opacity:1" id="id-ea2c499c-bc67-4ff6-afcc-aff0e0ad8d50" transform="matrix(0.529167,0,0,0.529167,-21.139236,34.899617)"><g id="g4029" transform="translate(140.961,146.72)"><path style="stroke:none" d="m 4.078125,-2.296875 h 2.78125 C 7,-2.296875 7.1875,-2.296875 7.1875,-2.5 7.1875,-2.6875 7,-2.6875 6.859375,-2.6875 h -2.78125 v -2.796875 c 0,-0.140625 0,-0.328125 -0.203125,-0.328125 -0.203125,0 -0.203125,0.1875 -0.203125,0.328125 V -2.6875 h -2.78125 c -0.140625,0 -0.328125,0 -0.328125,0.1875 0,0.203125 0.1875,0.203125 0.328125,0.203125 h 2.78125 V 0.5 c 0,0.140625 0,0.328125 0.203125,0.328125 0.203125,0 0.203125,-0.1875 0.203125,-0.328125 z m 0,0" id="id-5abccfda-243d-4480-9851-d05c0b19d9e9"></path></g></g><g style="fill:#000000;fill-opacity:1" id="id-2d8aeb46-9b5f-450d-a141-f922d1dd89dc" transform="matrix(0.529167,0,0,0.529167,-21.139236,34.899617)"><g id="g4033" transform="translate(150.922,146.72)"><path style="stroke:none" d="m 2.9375,-6.375 c 0,-0.25 0,-0.265625 -0.234375,-0.265625 C 2.078125,-6 1.203125,-6 0.890625,-6 v 0.3125 c 0.203125,0 0.78125,0 1.296875,-0.265625 v 5.171875 c 0,0.359375 -0.03125,0.46875 -0.921875,0.46875 h -0.3125 V 0 c 0.34375,-0.03125 1.203125,-0.03125 1.609375,-0.03125 0.390625,0 1.265625,0 1.609375,0.03125 v -0.3125 h -0.3125 c -0.90625,0 -0.921875,-0.109375 -0.921875,-0.46875 z m 0,0" id="id-5e0b9857-111d-4d10-9d26-acd2dc609706"></path></g></g><g style="fill:#000000;fill-opacity:1" id="id-9388e24c-97f4-4dc5-8d3a-a748367d8610" transform="matrix(0.529167,0,0,0.529167,-21.139236,34.899617)"><g id="g4037" transform="translate(158.673,146.72)"><path style="stroke:none" d="m 6.84375,-3.265625 c 0.15625,0 0.34375,0 0.34375,-0.1875 C 7.1875,-3.65625 7,-3.65625 6.859375,-3.65625 h -5.96875 c -0.140625,0 -0.328125,0 -0.328125,0.203125 0,0.1875 0.1875,0.1875 0.328125,0.1875 z m 0.015625,1.9375 c 0.140625,0 0.328125,0 0.328125,-0.203125 0,-0.1875 -0.1875,-0.1875 -0.34375,-0.1875 H 0.890625 c -0.140625,0 -0.328125,0 -0.328125,0.1875 0,0.203125 0.1875,0.203125 0.328125,0.203125 z m 0,0" id="id-47252808-395c-449d-899e-79cb7dd13217"></path></g></g><g style="fill:#000000;fill-opacity:1" id="id-2d99f082-21c5-40a4-a41f-64058101596b" transform="matrix(0.529167,0,0,0.529167,-21.139236,34.899617)"><g id="g4041" transform="translate(169.191,146.72)"><path style="stroke:none" d="m 4.578125,-3.1875 c 0,-0.796875 -0.046875,-1.59375 -0.390625,-2.328125 -0.453125,-0.96875 -1.28125,-1.125 -1.6875,-1.125 -0.609375,0 -1.328125,0.265625 -1.75,1.1875 -0.3125,0.6875 -0.359375,1.46875 -0.359375,2.265625 0,0.75 0.03125,1.640625 0.453125,2.40625 0.421875,0.796875 1.15625,1 1.640625,1 0.53125,0 1.296875,-0.203125 1.734375,-1.15625 0.3125,-0.6875 0.359375,-1.46875 0.359375,-2.25 z M 2.484375,0 C 2.09375,0 1.5,-0.25 1.328125,-1.203125 1.21875,-1.796875 1.21875,-2.71875 1.21875,-3.3125 c 0,-0.640625 0,-1.296875 0.078125,-1.828125 0.1875,-1.1875 0.9375,-1.28125 1.1875,-1.28125 0.328125,0 0.984375,0.1875 1.171875,1.171875 0.109375,0.5625 0.109375,1.3125 0.109375,1.9375 0,0.75 0,1.421875 -0.109375,2.0625 C 3.5,-0.296875 2.9375,0 2.484375,0 Z m 0,0" id="id-d499839a-be38-4132-b596-6cc3f966f69b"></path></g><g id="g4044" transform="translate(174.172,146.72)"><path style="stroke:none" d="m 2.9375,-6.375 c 0,-0.25 0,-0.265625 -0.234375,-0.265625 C 2.078125,-6 1.203125,-6 0.890625,-6 v 0.3125 c 0.203125,0 0.78125,0 1.296875,-0.265625 v 5.171875 c 0,0.359375 -0.03125,0.46875 -0.921875,0.46875 h -0.3125 V 0 c 0.34375,-0.03125 1.203125,-0.03125 1.609375,-0.03125 0.390625,0 1.265625,0 1.609375,0.03125 v -0.3125 h -0.3125 c -0.90625,0 -0.921875,-0.109375 -0.921875,-0.46875 z m 0,0" id="id-28b5648b-5347-47e0-a4d8-59de7c6f7f1c"></path></g></g><g style="fill:#000000;fill-opacity:1" id="id-697bcb34-aab3-4b5e-b197-cb50da4600f3" transform="matrix(0.529167,0,0,0.529167,-21.139236,34.899617)"><g id="g4048" transform="translate(133.768,158.675)"><path style="stroke:none" d="m 2.9375,-6.375 c 0,-0.25 0,-0.265625 -0.234375,-0.265625 C 2.078125,-6 1.203125,-6 0.890625,-6 v 0.3125 c 0.203125,0 0.78125,0 1.296875,-0.265625 v 5.171875 c 0,0.359375 -0.03125,0.46875 -0.921875,0.46875 h -0.3125 V 0 c 0.34375,-0.03125 1.203125,-0.03125 1.609375,-0.03125 0.390625,0 1.265625,0 1.609375,0.03125 v -0.3125 h -0.3125 c -0.90625,0 -0.921875,-0.109375 -0.921875,-0.46875 z m 0,0" id="id-faaa64f6-0821-49c9-b992-a2fb1d2d64e4"></path></g></g><g style="fill:#000000;fill-opacity:1" id="id-03b5bbb8-ec01-4564-b28a-93ec5cdddbaf" transform="matrix(0.529167,0,0,0.529167,-21.139236,34.899617)"><g id="g4052" transform="translate(140.961,158.675)"><path style="stroke:none" d="m 4.078125,-2.296875 h 2.78125 C 7,-2.296875 7.1875,-2.296875 7.1875,-2.5 7.1875,-2.6875 7,-2.6875 6.859375,-2.6875 h -2.78125 v -2.796875 c 0,-0.140625 0,-0.328125 -0.203125,-0.328125 -0.203125,0 -0.203125,0.1875 -0.203125,0.328125 V -2.6875 h -2.78125 c -0.140625,0 -0.328125,0 -0.328125,0.1875 0,0.203125 0.1875,0.203125 0.328125,0.203125 h 2.78125 V 0.5 c 0,0.140625 0,0.328125 0.203125,0.328125 0.203125,0 0.203125,-0.1875 0.203125,-0.328125 z m 0,0" id="id-b20c8a3d-2e5a-426d-8d8a-42df83d8aa8e"></path></g></g><g style="fill:#000000;fill-opacity:1" id="id-8da0a149-f4a6-48ed-be3b-85e898d0569c" transform="matrix(0.529167,0,0,0.529167,-21.139236,34.899617)"><g id="g4056" transform="translate(150.922,158.675)"><path style="stroke:none" d="m 4.578125,-3.1875 c 0,-0.796875 -0.046875,-1.59375 -0.390625,-2.328125 -0.453125,-0.96875 -1.28125,-1.125 -1.6875,-1.125 -0.609375,0 -1.328125,0.265625 -1.75,1.1875 -0.3125,0.6875 -0.359375,1.46875 -0.359375,2.265625 0,0.75 0.03125,1.640625 0.453125,2.40625 0.421875,0.796875 1.15625,1 1.640625,1 0.53125,0 1.296875,-0.203125 1.734375,-1.15625 0.3125,-0.6875 0.359375,-1.46875 0.359375,-2.25 z M 2.484375,0 C 2.09375,0 1.5,-0.25 1.328125,-1.203125 1.21875,-1.796875 1.21875,-2.71875 1.21875,-3.3125 c 0,-0.640625 0,-1.296875 0.078125,-1.828125 0.1875,-1.1875 0.9375,-1.28125 1.1875,-1.28125 0.328125,0 0.984375,0.1875 1.171875,1.171875 0.109375,0.5625 0.109375,1.3125 0.109375,1.9375 0,0.75 0,1.421875 -0.109375,2.0625 C 3.5,-0.296875 2.9375,0 2.484375,0 Z m 0,0" id="id-7b494890-8133-44d3-adad-bfda309c3188"></path></g></g><g style="fill:#000000;fill-opacity:1" id="id-ff24432d-eacc-44ac-9a74-d8bec3751bcd" transform="matrix(0.529167,0,0,0.529167,-21.139236,34.899617)"><g id="g4060" transform="translate(158.673,158.675)"><path style="stroke:none" d="m 6.84375,-3.265625 c 0.15625,0 0.34375,0 0.34375,-0.1875 C 7.1875,-3.65625 7,-3.65625 6.859375,-3.65625 h -5.96875 c -0.140625,0 -0.328125,0 -0.328125,0.203125 0,0.1875 0.1875,0.1875 0.328125,0.1875 z m 0.015625,1.9375 c 0.140625,0 0.328125,0 0.328125,-0.203125 0,-0.1875 -0.1875,-0.1875 -0.34375,-0.1875 H 0.890625 c -0.140625,0 -0.328125,0 -0.328125,0.1875 0,0.203125 0.1875,0.203125 0.328125,0.203125 z m 0,0" id="id-dff4bed8-f606-4021-8ca6-960455e94d58"></path></g></g><g style="fill:#000000;fill-opacity:1" id="id-0a2d9320-eaab-4605-8745-dadbc116d0f9" transform="matrix(0.529167,0,0,0.529167,-21.139236,34.899617)"><g id="g4064" transform="translate(169.191,158.675)"><path style="stroke:none" d="m 4.578125,-3.1875 c 0,-0.796875 -0.046875,-1.59375 -0.390625,-2.328125 -0.453125,-0.96875 -1.28125,-1.125 -1.6875,-1.125 -0.609375,0 -1.328125,0.265625 -1.75,1.1875 -0.3125,0.6875 -0.359375,1.46875 -0.359375,2.265625 0,0.75 0.03125,1.640625 0.453125,2.40625 0.421875,0.796875 1.15625,1 1.640625,1 0.53125,0 1.296875,-0.203125 1.734375,-1.15625 0.3125,-0.6875 0.359375,-1.46875 0.359375,-2.25 z M 2.484375,0 C 2.09375,0 1.5,-0.25 1.328125,-1.203125 1.21875,-1.796875 1.21875,-2.71875 1.21875,-3.3125 c 0,-0.640625 0,-1.296875 0.078125,-1.828125 0.1875,-1.1875 0.9375,-1.28125 1.1875,-1.28125 0.328125,0 0.984375,0.1875 1.171875,1.171875 0.109375,0.5625 0.109375,1.3125 0.109375,1.9375 0,0.75 0,1.421875 -0.109375,2.0625 C 3.5,-0.296875 2.9375,0 2.484375,0 Z m 0,0" id="id-68e215b8-7b83-41d3-92b3-c0c19dfeafbd"></path></g><g id="g4067" transform="translate(174.172,158.675)"><path style="stroke:none" d="m 2.9375,-6.375 c 0,-0.25 0,-0.265625 -0.234375,-0.265625 C 2.078125,-6 1.203125,-6 0.890625,-6 v 0.3125 c 0.203125,0 0.78125,0 1.296875,-0.265625 v 5.171875 c 0,0.359375 -0.03125,0.46875 -0.921875,0.46875 h -0.3125 V 0 c 0.34375,-0.03125 1.203125,-0.03125 1.609375,-0.03125 0.390625,0 1.265625,0 1.609375,0.03125 v -0.3125 h -0.3125 c -0.90625,0 -0.921875,-0.109375 -0.921875,-0.46875 z m 0,0" id="id-48fe3492-8e0c-4bcf-8d05-5eceb81721e0"></path></g></g><g style="fill:#000000;fill-opacity:1" id="id-243cc582-75d6-4c3a-8401-682c21706e8f" transform="matrix(0.529167,0,0,0.529167,-21.139236,34.899617)"><g id="g4071" transform="translate(133.768,170.63)"><path style="stroke:none" d="m 2.9375,-6.375 c 0,-0.25 0,-0.265625 -0.234375,-0.265625 C 2.078125,-6 1.203125,-6 0.890625,-6 v 0.3125 c 0.203125,0 0.78125,0 1.296875,-0.265625 v 5.171875 c 0,0.359375 -0.03125,0.46875 -0.921875,0.46875 h -0.3125 V 0 c 0.34375,-0.03125 1.203125,-0.03125 1.609375,-0.03125 0.390625,0 1.265625,0 1.609375,0.03125 v -0.3125 h -0.3125 c -0.90625,0 -0.921875,-0.109375 -0.921875,-0.46875 z m 0,0" id="id-adf21911-0f5f-4d2c-9b5b-345f76b51115"></path></g></g><g style="fill:#000000;fill-opacity:1" id="id-884757f4-1ddb-4d58-8657-17985d170cd4" transform="matrix(0.529167,0,0,0.529167,-21.139236,34.899617)"><g id="g4075" transform="translate(140.961,170.63)"><path style="stroke:none" d="m 4.078125,-2.296875 h 2.78125 C 7,-2.296875 7.1875,-2.296875 7.1875,-2.5 7.1875,-2.6875 7,-2.6875 6.859375,-2.6875 h -2.78125 v -2.796875 c 0,-0.140625 0,-0.328125 -0.203125,-0.328125 -0.203125,0 -0.203125,0.1875 -0.203125,0.328125 V -2.6875 h -2.78125 c -0.140625,0 -0.328125,0 -0.328125,0.1875 0,0.203125 0.1875,0.203125 0.328125,0.203125 h 2.78125 V 0.5 c 0,0.140625 0,0.328125 0.203125,0.328125 0.203125,0 0.203125,-0.1875 0.203125,-0.328125 z m 0,0" id="id-a0eda11d-777d-49fe-984a-0109a6ea80d8"></path></g></g><g style="fill:#000000;fill-opacity:1" id="id-1084c807-912f-4b7d-aedc-5e248ba57142" transform="matrix(0.529167,0,0,0.529167,-21.139236,34.899617)"><g id="g4079" transform="translate(150.922,170.63)"><path style="stroke:none" d="m 2.9375,-6.375 c 0,-0.25 0,-0.265625 -0.234375,-0.265625 C 2.078125,-6 1.203125,-6 0.890625,-6 v 0.3125 c 0.203125,0 0.78125,0 1.296875,-0.265625 v 5.171875 c 0,0.359375 -0.03125,0.46875 -0.921875,0.46875 h -0.3125 V 0 c 0.34375,-0.03125 1.203125,-0.03125 1.609375,-0.03125 0.390625,0 1.265625,0 1.609375,0.03125 v -0.3125 h -0.3125 c -0.90625,0 -0.921875,-0.109375 -0.921875,-0.46875 z m 0,0" id="id-1c940437-fd0c-4c14-a677-78f45ca1cd13"></path></g></g><g style="fill:#000000;fill-opacity:1" id="id-c2889791-07c2-4792-91b8-4e84607e908e" transform="matrix(0.529167,0,0,0.529167,-21.139236,34.899617)"><g id="g4083" transform="translate(158.673,170.63)"><path style="stroke:none" d="m 6.84375,-3.265625 c 0.15625,0 0.34375,0 0.34375,-0.1875 C 7.1875,-3.65625 7,-3.65625 6.859375,-3.65625 h -5.96875 c -0.140625,0 -0.328125,0 -0.328125,0.203125 0,0.1875 0.1875,0.1875 0.328125,0.1875 z m 0.015625,1.9375 c 0.140625,0 0.328125,0 0.328125,-0.203125 0,-0.1875 -0.1875,-0.1875 -0.34375,-0.1875 H 0.890625 c -0.140625,0 -0.328125,0 -0.328125,0.1875 0,0.203125 0.1875,0.203125 0.328125,0.203125 z m 0,0" id="id-d817d652-5ccc-49f7-884b-ced09e7a31f0"></path></g></g><g style="fill:#000000;fill-opacity:1" id="id-045773e6-80a3-447e-9eec-d822712575a6" transform="matrix(0.529167,0,0,0.529167,-21.139236,34.899617)"><g id="g4087" transform="translate(169.191,170.63)"><path style="stroke:none" d="m 2.9375,-6.375 c 0,-0.25 0,-0.265625 -0.234375,-0.265625 C 2.078125,-6 1.203125,-6 0.890625,-6 v 0.3125 c 0.203125,0 0.78125,0 1.296875,-0.265625 v 5.171875 c 0,0.359375 -0.03125,0.46875 -0.921875,0.46875 h -0.3125 V 0 c 0.34375,-0.03125 1.203125,-0.03125 1.609375,-0.03125 0.390625,0 1.265625,0 1.609375,0.03125 v -0.3125 h -0.3125 c -0.90625,0 -0.921875,-0.109375 -0.921875,-0.46875 z m 0,0" id="id-17c19268-ec77-4cd3-b805-b74d27e8c9d0"></path></g><g id="g4090" transform="translate(174.172,170.63)"><path style="stroke:none" d="m 4.578125,-3.1875 c 0,-0.796875 -0.046875,-1.59375 -0.390625,-2.328125 -0.453125,-0.96875 -1.28125,-1.125 -1.6875,-1.125 -0.609375,0 -1.328125,0.265625 -1.75,1.1875 -0.3125,0.6875 -0.359375,1.46875 -0.359375,2.265625 0,0.75 0.03125,1.640625 0.453125,2.40625 0.421875,0.796875 1.15625,1 1.640625,1 0.53125,0 1.296875,-0.203125 1.734375,-1.15625 0.3125,-0.6875 0.359375,-1.46875 0.359375,-2.25 z M 2.484375,0 C 2.09375,0 1.5,-0.25 1.328125,-1.203125 1.21875,-1.796875 1.21875,-2.71875 1.21875,-3.3125 c 0,-0.640625 0,-1.296875 0.078125,-1.828125 0.1875,-1.1875 0.9375,-1.28125 1.1875,-1.28125 0.328125,0 0.984375,0.1875 1.171875,1.171875 0.109375,0.5625 0.109375,1.3125 0.109375,1.9375 0,0.75 0,1.421875 -0.109375,2.0625 C 3.5,-0.296875 2.9375,0 2.484375,0 Z m 0,0" id="id-8e096add-a2f2-42a1-9d64-3835e930b7e1"></path></g></g></g><path sodipodi:nodetypes="ccc" id="path4419" d="m 50.295381,96.408654 0.819916,2.024093 v 2.472233" style="fill:none;stroke:#003399;stroke-width:0.265;stroke-linecap:butt;stroke-linejoin:miter;stroke-miterlimit:4;stroke-dasharray:none;stroke-opacity:1;marker-end:url(#Arrow2Mend)"></path><path style="fill:none;stroke:#003399;stroke-width:0.264999;stroke-linecap:butt;stroke-linejoin:miter;stroke-miterlimit:4;stroke-dasharray:none;stroke-opacity:1;marker-end:url(#Arrow2Mend-6)" d="m 57.490653,96.674822 2.544432,2.071336 v 2.472232" id="path4419-9"></path><path sodipodi:nodetypes="ccc" style="fill:none;stroke:#003399;stroke-width:0.264999;stroke-linecap:butt;stroke-linejoin:miter;stroke-miterlimit:4;stroke-dasharray:none;stroke-opacity:1;marker-end:url(#Arrow2Mend-62)" d="m 67.175815,96.78078 2.213703,2.165834 v 2.472226" id="path4419-1"></path><path style="fill:none;stroke:#003399;stroke-width:0.264999;stroke-linecap:butt;stroke-linejoin:miter;stroke-miterlimit:4;stroke-dasharray:none;stroke-opacity:1;marker-end:url(#Arrow2Mend-1)" d="m 74.874581,96.741639 -2.544432,2.071336 v 2.472235" id="path4419-4"></path></g></svg> 