<?xml version="1.0" encoding="UTF-8" standalone="no"?> <svg xmlns:ns6="http://www.iki.fi/pav/software/textext/" xmlns:dc="http://purl.org/dc/elements/1.1/" xmlns:cc="http://creativecommons.org/ns#" xmlns:rdf="http://www.w3.org/1999/02/22-rdf-syntax-ns#" xmlns:svg="http://www.w3.org/2000/svg" xmlns="http://www.w3.org/2000/svg" xmlns:sodipodi="http://sodipodi.sourceforge.net/DTD/sodipodi-0.dtd" xmlns:inkscape="http://www.inkscape.org/namespaces/inkscape" width="139.95213mm" height="158.88951mm" viewBox="0 0 139.95213 158.88951" version="1.1" id="svg8" sodipodi:docname="bloch_sphere.svg" inkscape:version="1.0.2-2 (e86c870879, 2021-01-15)"><defs id="defs2"><marker style="overflow:visible" id="marker1439" refX="0" refY="0" orient="auto" inkscape:stockid="Arrow2Mend" inkscape:isstock="true"><path transform="scale(-0.6)" d="M 8.7185878,4.0337352 -2.2072895,0.01601326 8.7185884,-4.0017078 c -1.7454984,2.3720609 -1.7354408,5.6174519 -6e-7,8.035443 z" style="fill:#1a5fb4;fill-opacity:1;fill-rule:evenodd;stroke:#1a5fb4;stroke-width:0.625;stroke-linejoin:round;stroke-opacity:1" id="path1437"></path></marker><marker style="overflow:visible" id="Arrow1Send" refX="0" refY="0" orient="auto" inkscape:stockid="Arrow1Send" inkscape:isstock="true"><path transform="matrix(-0.2,0,0,-0.2,-1.2,0)" style="fill:#1a5fb4;fill-opacity:1;fill-rule:evenodd;stroke:#1a5fb4;stroke-width:1pt;stroke-opacity:1" d="M 0,0 5,-5 -12.5,0 5,5 Z" id="path930"></path></marker><marker style="overflow:visible" id="Arrow2Mend" refX="0" refY="0" orient="auto" inkscape:stockid="Arrow2Mend" inkscape:isstock="true"><path transform="scale(-0.6)" d="M 8.7185878,4.0337352 -2.2072895,0.01601326 8.7185884,-4.0017078 c -1.7454984,2.3720609 -1.7354408,5.6174519 -6e-7,8.035443 z" style="fill:#000000;fill-opacity:1;fill-rule:evenodd;stroke:#000000;stroke-width:0.625;stroke-linejoin:round;stroke-opacity:1" id="path942"></path></marker><marker style="overflow:visible" id="Arrow2Mend-0" refX="0" refY="0" orient="auto" inkscape:stockid="Arrow2Mend" inkscape:isstock="true" inkscape:collect="always"><path transform="scale(-0.6)" d="M 8.7185878,4.0337352 -2.2072895,0.01601326 8.7185884,-4.0017078 c -1.7454984,2.3720609 -1.7354408,5.6174519 -6e-7,8.035443 z" style="fill:#000000;fill-opacity:1;fill-rule:evenodd;stroke:#000000;stroke-width:0.625;stroke-linejoin:round;stroke-opacity:1" id="path942-0"></path></marker><marker style="overflow:visible" id="Arrow2Mend-0-0" refX="0" refY="0" orient="auto" inkscape:stockid="Arrow2Mend" inkscape:isstock="true"><path transform="scale(-0.6)" d="M 8.7185878,4.0337352 -2.2072895,0.01601326 8.7185884,-4.0017078 c -1.7454984,2.3720609 -1.7354408,5.6174519 -6e-7,8.035443 z" style="fill:#000000;fill-opacity:1;fill-rule:evenodd;stroke:#000000;stroke-width:0.625;stroke-linejoin:round;stroke-opacity:1" id="path942-0-6"></path></marker><marker style="overflow:visible" id="Arrow2Mend-6" refX="0" refY="0" orient="auto" inkscape:stockid="Arrow2Mend" inkscape:isstock="true"><path transform="scale(-0.6)" d="M 8.7185878,4.0337352 -2.2072895,0.01601326 8.7185884,-4.0017078 c -1.7454984,2.3720609 -1.7354408,5.6174519 -6e-7,8.035443 z" style="fill:#c0bfbc;fill-opacity:1;fill-rule:evenodd;stroke:#c0bfbc;stroke-width:0.625;stroke-linejoin:round;stroke-opacity:1" id="path942-01"></path></marker><defs id="id-ab7724ac-f9b9-463f-aa80-4ea09e14a228"><g id="id-4cc13e56-af5c-43bc-a697-36587020ee10"><symbol overflow="visible" id="id-96ef1b25-2aef-43bb-883c-aa86b364ef00"><path style="stroke:none;stroke-width:0" d="" id="id-bd9d8a7c-16e0-485a-9c25-cc899698c089"></path></symbol><symbol overflow="visible" id="id-8e60bc88-a157-4306-b726-99342c3d1870"><path style="stroke:none;stroke-width:0" d="m 1.578125,-7.125 c 0,-0.171875 0,-0.359375 -0.1875,-0.359375 -0.203125,0 -0.203125,0.1875 -0.203125,0.359375 v 9.265625 c 0,0.171875 0,0.359375 0.203125,0.359375 0.1875,0 0.1875,-0.1875 0.1875,-0.359375 z m 0,0" id="id-106bff5d-7d98-456d-b2f4-0140e2b94e83"></path></symbol><symbol overflow="visible" id="id-f06fd360-aa0c-4e70-8dbb-632f04babbb0"><path style="stroke:none;stroke-width:0" d="M 2.71875,-2.328125 C 2.765625,-2.4375 2.765625,-2.46875 2.765625,-2.5 c 0,-0.015625 0,-0.046875 -0.046875,-0.15625 L 0.984375,-7.25 c -0.0625,-0.171875 -0.125,-0.234375 -0.234375,-0.234375 -0.109375,0 -0.203125,0.09375 -0.203125,0.203125 0,0.03125 0,0.046875 0.046875,0.15625 L 2.359375,-2.5 0.59375,2.109375 C 0.546875,2.21875 0.546875,2.25 0.546875,2.296875 0.546875,2.40625 0.640625,2.5 0.75,2.5 0.875,2.5 0.921875,2.390625 0.953125,2.296875 Z m 0,0" id="id-bddb5a13-4d7e-48a8-9817-30f9abe38229"></path></symbol><symbol overflow="visible" id="id-73f63377-dbf4-4925-93db-cd2088bdd7a3"><path style="stroke:none;stroke-width:0" d="" id="id-70c8da75-506f-490b-86e7-5cf4b09cabe4"></path></symbol><symbol overflow="visible" id="id-fbea7d4c-b3bd-40ba-b358-24afea6f4d31"><path style="stroke:none;stroke-width:0" d="m 4.578125,-3.1875 c 0,-0.796875 -0.046875,-1.59375 -0.390625,-2.328125 -0.453125,-0.96875 -1.28125,-1.125 -1.6875,-1.125 -0.609375,0 -1.328125,0.265625 -1.75,1.1875 -0.3125,0.6875 -0.359375,1.46875 -0.359375,2.265625 0,0.75 0.03125,1.640625 0.453125,2.40625 0.421875,0.796875 1.15625,1 1.640625,1 0.53125,0 1.296875,-0.203125 1.734375,-1.15625 0.3125,-0.6875 0.359375,-1.46875 0.359375,-2.25 z M 2.484375,0 C 2.09375,0 1.5,-0.25 1.328125,-1.203125 1.21875,-1.796875 1.21875,-2.71875 1.21875,-3.3125 c 0,-0.640625 0,-1.296875 0.078125,-1.828125 0.1875,-1.1875 0.9375,-1.28125 1.1875,-1.28125 0.328125,0 0.984375,0.1875 1.171875,1.171875 0.109375,0.5625 0.109375,1.3125 0.109375,1.9375 0,0.75 0,1.421875 -0.109375,2.0625 C 3.5,-0.296875 2.9375,0 2.484375,0 Z m 0,0" id="id-f5e74fee-51ed-4281-9765-3a5515386a66"></path></symbol><symbol overflow="visible" id="id-532f9d1e-b180-4e3b-a8f1-22bc8d1fa08e"><path style="stroke:none;stroke-width:0" d="m 2.9375,-6.375 c 0,-0.25 0,-0.265625 -0.234375,-0.265625 C 2.078125,-6 1.203125,-6 0.890625,-6 v 0.3125 c 0.203125,0 0.78125,0 1.296875,-0.265625 v 5.171875 c 0,0.359375 -0.03125,0.46875 -0.921875,0.46875 h -0.3125 V 0 c 0.34375,-0.03125 1.203125,-0.03125 1.609375,-0.03125 0.390625,0 1.265625,0 1.609375,0.03125 v -0.3125 h -0.3125 c -0.90625,0 -0.921875,-0.109375 -0.921875,-0.46875 z m 0,0" id="id-5a937f3b-06c4-4f69-a048-27a41dd539eb"></path></symbol></g></defs><defs id="id-92413916-81ed-4eca-a4d4-352a633d1085"><g id="id-faf49f13-7e43-4434-9f5d-a992d1a79c60"><symbol overflow="visible" id="id-650f51a5-3163-41af-a277-3ea3ae807fd9"><path style="stroke:none;stroke-width:0" d="" id="id-d31dda3f-766b-4d46-acdd-dd52794b2945"></path></symbol><symbol overflow="visible" id="id-2df6fcf6-2dc5-4bc6-b09d-48908dd56030"><path style="stroke:none;stroke-width:0" d="M 3.453125,-2.453125 4.609375,-3.75 C 4.75,-3.890625 4.8125,-3.953125 5.625,-3.953125 v -0.46875 c -0.34375,0.015625 -0.859375,0.03125 -0.90625,0.03125 -0.25,0 -0.75,-0.03125 -1.03125,-0.03125 v 0.46875 c 0.140625,0 0.265625,0.015625 0.375,0.078125 -0.03125,0.0625 -0.03125,0.09375 -0.078125,0.125 L 3.15625,-2.8125 2.171875,-3.953125 h 0.40625 v -0.46875 c -0.265625,0 -0.890625,0.03125 -1.21875,0.03125 -0.3125,0 -0.765625,-0.03125 -1.09375,-0.03125 v 0.46875 h 0.71875 L 2.53125,-2.125 1.21875,-0.65625 c -0.15625,0.1875 -0.515625,0.1875 -1,0.1875 V 0 c 0.34375,-0.015625 0.875,-0.03125 0.921875,-0.03125 0.25,0 0.828125,0.015625 1.015625,0.03125 v -0.46875 c -0.171875,0 -0.359375,-0.046875 -0.359375,-0.109375 0,-0.015625 0,-0.015625 0.0625,-0.09375 l 0.96875,-1.09375 1.09375,1.296875 H 3.53125 V 0 c 0.265625,-0.015625 0.875,-0.03125 1.203125,-0.03125 0.3125,0 0.765625,0.015625 1.09375,0.03125 V -0.46875 H 5.125 Z m 0,0" id="id-386e7839-b24f-4652-9f27-00689838f24f"></path></symbol><symbol overflow="visible" id="id-a2001886-0df4-45bd-b168-f8873ef35ef6"><path style="stroke:none;stroke-width:0" d="m 5.046875,-3.75 c 0.0625,-0.140625 0.09375,-0.203125 0.734375,-0.203125 v -0.46875 C 5.546875,-4.40625 5.25,-4.390625 5,-4.390625 c -0.25,0 -0.703125,-0.03125 -0.90625,-0.03125 v 0.46875 c 0.015625,0 0.46875,0 0.46875,0.109375 0,0.015625 -0.046875,0.109375 -0.0625,0.125 L 3.359375,-1.265625 2.09375,-3.953125 H 2.625 v -0.46875 c -0.328125,0.015625 -1.21875,0.03125 -1.234375,0.03125 -0.28125,0 -0.71875,-0.03125 -1.125,-0.03125 v 0.46875 h 0.625 L 2.765625,0 2.53125,0.484375 C 2.3125,0.953125 2,1.640625 1.28125,1.640625 1.140625,1.640625 1.125,1.625 1.046875,1.59375 1.140625,1.5625 1.359375,1.421875 1.359375,1.0625 1.359375,0.734375 1.125,0.5 0.78125,0.5 0.515625,0.5 0.21875,0.6875 0.21875,1.078125 0.21875,1.578125 0.6875,2 1.28125,2 2.046875,2 2.625,1.375 2.90625,0.8125 Z m 0,0" id="id-5e992890-7b09-452b-9b65-919fbe0423b0"></path></symbol></g></defs></defs><metadata id="metadata5"></metadata><g inkscape:label="Layer 1" inkscape:groupmode="layer" id="layer1" transform="translate(-33.767284,-2.6161706)"><path style="fill:none;stroke:#c0bfbc;stroke-width:0.865;stroke-linecap:butt;stroke-linejoin:miter;stroke-miterlimit:4;stroke-dasharray:none;stroke-opacity:1;marker-end:url(#Arrow2Mend-6)" d="M 97.891469,82.049038 V 144.7036" id="path893-2"></path><circle style="fill:none;stroke:#000000;stroke-width:0.665001;stroke-linecap:round;stroke-linejoin:round;stroke-opacity:0.919679" id="path847" cx="97.709938" cy="82.230568" r="63.610153"></circle><ellipse style="fill:none;stroke:#000000;stroke-width:0.665;stroke-linecap:round;stroke-linejoin:round;stroke-miterlimit:4;stroke-dasharray:2.66, 2.66;stroke-dashoffset:0;stroke-opacity:0.919679" id="path847-5" cx="97.709938" cy="82.230568" rx="63.610153" ry="29.533287"></ellipse><path style="fill:none;stroke:#000000;stroke-width:0.865;stroke-linecap:butt;stroke-linejoin:miter;stroke-miterlimit:4;stroke-dasharray:none;stroke-opacity:1;marker-end:url(#Arrow2Mend)" d="M 97.851063,82.230569 V 19.57601" id="path893"></path><path style="fill:none;stroke:#000000;stroke-width:0.865;stroke-linecap:butt;stroke-linejoin:miter;stroke-miterlimit:4;stroke-dasharray:none;stroke-opacity:1;marker-end:url(#Arrow2Mend-0)" d="M 97.709938,82.23888 H 160.3645" id="path893-6"></path><path style="fill:none;stroke:#000000;stroke-width:0.865002;stroke-linecap:butt;stroke-linejoin:miter;stroke-miterlimit:4;stroke-dasharray:none;stroke-opacity:1;marker-end:url(#Arrow2Mend-0-0)" d="M 97.891469,82.049038 71.227422,108.71319" id="path893-6-4"></path><path style="fill:none;stroke:#1a5fb4;stroke-width:1.165;stroke-linecap:butt;stroke-linejoin:miter;stroke-miterlimit:4;stroke-dasharray:none;stroke-opacity:1;marker-end:url(#marker1439)" d="M 97.902586,82.227905 121.44169,44.815725" id="path1391"></path><path style="fill:none;stroke:#000000;stroke-width:0.7;stroke-linecap:butt;stroke-linejoin:miter;stroke-miterlimit:4;stroke-dasharray:none;stroke-opacity:1" d="m 97.854019,67.092124 c 0,0 4.139581,-0.712117 7.782731,2.84338" id="path1489"></path><path style="fill:none;stroke:#000000;stroke-width:0.665;stroke-linecap:butt;stroke-linejoin:miter;stroke-miterlimit:4;stroke-dasharray:0.665, 1.33;stroke-dashoffset:0;stroke-opacity:1" d="M 97.851062,82.230569 122.29873,98.534001 V 43.47648" id="path1491"></path><path style="fill:none;stroke:#000000;stroke-width:0.7;stroke-linecap:butt;stroke-linejoin:miter;stroke-miterlimit:4;stroke-dasharray:none;stroke-opacity:1" d="m 92.198192,87.845117 c -0.03007,0.105254 6.268313,2.982275 13.050478,-0.6813" id="path1489-4" sodipodi:nodetypes="cc"></path><text xml:space="preserve" style="font-style:normal;font-variant:normal;font-weight:normal;font-stretch:normal;font-size:4.5861px;line-height:1.25;font-family:Symbol;-inkscape-font-specification:Symbol;letter-spacing:0px;word-spacing:0px;stroke-width:0.264583" x="105.30419" y="48.509422" id="text1709"><tspan sodipodi:role="line" id="tspan1707" x="105.30419" y="48.509422" style="font-style:normal;font-variant:normal;font-weight:normal;font-stretch:normal;font-family:Symbol;-inkscape-font-specification:Symbol;stroke-width:0.264583"></tspan></text><g id="g1974" transform="matrix(0.90929784,0,0,0.90929784,9.5615483,1.695458)" style="stroke-width:1.09975"><g style="fill:#000000;fill-opacity:1;stroke-width:0.381397" id="id-26d0283b-a0b4-4f9c-8578-f2cd3944fc99" transform="matrix(1.5258442,0,0,1.5258442,-138.03966,-193.19785)"><g transform="translate(148.712,134.765)" id="g1850" style="stroke-width:0.381397"><path style="stroke:none;stroke-width:0" d="m 1.578125,-7.125 c 0,-0.171875 0,-0.359375 -0.1875,-0.359375 -0.203125,0 -0.203125,0.1875 -0.203125,0.359375 v 9.265625 c 0,0.171875 0,0.359375 0.203125,0.359375 0.1875,0 0.1875,-0.1875 0.1875,-0.359375 z m 0,0" id="id-e03f28da-dc72-4844-9cbb-4483d06380fa"></path></g></g><g style="fill:#000000;fill-opacity:1;stroke-width:0.381397" id="id-8d150e78-8886-4581-9a58-b8d8e6eb0637" transform="matrix(1.5258442,0,0,1.5258442,-138.03966,-193.19785)"><g transform="translate(151.48,134.765)" id="g1854" style="stroke-width:0.381397"><path style="stroke:none;stroke-width:0" d="m 4.578125,-3.1875 c 0,-0.796875 -0.046875,-1.59375 -0.390625,-2.328125 -0.453125,-0.96875 -1.28125,-1.125 -1.6875,-1.125 -0.609375,0 -1.328125,0.265625 -1.75,1.1875 -0.3125,0.6875 -0.359375,1.46875 -0.359375,2.265625 0,0.75 0.03125,1.640625 0.453125,2.40625 0.421875,0.796875 1.15625,1 1.640625,1 0.53125,0 1.296875,-0.203125 1.734375,-1.15625 0.3125,-0.6875 0.359375,-1.46875 0.359375,-2.25 z M 2.484375,0 C 2.09375,0 1.5,-0.25 1.328125,-1.203125 1.21875,-1.796875 1.21875,-2.71875 1.21875,-3.3125 c 0,-0.640625 0,-1.296875 0.078125,-1.828125 0.1875,-1.1875 0.9375,-1.28125 1.1875,-1.28125 0.328125,0 0.984375,0.1875 1.171875,1.171875 0.109375,0.5625 0.109375,1.3125 0.109375,1.9375 0,0.75 0,1.421875 -0.109375,2.0625 C 3.5,-0.296875 2.9375,0 2.484375,0 Z m 0,0" id="id-c1aa52df-91cb-48d0-81af-5a08df256153"></path></g></g><g style="fill:#000000;fill-opacity:1;stroke-width:0.381397" id="id-2f313d7c-ab35-4917-97a8-e79173d14bfa" transform="matrix(1.5258442,0,0,1.5258442,-138.03966,-193.19785)"><g transform="translate(156.461,134.765)" id="g1858" style="stroke-width:0.381397"><path style="stroke:none;stroke-width:0" d="M 2.71875,-2.328125 C 2.765625,-2.4375 2.765625,-2.46875 2.765625,-2.5 c 0,-0.015625 0,-0.046875 -0.046875,-0.15625 L 0.984375,-7.25 c -0.0625,-0.171875 -0.125,-0.234375 -0.234375,-0.234375 -0.109375,0 -0.203125,0.09375 -0.203125,0.203125 0,0.03125 0,0.046875 0.046875,0.15625 L 2.359375,-2.5 0.59375,2.109375 C 0.546875,2.21875 0.546875,2.25 0.546875,2.296875 0.546875,2.40625 0.640625,2.5 0.75,2.5 0.875,2.5 0.921875,2.390625 0.953125,2.296875 Z m 0,0" id="id-e941f27d-a9b9-4033-84ca-f50fe2af6924"></path></g></g></g><g id="g1985" transform="matrix(0.90929784,0,0,0.90929784,-11.518143,146.73218)" style="stroke-width:1.09975"><g style="fill:#000000;fill-opacity:1;stroke-width:0.381397" id="id-e5e49cbc-d400-4da6-8d40-89211898d8be" transform="matrix(1.5258442,0,0,1.5258442,-138.03966,-193.19785)"><g transform="translate(163.653,134.765)" id="g1862" style="stroke-width:0.381397"><path style="stroke:none;stroke-width:0" d="m 1.578125,-7.125 c 0,-0.171875 0,-0.359375 -0.1875,-0.359375 -0.203125,0 -0.203125,0.1875 -0.203125,0.359375 v 9.265625 c 0,0.171875 0,0.359375 0.203125,0.359375 0.1875,0 0.1875,-0.1875 0.1875,-0.359375 z m 0,0" id="id-1918ff1d-dca5-49a9-9225-e23170892870"></path></g></g><g style="fill:#000000;fill-opacity:1;stroke-width:0.381397" id="id-9fa43ff9-782b-4968-9566-283a68694413" transform="matrix(1.5258442,0,0,1.5258442,-138.03966,-193.19785)"><g transform="translate(166.424,134.765)" id="g1866" style="stroke-width:0.381397"><path style="stroke:none;stroke-width:0" d="m 2.9375,-6.375 c 0,-0.25 0,-0.265625 -0.234375,-0.265625 C 2.078125,-6 1.203125,-6 0.890625,-6 v 0.3125 c 0.203125,0 0.78125,0 1.296875,-0.265625 v 5.171875 c 0,0.359375 -0.03125,0.46875 -0.921875,0.46875 h -0.3125 V 0 c 0.34375,-0.03125 1.203125,-0.03125 1.609375,-0.03125 0.390625,0 1.265625,0 1.609375,0.03125 v -0.3125 h -0.3125 c -0.90625,0 -0.921875,-0.109375 -0.921875,-0.46875 z m 0,0" id="id-0ac6e272-8804-4f01-a3ce-264800719de0"></path></g></g><g style="fill:#000000;fill-opacity:1;stroke-width:0.381397" id="id-3ea5cfd9-8c4e-472b-b983-d614c7bf366a" transform="matrix(1.5258442,0,0,1.5258442,-138.03966,-193.19785)"><g transform="translate(171.405,134.765)" id="g1870" style="stroke-width:0.381397"><path style="stroke:none;stroke-width:0" d="M 2.71875,-2.328125 C 2.765625,-2.4375 2.765625,-2.46875 2.765625,-2.5 c 0,-0.015625 0,-0.046875 -0.046875,-0.15625 L 0.984375,-7.25 c -0.0625,-0.171875 -0.125,-0.234375 -0.234375,-0.234375 -0.109375,0 -0.203125,0.09375 -0.203125,0.203125 0,0.03125 0,0.046875 0.046875,0.15625 L 2.359375,-2.5 0.59375,2.109375 C 0.546875,2.21875 0.546875,2.25 0.546875,2.296875 0.546875,2.40625 0.640625,2.5 0.75,2.5 0.875,2.5 0.921875,2.390625 0.953125,2.296875 Z m 0,0" id="id-93674ebb-f88e-452f-a541-8d9ef981e9f4"></path></g></g></g><path style="fill:#000000;fill-opacity:1;stroke:none;stroke-width:0" d="m 66.331389,114.11442 1.83322,-2.05619 c 0.22296,-0.22296 0.32206,-0.32205 1.61028,-0.32205 v -0.7432 c -0.54502,0.0248 -1.36254,0.0495 -1.43686,0.0495 -0.39638,0 -1.18912,-0.0495 -1.63504,-0.0495 v 0.7432 c 0.22296,0 0.42115,0.0248 0.59456,0.12387 -0.0495,0.0991 -0.0495,0.14864 -0.12387,0.19818 l -1.31298,1.4864 -1.56072,-1.80845 h 0.64411 v -0.7432 c -0.42115,0 -1.41208,0.0495 -1.93233,0.0495 -0.49547,0 -1.21389,-0.0495 -1.73413,-0.0495 v 0.7432 h 1.13957 l 2.45257,2.89847 -2.08097,2.3287 c -0.24773,0.29728 -0.81752,0.29728 -1.58549,0.29728 v 0.7432 c 0.54501,-0.0248 1.3873,-0.0495 1.46162,-0.0495 0.39638,0 1.313,0.0248 1.61028,0.0495 v -0.7432 c -0.27251,0 -0.56979,-0.0743 -0.56979,-0.17341 0,-0.0248 0,-0.0248 0.0991,-0.14864 l 1.53595,-1.73414 1.73413,2.05619 h -0.61933 v 0.7432 c 0.42114,-0.0248 1.3873,-0.0495 1.90754,-0.0495 0.49547,0 1.2139,0.0248 1.73414,0.0495 v -0.7432 h -1.1148 z m 0,0" id="id-c3724c77-64d1-444b-bab2-2358e6ec0bf5"></path><path style="fill:#000000;fill-opacity:1;stroke:none;stroke-width:0" d="m 172.55507,78.760372 c 0.0991,-0.22295 0.14864,-0.32205 1.16434,-0.32205 v -0.7432 c -0.37159,0.0248 -0.84229,0.0495 -1.23867,0.0495 -0.39637,0 -1.1148,-0.0495 -1.43685,-0.0495 v 0.7432 c 0.0248,0 0.7432,0 0.7432,0.17342 0,0.0248 -0.0743,0.17341 -0.0991,0.19818 l -1.80845,3.88942 -2.00664,-4.26102 h 0.84229 v -0.7432 c -0.52024,0.0248 -1.93232,0.0495 -1.9571,0.0495 -0.44592,0 -1.13957,-0.0495 -1.78367,-0.0495 v 0.7432 h 0.99093 l 2.9728,6.26765 -0.3716,0.76798 c -0.34682,0.74319 -0.84229,1.83322 -1.98187,1.83322 -0.22296,0 -0.24773,-0.0248 -0.3716,-0.0743 0.14864,-0.0495 0.49547,-0.27251 0.49547,-0.84229 0,-0.52024 -0.3716,-0.89184 -0.91661,-0.89184 -0.42115,0 -0.89184,0.29728 -0.89184,0.91661 0,0.79275 0.7432,1.46163 1.68458,1.46163 1.2139,0 2.13051,-0.99094 2.57643,-1.88278 z m 0,0" id="id-d5c555c6-2353-4a54-bb75-4904159348bd"></path><g transform="matrix(1.5677169,0,0,1.5677169,86.725783,21.179291)" ns6:version="1.3.1" ns6:texconverter="pdflatex" ns6:pdfconverter="inkscape" ns6:text="$ \\mathbf{z} $" ns6:preamble="C:\Users\Thein Lin Aung\AppData\Roaming\inkscape\extensions\textext\default_packages.tex" ns6:scale="1.5" ns6:alignment="middle center" ns6:jacobian_sqrt="0.529167" id="g2266" style="stroke-width:0.33754"><defs id="id-8ff8a5f9-ee59-4559-a0a6-5242e5e21a27"><g id="id-3c902c0f-aef7-43c2-9581-e8e579b34da7"><symbol overflow="visible" id="id-d38feb4c-8907-4634-834b-0ebc15540d64"><path style="stroke:none;stroke-width:0" d="" id="id-e8349d1e-3560-41e3-bed5-d9732e979028"></path></symbol><symbol overflow="visible" id="id-d008c368-425e-41bf-9d18-2e3469387013"><path style="stroke:none;stroke-width:0" d="M 4.46875,-4 C 4.5625,-4.109375 4.578125,-4.125 4.578125,-4.21875 4.578125,-4.421875 4.4375,-4.421875 4.25,-4.421875 H 0.59375 L 0.484375,-2.6875 h 0.46875 C 1,-3.703125 1.3125,-4.0625 2.34375,-4.0625 H 3.1875 l -2.78125,3.625 C 0.3125,-0.328125 0.3125,-0.3125 0.3125,-0.21875 0.3125,0 0.453125,0 0.640625,0 h 3.78125 l 0.1875,-2.015625 H 4.140625 C 4.046875,-1 3.890625,-0.40625 2.578125,-0.40625 H 1.71875 Z m 0,0" id="id-c5e07491-452d-47d5-94d7-1d0b0ff9292a"></path></symbol></g></defs><g id="id-73620e5e-29a4-49ae-94a4-8db3b36aaa87" transform="translate(-149.025,-130.343)" style="stroke-width:0.33754"><g style="fill:#000000;fill-opacity:1;stroke-width:0.33754" id="id-fda70bb9-7dec-4e28-9130-0e24c6783ace"><g transform="translate(148.712,134.765)" id="g2262" style="stroke-width:0.33754"><path style="stroke:none;stroke-width:0" d="M 4.46875,-4 C 4.5625,-4.109375 4.578125,-4.125 4.578125,-4.21875 4.578125,-4.421875 4.4375,-4.421875 4.25,-4.421875 H 0.59375 L 0.484375,-2.6875 h 0.46875 C 1,-3.703125 1.3125,-4.0625 2.34375,-4.0625 H 3.1875 l -2.78125,3.625 C 0.3125,-0.328125 0.3125,-0.3125 0.3125,-0.21875 0.3125,0 0.453125,0 0.640625,0 h 3.78125 l 0.1875,-2.015625 H 4.140625 C 4.046875,-1 3.890625,-0.40625 2.578125,-0.40625 H 1.71875 Z m 0,0" id="id-438f23d5-3e46-4efa-a634-3a65f25dd34c"></path></g></g></g></g><g transform="matrix(1.5070951,0,0,1.5070951,100.54736,55.468799)" ns6:version="1.3.1" ns6:texconverter="pdflatex" ns6:pdfconverter="inkscape" ns6:text="$ \\theta $" ns6:preamble="C:\Users\Thein Lin Aung\AppData\Roaming\inkscape\extensions\textext\default_packages.tex" ns6:scale="4.0" ns6:alignment="middle center" ns6:inkscapeversion="1.0.2-2" ns6:jacobian_sqrt="1.41111" id="g1050" style="stroke-width:0.936311"><defs id="id-d50411b0-dfa8-4c29-b6e8-ee5b55ad277e"><g id="id-3bd12573-a578-4e6c-92a0-a73b32a7a975"><symbol overflow="visible" id="id-a679a3c5-ff05-458b-ac3e-ffb6dae37ecb"><path style="stroke:none;stroke-width:0" d="" id="id-ea710909-caeb-4d57-aa2f-17435c2ab268"></path></symbol><symbol overflow="visible" id="id-e1147c87-45b6-46c5-879f-97a490bc1e76"><path style="stroke:none;stroke-width:0" d="m 4.53125,-4.984375 c 0,-0.65625 -0.171875,-2.046875 -1.1875,-2.046875 -1.390625,0 -2.921875,2.8125 -2.921875,5.09375 0,0.9375 0.28125,2.046875 1.1875,2.046875 1.40625,0 2.921875,-2.859375 2.921875,-5.09375 z M 1.46875,-3.625 C 1.640625,-4.25 1.84375,-5.046875 2.25,-5.765625 2.515625,-6.25 2.875,-6.8125 3.328125,-6.8125 c 0.484375,0 0.546875,0.640625 0.546875,1.203125 0,0.5 -0.078125,1 -0.3125,1.984375 z m 2,0.328125 C 3.359375,-2.84375 3.15625,-2 2.765625,-1.28125 c -0.34375,0.6875 -0.71875,1.171875 -1.15625,1.171875 -0.328125,0 -0.53125,-0.296875 -0.53125,-1.21875 0,-0.421875 0.0625,-1 0.3125,-1.96875 z m 0,0" id="id-ca2cdde7-ede8-40cd-8bf5-94a599f8d8a8"></path></symbol></g></defs><g id="id-8620cfda-534b-454f-a59a-463d3db3abd4" transform="translate(-149.134,-127.734)" style="stroke-width:0.936311"><g style="fill:#000000;fill-opacity:1;stroke-width:0.936311" id="id-d37e669b-609e-4fbc-ab61-7c30032110e7"><g transform="translate(148.712,134.765)" id="g1046" style="stroke-width:0.936311"><path style="stroke:none;stroke-width:0" d="m 4.53125,-4.984375 c 0,-0.65625 -0.171875,-2.046875 -1.1875,-2.046875 -1.390625,0 -2.921875,2.8125 -2.921875,5.09375 0,0.9375 0.28125,2.046875 1.1875,2.046875 1.40625,0 2.921875,-2.859375 2.921875,-5.09375 z M 1.46875,-3.625 C 1.640625,-4.25 1.84375,-5.046875 2.25,-5.765625 2.515625,-6.25 2.875,-6.8125 3.328125,-6.8125 c 0.484375,0 0.546875,0.640625 0.546875,1.203125 0,0.5 -0.078125,1 -0.3125,1.984375 z m 2,0.328125 C 3.359375,-2.84375 3.15625,-2 2.765625,-1.28125 c -0.34375,0.6875 -0.71875,1.171875 -1.15625,1.171875 -0.328125,0 -0.53125,-0.296875 -0.53125,-1.21875 0,-0.421875 0.0625,-1 0.3125,-1.96875 z m 0,0" id="id-2751609c-0675-42b7-9f04-42efd776495b"></path></g></g></g></g><g transform="matrix(1.805096,0,0,1.805096,97.136339,88.414491)" ns6:version="1.3.1" ns6:texconverter="pdflatex" ns6:pdfconverter="inkscape" ns6:text="$ \\phi $" ns6:preamble="C:\Users\Thein Lin Aung\AppData\Roaming\inkscape\extensions\textext\default_packages.tex" ns6:scale="4.0" ns6:alignment="middle center" ns6:inkscapeversion="1.0.2-2" ns6:jacobian_sqrt="1.41111" id="g1176" style="stroke-width:0.781737"><defs id="id-a8ce7e24-8283-433b-88d7-398b5b874474"><g id="id-e8d82adc-646d-4744-87b8-d0d503b1ed13"><symbol overflow="visible" id="id-28422e2c-78c1-4a91-ad1a-b822afbcfceb"><path style="stroke:none;stroke-width:0" d="" id="id-e7c0ee4b-97d9-4dd0-9f2e-8d39702b4369"></path></symbol><symbol overflow="visible" id="id-344ad638-766a-443f-95c6-005ca0e43d10"><path style="stroke:none;stroke-width:0" d="m 4.359375,-6.671875 c 0,-0.03125 0.03125,-0.140625 0.03125,-0.140625 0,-0.015625 0,-0.109375 -0.125,-0.109375 -0.09375,0 -0.109375,0.03125 -0.15625,0.203125 L 3.53125,-4.421875 c -1.578125,0.0625 -3.046875,1.375 -3.046875,2.734375 0,0.953125 0.703125,1.734375 1.921875,1.8125 C 2.328125,0.421875 2.25,0.75 2.171875,1.0625 c -0.125,0.46875 -0.21875,0.84375 -0.21875,0.875 0,0.09375 0.078125,0.109375 0.125,0.109375 C 2.125,2.046875 2.140625,2.03125 2.171875,2 2.1875,1.984375 2.25,1.75 2.28125,1.609375 L 2.65625,0.125 c 1.609375,-0.0625 3.0625,-1.40625 3.0625,-2.734375 0,-0.796875 -0.53125,-1.703125 -1.921875,-1.8125 z m -1.90625,6.578125 c -0.59375,-0.03125 -1.3125,-0.390625 -1.3125,-1.375 0,-1.203125 0.859375,-2.59375 2.34375,-2.734375 z m 1.28125,-4.109375 c 0.765625,0.046875 1.328125,0.5 1.328125,1.375 0,1.1875 -0.859375,2.609375 -2.34375,2.734375 z m 0,0" id="id-65df60b0-8b69-4551-b27e-fac5bf9d2068"></path></symbol></g></defs><g id="id-62f2a434-428b-4471-b884-e31ba35d071a" transform="translate(-149.196,-127.843)" style="stroke-width:0.781737"><g style="fill:#000000;fill-opacity:1;stroke-width:0.781737" id="id-8b29bcc5-9401-4d71-b166-372d35d1fcb2"><g transform="translate(148.712,134.765)" id="g1172" style="stroke-width:0.781737"><path style="stroke:none;stroke-width:0" d="m 4.359375,-6.671875 c 0,-0.03125 0.03125,-0.140625 0.03125,-0.140625 0,-0.015625 0,-0.109375 -0.125,-0.109375 -0.09375,0 -0.109375,0.03125 -0.15625,0.203125 L 3.53125,-4.421875 c -1.578125,0.0625 -3.046875,1.375 -3.046875,2.734375 0,0.953125 0.703125,1.734375 1.921875,1.8125 C 2.328125,0.421875 2.25,0.75 2.171875,1.0625 c -0.125,0.46875 -0.21875,0.84375 -0.21875,0.875 0,0.09375 0.078125,0.109375 0.125,0.109375 C 2.125,2.046875 2.140625,2.03125 2.171875,2 2.1875,1.984375 2.25,1.75 2.28125,1.609375 L 2.65625,0.125 c 1.609375,-0.0625 3.0625,-1.40625 3.0625,-2.734375 0,-0.796875 -0.53125,-1.703125 -1.921875,-1.8125 z m -1.90625,6.578125 c -0.59375,-0.03125 -1.3125,-0.390625 -1.3125,-1.375 0,-1.203125 0.859375,-2.59375 2.34375,-2.734375 z m 1.28125,-4.109375 c 0.765625,0.046875 1.328125,0.5 1.328125,1.375 0,1.1875 -0.859375,2.609375 -2.34375,2.734375 z m 0,0" id="id-9275e69a-b36e-4c1a-9f86-76ea87dc5a0f"></path></g></g></g></g></g></svg> 