<?xml version="1.0" encoding="UTF-8" standalone="no"?> <svg xmlns:ns2="http://www.iki.fi/pav/software/textext/" xmlns:dc="http://purl.org/dc/elements/1.1/" xmlns:cc="http://creativecommons.org/ns#" xmlns:rdf="http://www.w3.org/1999/02/22-rdf-syntax-ns#" xmlns:svg="http://www.w3.org/2000/svg" xmlns="http://www.w3.org/2000/svg" xmlns:sodipodi="http://sodipodi.sourceforge.net/DTD/sodipodi-0.dtd" xmlns:inkscape="http://www.inkscape.org/namespaces/inkscape" width="98.220047mm" height="59.059795mm" viewBox="0 0 98.220045 59.059795" version="1.1" id="svg3173" inkscape:version="1.0 (4035a4fb49, 2020-05-01)" sodipodi:docname="eigen_reflection.svg"><defs id="defs3167"><marker inkscape:isstock="true" style="overflow:visible" id="Arrow2Lstart" refX="0" refY="0" orient="auto" inkscape:stockid="Arrow2Lstart"><path transform="matrix(1.1,0,0,1.1,1.1,0)" d="M 8.7185878,4.0337352 -2.2072895,0.01601326 8.7185884,-4.0017078 c -1.7454984,2.3720609 -1.7354408,5.6174519 -6e-7,8.035443 z" style="fill:#000000;fill-opacity:1;fill-rule:evenodd;stroke:#000000;stroke-width:0.625;stroke-linejoin:round;stroke-opacity:1" id="path853"></path></marker><marker inkscape:collect="always" inkscape:isstock="true" style="overflow:visible" id="Arrow2Lend" refX="0" refY="0" orient="auto" inkscape:stockid="Arrow2Lend"><path transform="matrix(-1.1,0,0,-1.1,-1.1,0)" d="M 8.7185878,4.0337352 -2.2072895,0.01601326 8.7185884,-4.0017078 c -1.7454984,2.3720609 -1.7354408,5.6174519 -6e-7,8.035443 z" style="fill:#000000;fill-opacity:1;fill-rule:evenodd;stroke:#000000;stroke-width:0.625;stroke-linejoin:round;stroke-opacity:1" id="path856"></path></marker><marker inkscape:stockid="Arrow1Mend" orient="auto" refY="0" refX="0" id="marker3004" style="overflow:visible" inkscape:isstock="true"><path id="path3002" d="M 0,0 5,-5 -12.5,0 5,5 Z" style="fill:#000000;fill-opacity:1;fill-rule:evenodd;stroke:#000000;stroke-width:1pt;stroke-opacity:1" transform="matrix(-0.4,0,0,-0.4,-4,0)"></path></marker><marker inkscape:isstock="true" style="overflow:visible" id="marker3004-6" refX="0" refY="0" orient="auto" inkscape:stockid="Arrow1Mend"><path transform="matrix(-0.4,0,0,-0.4,-4,0)" style="fill:#000000;fill-opacity:1;fill-rule:evenodd;stroke:#000000;stroke-width:1pt;stroke-opacity:1" d="M 0,0 5,-5 -12.5,0 5,5 Z" id="path3002-8"></path></marker><g id="id-da3baf26-5fb8-493f-9c4c-8172b556bf14"><symbol overflow="visible" id="id-e91c7d25-99d5-47c7-8654-34ba2d559747"><path style="stroke:none" d="" id="id-2aa87f83-5041-4f7e-b9f2-03853d8db04c"></path></symbol><symbol overflow="visible" id="id-66fc7922-8a21-4dd3-bb56-3342dad847a0"><path style="stroke:none" d="m 1.328125,-0.828125 c 0.53125,-0.578125 0.828125,-0.828125 1.1875,-1.140625 0,0 0.609375,-0.53125 0.96875,-0.890625 C 4.4375,-3.78125 4.65625,-4.265625 4.65625,-4.3125 c 0,-0.09375 -0.09375,-0.09375 -0.109375,-0.09375 -0.078125,0 -0.09375,0.015625 -0.15625,0.109375 -0.296875,0.484375 -0.5,0.640625 -0.734375,0.640625 -0.25,0 -0.359375,-0.15625 -0.515625,-0.328125 -0.1875,-0.21875 -0.359375,-0.421875 -0.6875,-0.421875 -0.75,0 -1.203125,0.921875 -1.203125,1.140625 0,0.046875 0.03125,0.109375 0.109375,0.109375 0.09375,0 0.109375,-0.046875 0.140625,-0.109375 0.1875,-0.46875 0.765625,-0.46875 0.84375,-0.46875 0.203125,0 0.390625,0.0625 0.625,0.140625 0.40625,0.15625 0.515625,0.15625 0.765625,0.15625 -0.359375,0.421875 -1.1875,1.140625 -1.375,1.296875 l -0.90625,0.84375 C 0.78125,-0.625 0.421875,-0.0625 0.421875,0.015625 c 0,0.09375 0.109375,0.09375 0.125,0.09375 0.078125,0 0.09375,-0.015625 0.15625,-0.125 0.234375,-0.359375 0.53125,-0.625 0.859375,-0.625 0.21875,0 0.328125,0.09375 0.578125,0.375 0.15625,0.21875 0.34375,0.375 0.625,0.375 1,0 1.578125,-1.265625 1.578125,-1.53125 0,-0.046875 -0.046875,-0.109375 -0.125,-0.109375 -0.09375,0 -0.109375,0.0625 -0.140625,0.140625 C 3.84375,-0.75 3.203125,-0.5625 2.875,-0.5625 c -0.1875,0 -0.375,-0.0625 -0.578125,-0.125 -0.34375,-0.125 -0.5,-0.171875 -0.703125,-0.171875 -0.015625,0 -0.171875,0 -0.265625,0.03125 z m 0,0" id="id-647c48ea-30ad-4e5b-aee4-2a31cc933e12"></path></symbol></g><g id="id-64338d0c-d3a9-4b1c-9d30-eabe0827b65a"><symbol overflow="visible" id="id-e01fa99b-caa8-4820-a291-49ff75f9b8c3"><path style="stroke:none" d="" id="id-12a15e10-a90a-44ec-bd21-21f101d0e9bc"></path></symbol><symbol overflow="visible" id="id-77c6e1fc-b6cf-4111-89c6-f41c266abbc9"><path style="stroke:none" d="m 4.53125,-4.984375 c 0,-0.65625 -0.171875,-2.046875 -1.1875,-2.046875 -1.390625,0 -2.921875,2.8125 -2.921875,5.09375 0,0.9375 0.28125,2.046875 1.1875,2.046875 1.40625,0 2.921875,-2.859375 2.921875,-5.09375 z M 1.46875,-3.625 C 1.640625,-4.25 1.84375,-5.046875 2.25,-5.765625 2.515625,-6.25 2.875,-6.8125 3.328125,-6.8125 c 0.484375,0 0.546875,0.640625 0.546875,1.203125 0,0.5 -0.078125,1 -0.3125,1.984375 z m 2,0.328125 C 3.359375,-2.84375 3.15625,-2 2.765625,-1.28125 c -0.34375,0.6875 -0.71875,1.171875 -1.15625,1.171875 -0.328125,0 -0.53125,-0.296875 -0.53125,-1.21875 0,-0.421875 0.0625,-1 0.3125,-1.96875 z m 0,0" id="id-0d1ddd58-7d6f-4c70-8531-91449eb953a8"></path></symbol></g><marker inkscape:stockid="Arrow1Mend" orient="auto" refY="0" refX="0" id="marker3004-6-9" style="overflow:visible" inkscape:isstock="true"><path id="path3002-8-0" d="M 0,0 5,-5 -12.5,0 5,5 Z" style="fill:#e01b24;fill-opacity:1;fill-rule:evenodd;stroke:#e01b24;stroke-width:1pt;stroke-opacity:1" transform="matrix(-0.4,0,0,-0.4,-4,0)"></path></marker><defs id="id-244304be-4d51-42d8-809a-25449eabe3c9"><g id="id-e436870a-1275-4305-bc3d-5b058900b3cc"><symbol overflow="visible" id="id-1861df9e-82a0-4c5d-966a-6b4e9093108e"><path style="stroke:none" d="" id="id-71de9951-726d-4c7b-a042-23f91a4a6de6"></path></symbol><symbol overflow="visible" id="id-f0b4ce8e-14a1-4b14-a695-eb8639484c72"><path style="stroke:none" d="M 9.234375,-6.046875 C 9.328125,-6.40625 9.34375,-6.5 10.09375,-6.5 c 0.21875,0 0.3125,0 0.3125,-0.203125 0,-0.109375 -0.09375,-0.109375 -0.265625,-0.109375 h -1.3125 c -0.265625,0 -0.28125,0 -0.390625,0.1875 L 4.796875,-0.9375 4.015625,-6.578125 C 3.984375,-6.8125 3.96875,-6.8125 3.703125,-6.8125 H 2.34375 c -0.1875,0 -0.296875,0 -0.296875,0.1875 0,0.125 0.09375,0.125 0.28125,0.125 0.140625,0 0.3125,0.015625 0.4375,0.015625 0.15625,0.03125 0.21875,0.046875 0.21875,0.171875 0,0.03125 -0.015625,0.0625 -0.046875,0.1875 l -1.265625,5.0625 c -0.09375,0.40625 -0.265625,0.71875 -1.078125,0.75 -0.046875,0 -0.171875,0.015625 -0.171875,0.1875 0,0.09375 0.0625,0.125 0.140625,0.125 0.3125,0 0.65625,-0.03125 1,-0.03125 C 1.890625,-0.03125 2.25,0 2.578125,0 c 0.046875,0 0.1875,0 0.1875,-0.203125 0,-0.109375 -0.109375,-0.109375 -0.1875,-0.109375 -0.5625,0 -0.671875,-0.203125 -0.671875,-0.4375 0,-0.0625 0,-0.125 0.03125,-0.234375 L 3.296875,-6.40625 H 3.3125 l 0.859375,6.171875 C 4.1875,-0.109375 4.203125,0 4.3125,0 4.421875,0 4.484375,-0.109375 4.53125,-0.171875 l 4.03125,-6.3125 h 0.015625 l -1.4375,5.703125 c -0.09375,0.390625 -0.109375,0.46875 -0.90625,0.46875 -0.15625,0 -0.265625,0 -0.265625,0.1875 C 5.96875,0 6.078125,0 6.109375,0 6.390625,0 7.0625,-0.03125 7.34375,-0.03125 7.75,-0.03125 8.1875,0 8.59375,0 8.65625,0 8.78125,0 8.78125,-0.203125 8.78125,-0.3125 8.6875,-0.3125 8.5,-0.3125 c -0.359375,0 -0.640625,0 -0.640625,-0.171875 0,-0.046875 0,-0.0625 0.046875,-0.25 z m 0,0" id="id-5be76151-6de9-4932-97c4-9dd50b1eb2fd"></path></symbol><symbol overflow="visible" id="id-976eef1a-788f-462f-ae2c-32a0ab374d94"><path style="stroke:none" d="" id="id-f0532778-46e9-460f-a686-e480938e0ae3"></path></symbol><symbol overflow="visible" id="id-03a3830f-b80e-4530-b3b5-2ed992d9382e"><path style="stroke:none" d="M 3.875,-2.625 C 3.90625,-2.71875 3.90625,-2.734375 3.90625,-2.78125 3.90625,-2.921875 3.796875,-3 3.671875,-3 3.59375,-3 3.46875,-2.96875 3.390625,-2.84375 3.359375,-2.796875 3.3125,-2.578125 3.28125,-2.4375 L 3.125,-1.859375 c -0.03125,0.171875 -0.25,1.046875 -0.28125,1.125 0,0 -0.3125,0.609375 -0.84375,0.609375 -0.484375,0 -0.484375,-0.453125 -0.484375,-0.578125 0,-0.375 0.15625,-0.8125 0.375,-1.359375 C 1.96875,-2.28125 2,-2.359375 2,-2.484375 2,-2.8125 1.71875,-3.078125 1.34375,-3.078125 0.640625,-3.078125 0.328125,-2.125 0.328125,-2 c 0,0.078125 0.09375,0.078125 0.125,0.078125 0.09375,0 0.09375,-0.03125 0.125,-0.109375 C 0.75,-2.609375 1.046875,-2.875 1.328125,-2.875 1.4375,-2.875 1.5,-2.796875 1.5,-2.640625 c 0,0.171875 -0.0625,0.3125 -0.09375,0.40625 C 1.0625,-1.375 1,-1.125 1,-0.8125 1,-0.703125 1,-0.375 1.265625,-0.140625 1.484375,0.03125 1.78125,0.0625 1.96875,0.0625 2.25,0.0625 2.5,-0.03125 2.71875,-0.25 2.640625,0.140625 2.5625,0.4375 2.265625,0.78125 2.078125,1 1.796875,1.21875 1.421875,1.21875 c -0.046875,0 -0.375,0 -0.515625,-0.21875 0.375,-0.046875 0.375,-0.375 0.375,-0.390625 0,-0.21875 -0.203125,-0.265625 -0.265625,-0.265625 -0.171875,0 -0.40625,0.140625 -0.40625,0.46875 0,0.34375 0.328125,0.609375 0.828125,0.609375 C 2.140625,1.421875 3,0.875 3.21875,0 Z m 0,0" id="id-4adb1acb-61a7-40b0-83d1-4f9262745078"></path></symbol><symbol overflow="visible" id="id-130b13ba-3a5b-4fa0-b712-2cd6b78dddc5"><path style="stroke:none" d="" id="id-41c61438-27da-4c42-a21e-b301d25047cd"></path></symbol><symbol overflow="visible" id="id-29de293e-0152-46d3-a790-1519a980b153"><path style="stroke:none" d="m 2.1875,-3.28125 c 0,-0.1875 0.015625,-0.203125 0.15625,-0.34375 0.390625,-0.40625 0.921875,-0.46875 1.140625,-0.46875 0.65625,0 1.21875,0.609375 1.21875,1.875 0,1.40625 -0.703125,1.921875 -1.34375,1.921875 -0.140625,0 -0.609375,0 -1.0625,-0.546875 C 2.1875,-0.96875 2.1875,-0.984375 2.1875,-1.171875 Z m 0,2.890625 c 0.4375,0.34375 0.875,0.453125 1.28125,0.453125 1.5,0 2.515625,-0.90625 2.515625,-2.28125 0,-1.328125 -0.90625,-2.265625 -2.34375,-2.265625 -0.75,0 -1.28125,0.3125 -1.5,0.484375 V -4.484375 L 0.375,-4.40625 v 0.46875 c 0.609375,0 0.6875,0 0.6875,0.375 V 1.46875 H 0.375 V 1.9375 C 0.640625,1.921875 1.25,1.90625 1.625,1.90625 c 0.390625,0 0.984375,0.015625 1.25,0.03125 V 1.46875 H 2.1875 Z m 0,0" id="id-dd45bb5f-fdf2-4102-bc5e-4e6a0717c271"></path></symbol><symbol overflow="visible" id="id-0e371c9b-eeef-4dbb-bd00-5ebd5dcce1bd"><path style="stroke:none" d="" id="id-dd91e281-dcb9-45c6-adba-bf191eabeafb"></path></symbol><symbol overflow="visible" id="id-1a6d92f5-d9cc-453e-89eb-ff22a642cc34"><path style="stroke:none" d="m 6.84375,-3.265625 c 0.15625,0 0.34375,0 0.34375,-0.1875 C 7.1875,-3.65625 7,-3.65625 6.859375,-3.65625 h -5.96875 c -0.140625,0 -0.328125,0 -0.328125,0.203125 0,0.1875 0.1875,0.1875 0.328125,0.1875 z m 0.015625,1.9375 c 0.140625,0 0.328125,0 0.328125,-0.203125 0,-0.1875 -0.1875,-0.1875 -0.34375,-0.1875 H 0.890625 c -0.140625,0 -0.328125,0 -0.328125,0.1875 0,0.203125 0.1875,0.203125 0.328125,0.203125 z m 0,0" id="id-2ad3f2bc-ac23-4f5f-8000-ce9d1e0b74be"></path></symbol><symbol overflow="visible" id="id-205329e6-32d9-4a5a-80ed-35fab9d56ff3"><path style="stroke:none" d="" id="id-e88cc034-93e7-40f7-b30c-18f7f1c464de"></path></symbol><symbol overflow="visible" id="id-f66734a2-a8c1-4017-900c-bf8b3271ad51"><path style="stroke:none" d="m 2.015625,-3.296875 c 0.0625,-0.109375 0.0625,-0.171875 0.0625,-0.21875 0,-0.21875 -0.1875,-0.375 -0.40625,-0.375 -0.265625,0 -0.34375,0.21875 -0.375,0.328125 L 0.375,-0.546875 c -0.015625,0.015625 -0.046875,0.09375 -0.046875,0.109375 0,0.078125 0.21875,0.15625 0.28125,0.15625 0.046875,0 0.046875,-0.015625 0.09375,-0.125 z m 0,0" id="id-5507e663-a55c-4c2c-8440-5defc0fcf9c8"></path></symbol></g></defs><defs id="id-06ec7a55-074c-468c-803f-9f9f02a77b4e"><g id="id-559c73ea-40e8-4388-bbdb-bdb0b9f16040"><symbol overflow="visible" id="id-dd1e54c8-e659-4617-8ab7-ab5a929f4687"><path style="stroke:none" d="" id="id-08d804e0-eda5-4fa3-9b9c-7962003b7c73"></path></symbol><symbol overflow="visible" id="id-13fb4db0-3c85-4b74-8607-0e896256c680"><path style="stroke:none" d="M 0.453125,1.21875 C 0.375,1.5625 0.34375,1.625 -0.09375,1.625 c -0.109375,0 -0.21875,0 -0.21875,0.1875 0,0.078125 0.046875,0.125 0.125,0.125 0.265625,0 0.5625,-0.03125 0.828125,-0.03125 0.34375,0 0.671875,0.03125 1,0.03125 0.046875,0 0.171875,0 0.171875,-0.203125 C 1.8125,1.625 1.71875,1.625 1.578125,1.625 c -0.5,0 -0.5,-0.0625 -0.5,-0.15625 0,-0.125 0.421875,-1.75 0.484375,-2 0.125,0.296875 0.40625,0.640625 0.921875,0.640625 1.15625,0 2.40625,-1.453125 2.40625,-2.921875 0,-0.9375 -0.578125,-1.59375 -1.328125,-1.59375 -0.5,0 -0.984375,0.359375 -1.3125,0.75 -0.09375,-0.546875 -0.53125,-0.75 -0.890625,-0.75 -0.46875,0 -0.65625,0.390625 -0.734375,0.5625 C 0.4375,-3.5 0.3125,-2.90625 0.3125,-2.875 c 0,0.109375 0.09375,0.109375 0.109375,0.109375 0.109375,0 0.109375,-0.015625 0.171875,-0.234375 0.171875,-0.703125 0.375,-1.1875 0.734375,-1.1875 0.171875,0 0.3125,0.078125 0.3125,0.453125 0,0.234375 -0.03125,0.34375 -0.078125,0.515625 z m 1.75,-4.328125 C 2.265625,-3.375 2.546875,-3.65625 2.71875,-3.8125 c 0.359375,-0.296875 0.640625,-0.375 0.8125,-0.375 0.390625,0 0.640625,0.34375 0.640625,0.9375 0,0.59375 -0.328125,1.734375 -0.515625,2.109375 -0.34375,0.703125 -0.8125,1.03125 -1.1875,1.03125 C 1.8125,-0.109375 1.6875,-0.9375 1.6875,-1 c 0,-0.015625 0,-0.03125 0.03125,-0.15625 z m 0,0" id="id-b6d5a34a-cd52-4b34-8878-c8d3d9485601"></path></symbol><symbol overflow="visible" id="id-65c832e1-bd6e-4043-bfc2-fddb9d4c1e86"><path style="stroke:none" d="" id="id-dee78d49-fb61-403f-9588-218b0c4dabc0"></path></symbol><symbol overflow="visible" id="id-705e788d-53e1-4a7f-949b-d006a5f6c402"><path style="stroke:none" d="m 2.328125,-4.4375 c 0,-0.1875 0,-0.1875 -0.203125,-0.1875 -0.453125,0.4375 -1.078125,0.4375 -1.359375,0.4375 v 0.25 c 0.15625,0 0.625,0 1,-0.1875 v 3.546875 c 0,0.234375 0,0.328125 -0.6875,0.328125 H 0.8125 V 0 c 0.125,0 0.984375,-0.03125 1.234375,-0.03125 0.21875,0 1.09375,0.03125 1.25,0.03125 V -0.25 H 3.03125 c -0.703125,0 -0.703125,-0.09375 -0.703125,-0.328125 z m 0,0" id="id-6428a5a0-9906-49a8-a116-194dde55d0ec"></path></symbol><symbol overflow="visible" id="id-e0774806-4ad7-43a7-9f98-9e398b1b24f6"><path style="stroke:none" d="M 3.515625,-1.265625 H 3.28125 c -0.015625,0.15625 -0.09375,0.5625 -0.1875,0.625 C 3.046875,-0.59375 2.515625,-0.59375 2.40625,-0.59375 H 1.125 c 0.734375,-0.640625 0.984375,-0.84375 1.390625,-1.171875 0.515625,-0.40625 1,-0.84375 1,-1.5 0,-0.84375 -0.734375,-1.359375 -1.625,-1.359375 -0.859375,0 -1.453125,0.609375 -1.453125,1.25 0,0.34375 0.296875,0.390625 0.375,0.390625 0.15625,0 0.359375,-0.125 0.359375,-0.375 0,-0.125 -0.046875,-0.375 -0.40625,-0.375 C 0.984375,-4.21875 1.453125,-4.375 1.78125,-4.375 c 0.703125,0 1.0625,0.546875 1.0625,1.109375 0,0.609375 -0.4375,1.078125 -0.65625,1.328125 L 0.515625,-0.265625 C 0.4375,-0.203125 0.4375,-0.1875 0.4375,0 h 2.875 z m 0,0" id="id-c3f1699e-7b60-4554-8e1c-358f6b2a028d"></path></symbol><symbol overflow="visible" id="id-2134d31c-8f47-4dfa-9512-fca6fbf93d9b"><path style="stroke:none" d="" id="id-daf76443-bc85-4351-a9e8-da1deb381d9a"></path></symbol><symbol overflow="visible" id="id-7f7c30d4-9131-40fb-a422-17fd68b2399a"><path style="stroke:none" d="m 6.5625,-2.296875 c 0.171875,0 0.359375,0 0.359375,-0.203125 0,-0.1875 -0.1875,-0.1875 -0.359375,-0.1875 H 1.171875 c -0.171875,0 -0.34375,0 -0.34375,0.1875 0,0.203125 0.171875,0.203125 0.34375,0.203125 z m 0,0" id="id-17c53bf3-aced-4c7c-89b0-439d6a66150a"></path></symbol></g></defs><defs id="id-5eda1f73-0c94-49c0-ab3a-4b5bd2087472"><g id="id-d2dda557-54ee-401a-9124-9cf735ea7d97"><symbol overflow="visible" id="id-248d15f0-e6a5-4fdf-9f67-091516066523"><path style="stroke:none" d="" id="id-e6c64861-f709-4f50-bb31-24a341ca00de"></path></symbol><symbol overflow="visible" id="id-218b52ec-f02e-4bea-a7db-50b65ce42251"><path style="stroke:none" d="M 0.453125,1.21875 C 0.375,1.5625 0.34375,1.625 -0.09375,1.625 c -0.109375,0 -0.21875,0 -0.21875,0.1875 0,0.078125 0.046875,0.125 0.125,0.125 0.265625,0 0.5625,-0.03125 0.828125,-0.03125 0.34375,0 0.671875,0.03125 1,0.03125 0.046875,0 0.171875,0 0.171875,-0.203125 C 1.8125,1.625 1.71875,1.625 1.578125,1.625 c -0.5,0 -0.5,-0.0625 -0.5,-0.15625 0,-0.125 0.421875,-1.75 0.484375,-2 0.125,0.296875 0.40625,0.640625 0.921875,0.640625 1.15625,0 2.40625,-1.453125 2.40625,-2.921875 0,-0.9375 -0.578125,-1.59375 -1.328125,-1.59375 -0.5,0 -0.984375,0.359375 -1.3125,0.75 -0.09375,-0.546875 -0.53125,-0.75 -0.890625,-0.75 -0.46875,0 -0.65625,0.390625 -0.734375,0.5625 C 0.4375,-3.5 0.3125,-2.90625 0.3125,-2.875 c 0,0.109375 0.09375,0.109375 0.109375,0.109375 0.109375,0 0.109375,-0.015625 0.171875,-0.234375 0.171875,-0.703125 0.375,-1.1875 0.734375,-1.1875 0.171875,0 0.3125,0.078125 0.3125,0.453125 0,0.234375 -0.03125,0.34375 -0.078125,0.515625 z m 1.75,-4.328125 C 2.265625,-3.375 2.546875,-3.65625 2.71875,-3.8125 c 0.359375,-0.296875 0.640625,-0.375 0.8125,-0.375 0.390625,0 0.640625,0.34375 0.640625,0.9375 0,0.59375 -0.328125,1.734375 -0.515625,2.109375 -0.34375,0.703125 -0.8125,1.03125 -1.1875,1.03125 C 1.8125,-0.109375 1.6875,-0.9375 1.6875,-1 c 0,-0.015625 0,-0.03125 0.03125,-0.15625 z m 0,0" id="id-ad303f00-1b5e-47e5-a4ca-f0c3e9d07204"></path></symbol><symbol overflow="visible" id="id-ecc1d763-5363-46f0-9867-0374f1ec97ca"><path style="stroke:none" d="" id="id-8b48e0c9-ee27-4bac-b9fe-89acb5f93085"></path></symbol><symbol overflow="visible" id="id-3815f84a-1586-446a-a220-cc5fc2b3f68b"><path style="stroke:none" d="M 1.734375,-0.734375 C 1.671875,-0.5 1.4375,-0.125 1.078125,-0.125 c -0.015625,0 -0.234375,0 -0.375,-0.09375 0.28125,-0.09375 0.3125,-0.34375 0.3125,-0.390625 0,-0.15625 -0.125,-0.25 -0.28125,-0.25 -0.203125,0 -0.40625,0.15625 -0.40625,0.421875 0,0.34375 0.390625,0.5 0.734375,0.5 0.328125,0 0.609375,-0.1875 0.78125,-0.484375 C 2.015625,-0.0625 2.390625,0.0625 2.671875,0.0625 c 0.8125,0 1.234375,-0.859375 1.234375,-1.0625 0,-0.09375 -0.09375,-0.09375 -0.109375,-0.09375 -0.109375,0 -0.109375,0.046875 -0.140625,0.125 -0.140625,0.484375 -0.5625,0.84375 -0.953125,0.84375 -0.28125,0 -0.421875,-0.1875 -0.421875,-0.453125 0,-0.1875 0.171875,-0.8125 0.359375,-1.59375 C 2.78125,-2.703125 3.09375,-2.875 3.328125,-2.875 c 0.015625,0 0.21875,0 0.375,0.09375 -0.21875,0.0625 -0.3125,0.265625 -0.3125,0.390625 0,0.140625 0.125,0.25 0.28125,0.25 0.15625,0 0.390625,-0.125 0.390625,-0.421875 0,-0.390625 -0.453125,-0.515625 -0.71875,-0.515625 -0.359375,0 -0.640625,0.234375 -0.78125,0.5 -0.125,-0.28125 -0.453125,-0.5 -0.84375,-0.5 C 0.9375,-3.078125 0.5,-2.21875 0.5,-2 c 0,0.078125 0.09375,0.078125 0.109375,0.078125 0.09375,0 0.09375,-0.015625 0.140625,-0.109375 C 0.921875,-2.578125 1.359375,-2.875 1.703125,-2.875 1.9375,-2.875 2.125,-2.75 2.125,-2.421875 2.125,-2.28125 2.03125,-1.9375 1.96875,-1.6875 Z m 0,0" id="id-89bd5d28-36ce-457f-a188-3b666dd240e2"></path></symbol><symbol overflow="visible" id="id-dfc57951-044a-4c39-a90f-b9bbced84c87"><path style="stroke:none" d="M 3.875,-2.625 C 3.90625,-2.71875 3.90625,-2.734375 3.90625,-2.78125 3.90625,-2.921875 3.796875,-3 3.671875,-3 3.59375,-3 3.46875,-2.96875 3.390625,-2.84375 3.359375,-2.796875 3.3125,-2.578125 3.28125,-2.4375 L 3.125,-1.859375 c -0.03125,0.171875 -0.25,1.046875 -0.28125,1.125 0,0 -0.3125,0.609375 -0.84375,0.609375 -0.484375,0 -0.484375,-0.453125 -0.484375,-0.578125 0,-0.375 0.15625,-0.8125 0.375,-1.359375 C 1.96875,-2.28125 2,-2.359375 2,-2.484375 2,-2.8125 1.71875,-3.078125 1.34375,-3.078125 0.640625,-3.078125 0.328125,-2.125 0.328125,-2 c 0,0.078125 0.09375,0.078125 0.125,0.078125 0.09375,0 0.09375,-0.03125 0.125,-0.109375 C 0.75,-2.609375 1.046875,-2.875 1.328125,-2.875 1.4375,-2.875 1.5,-2.796875 1.5,-2.640625 c 0,0.171875 -0.0625,0.3125 -0.09375,0.40625 C 1.0625,-1.375 1,-1.125 1,-0.8125 1,-0.703125 1,-0.375 1.265625,-0.140625 1.484375,0.03125 1.78125,0.0625 1.96875,0.0625 2.25,0.0625 2.5,-0.03125 2.71875,-0.25 2.640625,0.140625 2.5625,0.4375 2.265625,0.78125 2.078125,1 1.796875,1.21875 1.421875,1.21875 c -0.046875,0 -0.375,0 -0.515625,-0.21875 0.375,-0.046875 0.375,-0.375 0.375,-0.390625 0,-0.21875 -0.203125,-0.265625 -0.265625,-0.265625 -0.171875,0 -0.40625,0.140625 -0.40625,0.46875 0,0.34375 0.328125,0.609375 0.828125,0.609375 C 2.140625,1.421875 3,0.875 3.21875,0 Z m 0,0" id="id-e37a3466-8f3f-4ec0-a955-46f7a1796d4d"></path></symbol></g></defs><marker inkscape:stockid="Arrow1Mend" orient="auto" refY="0" refX="0" id="marker3004-6-4" style="overflow:visible" inkscape:isstock="true"><path id="path3002-8-8" d="M 0,0 5,-5 -12.5,0 5,5 Z" style="fill:#003399;fill-opacity:1;fill-rule:evenodd;stroke:#003399;stroke-width:1pt;stroke-opacity:1" transform="matrix(-0.4,0,0,-0.4,-4,0)"></path></marker><defs id="id-5331e5b2-d5f0-46e3-9981-ff6f79de3c3a"><g id="id-46861365-a9d1-4783-8525-299a96c163de"><symbol overflow="visible" id="id-97cfb0b6-1a88-44d6-95c8-2c32ea5dfcb0"><path style="stroke:none" d="" id="id-20747d68-6ae7-4d13-b2cf-62a277e7b8ef"></path></symbol><symbol overflow="visible" id="id-cb134c63-127b-46b6-920a-ea200c1c4906"><path style="stroke:none" d="m 4.234375,-1.421875 c 0,0.1875 0,0.21875 -0.15625,0.421875 -0.40625,0.59375 -0.90625,0.703125 -1.203125,0.703125 -0.625,0 -1.21875,-0.578125 -1.21875,-1.90625 0,-1.421875 0.734375,-1.890625 1.328125,-1.890625 0.765625,0 1.25,0.796875 1.25,1.296875 z m 0.125,-2.28125 c -0.34375,-0.484375 -0.90625,-0.78125 -1.5,-0.78125 -1.453125,0 -2.484375,0.890625 -2.484375,2.265625 0,1.40625 1.015625,2.28125 2.390625,2.28125 0.5,0 0.9375,-0.140625 1.40625,-0.546875 V 1.46875 h -0.6875 V 1.9375 c 0.28125,-0.015625 0.875,-0.03125 1.25,-0.03125 0.390625,0 0.984375,0.015625 1.25,0.03125 V 1.46875 h -0.6875 v -5.953125 h -0.40625 z m 0,0" id="id-ab05b7e2-c1bc-404f-ba8b-583c6f238000"></path></symbol><symbol overflow="visible" id="id-33ca16f1-525c-4a3d-bf19-5eeeeea51ae7"><path style="stroke:none" d="M 5.4375,-1.3125 3.046875,-6.59375 c -0.109375,-0.25 -0.21875,-0.25 -0.4375,-0.25 H 0.40625 V -6.375 h 1.0625 v 5.625 c 0,0.21875 0,0.21875 -0.28125,0.25 -0.234375,0.03125 -0.265625,0.03125 -0.546875,0.03125 H 0.40625 V 0 c 0.375,-0.03125 0.9375,-0.03125 1.328125,-0.03125 0.421875,0 0.9375,0 1.34375,0.03125 v -0.46875 h -0.25 C 2.65625,-0.46875 2.484375,-0.484375 2.296875,-0.5 2.015625,-0.53125 2,-0.53125 2,-0.75 V -6.234375 H 2.015625 L 4.71875,-0.25 C 4.8125,-0.046875 4.9375,0 5.046875,0 5.25,0 5.328125,-0.15625 5.359375,-0.234375 L 8.140625,-6.375 H 8.15625 v 5.90625 H 7.078125 V 0 c 0.359375,-0.03125 1.28125,-0.03125 1.6875,-0.03125 0.421875,0 1.359375,0 1.71875,0.03125 V -0.46875 H 9.40625 V -6.375 h 1.078125 V -6.84375 H 8.28125 c -0.21875,0 -0.34375,0 -0.453125,0.25 z m 0,0" id="id-00c7b8e1-a526-42ed-89a1-c01887a30abb"></path></symbol><symbol overflow="visible" id="id-522d47ec-266e-4446-bbd9-b0c6d64406fa"><path style="stroke:none" d="" id="id-74a07c37-5582-4aa8-bf94-0ec49a2247fa"></path></symbol><symbol overflow="visible" id="id-70fd8cf5-e042-4fc7-9638-9dab35ce7707"><path style="stroke:none" d="m 2.015625,-3.296875 c 0.0625,-0.109375 0.0625,-0.171875 0.0625,-0.21875 0,-0.21875 -0.1875,-0.375 -0.40625,-0.375 -0.265625,0 -0.34375,0.21875 -0.375,0.328125 L 0.375,-0.546875 c -0.015625,0.015625 -0.046875,0.09375 -0.046875,0.109375 0,0.078125 0.21875,0.15625 0.28125,0.15625 0.046875,0 0.046875,-0.015625 0.09375,-0.125 z m 0,0" id="id-3d4652a9-76fe-44a0-956b-d1955673b909"></path></symbol><symbol overflow="visible" id="id-f47fbd07-c615-4c6f-bbce-aff1c9668879"><path style="stroke:none" d="" id="id-42ea0ebf-4f51-4813-8653-8854244777a7"></path></symbol><symbol overflow="visible" id="id-f08f143d-7503-4404-a95a-3d6480f3febc"><path style="stroke:none" d="m 6.84375,-3.265625 c 0.15625,0 0.34375,0 0.34375,-0.1875 C 7.1875,-3.65625 7,-3.65625 6.859375,-3.65625 h -5.96875 c -0.140625,0 -0.328125,0 -0.328125,0.203125 0,0.1875 0.1875,0.1875 0.328125,0.1875 z m 0.015625,1.9375 c 0.140625,0 0.328125,0 0.328125,-0.203125 0,-0.1875 -0.1875,-0.1875 -0.34375,-0.1875 H 0.890625 c -0.140625,0 -0.328125,0 -0.328125,0.1875 0,0.203125 0.1875,0.203125 0.328125,0.203125 z m 0,0" id="id-210f54fe-85fd-47a4-9578-72ea71653558"></path></symbol><symbol overflow="visible" id="id-b0ccac8e-d4e5-48bf-ba26-486ec554c7de"><path style="stroke:none" d="" id="id-572fce5e-5e5c-4a9f-a704-85d6ec6f6eb7"></path></symbol><symbol overflow="visible" id="id-f237e70d-be64-4a3b-95f0-239362d6643f"><path style="stroke:none" d="M 3.875,-2.625 C 3.90625,-2.71875 3.90625,-2.734375 3.90625,-2.78125 3.90625,-2.921875 3.796875,-3 3.671875,-3 3.59375,-3 3.46875,-2.96875 3.390625,-2.84375 3.359375,-2.796875 3.3125,-2.578125 3.28125,-2.4375 L 3.125,-1.859375 c -0.03125,0.171875 -0.25,1.046875 -0.28125,1.125 0,0 -0.3125,0.609375 -0.84375,0.609375 -0.484375,0 -0.484375,-0.453125 -0.484375,-0.578125 0,-0.375 0.15625,-0.8125 0.375,-1.359375 C 1.96875,-2.28125 2,-2.359375 2,-2.484375 2,-2.8125 1.71875,-3.078125 1.34375,-3.078125 0.640625,-3.078125 0.328125,-2.125 0.328125,-2 c 0,0.078125 0.09375,0.078125 0.125,0.078125 0.09375,0 0.09375,-0.03125 0.125,-0.109375 C 0.75,-2.609375 1.046875,-2.875 1.328125,-2.875 1.4375,-2.875 1.5,-2.796875 1.5,-2.640625 c 0,0.171875 -0.0625,0.3125 -0.09375,0.40625 C 1.0625,-1.375 1,-1.125 1,-0.8125 1,-0.703125 1,-0.375 1.265625,-0.140625 1.484375,0.03125 1.78125,0.0625 1.96875,0.0625 2.25,0.0625 2.5,-0.03125 2.71875,-0.25 2.640625,0.140625 2.5625,0.4375 2.265625,0.78125 2.078125,1 1.796875,1.21875 1.421875,1.21875 c -0.046875,0 -0.375,0 -0.515625,-0.21875 0.375,-0.046875 0.375,-0.375 0.375,-0.390625 0,-0.21875 -0.203125,-0.265625 -0.265625,-0.265625 -0.171875,0 -0.40625,0.140625 -0.40625,0.46875 0,0.34375 0.328125,0.609375 0.828125,0.609375 C 2.140625,1.421875 3,0.875 3.21875,0 Z m 0,0" id="id-21249067-e3a1-445f-8325-2f9bc90aeded"></path></symbol></g></defs></defs><metadata id="metadata3170"></metadata><g transform="translate(-48.260253,-15.050623)" id="layer1" inkscape:groupmode="layer" inkscape:label="Layer 1"><path id="path1181" d="M 95.528817,61.002432 V 15.050623" style="fill:none;stroke:#000000;stroke-width:0.264583;stroke-linecap:butt;stroke-linejoin:miter;stroke-miterlimit:4;stroke-dasharray:0.529167, 0.529167;stroke-dashoffset:0;stroke-opacity:1"></path><g transform="translate(1.988001,0.99392547)" id="g4501"><path style="fill:none;stroke:#000000;stroke-width:0.264999;stroke-linecap:butt;stroke-linejoin:miter;stroke-miterlimit:4;stroke-dasharray:none;stroke-opacity:1;marker-start:url(#Arrow2Lstart);marker-end:url(#Arrow2Lend)" d="m 93.540815,60.008506 c 0,0.83454 0,11.85041 0,11.85041 h 11.495005" id="path833"></path><g style="fill:#000000;fill-opacity:1;stroke-width:0.68188" transform="matrix(0.51736104,0,0,0.51736104,103.73312,69.914286)" id="g1224"><path id="id-cb5c25ba-e883-4703-96be-ec4aaebbf910" d="M 3.328125,-3.015625 C 3.390625,-3.265625 3.625,-4.1875 4.3125,-4.1875 c 0.046875,0 0.296875,0 0.5,0.125 C 4.53125,-4 4.34375,-3.765625 4.34375,-3.515625 c 0,0.15625 0.109375,0.34375 0.375,0.34375 0.21875,0 0.53125,-0.171875 0.53125,-0.578125 0,-0.515625 -0.578125,-0.65625 -0.921875,-0.65625 -0.578125,0 -0.921875,0.53125 -1.046875,0.75 -0.25,-0.65625 -0.78125,-0.75 -1.078125,-0.75 -1.03125,0 -1.609375,1.28125 -1.609375,1.53125 0,0.109375 0.109375,0.109375 0.125,0.109375 0.078125,0 0.109375,-0.03125 0.125,-0.109375 0.34375,-1.0625 1,-1.3125 1.34375,-1.3125 0.1875,0 0.53125,0.09375 0.53125,0.671875 0,0.3125 -0.171875,0.96875 -0.53125,2.375 -0.15625,0.609375 -0.515625,1.03125 -0.953125,1.03125 -0.0625,0 -0.28125,0 -0.5,-0.125 0.25,-0.0625 0.46875,-0.265625 0.46875,-0.546875 0,-0.265625 -0.21875,-0.34375 -0.359375,-0.34375 -0.3125,0 -0.546875,0.25 -0.546875,0.578125 0,0.453125 0.484375,0.65625 0.921875,0.65625 0.671875,0 1.03125,-0.703125 1.046875,-0.75 0.125,0.359375 0.484375,0.75 1.078125,0.75 1.03125,0 1.59375,-1.28125 1.59375,-1.53125 0,-0.109375 -0.078125,-0.109375 -0.109375,-0.109375 -0.09375,0 -0.109375,0.046875 -0.140625,0.109375 -0.328125,1.078125 -1,1.3125 -1.3125,1.3125 -0.390625,0 -0.546875,-0.3125 -0.546875,-0.65625 0,-0.21875 0.046875,-0.4375 0.15625,-0.875 z m 0,0" style="stroke:none;stroke-width:0.68188"></path></g><g style="fill:#000000;fill-opacity:1;stroke-width:0.68188" transform="matrix(0.51736104,0,0,0.51736104,95.674655,62.225296)" id="g1227"><path id="id-23b72aca-5527-4940-8e83-948386cd324d" d="m 4.84375,-3.796875 c 0.046875,-0.140625 0.046875,-0.15625 0.046875,-0.234375 0,-0.171875 -0.140625,-0.265625 -0.296875,-0.265625 -0.09375,0 -0.25,0.0625 -0.34375,0.203125 -0.015625,0.0625 -0.109375,0.359375 -0.140625,0.546875 -0.078125,0.25 -0.140625,0.53125 -0.203125,0.796875 l -0.453125,1.796875 c -0.03125,0.140625 -0.46875,0.84375 -1.125,0.84375 -0.5,0 -0.609375,-0.4375 -0.609375,-0.8125 C 1.71875,-1.375 1.890625,-2 2.21875,-2.875 2.375,-3.28125 2.421875,-3.390625 2.421875,-3.59375 c 0,-0.4375 -0.3125,-0.8125 -0.8125,-0.8125 -0.953125,0 -1.3125,1.453125 -1.3125,1.53125 0,0.109375 0.09375,0.109375 0.109375,0.109375 0.109375,0 0.109375,-0.03125 0.15625,-0.1875 0.28125,-0.9375 0.671875,-1.234375 1.015625,-1.234375 0.078125,0 0.25,0 0.25,0.3125 0,0.25 -0.109375,0.515625 -0.171875,0.703125 -0.40625,1.0625 -0.578125,1.625 -0.578125,2.09375 0,0.890625 0.625,1.1875 1.21875,1.1875 0.390625,0 0.71875,-0.171875 1,-0.453125 -0.125,0.515625 -0.25,1.015625 -0.640625,1.546875 -0.265625,0.328125 -0.640625,0.625 -1.09375,0.625 -0.140625,0 -0.59375,-0.03125 -0.765625,-0.421875 0.15625,0 0.296875,0 0.421875,-0.125 C 1.328125,1.203125 1.421875,1.0625 1.421875,0.875 1.421875,0.5625 1.15625,0.53125 1.0625,0.53125 0.828125,0.53125 0.5,0.6875 0.5,1.171875 c 0,0.5 0.4375,0.875 1.0625,0.875 1.015625,0 2.046875,-0.90625 2.328125,-2.03125 z m 0,0" style="stroke:none;stroke-width:0.68188"></path></g></g><g style="fill:#000000;fill-opacity:1;stroke-width:1.25" transform="matrix(0.56444481,0,0,0.56444481,129.02438,51.072204)" id="g7753"><path id="id-739b97b8-885d-4772-bfcb-4275720da9ba" d="m 2.1875,-3.28125 c 0,-0.1875 0.015625,-0.203125 0.15625,-0.34375 0.390625,-0.40625 0.921875,-0.46875 1.140625,-0.46875 0.65625,0 1.21875,0.609375 1.21875,1.875 0,1.40625 -0.703125,1.921875 -1.34375,1.921875 -0.140625,0 -0.609375,0 -1.0625,-0.546875 C 2.1875,-0.96875 2.1875,-0.984375 2.1875,-1.171875 Z m 0,2.890625 c 0.4375,0.34375 0.875,0.453125 1.28125,0.453125 1.5,0 2.515625,-0.90625 2.515625,-2.28125 0,-1.328125 -0.90625,-2.265625 -2.34375,-2.265625 -0.75,0 -1.28125,0.3125 -1.5,0.484375 V -4.484375 L 0.375,-4.40625 v 0.46875 c 0.609375,0 0.6875,0 0.6875,0.375 V 1.46875 H 0.375 V 1.9375 C 0.640625,1.921875 1.25,1.90625 1.625,1.90625 c 0.390625,0 0.984375,0.015625 1.25,0.03125 V 1.46875 H 2.1875 Z m 0,0" style="stroke:none;stroke-width:1.25"></path></g><path id="path874-3" d="m 123.11042,63.5 c 0.93545,-1.20272 22.71792,-22.717911 22.71792,-22.717911" style="fill:#000000;stroke:#000000;stroke-width:0.465;stroke-linecap:butt;stroke-linejoin:miter;stroke-miterlimit:4;stroke-dasharray:none;stroke-opacity:1;marker-end:url(#marker3004-6)"></path><path style="fill:#e01b24;stroke:#e01b24;stroke-width:0.465;stroke-linecap:butt;stroke-linejoin:miter;stroke-miterlimit:4;stroke-dasharray:none;stroke-opacity:1;marker-end:url(#marker3004-6-9)" d="M 71.63013,63.5 C 70.69468,62.29728 48.91221,40.782089 48.91221,40.782089" id="path874-3-0"></path><g transform="translate(-12.634845)" id="g1323"><g style="fill:#000000;fill-opacity:1;stroke-width:1.15109" id="id-202a18dc-9f96-4736-87cf-df96534221a5" transform="matrix(0.55165058,0,0,0.55165058,2.859211,-24.257773)"><g id="g4329" transform="translate(163.166,134.765)" style="stroke-width:1.15109"><path style="stroke:none;stroke-width:1.15109" d="m 2.1875,-3.28125 c 0,-0.1875 0.015625,-0.203125 0.15625,-0.34375 0.390625,-0.40625 0.921875,-0.46875 1.140625,-0.46875 0.65625,0 1.21875,0.609375 1.21875,1.875 0,1.40625 -0.703125,1.921875 -1.34375,1.921875 -0.140625,0 -0.609375,0 -1.0625,-0.546875 C 2.1875,-0.96875 2.1875,-0.984375 2.1875,-1.171875 Z m 0,2.890625 c 0.4375,0.34375 0.875,0.453125 1.28125,0.453125 1.5,0 2.515625,-0.90625 2.515625,-2.28125 0,-1.328125 -0.90625,-2.265625 -2.34375,-2.265625 -0.75,0 -1.28125,0.3125 -1.5,0.484375 V -4.484375 L 0.375,-4.40625 v 0.46875 c 0.609375,0 0.6875,0 0.6875,0.375 V 1.46875 H 0.375 V 1.9375 C 0.640625,1.921875 1.25,1.90625 1.625,1.90625 c 0.390625,0 0.984375,0.015625 1.25,0.03125 V 1.46875 H 2.1875 Z m 0,0" id="id-e49b7921-c2d4-4865-acbf-4b21994ed227"></path></g></g><g style="fill:#000000;fill-opacity:1;stroke-width:1.15109" id="id-0c780eba-b221-41bf-bff2-ff0fe553b81d" transform="matrix(0.55165058,0,0,0.55165058,-15.771831,-24.257773)"><g id="g4333" transform="translate(172.299,134.765)" style="stroke-width:1.15109"><path style="stroke:none;stroke-width:1.15109" d="m 6.84375,-3.265625 c 0.15625,0 0.34375,0 0.34375,-0.1875 C 7.1875,-3.65625 7,-3.65625 6.859375,-3.65625 h -5.96875 c -0.140625,0 -0.328125,0 -0.328125,0.203125 0,0.1875 0.1875,0.1875 0.328125,0.1875 z m 0.015625,1.9375 c 0.140625,0 0.328125,0 0.328125,-0.203125 0,-0.1875 -0.1875,-0.1875 -0.34375,-0.1875 H 0.890625 c -0.140625,0 -0.328125,0 -0.328125,0.1875 0,0.203125 0.1875,0.203125 0.328125,0.203125 z m 0,0" id="id-44a0f1fd-c3f8-45ea-a2af-55edf5a8a813"></path></g></g><g style="fill:#e01b24;fill-opacity:1;stroke-width:1.15109" id="id-81714cc2-a60c-4315-8914-3d8b8befc5a9" transform="matrix(0.55165058,0,0,0.55165058,-27.068239,-24.257773)"><g id="g4337" transform="translate(182.815,134.765)" style="fill:#e01b24;stroke-width:1.15109"><path style="fill:#e01b24;stroke:none;stroke-width:1.15109" d="m 2.1875,-3.28125 c 0,-0.1875 0.015625,-0.203125 0.15625,-0.34375 0.390625,-0.40625 0.921875,-0.46875 1.140625,-0.46875 0.65625,0 1.21875,0.609375 1.21875,1.875 0,1.40625 -0.703125,1.921875 -1.34375,1.921875 -0.140625,0 -0.609375,0 -1.0625,-0.546875 C 2.1875,-0.96875 2.1875,-0.984375 2.1875,-1.171875 Z m 0,2.890625 c 0.4375,0.34375 0.875,0.453125 1.28125,0.453125 1.5,0 2.515625,-0.90625 2.515625,-2.28125 0,-1.328125 -0.90625,-2.265625 -2.34375,-2.265625 -0.75,0 -1.28125,0.3125 -1.5,0.484375 V -4.484375 L 0.375,-4.40625 v 0.46875 c 0.609375,0 0.6875,0 0.6875,0.375 V 1.46875 H 0.375 V 1.9375 C 0.640625,1.921875 1.25,1.90625 1.625,1.90625 c 0.390625,0 0.984375,0.015625 1.25,0.03125 V 1.46875 H 2.1875 Z m 0,0" id="id-29e361e9-e07e-4775-8d5c-24ddcd5d1bb5"></path></g></g><g style="fill:#e01b24;fill-opacity:1;stroke-width:1.15109" id="id-66b40574-6cba-444a-9f93-1cc042258398" transform="matrix(0.55165058,0,0,0.55165058,-27.068239,-24.257773)"><g id="g4341" transform="translate(189.18,131.15)" style="fill:#e01b24;stroke-width:1.15109"><path style="fill:#e01b24;stroke:none;stroke-width:1.15109" d="m 2.015625,-3.296875 c 0.0625,-0.109375 0.0625,-0.171875 0.0625,-0.21875 0,-0.21875 -0.1875,-0.375 -0.40625,-0.375 -0.265625,0 -0.34375,0.21875 -0.375,0.328125 L 0.375,-0.546875 c -0.015625,0.015625 -0.046875,0.09375 -0.046875,0.109375 0,0.078125 0.21875,0.15625 0.28125,0.15625 0.046875,0 0.046875,-0.015625 0.09375,-0.125 z m 0,0" id="id-4306329c-c5da-42d5-8b9a-50e18d3d3916"></path></g></g><g style="stroke-width:0.65908" transform="matrix(0.53525828,0,0,0.53525828,84.660069,46.398112)" ns2:version="1.0.1" ns2:texconverter="pdflatex" ns2:pdfconverter="inkscape" ns2:text="$ \\mathbf{M}_y $" ns2:preamble="C:\\Users\\Thein Lin Aung\\AppData\\Roaming\\inkscape\\extensions\\textext\\default_packages.tex" ns2:scale="1.0" ns2:alignment="middle center" ns2:inkscapeversion="1.0" ns2:jacobian_sqrt="0.352778" id="g1253"><defs id="id-525ee75d-3a5b-4627-9120-02d2394f7fb8"><g id="id-80d3463c-c24f-4a0d-b4bc-84dde658c858"><symbol id="id-f0b71afe-f09d-4077-962c-595b29c1d61f" overflow="visible"><path id="id-6c3a6422-d98d-486b-9c26-d85d07bde121" d="" style="stroke:none"></path></symbol><symbol id="id-73d6fae3-264b-4cf7-9583-558f2fd76d4a" overflow="visible"><path id="id-e68fbaa0-9377-41e6-be7b-5ceebf2d7381" d="M 5.4375,-1.3125 3.046875,-6.59375 c -0.109375,-0.25 -0.21875,-0.25 -0.4375,-0.25 H 0.40625 V -6.375 h 1.0625 v 5.625 c 0,0.21875 0,0.21875 -0.28125,0.25 -0.234375,0.03125 -0.265625,0.03125 -0.546875,0.03125 H 0.40625 V 0 c 0.375,-0.03125 0.9375,-0.03125 1.328125,-0.03125 0.421875,0 0.9375,0 1.34375,0.03125 v -0.46875 h -0.25 C 2.65625,-0.46875 2.484375,-0.484375 2.296875,-0.5 2.015625,-0.53125 2,-0.53125 2,-0.75 V -6.234375 H 2.015625 L 4.71875,-0.25 C 4.8125,-0.046875 4.9375,0 5.046875,0 5.25,0 5.328125,-0.15625 5.359375,-0.234375 L 8.140625,-6.375 H 8.15625 v 5.90625 H 7.078125 V 0 c 0.359375,-0.03125 1.28125,-0.03125 1.6875,-0.03125 0.421875,0 1.359375,0 1.71875,0.03125 V -0.46875 H 9.40625 V -6.375 h 1.078125 V -6.84375 H 8.28125 c -0.21875,0 -0.34375,0 -0.453125,0.25 z m 0,0" style="stroke:none"></path></symbol><symbol id="id-4dc4a340-f7a2-44b9-81af-69312babf3a0" overflow="visible"><path id="id-d37c258c-d847-41c0-9559-aaefce7ced70" d="" style="stroke:none"></path></symbol><symbol id="id-a2451ca1-7d49-41ca-8322-75659423377e" overflow="visible"><path id="id-4b9aa36f-66c4-464a-927a-4614f76b23d7" d="M 3.875,-2.625 C 3.90625,-2.71875 3.90625,-2.734375 3.90625,-2.78125 3.90625,-2.921875 3.796875,-3 3.671875,-3 3.59375,-3 3.46875,-2.96875 3.390625,-2.84375 3.359375,-2.796875 3.3125,-2.578125 3.28125,-2.4375 L 3.125,-1.859375 c -0.03125,0.171875 -0.25,1.046875 -0.28125,1.125 0,0 -0.3125,0.609375 -0.84375,0.609375 -0.484375,0 -0.484375,-0.453125 -0.484375,-0.578125 0,-0.375 0.15625,-0.8125 0.375,-1.359375 C 1.96875,-2.28125 2,-2.359375 2,-2.484375 2,-2.8125 1.71875,-3.078125 1.34375,-3.078125 0.640625,-3.078125 0.328125,-2.125 0.328125,-2 c 0,0.078125 0.09375,0.078125 0.125,0.078125 0.09375,0 0.09375,-0.03125 0.125,-0.109375 C 0.75,-2.609375 1.046875,-2.875 1.328125,-2.875 1.4375,-2.875 1.5,-2.796875 1.5,-2.640625 c 0,0.171875 -0.0625,0.3125 -0.09375,0.40625 C 1.0625,-1.375 1,-1.125 1,-0.8125 1,-0.703125 1,-0.375 1.265625,-0.140625 1.484375,0.03125 1.78125,0.0625 1.96875,0.0625 2.25,0.0625 2.5,-0.03125 2.71875,-0.25 2.640625,0.140625 2.5625,0.4375 2.265625,0.78125 2.078125,1 1.796875,1.21875 1.421875,1.21875 c -0.046875,0 -0.375,0 -0.515625,-0.21875 0.375,-0.046875 0.375,-0.375 0.375,-0.390625 0,-0.21875 -0.203125,-0.265625 -0.265625,-0.265625 -0.171875,0 -0.40625,0.140625 -0.40625,0.46875 0,0.34375 0.328125,0.609375 0.828125,0.609375 C 2.140625,1.421875 3,0.875 3.21875,0 Z m 0,0" style="stroke:none"></path></symbol></g></defs><g style="stroke-width:0.65908" transform="translate(-149.118,-127.921)" id="id-deaddb31-400f-4aa9-867c-61ed16526801"><g id="id-43ff4933-af8b-4273-81f2-0291530ea3bf" style="fill:#000000;fill-opacity:1;stroke-width:0.65908"><g style="stroke-width:0.65908" transform="translate(148.712,134.765)" id="g1245"><path id="id-c73b78e0-08e4-43c1-863a-2d0b02cca522" d="M 5.4375,-1.3125 3.046875,-6.59375 c -0.109375,-0.25 -0.21875,-0.25 -0.4375,-0.25 H 0.40625 V -6.375 h 1.0625 v 5.625 c 0,0.21875 0,0.21875 -0.28125,0.25 -0.234375,0.03125 -0.265625,0.03125 -0.546875,0.03125 H 0.40625 V 0 c 0.375,-0.03125 0.9375,-0.03125 1.328125,-0.03125 0.421875,0 0.9375,0 1.34375,0.03125 v -0.46875 h -0.25 C 2.65625,-0.46875 2.484375,-0.484375 2.296875,-0.5 2.015625,-0.53125 2,-0.53125 2,-0.75 V -6.234375 H 2.015625 L 4.71875,-0.25 C 4.8125,-0.046875 4.9375,0 5.046875,0 5.25,0 5.328125,-0.15625 5.359375,-0.234375 L 8.140625,-6.375 H 8.15625 v 5.90625 H 7.078125 V 0 c 0.359375,-0.03125 1.28125,-0.03125 1.6875,-0.03125 0.421875,0 1.359375,0 1.71875,0.03125 V -0.46875 H 9.40625 V -6.375 h 1.078125 V -6.84375 H 8.28125 c -0.21875,0 -0.34375,0 -0.453125,0.25 z m 0,0" style="stroke:none;stroke-width:0.65908"></path></g></g><g id="id-cd177112-688b-4381-ac55-94dde1bfae90" style="fill:#000000;fill-opacity:1;stroke-width:0.65908"><g style="stroke-width:0.65908" transform="translate(159.588,136.259)" id="g1249"><path id="id-ebbe03ac-0da2-448e-a9be-57f4cfda4f0a" d="M 3.875,-2.625 C 3.90625,-2.71875 3.90625,-2.734375 3.90625,-2.78125 3.90625,-2.921875 3.796875,-3 3.671875,-3 3.59375,-3 3.46875,-2.96875 3.390625,-2.84375 3.359375,-2.796875 3.3125,-2.578125 3.28125,-2.4375 L 3.125,-1.859375 c -0.03125,0.171875 -0.25,1.046875 -0.28125,1.125 0,0 -0.3125,0.609375 -0.84375,0.609375 -0.484375,0 -0.484375,-0.453125 -0.484375,-0.578125 0,-0.375 0.15625,-0.8125 0.375,-1.359375 C 1.96875,-2.28125 2,-2.359375 2,-2.484375 2,-2.8125 1.71875,-3.078125 1.34375,-3.078125 0.640625,-3.078125 0.328125,-2.125 0.328125,-2 c 0,0.078125 0.09375,0.078125 0.125,0.078125 0.09375,0 0.09375,-0.03125 0.125,-0.109375 C 0.75,-2.609375 1.046875,-2.875 1.328125,-2.875 1.4375,-2.875 1.5,-2.796875 1.5,-2.640625 c 0,0.171875 -0.0625,0.3125 -0.09375,0.40625 C 1.0625,-1.375 1,-1.125 1,-0.8125 1,-0.703125 1,-0.375 1.265625,-0.140625 1.484375,0.03125 1.78125,0.0625 1.96875,0.0625 2.25,0.0625 2.5,-0.03125 2.71875,-0.25 2.640625,0.140625 2.5625,0.4375 2.265625,0.78125 2.078125,1 1.796875,1.21875 1.421875,1.21875 c -0.046875,0 -0.375,0 -0.515625,-0.21875 0.375,-0.046875 0.375,-0.375 0.375,-0.390625 0,-0.21875 -0.203125,-0.265625 -0.265625,-0.265625 -0.171875,0 -0.40625,0.140625 -0.40625,0.46875 0,0.34375 0.328125,0.609375 0.828125,0.609375 C 2.140625,1.421875 3,0.875 3.21875,0 Z m 0,0" style="stroke:none;stroke-width:0.65908"></path></g></g></g></g></g><path style="fill:#003399;stroke:#003399;stroke-width:0.465;stroke-linecap:butt;stroke-linejoin:miter;stroke-miterlimit:4;stroke-dasharray:none;stroke-opacity:1;marker-end:url(#marker3004-6-4)" d="m 95.621137,54.21843 c -0.18899,-1.511914 10e-6,-32.127986 10e-6,-32.127986" id="path874-3-1"></path><g style="stroke-width:0.620127" transform="matrix(0.56888038,0,0,0.56888038,97.994759,25.278859)" ns2:version="1.0.1" ns2:texconverter="pdflatex" ns2:pdfconverter="inkscape" ns2:text="$ \\mathbf{q} $" ns2:preamble="C:\\Users\\Thein Lin Aung\\AppData\\Roaming\\inkscape\\extensions\\textext\\default_packages.tex" ns2:scale="1.0" ns2:alignment="middle center" ns2:inkscapeversion="1.0" ns2:jacobian_sqrt="0.352778" id="g1402"><defs id="id-af668443-d585-42b8-9381-27bdb6509af4"><g id="id-4c25cb01-ca4a-4360-8970-3d9102d0ec11"><symbol id="id-fc1a4ec3-42aa-40ad-a505-71a25da42ef6" overflow="visible"><path id="id-d116d625-b517-4ec9-9cd2-1e5ac5fff5a1" d="" style="stroke:none"></path></symbol><symbol id="id-6966c165-37e8-467b-b3d0-d985c4e201be" overflow="visible"><path id="id-d5029344-7d2d-4ba6-9909-af0f760bb2a9" d="m 4.234375,-1.421875 c 0,0.1875 0,0.21875 -0.15625,0.421875 -0.40625,0.59375 -0.90625,0.703125 -1.203125,0.703125 -0.625,0 -1.21875,-0.578125 -1.21875,-1.90625 0,-1.421875 0.734375,-1.890625 1.328125,-1.890625 0.765625,0 1.25,0.796875 1.25,1.296875 z m 0.125,-2.28125 c -0.34375,-0.484375 -0.90625,-0.78125 -1.5,-0.78125 -1.453125,0 -2.484375,0.890625 -2.484375,2.265625 0,1.40625 1.015625,2.28125 2.390625,2.28125 0.5,0 0.9375,-0.140625 1.40625,-0.546875 V 1.46875 h -0.6875 V 1.9375 c 0.28125,-0.015625 0.875,-0.03125 1.25,-0.03125 0.390625,0 0.984375,0.015625 1.25,0.03125 V 1.46875 h -0.6875 v -5.953125 h -0.40625 z m 0,0" style="stroke:none"></path></symbol></g></defs><g style="stroke-width:0.620127" transform="translate(-149.087,-130.281)" id="id-f97511f6-77d6-4972-9538-b9cdc830c838"><g id="id-91281496-74ad-42fb-912f-c2c16d84e045" style="fill:#000000;fill-opacity:1;stroke-width:0.620127"><g style="stroke-width:0.620127" transform="translate(148.712,134.765)" id="g1398"><path id="id-ed194c05-98eb-42c5-a5b7-7c610ff68845" d="m 4.234375,-1.421875 c 0,0.1875 0,0.21875 -0.15625,0.421875 -0.40625,0.59375 -0.90625,0.703125 -1.203125,0.703125 -0.625,0 -1.21875,-0.578125 -1.21875,-1.90625 0,-1.421875 0.734375,-1.890625 1.328125,-1.890625 0.765625,0 1.25,0.796875 1.25,1.296875 z m 0.125,-2.28125 c -0.34375,-0.484375 -0.90625,-0.78125 -1.5,-0.78125 -1.453125,0 -2.484375,0.890625 -2.484375,2.265625 0,1.40625 1.015625,2.28125 2.390625,2.28125 0.5,0 0.9375,-0.140625 1.40625,-0.546875 V 1.46875 h -0.6875 V 1.9375 c 0.28125,-0.015625 0.875,-0.03125 1.25,-0.03125 0.390625,0 0.984375,0.015625 1.25,0.03125 V 1.46875 h -0.6875 v -5.953125 h -0.40625 z m 0,0" style="stroke:none;stroke-width:0.620127"></path></g></g></g></g><g id="g1790"><g style="fill:#000000;fill-opacity:1;stroke-width:0.584473" id="id-7e5a3a07-472b-475f-bee1-2d87c4b2fb7d" transform="matrix(0.60358255,0,0,0.60358255,7.7541484,-45.856168)"><g id="g1615" transform="translate(148.712,134.765)" style="stroke-width:0.584473"><path style="stroke:none;stroke-width:0.584473" d="m 4.234375,-1.421875 c 0,0.1875 0,0.21875 -0.15625,0.421875 -0.40625,0.59375 -0.90625,0.703125 -1.203125,0.703125 -0.625,0 -1.21875,-0.578125 -1.21875,-1.90625 0,-1.421875 0.734375,-1.890625 1.328125,-1.890625 0.765625,0 1.25,0.796875 1.25,1.296875 z m 0.125,-2.28125 c -0.34375,-0.484375 -0.90625,-0.78125 -1.5,-0.78125 -1.453125,0 -2.484375,0.890625 -2.484375,2.265625 0,1.40625 1.015625,2.28125 2.390625,2.28125 0.5,0 0.9375,-0.140625 1.40625,-0.546875 V 1.46875 h -0.6875 V 1.9375 c 0.28125,-0.015625 0.875,-0.03125 1.25,-0.03125 0.390625,0 0.984375,0.015625 1.25,0.03125 V 1.46875 h -0.6875 v -5.953125 h -0.40625 z m 0,0" id="id-41304895-78ce-433b-bc77-2130441c0ba6"></path></g></g><g style="fill:#000000;fill-opacity:1;stroke-width:0.584473" id="id-fe88858e-bcba-43e9-8a16-e228eb5e58ca" transform="matrix(0.60358255,0,0,0.60358255,7.7541484,-45.856168)"><g id="g1619" transform="translate(154.759,131.15)" style="stroke-width:0.584473"><path style="stroke:none;stroke-width:0.584473" d="m 2.015625,-3.296875 c 0.0625,-0.109375 0.0625,-0.171875 0.0625,-0.21875 0,-0.21875 -0.1875,-0.375 -0.40625,-0.375 -0.265625,0 -0.34375,0.21875 -0.375,0.328125 L 0.375,-0.546875 c -0.015625,0.015625 -0.046875,0.09375 -0.046875,0.109375 0,0.078125 0.21875,0.15625 0.28125,0.15625 0.046875,0 0.046875,-0.015625 0.09375,-0.125 z m 0,0" id="id-b8c5f45d-d3e2-4a22-b295-bbafb05d6517"></path></g></g><g style="fill:#000000;fill-opacity:1;stroke-width:0.584473" id="id-e3fb63ef-d2be-4f88-a2dd-79ac39478f20" transform="matrix(0.60358255,0,0,0.60358255,7.7541484,-45.856168)"><g id="g1623" transform="translate(160.321,134.765)" style="stroke-width:0.584473"><path style="stroke:none;stroke-width:0.584473" d="m 6.84375,-3.265625 c 0.15625,0 0.34375,0 0.34375,-0.1875 C 7.1875,-3.65625 7,-3.65625 6.859375,-3.65625 h -5.96875 c -0.140625,0 -0.328125,0 -0.328125,0.203125 0,0.1875 0.1875,0.1875 0.328125,0.1875 z m 0.015625,1.9375 c 0.140625,0 0.328125,0 0.328125,-0.203125 0,-0.1875 -0.1875,-0.1875 -0.34375,-0.1875 H 0.890625 c -0.140625,0 -0.328125,0 -0.328125,0.1875 0,0.203125 0.1875,0.203125 0.328125,0.203125 z m 0,0" id="id-0274c34c-e19c-4866-baee-1703088ebf41"></path></g></g><g style="fill:#000000;fill-opacity:1;stroke-width:0.584473" id="id-ee26df68-c35e-4909-bc84-2762415bc57a" transform="matrix(0.60358255,0,0,0.60358255,7.7541484,-45.856168)"><g id="g1627" transform="translate(170.838,134.765)" style="stroke-width:0.584473"><path style="stroke:none;stroke-width:0.584473" d="M 5.4375,-1.3125 3.046875,-6.59375 c -0.109375,-0.25 -0.21875,-0.25 -0.4375,-0.25 H 0.40625 V -6.375 h 1.0625 v 5.625 c 0,0.21875 0,0.21875 -0.28125,0.25 -0.234375,0.03125 -0.265625,0.03125 -0.546875,0.03125 H 0.40625 V 0 c 0.375,-0.03125 0.9375,-0.03125 1.328125,-0.03125 0.421875,0 0.9375,0 1.34375,0.03125 v -0.46875 h -0.25 C 2.65625,-0.46875 2.484375,-0.484375 2.296875,-0.5 2.015625,-0.53125 2,-0.53125 2,-0.75 V -6.234375 H 2.015625 L 4.71875,-0.25 C 4.8125,-0.046875 4.9375,0 5.046875,0 5.25,0 5.328125,-0.15625 5.359375,-0.234375 L 8.140625,-6.375 H 8.15625 v 5.90625 H 7.078125 V 0 c 0.359375,-0.03125 1.28125,-0.03125 1.6875,-0.03125 0.421875,0 1.359375,0 1.71875,0.03125 V -0.46875 H 9.40625 V -6.375 h 1.078125 V -6.84375 H 8.28125 c -0.21875,0 -0.34375,0 -0.453125,0.25 z m 0,0" id="id-16ca7a0a-4908-4653-8f0f-0e788190f7bd"></path></g></g><g style="fill:#000000;fill-opacity:1;stroke-width:0.584473" id="id-0477db49-659f-4ff8-bc6c-8027634a7b2b" transform="matrix(0.60358255,0,0,0.60358255,7.7541484,-45.856168)"><g id="g1631" transform="translate(181.713,136.259)" style="stroke-width:0.584473"><path style="stroke:none;stroke-width:0.584473" d="M 3.875,-2.625 C 3.90625,-2.71875 3.90625,-2.734375 3.90625,-2.78125 3.90625,-2.921875 3.796875,-3 3.671875,-3 3.59375,-3 3.46875,-2.96875 3.390625,-2.84375 3.359375,-2.796875 3.3125,-2.578125 3.28125,-2.4375 L 3.125,-1.859375 c -0.03125,0.171875 -0.25,1.046875 -0.28125,1.125 0,0 -0.3125,0.609375 -0.84375,0.609375 -0.484375,0 -0.484375,-0.453125 -0.484375,-0.578125 0,-0.375 0.15625,-0.8125 0.375,-1.359375 C 1.96875,-2.28125 2,-2.359375 2,-2.484375 2,-2.8125 1.71875,-3.078125 1.34375,-3.078125 0.640625,-3.078125 0.328125,-2.125 0.328125,-2 c 0,0.078125 0.09375,0.078125 0.125,0.078125 0.09375,0 0.09375,-0.03125 0.125,-0.109375 C 0.75,-2.609375 1.046875,-2.875 1.328125,-2.875 1.4375,-2.875 1.5,-2.796875 1.5,-2.640625 c 0,0.171875 -0.0625,0.3125 -0.09375,0.40625 C 1.0625,-1.375 1,-1.125 1,-0.8125 1,-0.703125 1,-0.375 1.265625,-0.140625 1.484375,0.03125 1.78125,0.0625 1.96875,0.0625 2.25,0.0625 2.5,-0.03125 2.71875,-0.25 2.640625,0.140625 2.5625,0.4375 2.265625,0.78125 2.078125,1 1.796875,1.21875 1.421875,1.21875 c -0.046875,0 -0.375,0 -0.515625,-0.21875 0.375,-0.046875 0.375,-0.375 0.375,-0.390625 0,-0.21875 -0.203125,-0.265625 -0.265625,-0.265625 -0.171875,0 -0.40625,0.140625 -0.40625,0.46875 0,0.34375 0.328125,0.609375 0.828125,0.609375 C 2.140625,1.421875 3,0.875 3.21875,0 Z m 0,0" id="id-4244abca-f530-4715-9973-c8b943f4a06b"></path></g></g><g style="fill:#000000;fill-opacity:1;stroke-width:0.584473" id="id-92d71af2-43d1-41fd-9f6b-b3118e0d3101" transform="matrix(0.60358255,0,0,0.60358255,7.7541484,-45.856168)"><g id="g1635" transform="translate(186.502,134.765)" style="stroke-width:0.584473"><path style="stroke:none;stroke-width:0.584473" d="m 4.234375,-1.421875 c 0,0.1875 0,0.21875 -0.15625,0.421875 -0.40625,0.59375 -0.90625,0.703125 -1.203125,0.703125 -0.625,0 -1.21875,-0.578125 -1.21875,-1.90625 0,-1.421875 0.734375,-1.890625 1.328125,-1.890625 0.765625,0 1.25,0.796875 1.25,1.296875 z m 0.125,-2.28125 c -0.34375,-0.484375 -0.90625,-0.78125 -1.5,-0.78125 -1.453125,0 -2.484375,0.890625 -2.484375,2.265625 0,1.40625 1.015625,2.28125 2.390625,2.28125 0.5,0 0.9375,-0.140625 1.40625,-0.546875 V 1.46875 h -0.6875 V 1.9375 c 0.28125,-0.015625 0.875,-0.03125 1.25,-0.03125 0.390625,0 0.984375,0.015625 1.25,0.03125 V 1.46875 h -0.6875 v -5.953125 h -0.40625 z m 0,0" id="id-6ce0db39-2519-4565-8356-ec3332f0a486"></path></g></g><g style="fill:#000000;fill-opacity:1;stroke-width:0.584473" id="id-34a9f565-9380-4010-ac1b-1be3ae958530" transform="matrix(0.60358255,0,0,0.60358255,7.7541484,-45.856168)"><g id="g1639" transform="translate(195.316,134.765)" style="stroke-width:0.584473"><path style="stroke:none;stroke-width:0.584473" d="m 6.84375,-3.265625 c 0.15625,0 0.34375,0 0.34375,-0.1875 C 7.1875,-3.65625 7,-3.65625 6.859375,-3.65625 h -5.96875 c -0.140625,0 -0.328125,0 -0.328125,0.203125 0,0.1875 0.1875,0.1875 0.328125,0.1875 z m 0.015625,1.9375 c 0.140625,0 0.328125,0 0.328125,-0.203125 0,-0.1875 -0.1875,-0.1875 -0.34375,-0.1875 H 0.890625 c -0.140625,0 -0.328125,0 -0.328125,0.1875 0,0.203125 0.1875,0.203125 0.328125,0.203125 z m 0,0" id="id-63045066-2d35-438c-bfac-b82ce9e4fb94"></path></g></g><g style="fill:#003399;fill-opacity:1;stroke-width:0.584473" id="id-180fdcb8-cc91-46f7-b858-76b3bfb7b120" transform="matrix(0.60358255,0,0,0.60358255,7.7541484,-45.856168)"><g id="g1643" transform="translate(205.832,134.765)" style="fill:#003399;stroke-width:0.584473"><path style="fill:#003399;stroke:none;stroke-width:0.584473" d="m 4.234375,-1.421875 c 0,0.1875 0,0.21875 -0.15625,0.421875 -0.40625,0.59375 -0.90625,0.703125 -1.203125,0.703125 -0.625,0 -1.21875,-0.578125 -1.21875,-1.90625 0,-1.421875 0.734375,-1.890625 1.328125,-1.890625 0.765625,0 1.25,0.796875 1.25,1.296875 z m 0.125,-2.28125 c -0.34375,-0.484375 -0.90625,-0.78125 -1.5,-0.78125 -1.453125,0 -2.484375,0.890625 -2.484375,2.265625 0,1.40625 1.015625,2.28125 2.390625,2.28125 0.5,0 0.9375,-0.140625 1.40625,-0.546875 V 1.46875 h -0.6875 V 1.9375 c 0.28125,-0.015625 0.875,-0.03125 1.25,-0.03125 0.390625,0 0.984375,0.015625 1.25,0.03125 V 1.46875 h -0.6875 v -5.953125 h -0.40625 z m 0,0" id="id-203d7433-1b49-40da-bfc1-6eba145e36b8"></path></g></g></g></g></svg> 