<?xml version="1.0" encoding="UTF-8" standalone="no"?> <svg xmlns:ns2="http://www.iki.fi/pav/software/textext/" xmlns:dc="http://purl.org/dc/elements/1.1/" xmlns:cc="http://creativecommons.org/ns#" xmlns:rdf="http://www.w3.org/1999/02/22-rdf-syntax-ns#" xmlns:svg="http://www.w3.org/2000/svg" xmlns="http://www.w3.org/2000/svg" xmlns:sodipodi="http://sodipodi.sourceforge.net/DTD/sodipodi-0.dtd" xmlns:inkscape="http://www.inkscape.org/namespaces/inkscape" sodipodi:docname="eigen_reflection_3.svg" inkscape:version="1.0 (4035a4fb49, 2020-05-01)" id="svg3173" version="1.1" viewBox="0 0 67.691855 42.824259" height="42.824261mm" width="67.691856mm"><defs id="defs3167"><marker inkscape:isstock="true" style="overflow:visible" id="Arrow2Lstart" refX="0" refY="0" orient="auto" inkscape:stockid="Arrow2Lstart"><path transform="matrix(1.1,0,0,1.1,1.1,0)" d="M 8.7185878,4.0337352 -2.2072895,0.01601326 8.7185884,-4.0017078 c -1.7454984,2.3720609 -1.7354408,5.6174519 -6e-7,8.035443 z" style="fill:#000000;fill-opacity:1;fill-rule:evenodd;stroke:#000000;stroke-width:0.625;stroke-linejoin:round;stroke-opacity:1" id="path853"></path></marker><marker inkscape:collect="always" inkscape:isstock="true" style="overflow:visible" id="Arrow2Lend" refX="0" refY="0" orient="auto" inkscape:stockid="Arrow2Lend"><path transform="matrix(-1.1,0,0,-1.1,-1.1,0)" d="M 8.7185878,4.0337352 -2.2072895,0.01601326 8.7185884,-4.0017078 c -1.7454984,2.3720609 -1.7354408,5.6174519 -6e-7,8.035443 z" style="fill:#000000;fill-opacity:1;fill-rule:evenodd;stroke:#000000;stroke-width:0.625;stroke-linejoin:round;stroke-opacity:1" id="path856"></path></marker><marker inkscape:stockid="Arrow1Mend" orient="auto" refY="0" refX="0" id="marker3004" style="overflow:visible" inkscape:isstock="true"><path id="path3002" d="M 0,0 5,-5 -12.5,0 5,5 Z" style="fill:#000000;fill-opacity:1;fill-rule:evenodd;stroke:#000000;stroke-width:1pt;stroke-opacity:1" transform="matrix(-0.4,0,0,-0.4,-4,0)"></path></marker><marker inkscape:isstock="true" style="overflow:visible" id="marker3004-6" refX="0" refY="0" orient="auto" inkscape:stockid="Arrow1Mend"><path transform="matrix(-0.4,0,0,-0.4,-4,0)" style="fill:#000000;fill-opacity:1;fill-rule:evenodd;stroke:#000000;stroke-width:1pt;stroke-opacity:1" d="M 0,0 5,-5 -12.5,0 5,5 Z" id="path3002-8"></path></marker><g id="id-da3baf26-5fb8-493f-9c4c-8172b556bf14"><symbol overflow="visible" id="id-e91c7d25-99d5-47c7-8654-34ba2d559747"><path style="stroke:none" d="" id="id-2aa87f83-5041-4f7e-b9f2-03853d8db04c"></path></symbol><symbol overflow="visible" id="id-66fc7922-8a21-4dd3-bb56-3342dad847a0"><path style="stroke:none" d="m 1.328125,-0.828125 c 0.53125,-0.578125 0.828125,-0.828125 1.1875,-1.140625 0,0 0.609375,-0.53125 0.96875,-0.890625 C 4.4375,-3.78125 4.65625,-4.265625 4.65625,-4.3125 c 0,-0.09375 -0.09375,-0.09375 -0.109375,-0.09375 -0.078125,0 -0.09375,0.015625 -0.15625,0.109375 -0.296875,0.484375 -0.5,0.640625 -0.734375,0.640625 -0.25,0 -0.359375,-0.15625 -0.515625,-0.328125 -0.1875,-0.21875 -0.359375,-0.421875 -0.6875,-0.421875 -0.75,0 -1.203125,0.921875 -1.203125,1.140625 0,0.046875 0.03125,0.109375 0.109375,0.109375 0.09375,0 0.109375,-0.046875 0.140625,-0.109375 0.1875,-0.46875 0.765625,-0.46875 0.84375,-0.46875 0.203125,0 0.390625,0.0625 0.625,0.140625 0.40625,0.15625 0.515625,0.15625 0.765625,0.15625 -0.359375,0.421875 -1.1875,1.140625 -1.375,1.296875 l -0.90625,0.84375 C 0.78125,-0.625 0.421875,-0.0625 0.421875,0.015625 c 0,0.09375 0.109375,0.09375 0.125,0.09375 0.078125,0 0.09375,-0.015625 0.15625,-0.125 0.234375,-0.359375 0.53125,-0.625 0.859375,-0.625 0.21875,0 0.328125,0.09375 0.578125,0.375 0.15625,0.21875 0.34375,0.375 0.625,0.375 1,0 1.578125,-1.265625 1.578125,-1.53125 0,-0.046875 -0.046875,-0.109375 -0.125,-0.109375 -0.09375,0 -0.109375,0.0625 -0.140625,0.140625 C 3.84375,-0.75 3.203125,-0.5625 2.875,-0.5625 c -0.1875,0 -0.375,-0.0625 -0.578125,-0.125 -0.34375,-0.125 -0.5,-0.171875 -0.703125,-0.171875 -0.015625,0 -0.171875,0 -0.265625,0.03125 z m 0,0" id="id-647c48ea-30ad-4e5b-aee4-2a31cc933e12"></path></symbol></g><g id="id-64338d0c-d3a9-4b1c-9d30-eabe0827b65a"><symbol overflow="visible" id="id-e01fa99b-caa8-4820-a291-49ff75f9b8c3"><path style="stroke:none" d="" id="id-12a15e10-a90a-44ec-bd21-21f101d0e9bc"></path></symbol><symbol overflow="visible" id="id-77c6e1fc-b6cf-4111-89c6-f41c266abbc9"><path style="stroke:none" d="m 4.53125,-4.984375 c 0,-0.65625 -0.171875,-2.046875 -1.1875,-2.046875 -1.390625,0 -2.921875,2.8125 -2.921875,5.09375 0,0.9375 0.28125,2.046875 1.1875,2.046875 1.40625,0 2.921875,-2.859375 2.921875,-5.09375 z M 1.46875,-3.625 C 1.640625,-4.25 1.84375,-5.046875 2.25,-5.765625 2.515625,-6.25 2.875,-6.8125 3.328125,-6.8125 c 0.484375,0 0.546875,0.640625 0.546875,1.203125 0,0.5 -0.078125,1 -0.3125,1.984375 z m 2,0.328125 C 3.359375,-2.84375 3.15625,-2 2.765625,-1.28125 c -0.34375,0.6875 -0.71875,1.171875 -1.15625,1.171875 -0.328125,0 -0.53125,-0.296875 -0.53125,-1.21875 0,-0.421875 0.0625,-1 0.3125,-1.96875 z m 0,0" id="id-0d1ddd58-7d6f-4c70-8531-91449eb953a8"></path></symbol></g><marker inkscape:stockid="Arrow1Mend" orient="auto" refY="0" refX="0" id="marker3004-6-9" style="overflow:visible" inkscape:isstock="true"><path id="path3002-8-0" d="M 0,0 5,-5 -12.5,0 5,5 Z" style="fill:#e01b24;fill-opacity:1;fill-rule:evenodd;stroke:#e01b24;stroke-width:1pt;stroke-opacity:1" transform="matrix(-0.4,0,0,-0.4,-4,0)"></path></marker><defs id="id-244304be-4d51-42d8-809a-25449eabe3c9"><g id="id-e436870a-1275-4305-bc3d-5b058900b3cc"><symbol overflow="visible" id="id-1861df9e-82a0-4c5d-966a-6b4e9093108e"><path style="stroke:none" d="" id="id-71de9951-726d-4c7b-a042-23f91a4a6de6"></path></symbol><symbol overflow="visible" id="id-f0b4ce8e-14a1-4b14-a695-eb8639484c72"><path style="stroke:none" d="M 9.234375,-6.046875 C 9.328125,-6.40625 9.34375,-6.5 10.09375,-6.5 c 0.21875,0 0.3125,0 0.3125,-0.203125 0,-0.109375 -0.09375,-0.109375 -0.265625,-0.109375 h -1.3125 c -0.265625,0 -0.28125,0 -0.390625,0.1875 L 4.796875,-0.9375 4.015625,-6.578125 C 3.984375,-6.8125 3.96875,-6.8125 3.703125,-6.8125 H 2.34375 c -0.1875,0 -0.296875,0 -0.296875,0.1875 0,0.125 0.09375,0.125 0.28125,0.125 0.140625,0 0.3125,0.015625 0.4375,0.015625 0.15625,0.03125 0.21875,0.046875 0.21875,0.171875 0,0.03125 -0.015625,0.0625 -0.046875,0.1875 l -1.265625,5.0625 c -0.09375,0.40625 -0.265625,0.71875 -1.078125,0.75 -0.046875,0 -0.171875,0.015625 -0.171875,0.1875 0,0.09375 0.0625,0.125 0.140625,0.125 0.3125,0 0.65625,-0.03125 1,-0.03125 C 1.890625,-0.03125 2.25,0 2.578125,0 c 0.046875,0 0.1875,0 0.1875,-0.203125 0,-0.109375 -0.109375,-0.109375 -0.1875,-0.109375 -0.5625,0 -0.671875,-0.203125 -0.671875,-0.4375 0,-0.0625 0,-0.125 0.03125,-0.234375 L 3.296875,-6.40625 H 3.3125 l 0.859375,6.171875 C 4.1875,-0.109375 4.203125,0 4.3125,0 4.421875,0 4.484375,-0.109375 4.53125,-0.171875 l 4.03125,-6.3125 h 0.015625 l -1.4375,5.703125 c -0.09375,0.390625 -0.109375,0.46875 -0.90625,0.46875 -0.15625,0 -0.265625,0 -0.265625,0.1875 C 5.96875,0 6.078125,0 6.109375,0 6.390625,0 7.0625,-0.03125 7.34375,-0.03125 7.75,-0.03125 8.1875,0 8.59375,0 8.65625,0 8.78125,0 8.78125,-0.203125 8.78125,-0.3125 8.6875,-0.3125 8.5,-0.3125 c -0.359375,0 -0.640625,0 -0.640625,-0.171875 0,-0.046875 0,-0.0625 0.046875,-0.25 z m 0,0" id="id-5be76151-6de9-4932-97c4-9dd50b1eb2fd"></path></symbol><symbol overflow="visible" id="id-976eef1a-788f-462f-ae2c-32a0ab374d94"><path style="stroke:none" d="" id="id-f0532778-46e9-460f-a686-e480938e0ae3"></path></symbol><symbol overflow="visible" id="id-03a3830f-b80e-4530-b3b5-2ed992d9382e"><path style="stroke:none" d="M 3.875,-2.625 C 3.90625,-2.71875 3.90625,-2.734375 3.90625,-2.78125 3.90625,-2.921875 3.796875,-3 3.671875,-3 3.59375,-3 3.46875,-2.96875 3.390625,-2.84375 3.359375,-2.796875 3.3125,-2.578125 3.28125,-2.4375 L 3.125,-1.859375 c -0.03125,0.171875 -0.25,1.046875 -0.28125,1.125 0,0 -0.3125,0.609375 -0.84375,0.609375 -0.484375,0 -0.484375,-0.453125 -0.484375,-0.578125 0,-0.375 0.15625,-0.8125 0.375,-1.359375 C 1.96875,-2.28125 2,-2.359375 2,-2.484375 2,-2.8125 1.71875,-3.078125 1.34375,-3.078125 0.640625,-3.078125 0.328125,-2.125 0.328125,-2 c 0,0.078125 0.09375,0.078125 0.125,0.078125 0.09375,0 0.09375,-0.03125 0.125,-0.109375 C 0.75,-2.609375 1.046875,-2.875 1.328125,-2.875 1.4375,-2.875 1.5,-2.796875 1.5,-2.640625 c 0,0.171875 -0.0625,0.3125 -0.09375,0.40625 C 1.0625,-1.375 1,-1.125 1,-0.8125 1,-0.703125 1,-0.375 1.265625,-0.140625 1.484375,0.03125 1.78125,0.0625 1.96875,0.0625 2.25,0.0625 2.5,-0.03125 2.71875,-0.25 2.640625,0.140625 2.5625,0.4375 2.265625,0.78125 2.078125,1 1.796875,1.21875 1.421875,1.21875 c -0.046875,0 -0.375,0 -0.515625,-0.21875 0.375,-0.046875 0.375,-0.375 0.375,-0.390625 0,-0.21875 -0.203125,-0.265625 -0.265625,-0.265625 -0.171875,0 -0.40625,0.140625 -0.40625,0.46875 0,0.34375 0.328125,0.609375 0.828125,0.609375 C 2.140625,1.421875 3,0.875 3.21875,0 Z m 0,0" id="id-4adb1acb-61a7-40b0-83d1-4f9262745078"></path></symbol><symbol overflow="visible" id="id-130b13ba-3a5b-4fa0-b712-2cd6b78dddc5"><path style="stroke:none" d="" id="id-41c61438-27da-4c42-a21e-b301d25047cd"></path></symbol><symbol overflow="visible" id="id-29de293e-0152-46d3-a790-1519a980b153"><path style="stroke:none" d="m 2.1875,-3.28125 c 0,-0.1875 0.015625,-0.203125 0.15625,-0.34375 0.390625,-0.40625 0.921875,-0.46875 1.140625,-0.46875 0.65625,0 1.21875,0.609375 1.21875,1.875 0,1.40625 -0.703125,1.921875 -1.34375,1.921875 -0.140625,0 -0.609375,0 -1.0625,-0.546875 C 2.1875,-0.96875 2.1875,-0.984375 2.1875,-1.171875 Z m 0,2.890625 c 0.4375,0.34375 0.875,0.453125 1.28125,0.453125 1.5,0 2.515625,-0.90625 2.515625,-2.28125 0,-1.328125 -0.90625,-2.265625 -2.34375,-2.265625 -0.75,0 -1.28125,0.3125 -1.5,0.484375 V -4.484375 L 0.375,-4.40625 v 0.46875 c 0.609375,0 0.6875,0 0.6875,0.375 V 1.46875 H 0.375 V 1.9375 C 0.640625,1.921875 1.25,1.90625 1.625,1.90625 c 0.390625,0 0.984375,0.015625 1.25,0.03125 V 1.46875 H 2.1875 Z m 0,0" id="id-dd45bb5f-fdf2-4102-bc5e-4e6a0717c271"></path></symbol><symbol overflow="visible" id="id-0e371c9b-eeef-4dbb-bd00-5ebd5dcce1bd"><path style="stroke:none" d="" id="id-dd91e281-dcb9-45c6-adba-bf191eabeafb"></path></symbol><symbol overflow="visible" id="id-1a6d92f5-d9cc-453e-89eb-ff22a642cc34"><path style="stroke:none" d="m 6.84375,-3.265625 c 0.15625,0 0.34375,0 0.34375,-0.1875 C 7.1875,-3.65625 7,-3.65625 6.859375,-3.65625 h -5.96875 c -0.140625,0 -0.328125,0 -0.328125,0.203125 0,0.1875 0.1875,0.1875 0.328125,0.1875 z m 0.015625,1.9375 c 0.140625,0 0.328125,0 0.328125,-0.203125 0,-0.1875 -0.1875,-0.1875 -0.34375,-0.1875 H 0.890625 c -0.140625,0 -0.328125,0 -0.328125,0.1875 0,0.203125 0.1875,0.203125 0.328125,0.203125 z m 0,0" id="id-2ad3f2bc-ac23-4f5f-8000-ce9d1e0b74be"></path></symbol><symbol overflow="visible" id="id-205329e6-32d9-4a5a-80ed-35fab9d56ff3"><path style="stroke:none" d="" id="id-e88cc034-93e7-40f7-b30c-18f7f1c464de"></path></symbol><symbol overflow="visible" id="id-f66734a2-a8c1-4017-900c-bf8b3271ad51"><path style="stroke:none" d="m 2.015625,-3.296875 c 0.0625,-0.109375 0.0625,-0.171875 0.0625,-0.21875 0,-0.21875 -0.1875,-0.375 -0.40625,-0.375 -0.265625,0 -0.34375,0.21875 -0.375,0.328125 L 0.375,-0.546875 c -0.015625,0.015625 -0.046875,0.09375 -0.046875,0.109375 0,0.078125 0.21875,0.15625 0.28125,0.15625 0.046875,0 0.046875,-0.015625 0.09375,-0.125 z m 0,0" id="id-5507e663-a55c-4c2c-8440-5defc0fcf9c8"></path></symbol></g></defs><defs id="id-06ec7a55-074c-468c-803f-9f9f02a77b4e"><g id="id-559c73ea-40e8-4388-bbdb-bdb0b9f16040"><symbol overflow="visible" id="id-dd1e54c8-e659-4617-8ab7-ab5a929f4687"><path style="stroke:none" d="" id="id-08d804e0-eda5-4fa3-9b9c-7962003b7c73"></path></symbol><symbol overflow="visible" id="id-13fb4db0-3c85-4b74-8607-0e896256c680"><path style="stroke:none" d="M 0.453125,1.21875 C 0.375,1.5625 0.34375,1.625 -0.09375,1.625 c -0.109375,0 -0.21875,0 -0.21875,0.1875 0,0.078125 0.046875,0.125 0.125,0.125 0.265625,0 0.5625,-0.03125 0.828125,-0.03125 0.34375,0 0.671875,0.03125 1,0.03125 0.046875,0 0.171875,0 0.171875,-0.203125 C 1.8125,1.625 1.71875,1.625 1.578125,1.625 c -0.5,0 -0.5,-0.0625 -0.5,-0.15625 0,-0.125 0.421875,-1.75 0.484375,-2 0.125,0.296875 0.40625,0.640625 0.921875,0.640625 1.15625,0 2.40625,-1.453125 2.40625,-2.921875 0,-0.9375 -0.578125,-1.59375 -1.328125,-1.59375 -0.5,0 -0.984375,0.359375 -1.3125,0.75 -0.09375,-0.546875 -0.53125,-0.75 -0.890625,-0.75 -0.46875,0 -0.65625,0.390625 -0.734375,0.5625 C 0.4375,-3.5 0.3125,-2.90625 0.3125,-2.875 c 0,0.109375 0.09375,0.109375 0.109375,0.109375 0.109375,0 0.109375,-0.015625 0.171875,-0.234375 0.171875,-0.703125 0.375,-1.1875 0.734375,-1.1875 0.171875,0 0.3125,0.078125 0.3125,0.453125 0,0.234375 -0.03125,0.34375 -0.078125,0.515625 z m 1.75,-4.328125 C 2.265625,-3.375 2.546875,-3.65625 2.71875,-3.8125 c 0.359375,-0.296875 0.640625,-0.375 0.8125,-0.375 0.390625,0 0.640625,0.34375 0.640625,0.9375 0,0.59375 -0.328125,1.734375 -0.515625,2.109375 -0.34375,0.703125 -0.8125,1.03125 -1.1875,1.03125 C 1.8125,-0.109375 1.6875,-0.9375 1.6875,-1 c 0,-0.015625 0,-0.03125 0.03125,-0.15625 z m 0,0" id="id-b6d5a34a-cd52-4b34-8878-c8d3d9485601"></path></symbol><symbol overflow="visible" id="id-65c832e1-bd6e-4043-bfc2-fddb9d4c1e86"><path style="stroke:none" d="" id="id-dee78d49-fb61-403f-9588-218b0c4dabc0"></path></symbol><symbol overflow="visible" id="id-705e788d-53e1-4a7f-949b-d006a5f6c402"><path style="stroke:none" d="m 2.328125,-4.4375 c 0,-0.1875 0,-0.1875 -0.203125,-0.1875 -0.453125,0.4375 -1.078125,0.4375 -1.359375,0.4375 v 0.25 c 0.15625,0 0.625,0 1,-0.1875 v 3.546875 c 0,0.234375 0,0.328125 -0.6875,0.328125 H 0.8125 V 0 c 0.125,0 0.984375,-0.03125 1.234375,-0.03125 0.21875,0 1.09375,0.03125 1.25,0.03125 V -0.25 H 3.03125 c -0.703125,0 -0.703125,-0.09375 -0.703125,-0.328125 z m 0,0" id="id-6428a5a0-9906-49a8-a116-194dde55d0ec"></path></symbol><symbol overflow="visible" id="id-e0774806-4ad7-43a7-9f98-9e398b1b24f6"><path style="stroke:none" d="M 3.515625,-1.265625 H 3.28125 c -0.015625,0.15625 -0.09375,0.5625 -0.1875,0.625 C 3.046875,-0.59375 2.515625,-0.59375 2.40625,-0.59375 H 1.125 c 0.734375,-0.640625 0.984375,-0.84375 1.390625,-1.171875 0.515625,-0.40625 1,-0.84375 1,-1.5 0,-0.84375 -0.734375,-1.359375 -1.625,-1.359375 -0.859375,0 -1.453125,0.609375 -1.453125,1.25 0,0.34375 0.296875,0.390625 0.375,0.390625 0.15625,0 0.359375,-0.125 0.359375,-0.375 0,-0.125 -0.046875,-0.375 -0.40625,-0.375 C 0.984375,-4.21875 1.453125,-4.375 1.78125,-4.375 c 0.703125,0 1.0625,0.546875 1.0625,1.109375 0,0.609375 -0.4375,1.078125 -0.65625,1.328125 L 0.515625,-0.265625 C 0.4375,-0.203125 0.4375,-0.1875 0.4375,0 h 2.875 z m 0,0" id="id-c3f1699e-7b60-4554-8e1c-358f6b2a028d"></path></symbol><symbol overflow="visible" id="id-2134d31c-8f47-4dfa-9512-fca6fbf93d9b"><path style="stroke:none" d="" id="id-daf76443-bc85-4351-a9e8-da1deb381d9a"></path></symbol><symbol overflow="visible" id="id-7f7c30d4-9131-40fb-a422-17fd68b2399a"><path style="stroke:none" d="m 6.5625,-2.296875 c 0.171875,0 0.359375,0 0.359375,-0.203125 0,-0.1875 -0.1875,-0.1875 -0.359375,-0.1875 H 1.171875 c -0.171875,0 -0.34375,0 -0.34375,0.1875 0,0.203125 0.171875,0.203125 0.34375,0.203125 z m 0,0" id="id-17c53bf3-aced-4c7c-89b0-439d6a66150a"></path></symbol></g></defs><defs id="id-5eda1f73-0c94-49c0-ab3a-4b5bd2087472"><g id="id-d2dda557-54ee-401a-9124-9cf735ea7d97"><symbol overflow="visible" id="id-248d15f0-e6a5-4fdf-9f67-091516066523"><path style="stroke:none" d="" id="id-e6c64861-f709-4f50-bb31-24a341ca00de"></path></symbol><symbol overflow="visible" id="id-218b52ec-f02e-4bea-a7db-50b65ce42251"><path style="stroke:none" d="M 0.453125,1.21875 C 0.375,1.5625 0.34375,1.625 -0.09375,1.625 c -0.109375,0 -0.21875,0 -0.21875,0.1875 0,0.078125 0.046875,0.125 0.125,0.125 0.265625,0 0.5625,-0.03125 0.828125,-0.03125 0.34375,0 0.671875,0.03125 1,0.03125 0.046875,0 0.171875,0 0.171875,-0.203125 C 1.8125,1.625 1.71875,1.625 1.578125,1.625 c -0.5,0 -0.5,-0.0625 -0.5,-0.15625 0,-0.125 0.421875,-1.75 0.484375,-2 0.125,0.296875 0.40625,0.640625 0.921875,0.640625 1.15625,0 2.40625,-1.453125 2.40625,-2.921875 0,-0.9375 -0.578125,-1.59375 -1.328125,-1.59375 -0.5,0 -0.984375,0.359375 -1.3125,0.75 -0.09375,-0.546875 -0.53125,-0.75 -0.890625,-0.75 -0.46875,0 -0.65625,0.390625 -0.734375,0.5625 C 0.4375,-3.5 0.3125,-2.90625 0.3125,-2.875 c 0,0.109375 0.09375,0.109375 0.109375,0.109375 0.109375,0 0.109375,-0.015625 0.171875,-0.234375 0.171875,-0.703125 0.375,-1.1875 0.734375,-1.1875 0.171875,0 0.3125,0.078125 0.3125,0.453125 0,0.234375 -0.03125,0.34375 -0.078125,0.515625 z m 1.75,-4.328125 C 2.265625,-3.375 2.546875,-3.65625 2.71875,-3.8125 c 0.359375,-0.296875 0.640625,-0.375 0.8125,-0.375 0.390625,0 0.640625,0.34375 0.640625,0.9375 0,0.59375 -0.328125,1.734375 -0.515625,2.109375 -0.34375,0.703125 -0.8125,1.03125 -1.1875,1.03125 C 1.8125,-0.109375 1.6875,-0.9375 1.6875,-1 c 0,-0.015625 0,-0.03125 0.03125,-0.15625 z m 0,0" id="id-ad303f00-1b5e-47e5-a4ca-f0c3e9d07204"></path></symbol><symbol overflow="visible" id="id-ecc1d763-5363-46f0-9867-0374f1ec97ca"><path style="stroke:none" d="" id="id-8b48e0c9-ee27-4bac-b9fe-89acb5f93085"></path></symbol><symbol overflow="visible" id="id-3815f84a-1586-446a-a220-cc5fc2b3f68b"><path style="stroke:none" d="M 1.734375,-0.734375 C 1.671875,-0.5 1.4375,-0.125 1.078125,-0.125 c -0.015625,0 -0.234375,0 -0.375,-0.09375 0.28125,-0.09375 0.3125,-0.34375 0.3125,-0.390625 0,-0.15625 -0.125,-0.25 -0.28125,-0.25 -0.203125,0 -0.40625,0.15625 -0.40625,0.421875 0,0.34375 0.390625,0.5 0.734375,0.5 0.328125,0 0.609375,-0.1875 0.78125,-0.484375 C 2.015625,-0.0625 2.390625,0.0625 2.671875,0.0625 c 0.8125,0 1.234375,-0.859375 1.234375,-1.0625 0,-0.09375 -0.09375,-0.09375 -0.109375,-0.09375 -0.109375,0 -0.109375,0.046875 -0.140625,0.125 -0.140625,0.484375 -0.5625,0.84375 -0.953125,0.84375 -0.28125,0 -0.421875,-0.1875 -0.421875,-0.453125 0,-0.1875 0.171875,-0.8125 0.359375,-1.59375 C 2.78125,-2.703125 3.09375,-2.875 3.328125,-2.875 c 0.015625,0 0.21875,0 0.375,0.09375 -0.21875,0.0625 -0.3125,0.265625 -0.3125,0.390625 0,0.140625 0.125,0.25 0.28125,0.25 0.15625,0 0.390625,-0.125 0.390625,-0.421875 0,-0.390625 -0.453125,-0.515625 -0.71875,-0.515625 -0.359375,0 -0.640625,0.234375 -0.78125,0.5 -0.125,-0.28125 -0.453125,-0.5 -0.84375,-0.5 C 0.9375,-3.078125 0.5,-2.21875 0.5,-2 c 0,0.078125 0.09375,0.078125 0.109375,0.078125 0.09375,0 0.09375,-0.015625 0.140625,-0.109375 C 0.921875,-2.578125 1.359375,-2.875 1.703125,-2.875 1.9375,-2.875 2.125,-2.75 2.125,-2.421875 2.125,-2.28125 2.03125,-1.9375 1.96875,-1.6875 Z m 0,0" id="id-89bd5d28-36ce-457f-a188-3b666dd240e2"></path></symbol><symbol overflow="visible" id="id-dfc57951-044a-4c39-a90f-b9bbced84c87"><path style="stroke:none" d="M 3.875,-2.625 C 3.90625,-2.71875 3.90625,-2.734375 3.90625,-2.78125 3.90625,-2.921875 3.796875,-3 3.671875,-3 3.59375,-3 3.46875,-2.96875 3.390625,-2.84375 3.359375,-2.796875 3.3125,-2.578125 3.28125,-2.4375 L 3.125,-1.859375 c -0.03125,0.171875 -0.25,1.046875 -0.28125,1.125 0,0 -0.3125,0.609375 -0.84375,0.609375 -0.484375,0 -0.484375,-0.453125 -0.484375,-0.578125 0,-0.375 0.15625,-0.8125 0.375,-1.359375 C 1.96875,-2.28125 2,-2.359375 2,-2.484375 2,-2.8125 1.71875,-3.078125 1.34375,-3.078125 0.640625,-3.078125 0.328125,-2.125 0.328125,-2 c 0,0.078125 0.09375,0.078125 0.125,0.078125 0.09375,0 0.09375,-0.03125 0.125,-0.109375 C 0.75,-2.609375 1.046875,-2.875 1.328125,-2.875 1.4375,-2.875 1.5,-2.796875 1.5,-2.640625 c 0,0.171875 -0.0625,0.3125 -0.09375,0.40625 C 1.0625,-1.375 1,-1.125 1,-0.8125 1,-0.703125 1,-0.375 1.265625,-0.140625 1.484375,0.03125 1.78125,0.0625 1.96875,0.0625 2.25,0.0625 2.5,-0.03125 2.71875,-0.25 2.640625,0.140625 2.5625,0.4375 2.265625,0.78125 2.078125,1 1.796875,1.21875 1.421875,1.21875 c -0.046875,0 -0.375,0 -0.515625,-0.21875 0.375,-0.046875 0.375,-0.375 0.375,-0.390625 0,-0.21875 -0.203125,-0.265625 -0.265625,-0.265625 -0.171875,0 -0.40625,0.140625 -0.40625,0.46875 0,0.34375 0.328125,0.609375 0.828125,0.609375 C 2.140625,1.421875 3,0.875 3.21875,0 Z m 0,0" id="id-e37a3466-8f3f-4ec0-a955-46f7a1796d4d"></path></symbol></g></defs><marker inkscape:stockid="Arrow1Mend" orient="auto" refY="0" refX="0" id="marker3004-6-4" style="overflow:visible" inkscape:isstock="true"><path id="path3002-8-8" d="M 0,0 5,-5 -12.5,0 5,5 Z" style="fill:#003399;fill-opacity:1;fill-rule:evenodd;stroke:#003399;stroke-width:1pt;stroke-opacity:1" transform="matrix(-0.4,0,0,-0.4,-4,0)"></path></marker><defs id="id-5331e5b2-d5f0-46e3-9981-ff6f79de3c3a"><g id="id-46861365-a9d1-4783-8525-299a96c163de"><symbol overflow="visible" id="id-97cfb0b6-1a88-44d6-95c8-2c32ea5dfcb0"><path style="stroke:none" d="" id="id-20747d68-6ae7-4d13-b2cf-62a277e7b8ef"></path></symbol><symbol overflow="visible" id="id-cb134c63-127b-46b6-920a-ea200c1c4906"><path style="stroke:none" d="m 4.234375,-1.421875 c 0,0.1875 0,0.21875 -0.15625,0.421875 -0.40625,0.59375 -0.90625,0.703125 -1.203125,0.703125 -0.625,0 -1.21875,-0.578125 -1.21875,-1.90625 0,-1.421875 0.734375,-1.890625 1.328125,-1.890625 0.765625,0 1.25,0.796875 1.25,1.296875 z m 0.125,-2.28125 c -0.34375,-0.484375 -0.90625,-0.78125 -1.5,-0.78125 -1.453125,0 -2.484375,0.890625 -2.484375,2.265625 0,1.40625 1.015625,2.28125 2.390625,2.28125 0.5,0 0.9375,-0.140625 1.40625,-0.546875 V 1.46875 h -0.6875 V 1.9375 c 0.28125,-0.015625 0.875,-0.03125 1.25,-0.03125 0.390625,0 0.984375,0.015625 1.25,0.03125 V 1.46875 h -0.6875 v -5.953125 h -0.40625 z m 0,0" id="id-ab05b7e2-c1bc-404f-ba8b-583c6f238000"></path></symbol><symbol overflow="visible" id="id-33ca16f1-525c-4a3d-bf19-5eeeeea51ae7"><path style="stroke:none" d="M 5.4375,-1.3125 3.046875,-6.59375 c -0.109375,-0.25 -0.21875,-0.25 -0.4375,-0.25 H 0.40625 V -6.375 h 1.0625 v 5.625 c 0,0.21875 0,0.21875 -0.28125,0.25 -0.234375,0.03125 -0.265625,0.03125 -0.546875,0.03125 H 0.40625 V 0 c 0.375,-0.03125 0.9375,-0.03125 1.328125,-0.03125 0.421875,0 0.9375,0 1.34375,0.03125 v -0.46875 h -0.25 C 2.65625,-0.46875 2.484375,-0.484375 2.296875,-0.5 2.015625,-0.53125 2,-0.53125 2,-0.75 V -6.234375 H 2.015625 L 4.71875,-0.25 C 4.8125,-0.046875 4.9375,0 5.046875,0 5.25,0 5.328125,-0.15625 5.359375,-0.234375 L 8.140625,-6.375 H 8.15625 v 5.90625 H 7.078125 V 0 c 0.359375,-0.03125 1.28125,-0.03125 1.6875,-0.03125 0.421875,0 1.359375,0 1.71875,0.03125 V -0.46875 H 9.40625 V -6.375 h 1.078125 V -6.84375 H 8.28125 c -0.21875,0 -0.34375,0 -0.453125,0.25 z m 0,0" id="id-00c7b8e1-a526-42ed-89a1-c01887a30abb"></path></symbol><symbol overflow="visible" id="id-522d47ec-266e-4446-bbd9-b0c6d64406fa"><path style="stroke:none" d="" id="id-74a07c37-5582-4aa8-bf94-0ec49a2247fa"></path></symbol><symbol overflow="visible" id="id-70fd8cf5-e042-4fc7-9638-9dab35ce7707"><path style="stroke:none" d="m 2.015625,-3.296875 c 0.0625,-0.109375 0.0625,-0.171875 0.0625,-0.21875 0,-0.21875 -0.1875,-0.375 -0.40625,-0.375 -0.265625,0 -0.34375,0.21875 -0.375,0.328125 L 0.375,-0.546875 c -0.015625,0.015625 -0.046875,0.09375 -0.046875,0.109375 0,0.078125 0.21875,0.15625 0.28125,0.15625 0.046875,0 0.046875,-0.015625 0.09375,-0.125 z m 0,0" id="id-3d4652a9-76fe-44a0-956b-d1955673b909"></path></symbol><symbol overflow="visible" id="id-f47fbd07-c615-4c6f-bbce-aff1c9668879"><path style="stroke:none" d="" id="id-42ea0ebf-4f51-4813-8653-8854244777a7"></path></symbol><symbol overflow="visible" id="id-f08f143d-7503-4404-a95a-3d6480f3febc"><path style="stroke:none" d="m 6.84375,-3.265625 c 0.15625,0 0.34375,0 0.34375,-0.1875 C 7.1875,-3.65625 7,-3.65625 6.859375,-3.65625 h -5.96875 c -0.140625,0 -0.328125,0 -0.328125,0.203125 0,0.1875 0.1875,0.1875 0.328125,0.1875 z m 0.015625,1.9375 c 0.140625,0 0.328125,0 0.328125,-0.203125 0,-0.1875 -0.1875,-0.1875 -0.34375,-0.1875 H 0.890625 c -0.140625,0 -0.328125,0 -0.328125,0.1875 0,0.203125 0.1875,0.203125 0.328125,0.203125 z m 0,0" id="id-210f54fe-85fd-47a4-9578-72ea71653558"></path></symbol><symbol overflow="visible" id="id-b0ccac8e-d4e5-48bf-ba26-486ec554c7de"><path style="stroke:none" d="" id="id-572fce5e-5e5c-4a9f-a704-85d6ec6f6eb7"></path></symbol><symbol overflow="visible" id="id-f237e70d-be64-4a3b-95f0-239362d6643f"><path style="stroke:none" d="M 3.875,-2.625 C 3.90625,-2.71875 3.90625,-2.734375 3.90625,-2.78125 3.90625,-2.921875 3.796875,-3 3.671875,-3 3.59375,-3 3.46875,-2.96875 3.390625,-2.84375 3.359375,-2.796875 3.3125,-2.578125 3.28125,-2.4375 L 3.125,-1.859375 c -0.03125,0.171875 -0.25,1.046875 -0.28125,1.125 0,0 -0.3125,0.609375 -0.84375,0.609375 -0.484375,0 -0.484375,-0.453125 -0.484375,-0.578125 0,-0.375 0.15625,-0.8125 0.375,-1.359375 C 1.96875,-2.28125 2,-2.359375 2,-2.484375 2,-2.8125 1.71875,-3.078125 1.34375,-3.078125 0.640625,-3.078125 0.328125,-2.125 0.328125,-2 c 0,0.078125 0.09375,0.078125 0.125,0.078125 0.09375,0 0.09375,-0.03125 0.125,-0.109375 C 0.75,-2.609375 1.046875,-2.875 1.328125,-2.875 1.4375,-2.875 1.5,-2.796875 1.5,-2.640625 c 0,0.171875 -0.0625,0.3125 -0.09375,0.40625 C 1.0625,-1.375 1,-1.125 1,-0.8125 1,-0.703125 1,-0.375 1.265625,-0.140625 1.484375,0.03125 1.78125,0.0625 1.96875,0.0625 2.25,0.0625 2.5,-0.03125 2.71875,-0.25 2.640625,0.140625 2.5625,0.4375 2.265625,0.78125 2.078125,1 1.796875,1.21875 1.421875,1.21875 c -0.046875,0 -0.375,0 -0.515625,-0.21875 0.375,-0.046875 0.375,-0.375 0.375,-0.390625 0,-0.21875 -0.203125,-0.265625 -0.265625,-0.265625 -0.171875,0 -0.40625,0.140625 -0.40625,0.46875 0,0.34375 0.328125,0.609375 0.828125,0.609375 C 2.140625,1.421875 3,0.875 3.21875,0 Z m 0,0" id="id-21249067-e3a1-445f-8325-2f9bc90aeded"></path></symbol></g></defs><defs id="id-c6f36ff0-b05a-4c15-85a6-059b1e69ce1a"><g id="id-26697d2a-7fef-4873-8b4a-aa0cdf49a52c"><symbol overflow="visible" id="id-b6a04020-a1c3-4040-bf36-cfdfc8b96da3"><path style="stroke:none" d="" id="id-0b4a1a30-60bb-4139-b6a4-90148520d74d"></path></symbol><symbol overflow="visible" id="id-fb072602-dcc3-405f-a168-6e336d25d8c8"><path style="stroke:none" d="m 2.1875,-3.28125 c 0,-0.1875 0.015625,-0.203125 0.15625,-0.34375 0.390625,-0.40625 0.921875,-0.46875 1.140625,-0.46875 0.65625,0 1.21875,0.609375 1.21875,1.875 0,1.40625 -0.703125,1.921875 -1.34375,1.921875 -0.140625,0 -0.609375,0 -1.0625,-0.546875 C 2.1875,-0.96875 2.1875,-0.984375 2.1875,-1.171875 Z m 0,2.890625 c 0.4375,0.34375 0.875,0.453125 1.28125,0.453125 1.5,0 2.515625,-0.90625 2.515625,-2.28125 0,-1.328125 -0.90625,-2.265625 -2.34375,-2.265625 -0.75,0 -1.28125,0.3125 -1.5,0.484375 V -4.484375 L 0.375,-4.40625 v 0.46875 c 0.609375,0 0.6875,0 0.6875,0.375 V 1.46875 H 0.375 V 1.9375 C 0.640625,1.921875 1.25,1.90625 1.625,1.90625 c 0.390625,0 0.984375,0.015625 1.25,0.03125 V 1.46875 H 2.1875 Z m 0,0" id="id-8f4513d8-d238-4c14-ade0-bb391aad5958"></path></symbol><symbol overflow="visible" id="id-5f9eaa54-5db1-4349-9bcd-162d555b60b1"><path style="stroke:none" d="M 5.4375,-1.3125 3.046875,-6.59375 c -0.109375,-0.25 -0.21875,-0.25 -0.4375,-0.25 H 0.40625 V -6.375 h 1.0625 v 5.625 c 0,0.21875 0,0.21875 -0.28125,0.25 -0.234375,0.03125 -0.265625,0.03125 -0.546875,0.03125 H 0.40625 V 0 c 0.375,-0.03125 0.9375,-0.03125 1.328125,-0.03125 0.421875,0 0.9375,0 1.34375,0.03125 v -0.46875 h -0.25 C 2.65625,-0.46875 2.484375,-0.484375 2.296875,-0.5 2.015625,-0.53125 2,-0.53125 2,-0.75 V -6.234375 H 2.015625 L 4.71875,-0.25 C 4.8125,-0.046875 4.9375,0 5.046875,0 5.25,0 5.328125,-0.15625 5.359375,-0.234375 L 8.140625,-6.375 H 8.15625 v 5.90625 H 7.078125 V 0 c 0.359375,-0.03125 1.28125,-0.03125 1.6875,-0.03125 0.421875,0 1.359375,0 1.71875,0.03125 V -0.46875 H 9.40625 V -6.375 h 1.078125 V -6.84375 H 8.28125 c -0.21875,0 -0.34375,0 -0.453125,0.25 z m 0,0" id="id-58fb0985-0aa5-4bcb-99ba-ed79d64b9d05"></path></symbol><symbol overflow="visible" id="id-9df28a3a-734c-4e42-84ac-7b87e764646d"><path style="stroke:none" d="" id="id-e6c1b2ff-4b72-4558-997f-7a44e21a71f4"></path></symbol><symbol overflow="visible" id="id-b2e71f27-2cdb-42ff-a9b9-cb4527eec046"><path style="stroke:none" d="m 2.015625,-3.296875 c 0.0625,-0.109375 0.0625,-0.171875 0.0625,-0.21875 0,-0.21875 -0.1875,-0.375 -0.40625,-0.375 -0.265625,0 -0.34375,0.21875 -0.375,0.328125 L 0.375,-0.546875 c -0.015625,0.015625 -0.046875,0.09375 -0.046875,0.109375 0,0.078125 0.21875,0.15625 0.28125,0.15625 0.046875,0 0.046875,-0.015625 0.09375,-0.125 z m 0,0" id="id-686dcf19-d3c4-4745-b939-5a17c87db73f"></path></symbol><symbol overflow="visible" id="id-0598dcd8-defb-484d-bd6c-839de5bb9630"><path style="stroke:none" d="" id="id-8baea954-9f3d-4d25-a847-4564fe976297"></path></symbol><symbol overflow="visible" id="id-6a69a6ba-8be4-4b9a-ae47-bc788907171e"><path style="stroke:none" d="m 6.84375,-3.265625 c 0.15625,0 0.34375,0 0.34375,-0.1875 C 7.1875,-3.65625 7,-3.65625 6.859375,-3.65625 h -5.96875 c -0.140625,0 -0.328125,0 -0.328125,0.203125 0,0.1875 0.1875,0.1875 0.328125,0.1875 z m 0.015625,1.9375 c 0.140625,0 0.328125,0 0.328125,-0.203125 0,-0.1875 -0.1875,-0.1875 -0.34375,-0.1875 H 0.890625 c -0.140625,0 -0.328125,0 -0.328125,0.1875 0,0.203125 0.1875,0.203125 0.328125,0.203125 z m 0,0" id="id-62c7dc50-98cc-4012-b1ec-3e0b0ba2a345"></path></symbol><symbol overflow="visible" id="id-d6887363-400a-4e41-8728-044eef080354"><path style="stroke:none" d="" id="id-47e36074-6ab4-405f-a81f-f7a2cbec8843"></path></symbol><symbol overflow="visible" id="id-00c08651-1a22-4e6e-83b4-5cb4cf1b59b0"><path style="stroke:none" d="M 3.875,-2.625 C 3.90625,-2.71875 3.90625,-2.734375 3.90625,-2.78125 3.90625,-2.921875 3.796875,-3 3.671875,-3 3.59375,-3 3.46875,-2.96875 3.390625,-2.84375 3.359375,-2.796875 3.3125,-2.578125 3.28125,-2.4375 L 3.125,-1.859375 c -0.03125,0.171875 -0.25,1.046875 -0.28125,1.125 0,0 -0.3125,0.609375 -0.84375,0.609375 -0.484375,0 -0.484375,-0.453125 -0.484375,-0.578125 0,-0.375 0.15625,-0.8125 0.375,-1.359375 C 1.96875,-2.28125 2,-2.359375 2,-2.484375 2,-2.8125 1.71875,-3.078125 1.34375,-3.078125 0.640625,-3.078125 0.328125,-2.125 0.328125,-2 c 0,0.078125 0.09375,0.078125 0.125,0.078125 0.09375,0 0.09375,-0.03125 0.125,-0.109375 C 0.75,-2.609375 1.046875,-2.875 1.328125,-2.875 1.4375,-2.875 1.5,-2.796875 1.5,-2.640625 c 0,0.171875 -0.0625,0.3125 -0.09375,0.40625 C 1.0625,-1.375 1,-1.125 1,-0.8125 1,-0.703125 1,-0.375 1.265625,-0.140625 1.484375,0.03125 1.78125,0.0625 1.96875,0.0625 2.25,0.0625 2.5,-0.03125 2.71875,-0.25 2.640625,0.140625 2.5625,0.4375 2.265625,0.78125 2.078125,1 1.796875,1.21875 1.421875,1.21875 c -0.046875,0 -0.375,0 -0.515625,-0.21875 0.375,-0.046875 0.375,-0.375 0.375,-0.390625 0,-0.21875 -0.203125,-0.265625 -0.265625,-0.265625 -0.171875,0 -0.40625,0.140625 -0.40625,0.46875 0,0.34375 0.328125,0.609375 0.828125,0.609375 C 2.140625,1.421875 3,0.875 3.21875,0 Z m 0,0" id="id-7466de28-747b-469b-9189-f50a7252950b"></path></symbol><symbol overflow="visible" id="id-93c7f5a3-020e-4034-a497-e50e7eff9fdd"><path style="stroke:none" d="" id="id-a34eeeab-ca5f-41c0-84fd-b15acd0d4c5a"></path></symbol><symbol overflow="visible" id="id-ba391575-3f1d-485a-b4c5-0ac2d2c02927"><path style="stroke:none" d="m 6.5625,-2.296875 c 0.171875,0 0.359375,0 0.359375,-0.203125 0,-0.1875 -0.1875,-0.1875 -0.359375,-0.1875 H 1.171875 c -0.171875,0 -0.34375,0 -0.34375,0.1875 0,0.203125 0.171875,0.203125 0.34375,0.203125 z m 0,0" id="id-164cf345-4212-4d04-929e-d2487cdd93da"></path></symbol></g></defs><defs id="id-4931f73e-61b2-48c5-bf95-204cd9869f09"><g id="id-3dbc914d-97ba-400e-8b3a-830ccbe1da2b"><symbol overflow="visible" id="id-990ee16b-1d68-413b-a81b-34e08e7e1deb"><path style="stroke:none" d="" id="id-64e4e338-45b3-4b19-90f0-c3d89cb79592"></path></symbol><symbol overflow="visible" id="id-8c75ac79-7471-44b0-ab53-f514201a47bb"><path style="stroke:none" d="m 2.1875,-3.28125 c 0,-0.1875 0.015625,-0.203125 0.15625,-0.34375 0.390625,-0.40625 0.921875,-0.46875 1.140625,-0.46875 0.65625,0 1.21875,0.609375 1.21875,1.875 0,1.40625 -0.703125,1.921875 -1.34375,1.921875 -0.140625,0 -0.609375,0 -1.0625,-0.546875 C 2.1875,-0.96875 2.1875,-0.984375 2.1875,-1.171875 Z m 0,2.890625 c 0.4375,0.34375 0.875,0.453125 1.28125,0.453125 1.5,0 2.515625,-0.90625 2.515625,-2.28125 0,-1.328125 -0.90625,-2.265625 -2.34375,-2.265625 -0.75,0 -1.28125,0.3125 -1.5,0.484375 V -4.484375 L 0.375,-4.40625 v 0.46875 c 0.609375,0 0.6875,0 0.6875,0.375 V 1.46875 H 0.375 V 1.9375 C 0.640625,1.921875 1.25,1.90625 1.625,1.90625 c 0.390625,0 0.984375,0.015625 1.25,0.03125 V 1.46875 H 2.1875 Z m 0,0" id="id-393bfa34-1ebf-4ddb-bb7c-63f3fb4b0d9a"></path></symbol><symbol overflow="visible" id="id-c13e3411-1872-4bdf-861d-0f691055b89c"><path style="stroke:none" d="M 5.4375,-1.3125 3.046875,-6.59375 c -0.109375,-0.25 -0.21875,-0.25 -0.4375,-0.25 H 0.40625 V -6.375 h 1.0625 v 5.625 c 0,0.21875 0,0.21875 -0.28125,0.25 -0.234375,0.03125 -0.265625,0.03125 -0.546875,0.03125 H 0.40625 V 0 c 0.375,-0.03125 0.9375,-0.03125 1.328125,-0.03125 0.421875,0 0.9375,0 1.34375,0.03125 v -0.46875 h -0.25 C 2.65625,-0.46875 2.484375,-0.484375 2.296875,-0.5 2.015625,-0.53125 2,-0.53125 2,-0.75 V -6.234375 H 2.015625 L 4.71875,-0.25 C 4.8125,-0.046875 4.9375,0 5.046875,0 5.25,0 5.328125,-0.15625 5.359375,-0.234375 L 8.140625,-6.375 H 8.15625 v 5.90625 H 7.078125 V 0 c 0.359375,-0.03125 1.28125,-0.03125 1.6875,-0.03125 0.421875,0 1.359375,0 1.71875,0.03125 V -0.46875 H 9.40625 V -6.375 h 1.078125 V -6.84375 H 8.28125 c -0.21875,0 -0.34375,0 -0.453125,0.25 z m 0,0" id="id-7471dba1-209f-4d41-9652-615a46439049"></path></symbol><symbol overflow="visible" id="id-ae2bb3de-2088-4635-b8bd-777b2eb4c688"><path style="stroke:none" d="" id="id-2572c0c7-74be-4da9-9902-290dd4ea5279"></path></symbol><symbol overflow="visible" id="id-33eb44c5-43a2-42a8-9fa7-6b8e2d899b31"><path style="stroke:none" d="m 2.015625,-3.296875 c 0.0625,-0.109375 0.0625,-0.171875 0.0625,-0.21875 0,-0.21875 -0.1875,-0.375 -0.40625,-0.375 -0.265625,0 -0.34375,0.21875 -0.375,0.328125 L 0.375,-0.546875 c -0.015625,0.015625 -0.046875,0.09375 -0.046875,0.109375 0,0.078125 0.21875,0.15625 0.28125,0.15625 0.046875,0 0.046875,-0.015625 0.09375,-0.125 z m 0,0" id="id-d40337b4-f59b-44d7-ba40-385c738436f1"></path></symbol><symbol overflow="visible" id="id-7b5568e3-f7b7-498a-a63d-2af4bb98c7cc"><path style="stroke:none" d="" id="id-73b5d157-db50-4d27-a27e-5ee329556a88"></path></symbol><symbol overflow="visible" id="id-29b7a8af-e6ed-4b5c-9013-c8c4716daef4"><path style="stroke:none" d="m 6.84375,-3.265625 c 0.15625,0 0.34375,0 0.34375,-0.1875 C 7.1875,-3.65625 7,-3.65625 6.859375,-3.65625 h -5.96875 c -0.140625,0 -0.328125,0 -0.328125,0.203125 0,0.1875 0.1875,0.1875 0.328125,0.1875 z m 0.015625,1.9375 c 0.140625,0 0.328125,0 0.328125,-0.203125 0,-0.1875 -0.1875,-0.1875 -0.34375,-0.1875 H 0.890625 c -0.140625,0 -0.328125,0 -0.328125,0.1875 0,0.203125 0.1875,0.203125 0.328125,0.203125 z m 0,0" id="id-520aa42a-2dca-4c7f-a679-d0fb1f777197"></path></symbol><symbol overflow="visible" id="id-e6321fb9-bca4-406b-b3a0-da5c07c91176"><path style="stroke:none" d="m 2.9375,-6.375 c 0,-0.25 0,-0.265625 -0.234375,-0.265625 C 2.078125,-6 1.203125,-6 0.890625,-6 v 0.3125 c 0.203125,0 0.78125,0 1.296875,-0.265625 v 5.171875 c 0,0.359375 -0.03125,0.46875 -0.921875,0.46875 h -0.3125 V 0 c 0.34375,-0.03125 1.203125,-0.03125 1.609375,-0.03125 0.390625,0 1.265625,0 1.609375,0.03125 v -0.3125 h -0.3125 c -0.90625,0 -0.921875,-0.109375 -0.921875,-0.46875 z m 0,0" id="id-f808e522-3b3e-4582-95c5-f335dcd9d1d6"></path></symbol><symbol overflow="visible" id="id-42302420-af7c-4529-b0df-59cfa33bc041"><path style="stroke:none" d="m 1.265625,-0.765625 1.0625,-1.03125 c 1.546875,-1.375 2.140625,-1.90625 2.140625,-2.90625 0,-1.140625 -0.890625,-1.9375 -2.109375,-1.9375 -1.125,0 -1.859375,0.921875 -1.859375,1.8125 0,0.546875 0.5,0.546875 0.53125,0.546875 0.171875,0 0.515625,-0.109375 0.515625,-0.53125 0,-0.25 -0.1875,-0.515625 -0.53125,-0.515625 -0.078125,0 -0.09375,0 -0.125,0.015625 0.21875,-0.65625 0.765625,-1.015625 1.34375,-1.015625 0.90625,0 1.328125,0.8125 1.328125,1.625 C 3.5625,-3.90625 3.078125,-3.125 2.515625,-2.5 l -1.90625,2.125 C 0.5,-0.265625 0.5,-0.234375 0.5,0 H 4.203125 L 4.46875,-1.734375 H 4.234375 C 4.171875,-1.4375 4.109375,-1 4,-0.84375 3.9375,-0.765625 3.28125,-0.765625 3.0625,-0.765625 Z m 0,0" id="id-430d974f-d95f-43fa-bbd1-6d5031b56863"></path></symbol><symbol overflow="visible" id="id-f1f3552b-ed8f-4303-a602-6051695ade0a"><path style="stroke:none" d="" id="id-86ff36a5-6b10-4d87-b8a7-615e0419b1cb"></path></symbol><symbol overflow="visible" id="id-f7aa44dc-49f3-4a82-bbba-aa4fbca141b0"><path style="stroke:none" d="m 6.984375,23.421875 c 0,-0.04687 -0.03125,-0.0625 -0.046875,-0.09375 -0.375,-0.375 -1.03125,-1.03125 -1.703125,-2.109375 C 3.625,18.640625 2.90625,15.40625 2.90625,11.5625 c 0,-2.6875 0.359375,-6.140625 2,-9.109375 C 5.6875,1.03125 6.515625,0.21875 6.953125,-0.21875 c 0.03125,-0.03125 0.03125,-0.046875 0.03125,-0.078125 0,-0.109375 -0.078125,-0.109375 -0.21875,-0.109375 -0.140625,0 -0.15625,0 -0.3125,0.15625 -3.328125,3.046875 -4.375,7.609375 -4.375,11.796875 0,3.921875 0.890625,7.875 3.421875,10.859375 0.203125,0.21875 0.578125,0.625 0.984375,0.984375 0.125,0.125 0.140625,0.125 0.28125,0.125 0.140625,0 0.21875,0 0.21875,-0.09375 z m 0,0" id="id-040fba62-eb3b-4154-98f1-651fff57c59d"></path></symbol><symbol overflow="visible" id="id-4a603a28-3e9b-43a6-885b-b0655f71b00e"><path style="stroke:none" d="M 5.25,11.5625 C 5.25,7.640625 4.359375,3.703125 1.828125,0.71875 1.625,0.484375 1.25,0.078125 0.84375,-0.28125 c -0.125,-0.125 -0.140625,-0.125 -0.28125,-0.125 -0.125,0 -0.21875,0 -0.21875,0.109375 0,0.03125 0.046875,0.078125 0.0625,0.09375 0.34375,0.359375 1.015625,1.03125 1.6875,2.109375 1.609375,2.5625 2.328125,5.8125 2.328125,9.640625 0,2.6875 -0.359375,6.140625 -2,9.125 -0.78125,1.40625 -1.609375,2.234375 -2.03125,2.65625 -0.015625,0.03125 -0.046875,0.0625 -0.046875,0.09375 0,0.09375 0.09375,0.09375 0.21875,0.09375 0.140625,0 0.15625,0 0.3125,-0.15625 C 4.203125,20.328125 5.25,15.765625 5.25,11.5625 Z m 0,0" id="id-1f58d304-07a4-4253-b539-c7e27508a085"></path></symbol></g></defs></defs><metadata id="metadata3170"></metadata><g transform="translate(-78.804766,-32.104026)" id="layer1" inkscape:groupmode="layer" inkscape:label="Layer 1"><path id="path833" d="m 95.662468,57.063592 c 0,1.102759 0,15.659095 0,15.659095 h 15.203452" style="fill:none;stroke:#000000;stroke-width:0.264999;stroke-linecap:butt;stroke-linejoin:miter;stroke-miterlimit:4;stroke-dasharray:none;stroke-opacity:1;marker-start:url(#Arrow2Lstart);marker-end:url(#Arrow2Lend)"></path><path id="id-cb5c25ba-e883-4703-96be-ec4aaebbf910" d="m 110.77435,69.348044 c 0.0323,-0.12934 0.15359,-0.606282 0.50928,-0.606282 0.0242,0 0.15359,0 0.25868,0.06467 -0.14551,0.03234 -0.24251,0.153591 -0.24251,0.282932 0,0.08084 0.0566,0.177842 0.19401,0.177842 0.11317,0 0.27485,-0.08892 0.27485,-0.299099 0,-0.266764 -0.2991,-0.339518 -0.47695,-0.339518 -0.2991,0 -0.47694,0.274848 -0.54161,0.388021 -0.12934,-0.339518 -0.40419,-0.388021 -0.55778,-0.388021 -0.53353,0 -0.83263,0.662869 -0.83263,0.792209 0,0.05659 0.0566,0.05659 0.0647,0.05659 0.0404,0 0.0566,-0.01617 0.0647,-0.05659 0.17785,-0.549696 0.51736,-0.679036 0.69521,-0.679036 0.097,0 0.27485,0.0485 0.27485,0.347602 0,0.161675 -0.0889,0.501193 -0.27485,1.228732 -0.0808,0.315267 -0.26677,0.533529 -0.49311,0.533529 -0.0323,0 -0.14551,0 -0.25868,-0.06467 0.12934,-0.03234 0.24251,-0.137425 0.24251,-0.282932 0,-0.137424 -0.11317,-0.177843 -0.18593,-0.177843 -0.16167,0 -0.28293,0.12934 -0.28293,0.299099 0,0.234429 0.2506,0.339518 0.47694,0.339518 0.34761,0 0.53353,-0.363769 0.54162,-0.38802 0.0647,0.185926 0.25059,0.38802 0.55778,0.38802 0.53352,0 0.82454,-0.662868 0.82454,-0.792209 0,-0.05659 -0.0404,-0.05659 -0.0566,-0.05659 -0.0485,0 -0.0566,0.02425 -0.0727,0.05659 -0.16976,0.55778 -0.51736,0.679037 -0.67904,0.679037 -0.20209,0 -0.28293,-0.161676 -0.28293,-0.339519 0,-0.113172 0.0242,-0.226345 0.0808,-0.45269 z m 0,0" style="fill:#000000;fill-opacity:1;stroke:none;stroke-width:0.352778"></path><path id="id-23b72aca-5527-4940-8e83-948386cd324d" d="m 100.16862,57.014914 c 0.0242,-0.07275 0.0242,-0.08084 0.0242,-0.121257 0,-0.08892 -0.0727,-0.137424 -0.15359,-0.137424 -0.0485,0 -0.129337,0.03234 -0.17784,0.105089 -0.0081,0.03234 -0.05659,0.185927 -0.07275,0.282932 -0.04042,0.12934 -0.07275,0.274848 -0.105089,0.412272 l -0.23443,0.929633 c -0.01617,0.07275 -0.242513,0.436524 -0.582031,0.436524 -0.25868,0 -0.315267,-0.226346 -0.315267,-0.420356 0,-0.234429 0.08892,-0.55778 0.258681,-1.010471 0.08084,-0.210178 0.105089,-0.266764 0.105089,-0.371853 0,-0.226346 -0.161676,-0.420356 -0.420356,-0.420356 -0.49311,0 -0.679036,0.75179 -0.679036,0.792209 0,0.05659 0.0485,0.05659 0.05659,0.05659 0.05659,0 0.05659,-0.01617 0.08084,-0.097 0.145507,-0.485026 0.347602,-0.638617 0.525444,-0.638617 0.04042,0 0.129341,0 0.129341,0.161675 0,0.12934 -0.05659,0.266764 -0.08892,0.363769 -0.210178,0.549697 -0.299099,0.840712 -0.299099,1.083225 0,0.460775 0.323351,0.614366 0.630534,0.614366 0.202094,0 0.371853,-0.08892 0.517361,-0.234429 -0.06467,0.266764 -0.129341,0.525445 -0.331435,0.800293 -0.137424,0.169759 -0.331434,0.323351 -0.565863,0.323351 -0.07275,0 -0.307183,-0.01617 -0.396105,-0.218262 0.08084,0 0.153592,0 0.218262,-0.06467 0.05659,-0.04042 0.105089,-0.113173 0.105089,-0.210178 0,-0.161675 -0.137424,-0.177843 -0.185927,-0.177843 -0.121256,0 -0.291015,0.08084 -0.291015,0.331434 0,0.258681 0.226345,0.452691 0.549696,0.452691 0.525444,0 1.058973,-0.468858 1.204481,-1.050889 z m 0,0" style="fill:#000000;fill-opacity:1;stroke:none;stroke-width:0.352778"></path><path sodipodi:nodetypes="cc" id="path874-3" d="m 107.59969,61.157937 c 1.14816,-0.879902 26.14215,-13.043931 26.14215,-13.043931" style="fill:#000000;stroke:#000000;stroke-width:0.465;stroke-linecap:butt;stroke-linejoin:miter;stroke-miterlimit:4;stroke-dasharray:none;stroke-opacity:1;marker-end:url(#marker3004-6)"></path><path sodipodi:nodetypes="cc" style="fill:#e01b24;stroke:#e01b24;stroke-width:0.465;stroke-linecap:butt;stroke-linejoin:miter;stroke-miterlimit:4;stroke-dasharray:none;stroke-opacity:1;marker-end:url(#marker3004-6-9)" d="m 107.54809,61.078592 c 0.57386,-1.411483 13.01619,-26.114404 13.01619,-26.114404" id="path874-3-0"></path><path id="path2409" d="M 93.546909,74.834743 134.19064,34.191024" style="fill:none;stroke:#000000;stroke-width:0.264583;stroke-linecap:butt;stroke-linejoin:miter;stroke-miterlimit:4;stroke-dasharray:0.529166, 0.529166;stroke-dashoffset:0;stroke-opacity:1"></path><path sodipodi:nodetypes="cc" id="path2423" d="m 98.668061,69.855999 c 0,0 1.17483,1.199567 1.12262,2.932276" style="fill:none;stroke:#000000;stroke-width:0.264583px;stroke-linecap:butt;stroke-linejoin:miter;stroke-opacity:1"></path><g style="stroke-width:1.29706" transform="matrix(0.40797508,0,0,0.40797508,100.34101,68.557757)" ns2:version="1.0.1" ns2:texconverter="pdflatex" ns2:pdfconverter="inkscape" ns2:text="$ 45 ^\\circ $" ns2:preamble="C:\\Users\\Thein Lin Aung\\AppData\\Roaming\\inkscape\\extensions\\textext\\default_packages.tex" ns2:scale="1.5" ns2:alignment="middle center" ns2:inkscapeversion="1.0" ns2:jacobian_sqrt="0.529167" id="g2609"><defs id="id-9440ac0b-7e99-426c-9a76-6f46fffb21f7"><g id="id-2edaa44a-a60f-4dba-8f0b-8ec68b32a935"><symbol id="id-20bb8c9d-bfbd-40c6-8679-0bfa446ca659" overflow="visible"><path id="id-377f99ea-af8b-4b33-94df-c4e838b3e599" d="" style="stroke:none"></path></symbol><symbol id="id-4d78ea3f-73eb-4440-9e86-2c8818fee99e" overflow="visible"><path id="id-4dd35a53-ac75-424b-9610-492dd3463057" d="m 2.9375,-1.640625 v 0.859375 c 0,0.359375 -0.03125,0.46875 -0.765625,0.46875 H 1.96875 V 0 C 2.375,-0.03125 2.890625,-0.03125 3.3125,-0.03125 c 0.421875,0 0.9375,0 1.359375,0.03125 v -0.3125 h -0.21875 c -0.734375,0 -0.75,-0.109375 -0.75,-0.46875 V -1.640625 H 4.6875 v -0.3125 H 3.703125 v -4.53125 c 0,-0.203125 0,-0.265625 -0.171875,-0.265625 -0.078125,0 -0.109375,0 -0.1875,0.125 l -3.0625,4.671875 v 0.3125 z m 0.046875,-0.3125 H 0.5625 l 2.421875,-3.71875 z m 0,0" style="stroke:none"></path></symbol><symbol id="id-ad1ba6d9-2723-478d-9ea7-82fdb9977cf0" overflow="visible"><path id="id-7402c495-9caa-44fe-a96d-a55a8da5fe2d" d="m 4.46875,-2 c 0,-1.1875 -0.8125,-2.1875 -1.890625,-2.1875 -0.46875,0 -0.90625,0.15625 -1.265625,0.515625 V -5.625 c 0.203125,0.0625 0.53125,0.125 0.84375,0.125 1.234375,0 1.9375,-0.90625 1.9375,-1.03125 0,-0.0625 -0.03125,-0.109375 -0.109375,-0.109375 0,0 -0.03125,0 -0.078125,0.03125 C 3.703125,-6.515625 3.21875,-6.3125 2.546875,-6.3125 2.15625,-6.3125 1.6875,-6.390625 1.21875,-6.59375 1.140625,-6.625 1.125,-6.625 1.109375,-6.625 1,-6.625 1,-6.546875 1,-6.390625 V -3.4375 c 0,0.171875 0,0.25 0.140625,0.25 0.078125,0 0.09375,-0.015625 0.140625,-0.078125 C 1.390625,-3.421875 1.75,-3.96875 2.5625,-3.96875 c 0.515625,0 0.765625,0.453125 0.84375,0.640625 0.15625,0.375 0.1875,0.75 0.1875,1.25 0,0.359375 0,0.953125 -0.25,1.375 C 3.109375,-0.3125 2.734375,-0.0625 2.28125,-0.0625 c -0.71875,0 -1.296875,-0.53125 -1.46875,-1.109375 0.03125,0 0.0625,0.015625 0.171875,0.015625 0.328125,0 0.5,-0.25 0.5,-0.484375 0,-0.25 -0.171875,-0.5 -0.5,-0.5 C 0.84375,-2.140625 0.5,-2.0625 0.5,-1.609375 0.5,-0.75 1.1875,0.21875 2.296875,0.21875 3.453125,0.21875 4.46875,-0.734375 4.46875,-2 Z m 0,0" style="stroke:none"></path></symbol><symbol id="id-e18af3c8-7821-46b8-b1df-efe55c68dfe1" overflow="visible"><path id="id-e3d9b7a4-0950-4bae-bcb1-d60a99845e8f" d="" style="stroke:none"></path></symbol><symbol id="id-b4997cf6-4216-40d0-abf0-e7a82ebfc92c" overflow="visible"><path id="id-9445d83a-9e7c-435c-ba30-35e30a4c1483" d="m 3.53125,-1.734375 c 0,-0.84375 -0.671875,-1.5 -1.5,-1.5 -0.828125,0 -1.5,0.671875 -1.5,1.484375 0,0.84375 0.6875,1.5 1.5,1.5 0.84375,0 1.5,-0.671875 1.5,-1.484375 z m -1.5,1.140625 C 1.375,-0.59375 0.875,-1.125 0.875,-1.734375 c 0,-0.65625 0.515625,-1.171875 1.15625,-1.171875 0.65625,0 1.15625,0.53125 1.15625,1.15625 0,0.65625 -0.515625,1.15625 -1.15625,1.15625 z m 0,0" style="stroke:none"></path></symbol></g></defs><g style="stroke-width:1.29706" transform="translate(-148.993,-127.916)" id="id-3aea8bbf-2356-40da-ae0b-ec0a349c68ba"><g id="id-7f3f38c6-6b1c-4560-97f7-6fae1b7f2a99" style="fill:#000000;fill-opacity:1;stroke-width:1.29706"><g style="stroke-width:1.29706" transform="translate(148.712,134.765)" id="g2598"><path id="id-9c7c3b4b-6dcb-466a-a167-912ee33eaf0e" d="m 2.9375,-1.640625 v 0.859375 c 0,0.359375 -0.03125,0.46875 -0.765625,0.46875 H 1.96875 V 0 C 2.375,-0.03125 2.890625,-0.03125 3.3125,-0.03125 c 0.421875,0 0.9375,0 1.359375,0.03125 v -0.3125 h -0.21875 c -0.734375,0 -0.75,-0.109375 -0.75,-0.46875 V -1.640625 H 4.6875 v -0.3125 H 3.703125 v -4.53125 c 0,-0.203125 0,-0.265625 -0.171875,-0.265625 -0.078125,0 -0.109375,0 -0.1875,0.125 l -3.0625,4.671875 v 0.3125 z m 0.046875,-0.3125 H 0.5625 l 2.421875,-3.71875 z m 0,0" style="stroke:none;stroke-width:1.29706"></path></g><g style="stroke-width:1.29706" transform="translate(153.693,134.765)" id="g2601"><path id="id-38d699c1-e012-4c23-8750-7fefb43b6343" d="m 4.46875,-2 c 0,-1.1875 -0.8125,-2.1875 -1.890625,-2.1875 -0.46875,0 -0.90625,0.15625 -1.265625,0.515625 V -5.625 c 0.203125,0.0625 0.53125,0.125 0.84375,0.125 1.234375,0 1.9375,-0.90625 1.9375,-1.03125 0,-0.0625 -0.03125,-0.109375 -0.109375,-0.109375 0,0 -0.03125,0 -0.078125,0.03125 C 3.703125,-6.515625 3.21875,-6.3125 2.546875,-6.3125 2.15625,-6.3125 1.6875,-6.390625 1.21875,-6.59375 1.140625,-6.625 1.125,-6.625 1.109375,-6.625 1,-6.625 1,-6.546875 1,-6.390625 V -3.4375 c 0,0.171875 0,0.25 0.140625,0.25 0.078125,0 0.09375,-0.015625 0.140625,-0.078125 C 1.390625,-3.421875 1.75,-3.96875 2.5625,-3.96875 c 0.515625,0 0.765625,0.453125 0.84375,0.640625 0.15625,0.375 0.1875,0.75 0.1875,1.25 0,0.359375 0,0.953125 -0.25,1.375 C 3.109375,-0.3125 2.734375,-0.0625 2.28125,-0.0625 c -0.71875,0 -1.296875,-0.53125 -1.46875,-1.109375 0.03125,0 0.0625,0.015625 0.171875,0.015625 0.328125,0 0.5,-0.25 0.5,-0.484375 0,-0.25 -0.171875,-0.5 -0.5,-0.5 C 0.84375,-2.140625 0.5,-2.0625 0.5,-1.609375 0.5,-0.75 1.1875,0.21875 2.296875,0.21875 3.453125,0.21875 4.46875,-0.734375 4.46875,-2 Z m 0,0" style="stroke:none;stroke-width:1.29706"></path></g></g><g id="id-bb673e9a-702b-4c7c-920b-6e19129eaabc" style="fill:#000000;fill-opacity:1;stroke-width:1.29706"><g style="stroke-width:1.29706" transform="translate(158.675,131.15)" id="g2605"><path id="id-4e07060c-aeae-4fe7-a8f1-542b37d5b0bf" d="m 3.53125,-1.734375 c 0,-0.84375 -0.671875,-1.5 -1.5,-1.5 -0.828125,0 -1.5,0.671875 -1.5,1.484375 0,0.84375 0.6875,1.5 1.5,1.5 0.84375,0 1.5,-0.671875 1.5,-1.484375 z m -1.5,1.140625 C 1.375,-0.59375 0.875,-1.125 0.875,-1.734375 c 0,-0.65625 0.515625,-1.171875 1.15625,-1.171875 0.65625,0 1.15625,0.53125 1.15625,1.15625 0,0.65625 -0.515625,1.15625 -1.15625,1.15625 z m 0,0" style="stroke:none;stroke-width:1.29706"></path></g></g></g></g><g transform="matrix(0.529167,0,0,0.529167,127.00264,48.3131)" ns2:version="1.0.1" ns2:texconverter="pdflatex" ns2:pdfconverter="inkscape" ns2:text="$ \\mathbf{p}= \\begin{pmatrix} 2 \\\\ 1 \\end{pmatrix} $" ns2:preamble="C:\\Users\\Thein Lin Aung\\AppData\\Roaming\\inkscape\\extensions\\textext\\default_packages.tex" ns2:scale="1.5" ns2:alignment="middle center" ns2:inkscapeversion="1.0" ns2:jacobian_sqrt="0.529167" id="g3055"><defs id="id-7d441e41-8053-4c6b-84e3-58dc52879a02"><g id="id-06e27c94-2e68-4c5f-b15b-79a5c37a2fdd"><symbol id="id-82332bac-406e-42c5-b361-974935f95dc3" overflow="visible"><path id="id-c28406a6-21a3-43f5-a73e-d5b0d51a7ebc" d="" style="stroke:none"></path></symbol><symbol id="id-2577c3fd-f4c5-48a1-9ebb-d9efbd82b893" overflow="visible"><path id="id-483af0f5-3719-4fa9-9d5d-d6c4d8c74790" d="m 2.1875,-3.28125 c 0,-0.1875 0.015625,-0.203125 0.15625,-0.34375 0.390625,-0.40625 0.921875,-0.46875 1.140625,-0.46875 0.65625,0 1.21875,0.609375 1.21875,1.875 0,1.40625 -0.703125,1.921875 -1.34375,1.921875 -0.140625,0 -0.609375,0 -1.0625,-0.546875 C 2.1875,-0.96875 2.1875,-0.984375 2.1875,-1.171875 Z m 0,2.890625 c 0.4375,0.34375 0.875,0.453125 1.28125,0.453125 1.5,0 2.515625,-0.90625 2.515625,-2.28125 0,-1.328125 -0.90625,-2.265625 -2.34375,-2.265625 -0.75,0 -1.28125,0.3125 -1.5,0.484375 V -4.484375 L 0.375,-4.40625 v 0.46875 c 0.609375,0 0.6875,0 0.6875,0.375 V 1.46875 H 0.375 V 1.9375 C 0.640625,1.921875 1.25,1.90625 1.625,1.90625 c 0.390625,0 0.984375,0.015625 1.25,0.03125 V 1.46875 H 2.1875 Z m 0,0" style="stroke:none"></path></symbol><symbol id="id-286f7cd5-4a70-46fc-be1d-d295e9c3109f" overflow="visible"><path id="id-f7e8b5ad-2c1a-41a6-aeaa-43641c1c0055" d="" style="stroke:none"></path></symbol><symbol id="id-cf185617-d54e-4d13-93b2-c085cc1bde5e" overflow="visible"><path id="id-fafa89be-cd12-4a0d-b7c6-4583ab3a8d0e" d="m 6.84375,-3.265625 c 0.15625,0 0.34375,0 0.34375,-0.1875 C 7.1875,-3.65625 7,-3.65625 6.859375,-3.65625 h -5.96875 c -0.140625,0 -0.328125,0 -0.328125,0.203125 0,0.1875 0.1875,0.1875 0.328125,0.1875 z m 0.015625,1.9375 c 0.140625,0 0.328125,0 0.328125,-0.203125 0,-0.1875 -0.1875,-0.1875 -0.34375,-0.1875 H 0.890625 c -0.140625,0 -0.328125,0 -0.328125,0.1875 0,0.203125 0.1875,0.203125 0.328125,0.203125 z m 0,0" style="stroke:none"></path></symbol><symbol id="id-bd0f70e6-bbfa-4c48-8292-11adaa73aaf0" overflow="visible"><path id="id-0baac1be-7a2f-4a22-ab7f-10842ee64d28" d="m 1.265625,-0.765625 1.0625,-1.03125 c 1.546875,-1.375 2.140625,-1.90625 2.140625,-2.90625 0,-1.140625 -0.890625,-1.9375 -2.109375,-1.9375 -1.125,0 -1.859375,0.921875 -1.859375,1.8125 0,0.546875 0.5,0.546875 0.53125,0.546875 0.171875,0 0.515625,-0.109375 0.515625,-0.53125 0,-0.25 -0.1875,-0.515625 -0.53125,-0.515625 -0.078125,0 -0.09375,0 -0.125,0.015625 0.21875,-0.65625 0.765625,-1.015625 1.34375,-1.015625 0.90625,0 1.328125,0.8125 1.328125,1.625 C 3.5625,-3.90625 3.078125,-3.125 2.515625,-2.5 l -1.90625,2.125 C 0.5,-0.265625 0.5,-0.234375 0.5,0 H 4.203125 L 4.46875,-1.734375 H 4.234375 C 4.171875,-1.4375 4.109375,-1 4,-0.84375 3.9375,-0.765625 3.28125,-0.765625 3.0625,-0.765625 Z m 0,0" style="stroke:none"></path></symbol><symbol id="id-22d937f1-d660-43a0-85d0-8631704a29c0" overflow="visible"><path id="id-3161db57-32de-4885-82e5-2e587d768b01" d="m 2.9375,-6.375 c 0,-0.25 0,-0.265625 -0.234375,-0.265625 C 2.078125,-6 1.203125,-6 0.890625,-6 v 0.3125 c 0.203125,0 0.78125,0 1.296875,-0.265625 v 5.171875 c 0,0.359375 -0.03125,0.46875 -0.921875,0.46875 h -0.3125 V 0 c 0.34375,-0.03125 1.203125,-0.03125 1.609375,-0.03125 0.390625,0 1.265625,0 1.609375,0.03125 v -0.3125 h -0.3125 c -0.90625,0 -0.921875,-0.109375 -0.921875,-0.46875 z m 0,0" style="stroke:none"></path></symbol><symbol id="id-7d507a5c-21aa-49c1-83f5-53c967038c90" overflow="visible"><path id="id-025225da-20a6-471f-818d-b41bf7c6da04" d="" style="stroke:none"></path></symbol><symbol id="id-50c08cc5-d212-4671-8a07-c0d05d18ad99" overflow="visible"><path id="id-53248f89-4c33-4d7e-b584-5ae128bea243" d="m 6.984375,23.421875 c 0,-0.04687 -0.03125,-0.0625 -0.046875,-0.09375 -0.375,-0.375 -1.03125,-1.03125 -1.703125,-2.109375 C 3.625,18.640625 2.90625,15.40625 2.90625,11.5625 c 0,-2.6875 0.359375,-6.140625 2,-9.109375 C 5.6875,1.03125 6.515625,0.21875 6.953125,-0.21875 c 0.03125,-0.03125 0.03125,-0.046875 0.03125,-0.078125 0,-0.109375 -0.078125,-0.109375 -0.21875,-0.109375 -0.140625,0 -0.15625,0 -0.3125,0.15625 -3.328125,3.046875 -4.375,7.609375 -4.375,11.796875 0,3.921875 0.890625,7.875 3.421875,10.859375 0.203125,0.21875 0.578125,0.625 0.984375,0.984375 0.125,0.125 0.140625,0.125 0.28125,0.125 0.140625,0 0.21875,0 0.21875,-0.09375 z m 0,0" style="stroke:none"></path></symbol><symbol id="id-8a80e55a-f8d4-457a-8f1a-5cdd751eee97" overflow="visible"><path id="id-9b034dd2-8454-48a5-9228-359274f66d32" d="M 5.25,11.5625 C 5.25,7.640625 4.359375,3.703125 1.828125,0.71875 1.625,0.484375 1.25,0.078125 0.84375,-0.28125 c -0.125,-0.125 -0.140625,-0.125 -0.28125,-0.125 -0.125,0 -0.21875,0 -0.21875,0.109375 0,0.03125 0.046875,0.078125 0.0625,0.09375 0.34375,0.359375 1.015625,1.03125 1.6875,2.109375 1.609375,2.5625 2.328125,5.8125 2.328125,9.640625 0,2.6875 -0.359375,6.140625 -2,9.125 -0.78125,1.40625 -1.609375,2.234375 -2.03125,2.65625 -0.015625,0.03125 -0.046875,0.0625 -0.046875,0.09375 0,0.09375 0.09375,0.09375 0.21875,0.09375 0.140625,0 0.15625,0 0.3125,-0.15625 C 4.203125,20.328125 5.25,15.765625 5.25,11.5625 Z m 0,0" style="stroke:none"></path></symbol></g></defs><g transform="translate(-149.087,-124.795)" id="id-205837d8-d975-4442-8a58-c9be5ed2f92a"><g id="id-bd25a97e-fb39-426d-acca-99743bd5470e" style="fill:#000000;fill-opacity:1"><g transform="translate(148.712,139.248)" id="g3031"><path id="id-449c89a6-a90d-4010-9780-590cc01aa753" d="m 2.1875,-3.28125 c 0,-0.1875 0.015625,-0.203125 0.15625,-0.34375 0.390625,-0.40625 0.921875,-0.46875 1.140625,-0.46875 0.65625,0 1.21875,0.609375 1.21875,1.875 0,1.40625 -0.703125,1.921875 -1.34375,1.921875 -0.140625,0 -0.609375,0 -1.0625,-0.546875 C 2.1875,-0.96875 2.1875,-0.984375 2.1875,-1.171875 Z m 0,2.890625 c 0.4375,0.34375 0.875,0.453125 1.28125,0.453125 1.5,0 2.515625,-0.90625 2.515625,-2.28125 0,-1.328125 -0.90625,-2.265625 -2.34375,-2.265625 -0.75,0 -1.28125,0.3125 -1.5,0.484375 V -4.484375 L 0.375,-4.40625 v 0.46875 c 0.609375,0 0.6875,0 0.6875,0.375 V 1.46875 H 0.375 V 1.9375 C 0.640625,1.921875 1.25,1.90625 1.625,1.90625 c 0.390625,0 0.984375,0.015625 1.25,0.03125 V 1.46875 H 2.1875 Z m 0,0" style="stroke:none"></path></g></g><g id="id-49782d57-4b66-4651-b444-b7b31552f77f" style="fill:#000000;fill-opacity:1"><g transform="translate(157.845,139.248)" id="g3035"><path id="id-aa37ad47-7001-4b3f-802e-7d25fe40ebba" d="m 6.84375,-3.265625 c 0.15625,0 0.34375,0 0.34375,-0.1875 C 7.1875,-3.65625 7,-3.65625 6.859375,-3.65625 h -5.96875 c -0.140625,0 -0.328125,0 -0.328125,0.203125 0,0.1875 0.1875,0.1875 0.328125,0.1875 z m 0.015625,1.9375 c 0.140625,0 0.328125,0 0.328125,-0.203125 0,-0.1875 -0.1875,-0.1875 -0.34375,-0.1875 H 0.890625 c -0.140625,0 -0.328125,0 -0.328125,0.1875 0,0.203125 0.1875,0.203125 0.328125,0.203125 z m 0,0" style="stroke:none"></path></g></g><g id="id-69bd7733-aca2-4378-adff-0f15e1c3e3e6" style="fill:#000000;fill-opacity:1"><g transform="translate(168.361,125.201)" id="g3039"><path id="id-807250ab-c21b-42ce-a771-e07e6aa19d5b" d="m 6.984375,23.421875 c 0,-0.04687 -0.03125,-0.0625 -0.046875,-0.09375 -0.375,-0.375 -1.03125,-1.03125 -1.703125,-2.109375 C 3.625,18.640625 2.90625,15.40625 2.90625,11.5625 c 0,-2.6875 0.359375,-6.140625 2,-9.109375 C 5.6875,1.03125 6.515625,0.21875 6.953125,-0.21875 c 0.03125,-0.03125 0.03125,-0.046875 0.03125,-0.078125 0,-0.109375 -0.078125,-0.109375 -0.21875,-0.109375 -0.140625,0 -0.15625,0 -0.3125,0.15625 -3.328125,3.046875 -4.375,7.609375 -4.375,11.796875 0,3.921875 0.890625,7.875 3.421875,10.859375 0.203125,0.21875 0.578125,0.625 0.984375,0.984375 0.125,0.125 0.140625,0.125 0.28125,0.125 0.140625,0 0.21875,0 0.21875,-0.09375 z m 0,0" style="stroke:none"></path></g></g><g id="id-0bcb3f8f-e2fe-4447-b399-0a25939158d6" style="fill:#000000;fill-opacity:1"><g transform="translate(175.694,133.171)" id="g3043"><path id="id-0e16a358-0256-43b7-9ef1-cf09943742ee" d="m 1.265625,-0.765625 1.0625,-1.03125 c 1.546875,-1.375 2.140625,-1.90625 2.140625,-2.90625 0,-1.140625 -0.890625,-1.9375 -2.109375,-1.9375 -1.125,0 -1.859375,0.921875 -1.859375,1.8125 0,0.546875 0.5,0.546875 0.53125,0.546875 0.171875,0 0.515625,-0.109375 0.515625,-0.53125 0,-0.25 -0.1875,-0.515625 -0.53125,-0.515625 -0.078125,0 -0.09375,0 -0.125,0.015625 0.21875,-0.65625 0.765625,-1.015625 1.34375,-1.015625 0.90625,0 1.328125,0.8125 1.328125,1.625 C 3.5625,-3.90625 3.078125,-3.125 2.515625,-2.5 l -1.90625,2.125 C 0.5,-0.265625 0.5,-0.234375 0.5,0 H 4.203125 L 4.46875,-1.734375 H 4.234375 C 4.171875,-1.4375 4.109375,-1 4,-0.84375 3.9375,-0.765625 3.28125,-0.765625 3.0625,-0.765625 Z m 0,0" style="stroke:none"></path></g></g><g id="id-85e05cfc-38d6-4660-925f-651a8c0d6d48" style="fill:#000000;fill-opacity:1"><g transform="translate(175.694,145.126)" id="g3047"><path id="id-5e33aa0f-46ae-4ed9-a284-f4fae1e065b3" d="m 2.9375,-6.375 c 0,-0.25 0,-0.265625 -0.234375,-0.265625 C 2.078125,-6 1.203125,-6 0.890625,-6 v 0.3125 c 0.203125,0 0.78125,0 1.296875,-0.265625 v 5.171875 c 0,0.359375 -0.03125,0.46875 -0.921875,0.46875 h -0.3125 V 0 c 0.34375,-0.03125 1.203125,-0.03125 1.609375,-0.03125 0.390625,0 1.265625,0 1.609375,0.03125 v -0.3125 h -0.3125 c -0.90625,0 -0.921875,-0.109375 -0.921875,-0.46875 z m 0,0" style="stroke:none"></path></g></g><g id="id-741da66e-3aa4-44de-a391-3a9e14b5388f" style="fill:#000000;fill-opacity:1"><g transform="translate(180.676,125.201)" id="g3051"><path id="id-dd2c96bc-77c2-47ee-8ab9-ecd82f9e4000" d="M 5.25,11.5625 C 5.25,7.640625 4.359375,3.703125 1.828125,0.71875 1.625,0.484375 1.25,0.078125 0.84375,-0.28125 c -0.125,-0.125 -0.140625,-0.125 -0.28125,-0.125 -0.125,0 -0.21875,0 -0.21875,0.109375 0,0.03125 0.046875,0.078125 0.0625,0.09375 0.34375,0.359375 1.015625,1.03125 1.6875,2.109375 1.609375,2.5625 2.328125,5.8125 2.328125,9.640625 0,2.6875 -0.359375,6.140625 -2,9.125 -0.78125,1.40625 -1.609375,2.234375 -2.03125,2.65625 -0.015625,0.03125 -0.046875,0.0625 -0.046875,0.09375 0,0.09375 0.09375,0.09375 0.21875,0.09375 0.140625,0 0.15625,0 0.3125,-0.15625 C 4.203125,20.328125 5.25,15.765625 5.25,11.5625 Z m 0,0" style="stroke:none"></path></g></g></g></g><g id="g3559"><g style="fill:#cc0000;fill-opacity:1" id="id-cad62671-b2c8-48f5-af27-a3564ae7bfc8" transform="matrix(0.529167,0,0,0.529167,-0.08715453,-33.933237)"><g id="g3344" transform="translate(148.712,139.248)" style="fill:#cc0000"><path style="fill:#cc0000;stroke:none" d="m 2.1875,-3.28125 c 0,-0.1875 0.015625,-0.203125 0.15625,-0.34375 0.390625,-0.40625 0.921875,-0.46875 1.140625,-0.46875 0.65625,0 1.21875,0.609375 1.21875,1.875 0,1.40625 -0.703125,1.921875 -1.34375,1.921875 -0.140625,0 -0.609375,0 -1.0625,-0.546875 C 2.1875,-0.96875 2.1875,-0.984375 2.1875,-1.171875 Z m 0,2.890625 c 0.4375,0.34375 0.875,0.453125 1.28125,0.453125 1.5,0 2.515625,-0.90625 2.515625,-2.28125 0,-1.328125 -0.90625,-2.265625 -2.34375,-2.265625 -0.75,0 -1.28125,0.3125 -1.5,0.484375 V -4.484375 L 0.375,-4.40625 v 0.46875 c 0.609375,0 0.6875,0 0.6875,0.375 V 1.46875 H 0.375 V 1.9375 C 0.640625,1.921875 1.25,1.90625 1.625,1.90625 c 0.390625,0 0.984375,0.015625 1.25,0.03125 V 1.46875 H 2.1875 Z m 0,0" id="id-b8353920-1939-4524-bfe2-86b178a2d08f"></path></g></g><g style="fill:#cc0000;fill-opacity:1" id="id-9a7c4e1d-9b49-4855-8a93-e5f9e922bb3b" transform="matrix(0.529167,0,0,0.529167,-0.08715453,-33.933237)"><g id="g3348" transform="translate(155.077,135.633)" style="fill:#cc0000"><path style="fill:#cc0000;stroke:none" d="m 2.015625,-3.296875 c 0.0625,-0.109375 0.0625,-0.171875 0.0625,-0.21875 0,-0.21875 -0.1875,-0.375 -0.40625,-0.375 -0.265625,0 -0.34375,0.21875 -0.375,0.328125 L 0.375,-0.546875 c -0.015625,0.015625 -0.046875,0.09375 -0.046875,0.109375 0,0.078125 0.21875,0.15625 0.28125,0.15625 0.046875,0 0.046875,-0.015625 0.09375,-0.125 z m 0,0" id="id-1d9f2818-0ee9-4f2a-b4fb-8b6cd7988f40"></path></g></g><g style="fill:#000000;fill-opacity:1" id="id-eba6da4e-5d15-40b2-b985-c35e2bf0d41a" transform="matrix(0.529167,0,0,0.529167,-0.08715453,-33.933237)"><g id="g3352" transform="translate(160.64,139.248)"><path style="stroke:none" d="m 6.84375,-3.265625 c 0.15625,0 0.34375,0 0.34375,-0.1875 C 7.1875,-3.65625 7,-3.65625 6.859375,-3.65625 h -5.96875 c -0.140625,0 -0.328125,0 -0.328125,0.203125 0,0.1875 0.1875,0.1875 0.328125,0.1875 z m 0.015625,1.9375 c 0.140625,0 0.328125,0 0.328125,-0.203125 0,-0.1875 -0.1875,-0.1875 -0.34375,-0.1875 H 0.890625 c -0.140625,0 -0.328125,0 -0.328125,0.1875 0,0.203125 0.1875,0.203125 0.328125,0.203125 z m 0,0" id="id-e4166377-29c9-4ed0-bfbb-d8ebfe564c9a"></path></g></g><g style="fill:#000000;fill-opacity:1" id="id-b3bddf64-35ac-4755-b17f-a0c1f3e08544" transform="matrix(0.529167,0,0,0.529167,-0.08715453,-33.933237)"><g id="g3356" transform="translate(171.156,139.248)"><path style="stroke:none" d="M 5.4375,-1.3125 3.046875,-6.59375 c -0.109375,-0.25 -0.21875,-0.25 -0.4375,-0.25 H 0.40625 V -6.375 h 1.0625 v 5.625 c 0,0.21875 0,0.21875 -0.28125,0.25 -0.234375,0.03125 -0.265625,0.03125 -0.546875,0.03125 H 0.40625 V 0 c 0.375,-0.03125 0.9375,-0.03125 1.328125,-0.03125 0.421875,0 0.9375,0 1.34375,0.03125 v -0.46875 h -0.25 C 2.65625,-0.46875 2.484375,-0.484375 2.296875,-0.5 2.015625,-0.53125 2,-0.53125 2,-0.75 V -6.234375 H 2.015625 L 4.71875,-0.25 C 4.8125,-0.046875 4.9375,0 5.046875,0 5.25,0 5.328125,-0.15625 5.359375,-0.234375 L 8.140625,-6.375 H 8.15625 v 5.90625 H 7.078125 V 0 c 0.359375,-0.03125 1.28125,-0.03125 1.6875,-0.03125 0.421875,0 1.359375,0 1.71875,0.03125 V -0.46875 H 9.40625 V -6.375 h 1.078125 V -6.84375 H 8.28125 c -0.21875,0 -0.34375,0 -0.453125,0.25 z m 0,0" id="id-8d031a30-b3a4-480a-828f-f7cf3c24654e"></path></g><g id="g3359" transform="translate(182.032,139.248)"><path style="stroke:none" d="m 2.1875,-3.28125 c 0,-0.1875 0.015625,-0.203125 0.15625,-0.34375 0.390625,-0.40625 0.921875,-0.46875 1.140625,-0.46875 0.65625,0 1.21875,0.609375 1.21875,1.875 0,1.40625 -0.703125,1.921875 -1.34375,1.921875 -0.140625,0 -0.609375,0 -1.0625,-0.546875 C 2.1875,-0.96875 2.1875,-0.984375 2.1875,-1.171875 Z m 0,2.890625 c 0.4375,0.34375 0.875,0.453125 1.28125,0.453125 1.5,0 2.515625,-0.90625 2.515625,-2.28125 0,-1.328125 -0.90625,-2.265625 -2.34375,-2.265625 -0.75,0 -1.28125,0.3125 -1.5,0.484375 V -4.484375 L 0.375,-4.40625 v 0.46875 c 0.609375,0 0.6875,0 0.6875,0.375 V 1.46875 H 0.375 V 1.9375 C 0.640625,1.921875 1.25,1.90625 1.625,1.90625 c 0.390625,0 0.984375,0.015625 1.25,0.03125 V 1.46875 H 2.1875 Z m 0,0" id="id-d7ccd058-1dea-4587-9765-de5cea388f21"></path></g></g><g style="fill:#000000;fill-opacity:1" id="id-3056e6b0-18cc-4e7a-87f9-03d011eb4915" transform="matrix(0.529167,0,0,0.529167,-0.08715453,-33.933237)"><g id="g3363" transform="translate(191.164,139.248)"><path style="stroke:none" d="m 6.84375,-3.265625 c 0.15625,0 0.34375,0 0.34375,-0.1875 C 7.1875,-3.65625 7,-3.65625 6.859375,-3.65625 h -5.96875 c -0.140625,0 -0.328125,0 -0.328125,0.203125 0,0.1875 0.1875,0.1875 0.328125,0.1875 z m 0.015625,1.9375 c 0.140625,0 0.328125,0 0.328125,-0.203125 0,-0.1875 -0.1875,-0.1875 -0.34375,-0.1875 H 0.890625 c -0.140625,0 -0.328125,0 -0.328125,0.1875 0,0.203125 0.1875,0.203125 0.328125,0.203125 z m 0,0" id="id-22130202-0a71-4c9d-8c5d-01fbe470bb68"></path></g></g><g style="fill:#000000;fill-opacity:1" id="id-a16045dd-4548-47c6-96c2-8798b240a5c5" transform="matrix(0.529167,0,0,0.529167,-0.08715453,-33.933237)"><g id="g3367" transform="translate(201.68,125.201)"><path style="stroke:none" d="m 6.984375,23.421875 c 0,-0.04687 -0.03125,-0.0625 -0.046875,-0.09375 -0.375,-0.375 -1.03125,-1.03125 -1.703125,-2.109375 C 3.625,18.640625 2.90625,15.40625 2.90625,11.5625 c 0,-2.6875 0.359375,-6.140625 2,-9.109375 C 5.6875,1.03125 6.515625,0.21875 6.953125,-0.21875 c 0.03125,-0.03125 0.03125,-0.046875 0.03125,-0.078125 0,-0.109375 -0.078125,-0.109375 -0.21875,-0.109375 -0.140625,0 -0.15625,0 -0.3125,0.15625 -3.328125,3.046875 -4.375,7.609375 -4.375,11.796875 0,3.921875 0.890625,7.875 3.421875,10.859375 0.203125,0.21875 0.578125,0.625 0.984375,0.984375 0.125,0.125 0.140625,0.125 0.28125,0.125 0.140625,0 0.21875,0 0.21875,-0.09375 z m 0,0" id="id-26f374bb-5da4-4acd-bf90-18d3f0ecb6d6"></path></g></g><g style="fill:#000000;fill-opacity:1" id="id-96f932cf-d92b-4ec5-8c18-f152ce90f253" transform="matrix(0.529167,0,0,0.529167,-0.08715453,-33.933237)"><g id="g3371" transform="translate(209.014,133.171)"><path style="stroke:none" d="m 2.9375,-6.375 c 0,-0.25 0,-0.265625 -0.234375,-0.265625 C 2.078125,-6 1.203125,-6 0.890625,-6 v 0.3125 c 0.203125,0 0.78125,0 1.296875,-0.265625 v 5.171875 c 0,0.359375 -0.03125,0.46875 -0.921875,0.46875 h -0.3125 V 0 c 0.34375,-0.03125 1.203125,-0.03125 1.609375,-0.03125 0.390625,0 1.265625,0 1.609375,0.03125 v -0.3125 h -0.3125 c -0.90625,0 -0.921875,-0.109375 -0.921875,-0.46875 z m 0,0" id="id-49062395-465f-4f34-b07c-f810a2d96db9"></path></g></g><g style="fill:#000000;fill-opacity:1" id="id-290d4e2b-b314-4184-a16a-6cf2a1199bd8" transform="matrix(0.529167,0,0,0.529167,-0.08715453,-33.933237)"><g id="g3375" transform="translate(209.014,145.126)"><path style="stroke:none" d="m 1.265625,-0.765625 1.0625,-1.03125 c 1.546875,-1.375 2.140625,-1.90625 2.140625,-2.90625 0,-1.140625 -0.890625,-1.9375 -2.109375,-1.9375 -1.125,0 -1.859375,0.921875 -1.859375,1.8125 0,0.546875 0.5,0.546875 0.53125,0.546875 0.171875,0 0.515625,-0.109375 0.515625,-0.53125 0,-0.25 -0.1875,-0.515625 -0.53125,-0.515625 -0.078125,0 -0.09375,0 -0.125,0.015625 0.21875,-0.65625 0.765625,-1.015625 1.34375,-1.015625 0.90625,0 1.328125,0.8125 1.328125,1.625 C 3.5625,-3.90625 3.078125,-3.125 2.515625,-2.5 l -1.90625,2.125 C 0.5,-0.265625 0.5,-0.234375 0.5,0 H 4.203125 L 4.46875,-1.734375 H 4.234375 C 4.171875,-1.4375 4.109375,-1 4,-0.84375 3.9375,-0.765625 3.28125,-0.765625 3.0625,-0.765625 Z m 0,0" id="id-8187b5e0-d283-4d1b-b5bf-c09a2578ad9c"></path></g></g><g style="fill:#000000;fill-opacity:1" id="id-cf01728e-767e-49c7-905d-9dbe4d32909f" transform="matrix(0.529167,0,0,0.529167,-0.08715453,-33.933237)"><g id="g3379" transform="translate(213.995,125.201)"><path style="stroke:none" d="M 5.25,11.5625 C 5.25,7.640625 4.359375,3.703125 1.828125,0.71875 1.625,0.484375 1.25,0.078125 0.84375,-0.28125 c -0.125,-0.125 -0.140625,-0.125 -0.28125,-0.125 -0.125,0 -0.21875,0 -0.21875,0.109375 0,0.03125 0.046875,0.078125 0.0625,0.09375 0.34375,0.359375 1.015625,1.03125 1.6875,2.109375 1.609375,2.5625 2.328125,5.8125 2.328125,9.640625 0,2.6875 -0.359375,6.140625 -2,9.125 -0.78125,1.40625 -1.609375,2.234375 -2.03125,2.65625 -0.015625,0.03125 -0.046875,0.0625 -0.046875,0.09375 0,0.09375 0.09375,0.09375 0.21875,0.09375 0.140625,0 0.15625,0 0.3125,-0.15625 C 4.203125,20.328125 5.25,15.765625 5.25,11.5625 Z m 0,0" id="id-9ba8c3d0-eae5-46aa-8c9e-8cc530ae60e6"></path></g></g></g></g></svg> 