<?xml version="1.0" encoding="UTF-8" standalone="no"?> <svg xmlns:dc="http://purl.org/dc/elements/1.1/" xmlns:cc="http://creativecommons.org/ns#" xmlns:rdf="http://www.w3.org/1999/02/22-rdf-syntax-ns#" xmlns:svg="http://www.w3.org/2000/svg" xmlns="http://www.w3.org/2000/svg" xmlns:xlink="http://www.w3.org/1999/xlink" xmlns:sodipodi="http://sodipodi.sourceforge.net/DTD/sodipodi-0.dtd" xmlns:inkscape="http://www.inkscape.org/namespaces/inkscape" width="180.81071mm" height="71.810707mm" viewBox="0 0 180.81071 71.810708" version="1.1" id="svg2134" inkscape:version="1.0 (4035a4fb49, 2020-05-01)"><defs id="defs2128"><marker inkscape:isstock="true" style="overflow:visible" id="Arrow1Mend" refX="0" refY="0" orient="auto" inkscape:stockid="Arrow1Mend"><path transform="matrix(-0.4,0,0,-0.4,-4,0)" style="fill:#000000;fill-opacity:1;fill-rule:evenodd;stroke:#000000;stroke-width:1pt;stroke-opacity:1" d="M 0,0 5,-5 -12.5,0 5,5 Z" id="path5537"></path></marker><marker inkscape:isstock="true" style="overflow:visible" id="Arrow2Lend" refX="0" refY="0" orient="auto" inkscape:stockid="Arrow2Lend"><path transform="matrix(-1.1,0,0,-1.1,-1.1,0)" d="M 8.7185878,4.0337352 -2.2072895,0.01601326 8.7185884,-4.0017078 c -1.7454984,2.3720609 -1.7354408,5.6174519 -6e-7,8.035443 z" style="fill:#000000;fill-opacity:1;fill-rule:evenodd;stroke:#000000;stroke-width:0.625;stroke-linejoin:round;stroke-opacity:1" id="path5549"></path></marker><marker inkscape:stockid="Arrow2Lstart" orient="auto" refY="0" refX="0" id="Arrow2Lstart-3-9" style="overflow:visible" inkscape:isstock="true"><path id="path853-8-6" style="fill:#000000;fill-opacity:1;fill-rule:evenodd;stroke:#000000;stroke-width:0.625;stroke-linejoin:round;stroke-opacity:1" d="M 8.7185878,4.0337352 -2.2072895,0.01601326 8.7185884,-4.0017078 c -1.7454984,2.3720609 -1.7354408,5.6174519 -6e-7,8.035443 z" transform="matrix(1.1,0,0,1.1,1.1,0)"></path></marker><marker inkscape:stockid="Arrow1Mend" orient="auto" refY="0" refX="0" id="marker6610-1-8" style="overflow:visible" inkscape:isstock="true"><path id="path6608-7-4" d="M 0,0 5,-5 -12.5,0 5,5 Z" style="fill:#000000;fill-opacity:1;fill-rule:evenodd;stroke:#000000;stroke-width:1pt;stroke-opacity:1" transform="matrix(-0.4,0,0,-0.4,-4,0)"></path></marker><marker inkscape:isstock="true" style="overflow:visible" id="Arrow2Lstart-3-8-5" refX="0" refY="0" orient="auto" inkscape:stockid="Arrow2Lstart"><path transform="matrix(1.1,0,0,1.1,1.1,0)" d="M 8.7185878,4.0337352 -2.2072895,0.01601326 8.7185884,-4.0017078 c -1.7454984,2.3720609 -1.7354408,5.6174519 -6e-7,8.035443 z" style="fill:#e01b24;fill-opacity:1;fill-rule:evenodd;stroke:#e01b24;stroke-width:0.625;stroke-linejoin:round;stroke-opacity:1" id="path853-8-4-2"></path></marker><g id="g2119"><symbol id="symbol2105" overflow="visible"><path id="path2103" d="" style="stroke:none"></path></symbol><symbol id="symbol2109" overflow="visible"><path id="path2107" d="M 2.234375,-4.484375 0.5,-4.40625 v 0.46875 c 0.59375,0 0.65625,0 0.65625,0.390625 V -0.46875 H 0.46875 V 0 C 0.78125,-0.015625 1.265625,-0.03125 1.6875,-0.03125 1.984375,-0.03125 2.5,-0.015625 2.84375,0 V -0.46875 H 2.234375 Z m 0.09375,-1.671875 c 0,-0.4375 -0.359375,-0.765625 -0.765625,-0.765625 -0.4375,0 -0.78125,0.34375 -0.78125,0.765625 0,0.4375 0.34375,0.78125 0.78125,0.78125 0.40625,0 0.765625,-0.34375 0.765625,-0.78125 z m 0,0" style="stroke:none"></path></symbol><symbol id="symbol2113" overflow="visible"><path id="path2111" d="" style="stroke:none"></path></symbol><symbol id="symbol2117" overflow="visible"><path id="path2115" d="m 2.015625,-3.296875 c 0.0625,-0.109375 0.0625,-0.171875 0.0625,-0.21875 0,-0.21875 -0.1875,-0.375 -0.40625,-0.375 -0.265625,0 -0.34375,0.21875 -0.375,0.328125 L 0.375,-0.546875 c -0.015625,0.015625 -0.046875,0.09375 -0.046875,0.109375 0,0.078125 0.21875,0.15625 0.28125,0.15625 0.046875,0 0.046875,-0.015625 0.09375,-0.125 z m 0,0" style="stroke:none"></path></symbol></g><g id="g2146"><symbol id="symbol2132" overflow="visible"><path id="path2130" d="" style="stroke:none"></path></symbol><symbol id="symbol2136" overflow="visible"><path id="path2134" d="m 0.828125,-4.40625 v 0.46875 c 0.171875,0 0.390625,0 0.53125,0.015625 0.21875,0.046875 0.21875,0.171875 0.21875,0.390625 v 3.953125 c 0,0.5 -0.140625,1.21875 -0.734375,1.21875 -0.171875,0 -0.25,-0.03125 -0.390625,-0.0625 0.1875,-0.140625 0.234375,-0.359375 0.234375,-0.5 0,-0.34375 -0.265625,-0.625 -0.625,-0.625 -0.375,0 -0.625,0.28125 -0.625,0.640625 C -0.5625,1.65625 0.046875,2 0.859375,2 1.71875,2 2.65625,1.46875 2.65625,0.421875 v -4.90625 z m 1.828125,-1.75 c 0,-0.421875 -0.34375,-0.765625 -0.765625,-0.765625 -0.4375,0 -0.78125,0.34375 -0.78125,0.765625 0,0.4375 0.34375,0.78125 0.78125,0.78125 0.421875,0 0.765625,-0.34375 0.765625,-0.78125 z m 0,0" style="stroke:none"></path></symbol><symbol id="symbol2140" overflow="visible"><path id="path2138" d="" style="stroke:none"></path></symbol><symbol id="symbol2144" overflow="visible"><path id="path2142" d="m 2.015625,-3.296875 c 0.0625,-0.109375 0.0625,-0.171875 0.0625,-0.21875 0,-0.21875 -0.1875,-0.375 -0.40625,-0.375 -0.265625,0 -0.34375,0.21875 -0.375,0.328125 L 0.375,-0.546875 c -0.015625,0.015625 -0.046875,0.09375 -0.046875,0.109375 0,0.078125 0.21875,0.15625 0.28125,0.15625 0.046875,0 0.046875,-0.015625 0.09375,-0.125 z m 0,0" style="stroke:none"></path></symbol></g><g id="g2178"><symbol overflow="visible" id="symbol2160"><path style="stroke:none" d="" id="path2158"></path></symbol><symbol overflow="visible" id="symbol2164"><path style="stroke:none" d="m 2.9375,-1.640625 v 0.859375 c 0,0.359375 -0.03125,0.46875 -0.765625,0.46875 H 1.96875 V 0 C 2.375,-0.03125 2.890625,-0.03125 3.3125,-0.03125 c 0.421875,0 0.9375,0 1.359375,0.03125 v -0.3125 h -0.21875 c -0.734375,0 -0.75,-0.109375 -0.75,-0.46875 V -1.640625 H 4.6875 v -0.3125 H 3.703125 v -4.53125 c 0,-0.203125 0,-0.265625 -0.171875,-0.265625 -0.078125,0 -0.109375,0 -0.1875,0.125 l -3.0625,4.671875 v 0.3125 z m 0.046875,-0.3125 H 0.5625 l 2.421875,-3.71875 z m 0,0" id="path2162"></path></symbol><symbol overflow="visible" id="symbol2168"><path style="stroke:none" d="m 4.46875,-2 c 0,-1.1875 -0.8125,-2.1875 -1.890625,-2.1875 -0.46875,0 -0.90625,0.15625 -1.265625,0.515625 V -5.625 c 0.203125,0.0625 0.53125,0.125 0.84375,0.125 1.234375,0 1.9375,-0.90625 1.9375,-1.03125 0,-0.0625 -0.03125,-0.109375 -0.109375,-0.109375 0,0 -0.03125,0 -0.078125,0.03125 C 3.703125,-6.515625 3.21875,-6.3125 2.546875,-6.3125 2.15625,-6.3125 1.6875,-6.390625 1.21875,-6.59375 1.140625,-6.625 1.125,-6.625 1.109375,-6.625 1,-6.625 1,-6.546875 1,-6.390625 V -3.4375 c 0,0.171875 0,0.25 0.140625,0.25 0.078125,0 0.09375,-0.015625 0.140625,-0.078125 C 1.390625,-3.421875 1.75,-3.96875 2.5625,-3.96875 c 0.515625,0 0.765625,0.453125 0.84375,0.640625 0.15625,0.375 0.1875,0.75 0.1875,1.25 0,0.359375 0,0.953125 -0.25,1.375 C 3.109375,-0.3125 2.734375,-0.0625 2.28125,-0.0625 c -0.71875,0 -1.296875,-0.53125 -1.46875,-1.109375 0.03125,0 0.0625,0.015625 0.171875,0.015625 0.328125,0 0.5,-0.25 0.5,-0.484375 0,-0.25 -0.171875,-0.5 -0.5,-0.5 C 0.84375,-2.140625 0.5,-2.0625 0.5,-1.609375 0.5,-0.75 1.1875,0.21875 2.296875,0.21875 3.453125,0.21875 4.46875,-0.734375 4.46875,-2 Z m 0,0" id="path2166"></path></symbol><symbol overflow="visible" id="symbol2172"><path style="stroke:none" d="" id="path2170"></path></symbol><symbol overflow="visible" id="symbol2176"><path style="stroke:none" d="m 3.53125,-1.734375 c 0,-0.84375 -0.671875,-1.5 -1.5,-1.5 -0.828125,0 -1.5,0.671875 -1.5,1.484375 0,0.84375 0.6875,1.5 1.5,1.5 0.84375,0 1.5,-0.671875 1.5,-1.484375 z m -1.5,1.140625 C 1.375,-0.59375 0.875,-1.125 0.875,-1.734375 c 0,-0.65625 0.515625,-1.171875 1.15625,-1.171875 0.65625,0 1.15625,0.53125 1.15625,1.15625 0,0.65625 -0.515625,1.15625 -1.15625,1.15625 z m 0,0" id="path2174"></path></symbol></g><g id="g8507"><symbol id="symbol8179" overflow="visible"><path id="path210" d="" style="stroke:none"></path></symbol><symbol id="symbol5338" overflow="visible"><path id="path6864" d="m 4.109375,11.453125 c 0,-0.03125 -0.015625,-0.0625 -0.03125,-0.09375 C 3.625,10.875 2.9375,10.0625 2.515625,8.4375 2.296875,7.53125 2.203125,6.515625 2.203125,5.578125 c 0,-2.625 0.625,-4.453125 1.828125,-5.75 0.078125,-0.09375 0.078125,-0.109375 0.078125,-0.125 C 4.109375,-0.40625 4.03125,-0.40625 4,-0.40625 c -0.15625,0 -0.6875,0.609375 -0.8125,0.75 -1.03125,1.21875 -1.671875,3 -1.671875,5.234375 0,1.40625 0.25,3.40625 1.5625,5.09375 0.09375,0.125 0.734375,0.875 0.921875,0.875 0.03125,0 0.109375,0 0.109375,-0.09375 z m 0,0" style="stroke:none"></path></symbol><symbol id="symbol9303" overflow="visible"><path id="path2475" d="m 3.046875,5.578125 c 0,-1.40625 -0.25,-3.421875 -1.5625,-5.09375 -0.09375,-0.125 -0.75,-0.890625 -0.921875,-0.890625 -0.046875,0 -0.125,0.03125 -0.125,0.109375 0,0.03125 0.015625,0.0625 0.0625,0.09375 C 0.984375,0.3125 1.625,1.125 2.03125,2.71875 2.265625,3.625 2.359375,4.640625 2.359375,5.578125 c 0,1 -0.09375,2.015625 -0.359375,3 -0.375,1.390625 -0.96875,2.1875 -1.46875,2.75 -0.09375,0.09375 -0.09375,0.109375 -0.09375,0.125 0,0.07813 0.078125,0.09375 0.125,0.09375 0.140625,0 0.6875,-0.59375 0.8125,-0.734375 1.015625,-1.21875 1.671875,-3 1.671875,-5.234375 z m 0,0" style="stroke:none"></path></symbol><symbol id="symbol437" overflow="visible"><path id="path5933" d="" style="stroke:none"></path></symbol><symbol id="symbol2030" overflow="visible"><path id="path342" d="m 2.9375,-6.375 c 0,-0.25 0,-0.265625 -0.234375,-0.265625 C 2.078125,-6 1.203125,-6 0.890625,-6 v 0.3125 c 0.203125,0 0.78125,0 1.296875,-0.265625 v 5.171875 c 0,0.359375 -0.03125,0.46875 -0.921875,0.46875 h -0.3125 V 0 c 0.34375,-0.03125 1.203125,-0.03125 1.609375,-0.03125 0.390625,0 1.265625,0 1.609375,0.03125 v -0.3125 h -0.3125 c -0.90625,0 -0.921875,-0.109375 -0.921875,-0.46875 z m 0,0" style="stroke:none"></path></symbol><symbol id="symbol2474" overflow="visible"><path id="path4372" d="m 1.265625,-0.765625 1.0625,-1.03125 c 1.546875,-1.375 2.140625,-1.90625 2.140625,-2.90625 0,-1.140625 -0.890625,-1.9375 -2.109375,-1.9375 -1.125,0 -1.859375,0.921875 -1.859375,1.8125 0,0.546875 0.5,0.546875 0.53125,0.546875 0.171875,0 0.515625,-0.109375 0.515625,-0.53125 0,-0.25 -0.1875,-0.515625 -0.53125,-0.515625 -0.078125,0 -0.09375,0 -0.125,0.015625 0.21875,-0.65625 0.765625,-1.015625 1.34375,-1.015625 0.90625,0 1.328125,0.8125 1.328125,1.625 C 3.5625,-3.90625 3.078125,-3.125 2.515625,-2.5 l -1.90625,2.125 C 0.5,-0.265625 0.5,-0.234375 0.5,0 H 4.203125 L 4.46875,-1.734375 H 4.234375 C 4.171875,-1.4375 4.109375,-1 4,-0.84375 3.9375,-0.765625 3.28125,-0.765625 3.0625,-0.765625 Z m 0,0" style="stroke:none"></path></symbol></g><g id="g5354"><symbol id="symbol9469" overflow="visible"><path id="path337" d="" style="stroke:none"></path></symbol><symbol id="symbol9343" overflow="visible"><path id="path1455" d="M 3.734375,17.640625 C 3.953125,17.640625 4,17.640625 4,17.5 4.03125,10.515625 4.828125,4.71875 8.328125,-0.15625 c 0.0625,-0.09375 0.0625,-0.109375 0.0625,-0.140625 0,-0.09375 -0.0625,-0.09375 -0.21875,-0.09375 -0.171875,0 -0.1875,0 -0.203125,0.015625 -0.046875,0.03125 -1.3125,1.484375 -2.3125,3.5 -1.3125,2.625 -2.140625,5.640625 -2.515625,9.28125 -0.03125,0.296875 -0.234375,2.375 -0.234375,4.734375 v 0.390625 c 0,0.109375 0.0625,0.109375 0.28125,0.109375 z m 0,0" style="stroke:none"></path></symbol><symbol id="symbol4562" overflow="visible"><path id="path6260" d="m 3.1875,-0.5 c -0.21875,0 -0.28125,0 -0.28125,0.109375 V 0 c 0,6.09375 1.078125,9.65625 1.390625,10.671875 C 4.96875,12.875 6.078125,15.21875 7.75,17.265625 7.890625,17.453125 7.9375,17.5 7.96875,17.515625 8,17.53125 8,17.53125 8.171875,17.53125 c 0.15625,0 0.21875,0 0.21875,-0.09375 0,-0.01563 0,-0.04687 -0.0625,-0.125 C 5.015625,12.703125 4.015625,7.15625 4,-0.359375 4,-0.5 3.953125,-0.5 3.734375,-0.5 Z m 0,0" style="stroke:none"></path></symbol><symbol id="symbol648" overflow="visible"><path id="path5791" d="M 5.8125,17.140625 C 5.8125,11.0625 4.71875,7.484375 4.421875,6.484375 3.734375,4.265625 2.625,1.9375 0.96875,-0.125 0.8125,-0.296875 0.78125,-0.34375 0.734375,-0.375 c -0.015625,0 -0.03125,-0.015625 -0.1875,-0.015625 -0.140625,0 -0.234375,0 -0.234375,0.09375 0,0.03125 0,0.046875 0.140625,0.234375 3.46875,4.84375 4.234375,10.8125 4.25,17.5625 0,0.140625 0.0625,0.140625 0.28125,0.140625 H 5.53125 c 0.203125,0 0.265625,0 0.28125,-0.109375 z m 0,0" style="stroke:none"></path></symbol><symbol id="symbol7064" overflow="visible"><path id="path564" d="M 5.8125,-0.390625 C 5.796875,-0.5 5.734375,-0.5 5.53125,-0.5 H 4.984375 c -0.21875,0 -0.28125,0 -0.28125,0.140625 0,1.03125 -0.015625,3.40625 -0.265625,5.875 C 3.890625,10.671875 2.578125,14.25 0.390625,17.3125 0.3125,17.390625 0.3125,17.421875 0.3125,17.4375 c 0,0.09375 0.09375,0.09375 0.234375,0.09375 0.15625,0 0.1875,0 0.203125,-0.01563 0.03125,-0.03124 1.296875,-1.48437 2.3125,-3.48437 C 4.375,11.390625 5.203125,8.375 5.578125,4.75 5.609375,4.4375 5.8125,2.359375 5.8125,0 Z m 0,0" style="stroke:none"></path></symbol><symbol id="symbol1779" overflow="visible"><path id="path5201" d="M 4,0.171875 C 4,-0.09375 4,-0.09375 3.734375,-0.09375 H 3.1875 c -0.28125,0 -0.28125,0 -0.28125,0.265625 V 5.8125 c 0,0.265625 0,0.265625 0.28125,0.265625 H 3.734375 C 4,6.078125 4,6.078125 4,5.8125 Z m 0,0" style="stroke:none"></path></symbol><symbol id="symbol9218" overflow="visible"><path id="path6685" d="M 5.8125,0.171875 C 5.8125,-0.09375 5.796875,-0.09375 5.53125,-0.09375 H 4.984375 c -0.265625,0 -0.28125,0 -0.28125,0.265625 V 5.8125 c 0,0.265625 0.015625,0.265625 0.28125,0.265625 H 5.53125 c 0.265625,0 0.28125,0 0.28125,-0.265625 z m 0,0" style="stroke:none"></path></symbol><symbol id="symbol1718" overflow="visible"><path id="path4546" d="" style="stroke:none"></path></symbol><symbol id="symbol1208" overflow="visible"><path id="path4784" d="m 0.875,-0.59375 c -0.03125,0.15625 -0.09375,0.390625 -0.09375,0.4375 0,0.171875 0.140625,0.265625 0.296875,0.265625 0.125,0 0.296875,-0.078125 0.375,-0.28125 C 1.46875,-0.203125 1.796875,-1.5625 1.84375,-1.75 c 0.078125,-0.328125 0.265625,-1.015625 0.3125,-1.296875 0.046875,-0.125 0.328125,-0.59375 0.5625,-0.8125 0.078125,-0.0625 0.375,-0.328125 0.796875,-0.328125 0.265625,0 0.40625,0.125 0.421875,0.125 -0.296875,0.046875 -0.515625,0.28125 -0.515625,0.546875 0,0.15625 0.109375,0.34375 0.375,0.34375 0.265625,0 0.546875,-0.234375 0.546875,-0.59375 0,-0.34375 -0.3125,-0.640625 -0.828125,-0.640625 C 2.875,-4.40625 2.4375,-3.921875 2.25,-3.640625 2.15625,-4.09375 1.796875,-4.40625 1.328125,-4.40625 0.875,-4.40625 0.6875,-4.015625 0.59375,-3.84375 0.421875,-3.5 0.296875,-2.90625 0.296875,-2.875 c 0,0.109375 0.09375,0.109375 0.109375,0.109375 0.109375,0 0.109375,-0.015625 0.171875,-0.234375 0.171875,-0.703125 0.375,-1.1875 0.734375,-1.1875 0.15625,0 0.296875,0.078125 0.296875,0.453125 0,0.21875 -0.03125,0.328125 -0.15625,0.84375 z m 0,0" style="stroke:none"></path></symbol><symbol id="symbol1245" overflow="visible"><path id="path7911" d="M 3.890625,-3.734375 C 3.625,-3.71875 3.421875,-3.5 3.421875,-3.28125 c 0,0.140625 0.09375,0.296875 0.3125,0.296875 0.21875,0 0.453125,-0.171875 0.453125,-0.5625 C 4.1875,-4 3.765625,-4.40625 3,-4.40625 c -1.3125,0 -1.6875,1.015625 -1.6875,1.453125 0,0.78125 0.734375,0.921875 1.03125,0.984375 0.515625,0.109375 1.03125,0.21875 1.03125,0.765625 0,0.25 -0.21875,1.09375 -1.421875,1.09375 -0.140625,0 -0.90625,0 -1.140625,-0.53125 0.390625,0.046875 0.640625,-0.25 0.640625,-0.53125 0,-0.21875 -0.171875,-0.34375 -0.375,-0.34375 -0.265625,0 -0.5625,0.203125 -0.5625,0.65625 0,0.5625 0.578125,0.96875 1.421875,0.96875 1.625,0 2.015625,-1.203125 2.015625,-1.65625 0,-0.359375 -0.1875,-0.609375 -0.3125,-0.71875 -0.265625,-0.28125 -0.5625,-0.34375 -1,-0.421875 -0.359375,-0.078125 -0.75,-0.15625 -0.75,-0.609375 C 1.890625,-3.578125 2.125,-4.1875 3,-4.1875 c 0.25,0 0.75,0.078125 0.890625,0.453125 z m 0,0" style="stroke:none"></path></symbol><symbol id="symbol561" overflow="visible"><path id="path8227" d="" style="stroke:none"></path></symbol><symbol id="symbol1293" overflow="visible"><path id="path6207" d="m 2.328125,-4.4375 c 0,-0.1875 0,-0.1875 -0.203125,-0.1875 -0.453125,0.4375 -1.078125,0.4375 -1.359375,0.4375 v 0.25 c 0.15625,0 0.625,0 1,-0.1875 v 3.546875 c 0,0.234375 0,0.328125 -0.6875,0.328125 H 0.8125 V 0 c 0.125,0 0.984375,-0.03125 1.234375,-0.03125 0.21875,0 1.09375,0.03125 1.25,0.03125 V -0.25 H 3.03125 c -0.703125,0 -0.703125,-0.09375 -0.703125,-0.328125 z m 0,0" style="stroke:none"></path></symbol><symbol id="symbol3389" overflow="visible"><path id="path4616" d="M 3.515625,-1.265625 H 3.28125 c -0.015625,0.15625 -0.09375,0.5625 -0.1875,0.625 C 3.046875,-0.59375 2.515625,-0.59375 2.40625,-0.59375 H 1.125 c 0.734375,-0.640625 0.984375,-0.84375 1.390625,-1.171875 0.515625,-0.40625 1,-0.84375 1,-1.5 0,-0.84375 -0.734375,-1.359375 -1.625,-1.359375 -0.859375,0 -1.453125,0.609375 -1.453125,1.25 0,0.34375 0.296875,0.390625 0.375,0.390625 0.15625,0 0.359375,-0.125 0.359375,-0.375 0,-0.125 -0.046875,-0.375 -0.40625,-0.375 C 0.984375,-4.21875 1.453125,-4.375 1.78125,-4.375 c 0.703125,0 1.0625,0.546875 1.0625,1.109375 0,0.609375 -0.4375,1.078125 -0.65625,1.328125 L 0.515625,-0.265625 C 0.4375,-0.203125 0.4375,-0.1875 0.4375,0 h 2.875 z m 0,0" style="stroke:none"></path></symbol><symbol id="symbol7807" overflow="visible"><path id="path5424" d="m 1.90625,-2.328125 c 0.546875,0 0.9375,0.375 0.9375,1.125 0,0.859375 -0.515625,1.125 -0.90625,1.125 -0.28125,0 -0.90625,-0.078125 -1.1875,-0.5 0.328125,0 0.40625,-0.234375 0.40625,-0.390625 0,-0.21875 -0.171875,-0.375 -0.390625,-0.375 -0.1875,0 -0.390625,0.125 -0.390625,0.40625 0,0.65625 0.71875,1.078125 1.5625,1.078125 0.96875,0 1.640625,-0.65625 1.640625,-1.34375 0,-0.546875 -0.4375,-1.09375 -1.203125,-1.25 0.71875,-0.265625 0.984375,-0.78125 0.984375,-1.21875 0,-0.546875 -0.625,-0.953125 -1.40625,-0.953125 -0.765625,0 -1.359375,0.375 -1.359375,0.9375 0,0.234375 0.15625,0.359375 0.359375,0.359375 0.21875,0 0.359375,-0.15625 0.359375,-0.34375 0,-0.203125 -0.140625,-0.359375 -0.359375,-0.375 0.25,-0.296875 0.71875,-0.375 0.984375,-0.375 0.3125,0 0.75,0.15625 0.75,0.75 0,0.296875 -0.09375,0.625 -0.28125,0.828125 -0.21875,0.265625 -0.421875,0.28125 -0.765625,0.3125 -0.171875,0.015625 -0.1875,0.015625 -0.21875,0.015625 -0.015625,0 -0.078125,0.015625 -0.078125,0.09375 0,0.09375 0.0625,0.09375 0.1875,0.09375 z m 0,0" style="stroke:none"></path></symbol></g><g id="g9944"><symbol id="symbol7412" overflow="visible"><path id="path5591" d="" style="stroke:none"></path></symbol><symbol id="symbol5091" overflow="visible"><path id="path7334" d="M 3.734375,17.640625 C 3.953125,17.640625 4,17.640625 4,17.5 4.03125,10.515625 4.828125,4.71875 8.328125,-0.15625 c 0.0625,-0.09375 0.0625,-0.109375 0.0625,-0.140625 0,-0.09375 -0.0625,-0.09375 -0.21875,-0.09375 -0.171875,0 -0.1875,0 -0.203125,0.015625 -0.046875,0.03125 -1.3125,1.484375 -2.3125,3.5 -1.3125,2.625 -2.140625,5.640625 -2.515625,9.28125 -0.03125,0.296875 -0.234375,2.375 -0.234375,4.734375 v 0.390625 c 0,0.109375 0.0625,0.109375 0.28125,0.109375 z m 0,0" style="stroke:none"></path></symbol><symbol id="symbol7736" overflow="visible"><path id="path4445" d="m 3.1875,-0.5 c -0.21875,0 -0.28125,0 -0.28125,0.109375 V 0 c 0,6.09375 1.078125,9.65625 1.390625,10.671875 C 4.96875,12.875 6.078125,15.21875 7.75,17.265625 7.890625,17.453125 7.9375,17.5 7.96875,17.515625 8,17.53125 8,17.53125 8.171875,17.53125 c 0.15625,0 0.21875,0 0.21875,-0.09375 0,-0.01563 0,-0.04687 -0.0625,-0.125 C 5.015625,12.703125 4.015625,7.15625 4,-0.359375 4,-0.5 3.953125,-0.5 3.734375,-0.5 Z m 0,0" style="stroke:none"></path></symbol><symbol id="symbol629" overflow="visible"><path id="path5196" d="M 5.8125,17.140625 C 5.8125,11.0625 4.71875,7.484375 4.421875,6.484375 3.734375,4.265625 2.625,1.9375 0.96875,-0.125 0.8125,-0.296875 0.78125,-0.34375 0.734375,-0.375 c -0.015625,0 -0.03125,-0.015625 -0.1875,-0.015625 -0.140625,0 -0.234375,0 -0.234375,0.09375 0,0.03125 0,0.046875 0.140625,0.234375 3.46875,4.84375 4.234375,10.8125 4.25,17.5625 0,0.140625 0.0625,0.140625 0.28125,0.140625 H 5.53125 c 0.203125,0 0.265625,0 0.28125,-0.109375 z m 0,0" style="stroke:none"></path></symbol><symbol id="symbol1807" overflow="visible"><path id="path5213" d="M 5.8125,-0.390625 C 5.796875,-0.5 5.734375,-0.5 5.53125,-0.5 H 4.984375 c -0.21875,0 -0.28125,0 -0.28125,0.140625 0,1.03125 -0.015625,3.40625 -0.265625,5.875 C 3.890625,10.671875 2.578125,14.25 0.390625,17.3125 0.3125,17.390625 0.3125,17.421875 0.3125,17.4375 c 0,0.09375 0.09375,0.09375 0.234375,0.09375 0.15625,0 0.1875,0 0.203125,-0.01563 C 0.78125,17.484375 2.046875,16.03125 3.0625,14.03125 4.375,11.390625 5.203125,8.375 5.578125,4.75 5.609375,4.4375 5.8125,2.359375 5.8125,0 Z m 0,0" style="stroke:none"></path></symbol><symbol id="symbol6220" overflow="visible"><path id="path6331" d="m 6.984375,23.421875 c 0,-0.04687 -0.03125,-0.0625 -0.046875,-0.09375 -0.375,-0.375 -1.03125,-1.03125 -1.703125,-2.109375 C 3.625,18.640625 2.90625,15.40625 2.90625,11.5625 c 0,-2.6875 0.359375,-6.140625 2,-9.109375 C 5.6875,1.03125 6.515625,0.21875 6.953125,-0.21875 c 0.03125,-0.03125 0.03125,-0.046875 0.03125,-0.078125 0,-0.109375 -0.078125,-0.109375 -0.21875,-0.109375 -0.140625,0 -0.15625,0 -0.3125,0.15625 -3.328125,3.046875 -4.375,7.609375 -4.375,11.796875 0,3.921875 0.890625,7.875 3.421875,10.859375 0.203125,0.21875 0.578125,0.625 0.984375,0.984375 0.125,0.125 0.140625,0.125 0.28125,0.125 0.140625,0 0.21875,0 0.21875,-0.09375 z m 0,0" style="stroke:none"></path></symbol><symbol id="symbol3684" overflow="visible"><path id="path6710" d="M 5.25,11.5625 C 5.25,7.640625 4.359375,3.703125 1.828125,0.71875 1.625,0.484375 1.25,0.078125 0.84375,-0.28125 c -0.125,-0.125 -0.140625,-0.125 -0.28125,-0.125 -0.125,0 -0.21875,0 -0.21875,0.109375 0,0.03125 0.046875,0.078125 0.0625,0.09375 0.34375,0.359375 1.015625,1.03125 1.6875,2.109375 1.609375,2.5625 2.328125,5.8125 2.328125,9.640625 0,2.6875 -0.359375,6.140625 -2,9.125 -0.78125,1.40625 -1.609375,2.234375 -2.03125,2.65625 -0.015625,0.03125 -0.046875,0.0625 -0.046875,0.09375 0,0.09375 0.09375,0.09375 0.21875,0.09375 0.140625,0 0.15625,0 0.3125,-0.15625 C 4.203125,20.328125 5.25,15.765625 5.25,11.5625 Z m 0,0" style="stroke:none"></path></symbol><symbol id="symbol174" overflow="visible"><path id="path8189" d="M 4,0.171875 C 4,-0.09375 4,-0.09375 3.734375,-0.09375 H 3.1875 c -0.28125,0 -0.28125,0 -0.28125,0.265625 V 5.8125 c 0,0.265625 0,0.265625 0.28125,0.265625 H 3.734375 C 4,6.078125 4,6.078125 4,5.8125 Z m 0,0" style="stroke:none"></path></symbol><symbol id="symbol4960" overflow="visible"><path id="path9871" d="M 5.8125,0.171875 C 5.8125,-0.09375 5.796875,-0.09375 5.53125,-0.09375 H 4.984375 c -0.265625,0 -0.28125,0 -0.28125,0.265625 V 5.8125 c 0,0.265625 0.015625,0.265625 0.28125,0.265625 H 5.53125 c 0.265625,0 0.28125,0 0.28125,-0.265625 z m 0,0" style="stroke:none"></path></symbol><symbol id="symbol1121" overflow="visible"><path id="path4766" d="" style="stroke:none"></path></symbol><symbol id="symbol6480" overflow="visible"><path id="path4318" d="m 0.875,-0.59375 c -0.03125,0.15625 -0.09375,0.390625 -0.09375,0.4375 0,0.171875 0.140625,0.265625 0.296875,0.265625 0.125,0 0.296875,-0.078125 0.375,-0.28125 C 1.46875,-0.203125 1.796875,-1.5625 1.84375,-1.75 c 0.078125,-0.328125 0.265625,-1.015625 0.3125,-1.296875 0.046875,-0.125 0.328125,-0.59375 0.5625,-0.8125 0.078125,-0.0625 0.375,-0.328125 0.796875,-0.328125 0.265625,0 0.40625,0.125 0.421875,0.125 -0.296875,0.046875 -0.515625,0.28125 -0.515625,0.546875 0,0.15625 0.109375,0.34375 0.375,0.34375 0.265625,0 0.546875,-0.234375 0.546875,-0.59375 0,-0.34375 -0.3125,-0.640625 -0.828125,-0.640625 C 2.875,-4.40625 2.4375,-3.921875 2.25,-3.640625 2.15625,-4.09375 1.796875,-4.40625 1.328125,-4.40625 0.875,-4.40625 0.6875,-4.015625 0.59375,-3.84375 0.421875,-3.5 0.296875,-2.90625 0.296875,-2.875 c 0,0.109375 0.09375,0.109375 0.109375,0.109375 0.109375,0 0.109375,-0.015625 0.171875,-0.234375 0.171875,-0.703125 0.375,-1.1875 0.734375,-1.1875 0.15625,0 0.296875,0.078125 0.296875,0.453125 0,0.21875 -0.03125,0.328125 -0.15625,0.84375 z m 0,0" style="stroke:none"></path></symbol><symbol id="symbol4035" overflow="visible"><path id="path7909" d="M 3.890625,-3.734375 C 3.625,-3.71875 3.421875,-3.5 3.421875,-3.28125 c 0,0.140625 0.09375,0.296875 0.3125,0.296875 0.21875,0 0.453125,-0.171875 0.453125,-0.5625 C 4.1875,-4 3.765625,-4.40625 3,-4.40625 c -1.3125,0 -1.6875,1.015625 -1.6875,1.453125 0,0.78125 0.734375,0.921875 1.03125,0.984375 0.515625,0.109375 1.03125,0.21875 1.03125,0.765625 0,0.25 -0.21875,1.09375 -1.421875,1.09375 -0.140625,0 -0.90625,0 -1.140625,-0.53125 0.390625,0.046875 0.640625,-0.25 0.640625,-0.53125 0,-0.21875 -0.171875,-0.34375 -0.375,-0.34375 -0.265625,0 -0.5625,0.203125 -0.5625,0.65625 0,0.5625 0.578125,0.96875 1.421875,0.96875 1.625,0 2.015625,-1.203125 2.015625,-1.65625 0,-0.359375 -0.1875,-0.609375 -0.3125,-0.71875 -0.265625,-0.28125 -0.5625,-0.34375 -1,-0.421875 -0.359375,-0.078125 -0.75,-0.15625 -0.75,-0.609375 C 1.890625,-3.578125 2.125,-4.1875 3,-4.1875 c 0.25,0 0.75,0.078125 0.890625,0.453125 z m 0,0" style="stroke:none"></path></symbol><symbol id="symbol2277" overflow="visible"><path id="path1995" d="" style="stroke:none"></path></symbol><symbol id="symbol4025" overflow="visible"><path id="path8410" d="m 2.328125,-4.4375 c 0,-0.1875 0,-0.1875 -0.203125,-0.1875 -0.453125,0.4375 -1.078125,0.4375 -1.359375,0.4375 v 0.25 c 0.15625,0 0.625,0 1,-0.1875 v 3.546875 c 0,0.234375 0,0.328125 -0.6875,0.328125 H 0.8125 V 0 c 0.125,0 0.984375,-0.03125 1.234375,-0.03125 0.21875,0 1.09375,0.03125 1.25,0.03125 V -0.25 H 3.03125 c -0.703125,0 -0.703125,-0.09375 -0.703125,-0.328125 z m 0,0" style="stroke:none"></path></symbol><symbol id="symbol5231" overflow="visible"><path id="path8937" d="M 3.515625,-1.265625 H 3.28125 c -0.015625,0.15625 -0.09375,0.5625 -0.1875,0.625 C 3.046875,-0.59375 2.515625,-0.59375 2.40625,-0.59375 H 1.125 c 0.734375,-0.640625 0.984375,-0.84375 1.390625,-1.171875 0.515625,-0.40625 1,-0.84375 1,-1.5 0,-0.84375 -0.734375,-1.359375 -1.625,-1.359375 -0.859375,0 -1.453125,0.609375 -1.453125,1.25 0,0.34375 0.296875,0.390625 0.375,0.390625 0.15625,0 0.359375,-0.125 0.359375,-0.375 0,-0.125 -0.046875,-0.375 -0.40625,-0.375 C 0.984375,-4.21875 1.453125,-4.375 1.78125,-4.375 c 0.703125,0 1.0625,0.546875 1.0625,1.109375 0,0.609375 -0.4375,1.078125 -0.65625,1.328125 L 0.515625,-0.265625 C 0.4375,-0.203125 0.4375,-0.1875 0.4375,0 h 2.875 z m 0,0" style="stroke:none"></path></symbol><symbol id="symbol7254" overflow="visible"><path id="path7637" d="m 1.90625,-2.328125 c 0.546875,0 0.9375,0.375 0.9375,1.125 0,0.859375 -0.515625,1.125 -0.90625,1.125 -0.28125,0 -0.90625,-0.078125 -1.1875,-0.5 0.328125,0 0.40625,-0.234375 0.40625,-0.390625 0,-0.21875 -0.171875,-0.375 -0.390625,-0.375 -0.1875,0 -0.390625,0.125 -0.390625,0.40625 0,0.65625 0.71875,1.078125 1.5625,1.078125 0.96875,0 1.640625,-0.65625 1.640625,-1.34375 0,-0.546875 -0.4375,-1.09375 -1.203125,-1.25 0.71875,-0.265625 0.984375,-0.78125 0.984375,-1.21875 0,-0.546875 -0.625,-0.953125 -1.40625,-0.953125 -0.765625,0 -1.359375,0.375 -1.359375,0.9375 0,0.234375 0.15625,0.359375 0.359375,0.359375 0.21875,0 0.359375,-0.15625 0.359375,-0.34375 0,-0.203125 -0.140625,-0.359375 -0.359375,-0.375 0.25,-0.296875 0.71875,-0.375 0.984375,-0.375 0.3125,0 0.75,0.15625 0.75,0.75 0,0.296875 -0.09375,0.625 -0.28125,0.828125 -0.21875,0.265625 -0.421875,0.28125 -0.765625,0.3125 -0.171875,0.015625 -0.1875,0.015625 -0.21875,0.015625 -0.015625,0 -0.078125,0.015625 -0.078125,0.09375 0,0.09375 0.0625,0.09375 0.1875,0.09375 z m 0,0" style="stroke:none"></path></symbol></g><g id="g2194"><symbol id="symbol1971" overflow="visible"><path id="path7489" d="" style="stroke:none"></path></symbol><symbol id="symbol9321" overflow="visible"><path id="path7701" d="M 3.734375,17.640625 C 3.953125,17.640625 4,17.640625 4,17.5 4.03125,10.515625 4.828125,4.71875 8.328125,-0.15625 c 0.0625,-0.09375 0.0625,-0.109375 0.0625,-0.140625 0,-0.09375 -0.0625,-0.09375 -0.21875,-0.09375 -0.171875,0 -0.1875,0 -0.203125,0.015625 -0.046875,0.03125 -1.3125,1.484375 -2.3125,3.5 -1.3125,2.625 -2.140625,5.640625 -2.515625,9.28125 -0.03125,0.296875 -0.234375,2.375 -0.234375,4.734375 v 0.390625 c 0,0.109375 0.0625,0.109375 0.28125,0.109375 z m 0,0" style="stroke:none"></path></symbol><symbol id="symbol7969" overflow="visible"><path id="path7175" d="M 4,0.171875 C 4,-0.09375 4,-0.09375 3.734375,-0.09375 H 3.1875 c -0.28125,0 -0.28125,0 -0.28125,0.265625 V 5.8125 c 0,0.265625 0,0.265625 0.28125,0.265625 H 3.734375 C 4,6.078125 4,6.078125 4,5.8125 Z m 0,0" style="stroke:none"></path></symbol><symbol id="symbol5061" overflow="visible"><path id="path1832" d="m 3.1875,-0.5 c -0.21875,0 -0.28125,0 -0.28125,0.109375 V 0 c 0,6.09375 1.078125,9.65625 1.390625,10.671875 C 4.96875,12.875 6.078125,15.21875 7.75,17.265625 7.890625,17.453125 7.9375,17.5 7.96875,17.515625 8,17.53125 8,17.53125 8.171875,17.53125 c 0.15625,0 0.21875,0 0.21875,-0.09375 0,-0.01563 0,-0.04687 -0.0625,-0.125 C 5.015625,12.703125 4.015625,7.15625 4,-0.359375 4,-0.5 3.953125,-0.5 3.734375,-0.5 Z m 0,0" style="stroke:none"></path></symbol><symbol id="symbol5345" overflow="visible"><path id="path1225" d="M 5.8125,17.140625 C 5.8125,11.0625 4.71875,7.484375 4.421875,6.484375 3.734375,4.265625 2.625,1.9375 0.96875,-0.125 0.8125,-0.296875 0.78125,-0.34375 0.734375,-0.375 c -0.015625,0 -0.03125,-0.015625 -0.1875,-0.015625 -0.140625,0 -0.234375,0 -0.234375,0.09375 0,0.03125 0,0.046875 0.140625,0.234375 3.46875,4.84375 4.234375,10.8125 4.25,17.5625 0,0.140625 0.0625,0.140625 0.28125,0.140625 H 5.53125 c 0.203125,0 0.265625,0 0.28125,-0.109375 z m 0,0" style="stroke:none"></path></symbol><symbol id="symbol217" overflow="visible"><path id="path1119" d="M 5.8125,0.171875 C 5.8125,-0.09375 5.796875,-0.09375 5.53125,-0.09375 H 4.984375 c -0.265625,0 -0.28125,0 -0.28125,0.265625 V 5.8125 c 0,0.265625 0.015625,0.265625 0.28125,0.265625 H 5.53125 c 0.265625,0 0.28125,0 0.28125,-0.265625 z m 0,0" style="stroke:none"></path></symbol><symbol id="symbol4338" overflow="visible"><path id="path3987" d="M 5.8125,-0.390625 C 5.796875,-0.5 5.734375,-0.5 5.53125,-0.5 H 4.984375 c -0.21875,0 -0.28125,0 -0.28125,0.140625 0,1.03125 -0.015625,3.40625 -0.265625,5.875 C 3.890625,10.671875 2.578125,14.25 0.390625,17.3125 0.3125,17.390625 0.3125,17.421875 0.3125,17.4375 c 0,0.09375 0.09375,0.09375 0.234375,0.09375 0.15625,0 0.1875,0 0.203125,-0.01563 C 0.78125,17.484375 2.046875,16.03125 3.0625,14.03125 4.375,11.390625 5.203125,8.375 5.578125,4.75 5.609375,4.4375 5.8125,2.359375 5.8125,0 Z m 0,0" style="stroke:none"></path></symbol><symbol id="symbol2766" overflow="visible"><path id="path6482" d="" style="stroke:none"></path></symbol><symbol id="symbol8183" overflow="visible"><path id="path6554" d="m 0.875,-0.59375 c -0.03125,0.15625 -0.09375,0.390625 -0.09375,0.4375 0,0.171875 0.140625,0.265625 0.296875,0.265625 0.125,0 0.296875,-0.078125 0.375,-0.28125 C 1.46875,-0.203125 1.796875,-1.5625 1.84375,-1.75 c 0.078125,-0.328125 0.265625,-1.015625 0.3125,-1.296875 0.046875,-0.125 0.328125,-0.59375 0.5625,-0.8125 0.078125,-0.0625 0.375,-0.328125 0.796875,-0.328125 0.265625,0 0.40625,0.125 0.421875,0.125 -0.296875,0.046875 -0.515625,0.28125 -0.515625,0.546875 0,0.15625 0.109375,0.34375 0.375,0.34375 0.265625,0 0.546875,-0.234375 0.546875,-0.59375 0,-0.34375 -0.3125,-0.640625 -0.828125,-0.640625 C 2.875,-4.40625 2.4375,-3.921875 2.25,-3.640625 2.15625,-4.09375 1.796875,-4.40625 1.328125,-4.40625 0.875,-4.40625 0.6875,-4.015625 0.59375,-3.84375 0.421875,-3.5 0.296875,-2.90625 0.296875,-2.875 c 0,0.109375 0.09375,0.109375 0.109375,0.109375 0.109375,0 0.109375,-0.015625 0.171875,-0.234375 0.171875,-0.703125 0.375,-1.1875 0.734375,-1.1875 0.15625,0 0.296875,0.078125 0.296875,0.453125 0,0.21875 -0.03125,0.328125 -0.15625,0.84375 z m 0,0" style="stroke:none"></path></symbol><symbol id="symbol6740" overflow="visible"><path id="path3665" d="M 3.890625,-3.734375 C 3.625,-3.71875 3.421875,-3.5 3.421875,-3.28125 c 0,0.140625 0.09375,0.296875 0.3125,0.296875 0.21875,0 0.453125,-0.171875 0.453125,-0.5625 C 4.1875,-4 3.765625,-4.40625 3,-4.40625 c -1.3125,0 -1.6875,1.015625 -1.6875,1.453125 0,0.78125 0.734375,0.921875 1.03125,0.984375 0.515625,0.109375 1.03125,0.21875 1.03125,0.765625 0,0.25 -0.21875,1.09375 -1.421875,1.09375 -0.140625,0 -0.90625,0 -1.140625,-0.53125 0.390625,0.046875 0.640625,-0.25 0.640625,-0.53125 0,-0.21875 -0.171875,-0.34375 -0.375,-0.34375 -0.265625,0 -0.5625,0.203125 -0.5625,0.65625 0,0.5625 0.578125,0.96875 1.421875,0.96875 1.625,0 2.015625,-1.203125 2.015625,-1.65625 0,-0.359375 -0.1875,-0.609375 -0.3125,-0.71875 -0.265625,-0.28125 -0.5625,-0.34375 -1,-0.421875 -0.359375,-0.078125 -0.75,-0.15625 -0.75,-0.609375 C 1.890625,-3.578125 2.125,-4.1875 3,-4.1875 c 0.25,0 0.75,0.078125 0.890625,0.453125 z m 0,0" style="stroke:none"></path></symbol><symbol id="symbol9953" overflow="visible"><path id="path5799" d="" style="stroke:none"></path></symbol><symbol id="symbol9027" overflow="visible"><path id="path4946" d="m 2.328125,-4.4375 c 0,-0.1875 0,-0.1875 -0.203125,-0.1875 -0.453125,0.4375 -1.078125,0.4375 -1.359375,0.4375 v 0.25 c 0.15625,0 0.625,0 1,-0.1875 v 3.546875 c 0,0.234375 0,0.328125 -0.6875,0.328125 H 0.8125 V 0 c 0.125,0 0.984375,-0.03125 1.234375,-0.03125 0.21875,0 1.09375,0.03125 1.25,0.03125 V -0.25 H 3.03125 c -0.703125,0 -0.703125,-0.09375 -0.703125,-0.328125 z m 0,0" style="stroke:none"></path></symbol><symbol id="symbol4093" overflow="visible"><path id="path105" d="M 3.515625,-1.265625 H 3.28125 c -0.015625,0.15625 -0.09375,0.5625 -0.1875,0.625 C 3.046875,-0.59375 2.515625,-0.59375 2.40625,-0.59375 H 1.125 c 0.734375,-0.640625 0.984375,-0.84375 1.390625,-1.171875 0.515625,-0.40625 1,-0.84375 1,-1.5 0,-0.84375 -0.734375,-1.359375 -1.625,-1.359375 -0.859375,0 -1.453125,0.609375 -1.453125,1.25 0,0.34375 0.296875,0.390625 0.375,0.390625 0.15625,0 0.359375,-0.125 0.359375,-0.375 0,-0.125 -0.046875,-0.375 -0.40625,-0.375 C 0.984375,-4.21875 1.453125,-4.375 1.78125,-4.375 c 0.703125,0 1.0625,0.546875 1.0625,1.109375 0,0.609375 -0.4375,1.078125 -0.65625,1.328125 L 0.515625,-0.265625 C 0.4375,-0.203125 0.4375,-0.1875 0.4375,0 h 2.875 z m 0,0" style="stroke:none"></path></symbol><symbol id="symbol9295" overflow="visible"><path id="path7739" d="m 1.90625,-2.328125 c 0.546875,0 0.9375,0.375 0.9375,1.125 0,0.859375 -0.515625,1.125 -0.90625,1.125 -0.28125,0 -0.90625,-0.078125 -1.1875,-0.5 0.328125,0 0.40625,-0.234375 0.40625,-0.390625 0,-0.21875 -0.171875,-0.375 -0.390625,-0.375 -0.1875,0 -0.390625,0.125 -0.390625,0.40625 0,0.65625 0.71875,1.078125 1.5625,1.078125 0.96875,0 1.640625,-0.65625 1.640625,-1.34375 0,-0.546875 -0.4375,-1.09375 -1.203125,-1.25 0.71875,-0.265625 0.984375,-0.78125 0.984375,-1.21875 0,-0.546875 -0.625,-0.953125 -1.40625,-0.953125 -0.765625,0 -1.359375,0.375 -1.359375,0.9375 0,0.234375 0.15625,0.359375 0.359375,0.359375 0.21875,0 0.359375,-0.15625 0.359375,-0.34375 0,-0.203125 -0.140625,-0.359375 -0.359375,-0.375 0.25,-0.296875 0.71875,-0.375 0.984375,-0.375 0.3125,0 0.75,0.15625 0.75,0.75 0,0.296875 -0.09375,0.625 -0.28125,0.828125 -0.21875,0.265625 -0.421875,0.28125 -0.765625,0.3125 -0.171875,0.015625 -0.1875,0.015625 -0.21875,0.015625 -0.015625,0 -0.078125,0.015625 -0.078125,0.09375 0,0.09375 0.0625,0.09375 0.1875,0.09375 z m 0,0" style="stroke:none"></path></symbol></g><marker inkscape:stockid="Arrow1Mend" orient="auto" refY="0" refX="0" id="Arrow1Mend-0" style="overflow:visible" inkscape:isstock="true"><path id="path5537-4" d="M 0,0 5,-5 -12.5,0 5,5 Z" style="fill:#000000;fill-opacity:1;fill-rule:evenodd;stroke:#000000;stroke-width:1pt;stroke-opacity:1" transform="matrix(-0.4,0,0,-0.4,-4,0)"></path></marker></defs><metadata id="metadata2131"></metadata><g transform="translate(-250.53752,-91.605117)" id="layer1" inkscape:groupmode="layer" inkscape:label="Layer 1"><g id="g6529"><g style="fill:#000000;fill-opacity:1" id="g4727" transform="translate(179.97947,19.680197)"><use xlink:href="#symbol5091" x="145.451" y="72.399002" id="use7158" width="100%" height="100%"></use></g><g style="fill:#000000;fill-opacity:1" id="g4285" transform="translate(179.97947,19.680197)"><use xlink:href="#symbol174" x="145.451" y="89.932999" id="use1254" width="100%" height="100%"></use></g><g style="fill:#000000;fill-opacity:1" id="g8592" transform="translate(179.97947,19.680197)"><use xlink:href="#symbol174" x="145.451" y="95.911003" id="use6242" width="100%" height="100%"></use></g><g style="fill:#000000;fill-opacity:1" id="g2126" transform="translate(179.97947,19.680197)"><use xlink:href="#symbol174" x="145.451" y="101.888" id="use1445" width="100%" height="100%"></use></g><g style="fill:#000000;fill-opacity:1" id="g6978" transform="translate(179.97947,19.680197)"><use xlink:href="#symbol174" x="145.451" y="107.866" id="use7799" width="100%" height="100%"></use></g><g style="fill:#000000;fill-opacity:1" id="g477" transform="translate(179.97947,19.680197)"><use xlink:href="#symbol174" x="145.451" y="113.844" id="use5881" width="100%" height="100%"></use></g><g style="fill:#000000;fill-opacity:1" id="g4991" transform="translate(179.97947,19.680197)"><use xlink:href="#symbol174" x="145.451" y="119.821" id="use7456" width="100%" height="100%"></use></g><g style="fill:#000000;fill-opacity:1" id="g5299" transform="translate(179.97947,19.680197)"><use xlink:href="#symbol7736" x="145.451" y="126.198" id="use1684" width="100%" height="100%"></use></g><g style="fill:#000000;fill-opacity:1" id="g9050" transform="translate(179.97947,19.680197)"><use xlink:href="#symbol6480" x="154.16901" y="86.445999" id="use852" width="100%" height="100%"></use></g><g style="fill:#000000;fill-opacity:1" id="g2685" transform="translate(179.97947,19.680197)"><use xlink:href="#symbol4025" x="158.66299" y="87.941002" id="use5664" width="100%" height="100%"></use></g><g style="fill:#000000;fill-opacity:1" id="g937" transform="translate(179.97947,19.680197)"><use xlink:href="#symbol6220" x="164.793" y="72.399002" id="use6783" width="100%" height="100%"></use></g><g style="fill:#000000;fill-opacity:1" id="g4454" transform="translate(179.97947,19.680197)"><use xlink:href="#symbol4035" x="172.127" y="80.369003" id="use3567" width="100%" height="100%"></use></g><g style="fill:#000000;fill-opacity:1" id="g9425" transform="translate(179.97947,19.680197)"><use xlink:href="#symbol4025" x="176.797" y="81.862999" id="use2734" width="100%" height="100%"></use></g><g style="fill:#000000;fill-opacity:1" id="g3969" transform="translate(179.97947,19.680197)"><use xlink:href="#symbol4035" x="172.127" y="92.323997" id="use8295" width="100%" height="100%"></use></g><g style="fill:#000000;fill-opacity:1" id="g1203" transform="translate(179.97947,19.680197)"><use xlink:href="#symbol5231" x="176.797" y="93.819" id="use2147" width="100%" height="100%"></use></g><g style="fill:#000000;fill-opacity:1" id="g5373" transform="translate(179.97947,19.680197)"><use xlink:href="#symbol3684" x="181.26601" y="72.399002" id="use850" width="100%" height="100%"></use></g><g style="fill:#000000;fill-opacity:1" id="g1431" transform="translate(179.97947,19.680197)"><use xlink:href="#symbol6480" x="154.16901" y="110.357" id="use8110" width="100%" height="100%"></use></g><g style="fill:#000000;fill-opacity:1" id="g4389" transform="translate(179.97947,19.680197)"><use xlink:href="#symbol5231" x="158.66299" y="111.851" id="use9720" width="100%" height="100%"></use></g><g style="fill:#000000;fill-opacity:1" id="g550" transform="translate(179.97947,19.680197)"><use xlink:href="#symbol6220" x="164.793" y="96.308998" id="use6868" width="100%" height="100%"></use></g><g style="fill:#000000;fill-opacity:1" id="g819" transform="translate(179.97947,19.680197)"><use xlink:href="#symbol4035" x="172.127" y="104.28" id="use2219" width="100%" height="100%"></use></g><g style="fill:#000000;fill-opacity:1" id="g4687" transform="translate(179.97947,19.680197)"><use xlink:href="#symbol4025" x="176.797" y="105.774" id="use8801" width="100%" height="100%"></use></g><g style="fill:#000000;fill-opacity:1" id="g8013" transform="translate(179.97947,19.680197)"><use xlink:href="#symbol4035" x="172.127" y="116.235" id="use5843" width="100%" height="100%"></use></g><g style="fill:#000000;fill-opacity:1" id="g7463" transform="translate(179.97947,19.680197)"><use xlink:href="#symbol5231" x="176.797" y="117.729" id="use7994" width="100%" height="100%"></use></g><g style="fill:#000000;fill-opacity:1" id="g6874" transform="translate(179.97947,19.680197)"><use xlink:href="#symbol3684" x="181.26601" y="96.308998" id="use7223" width="100%" height="100%"></use></g><g style="fill:#000000;fill-opacity:1" id="g7665" transform="translate(179.97947,19.680197)"><use xlink:href="#symbol6480" x="154.16901" y="134.267" id="use7709" width="100%" height="100%"></use></g><g style="fill:#000000;fill-opacity:1" id="g1907" transform="translate(179.97947,19.680197)"><use xlink:href="#symbol7254" x="158.66299" y="135.76199" id="use2552" width="100%" height="100%"></use></g><g style="fill:#000000;fill-opacity:1" id="g5584" transform="translate(179.97947,19.680197)"><use xlink:href="#symbol6220" x="164.793" y="120.22" id="use4828" width="100%" height="100%"></use></g><g style="fill:#000000;fill-opacity:1" id="g5816" transform="translate(179.97947,19.680197)"><use xlink:href="#symbol4035" x="172.127" y="128.19" id="use1144" width="100%" height="100%"></use></g><g style="fill:#000000;fill-opacity:1" id="g5498" transform="translate(179.97947,19.680197)"><use xlink:href="#symbol4025" x="176.797" y="129.685" id="use4291" width="100%" height="100%"></use></g><g style="fill:#000000;fill-opacity:1" id="g5512" transform="translate(179.97947,19.680197)"><use xlink:href="#symbol4035" x="172.127" y="140.145" id="use2465" width="100%" height="100%"></use></g><g style="fill:#000000;fill-opacity:1" id="g7822" transform="translate(179.97947,19.680197)"><use xlink:href="#symbol5231" x="176.797" y="141.64" id="use7705" width="100%" height="100%"></use></g><g style="fill:#000000;fill-opacity:1" id="g9542" transform="translate(179.97947,19.680197)"><use xlink:href="#symbol3684" x="181.26601" y="120.22" id="use5291" width="100%" height="100%"></use></g><g style="fill:#000000;fill-opacity:1" id="g2086" transform="translate(179.97947,19.680197)"><use xlink:href="#symbol629" x="188.60001" y="72.399002" id="use4364" width="100%" height="100%"></use></g><g style="fill:#000000;fill-opacity:1" id="g1427" transform="translate(179.97947,19.680197)"><use xlink:href="#symbol4960" x="188.60001" y="89.932999" id="use2761" width="100%" height="100%"></use></g><g style="fill:#000000;fill-opacity:1" id="g3612" transform="translate(179.97947,19.680197)"><use xlink:href="#symbol4960" x="188.60001" y="95.911003" id="use901" width="100%" height="100%"></use></g><g style="fill:#000000;fill-opacity:1" id="g3305" transform="translate(179.97947,19.680197)"><use xlink:href="#symbol4960" x="188.60001" y="101.889" id="use3800" width="100%" height="100%"></use></g><g style="fill:#000000;fill-opacity:1" id="g8798" transform="translate(179.97947,19.680197)"><use xlink:href="#symbol4960" x="188.60001" y="107.866" id="use209" width="100%" height="100%"></use></g><g style="fill:#000000;fill-opacity:1" id="g6361" transform="translate(179.97947,19.680197)"><use xlink:href="#symbol4960" x="188.60001" y="113.844" id="use2074" width="100%" height="100%"></use></g><g style="fill:#000000;fill-opacity:1" id="g6492" transform="translate(179.97947,19.680197)"><use xlink:href="#symbol4960" x="188.60001" y="119.822" id="use6574" width="100%" height="100%"></use></g><g style="fill:#000000;fill-opacity:1" id="g7971" transform="translate(179.97947,19.680197)"><use xlink:href="#symbol1807" x="188.60001" y="126.198" id="use5485" width="100%" height="100%"></use></g></g><g id="g6566"><g style="fill:#000000;fill-opacity:1" id="g6153" transform="translate(155.70627,14.869346)"><use xlink:href="#symbol5091" x="91.925003" y="90.332001" id="use3584" width="100%" height="100%"></use></g><g style="fill:#000000;fill-opacity:1" id="g1834" transform="translate(155.70627,14.869346)"><use xlink:href="#symbol7736" x="91.925003" y="108.265" id="use8473" width="100%" height="100%"></use></g><g style="fill:#000000;fill-opacity:1" id="g3221" transform="translate(155.70627,14.869346)"><use xlink:href="#symbol6480" x="100.643" y="98.302002" id="use4984" width="100%" height="100%"></use></g><g style="fill:#000000;fill-opacity:1" id="g1760" transform="translate(155.70627,14.869346)"><use xlink:href="#symbol4025" x="105.137" y="99.795998" id="use4972" width="100%" height="100%"></use></g><g style="fill:#000000;fill-opacity:1" id="g1601" transform="translate(155.70627,14.869346)"><use xlink:href="#symbol6480" x="100.643" y="110.257" id="use4386" width="100%" height="100%"></use></g><g style="fill:#000000;fill-opacity:1" id="g6294" transform="translate(155.70627,14.869346)"><use xlink:href="#symbol5231" x="105.137" y="111.751" id="use1132" width="100%" height="100%"></use></g><g style="fill:#000000;fill-opacity:1" id="g4503" transform="translate(155.70627,14.869346)"><use xlink:href="#symbol6480" x="100.643" y="122.212" id="use5948" width="100%" height="100%"></use></g><g style="fill:#000000;fill-opacity:1" id="g7785" transform="translate(155.70627,14.869346)"><use xlink:href="#symbol7254" x="105.137" y="123.707" id="use323" width="100%" height="100%"></use></g><g style="fill:#000000;fill-opacity:1" id="g1832" transform="translate(155.70627,14.869346)"><use xlink:href="#symbol629" x="109.607" y="90.332001" id="use8887" width="100%" height="100%"></use></g><g style="fill:#000000;fill-opacity:1" id="g1520" transform="translate(155.70627,14.869346)"><use xlink:href="#symbol1807" x="109.607" y="108.265" id="use6028" width="100%" height="100%"></use></g><g style="fill:#000000;fill-opacity:1" id="g2246" transform="translate(162.05631,14.869346)"><use xlink:href="#symbol6220" x="119.984" y="96.308998" id="use8145" width="100%" height="100%"></use></g><g style="fill:#000000;fill-opacity:1" id="g9682" transform="translate(162.05631,14.869346)"><use xlink:href="#symbol4035" x="127.318" y="104.28" id="use8934" width="100%" height="100%"></use></g><g style="fill:#000000;fill-opacity:1" id="g9202" transform="translate(162.05631,14.869346)"><use xlink:href="#symbol4025" x="131.98801" y="105.774" id="use2447" width="100%" height="100%"></use></g><g style="fill:#000000;fill-opacity:1" id="g9450" transform="translate(162.05631,14.869346)"><use xlink:href="#symbol4035" x="127.318" y="116.235" id="use8760" width="100%" height="100%"></use></g><g style="fill:#000000;fill-opacity:1" id="g7939" transform="translate(162.05631,14.869346)"><use xlink:href="#symbol5231" x="131.98801" y="117.729" id="use558" width="100%" height="100%"></use></g><g style="fill:#000000;fill-opacity:1" id="g6298" transform="translate(162.05631,14.869346)"><use xlink:href="#symbol3684" x="136.457" y="96.308998" id="use9396" width="100%" height="100%"></use></g><path sodipodi:nodetypes="ccc" id="path4497-2" d="m 288.33142,129.39168 -22.0104,-18.04327 21.75262,6.03303" style="fill:none;stroke:#1a5fb4;stroke-width:0.564999;stroke-linecap:butt;stroke-linejoin:miter;stroke-miterlimit:4;stroke-dasharray:none;stroke-opacity:1"></path><path id="path4501-5" d="m 288.33142,129.39168 -22.13316,-5.5374 21.87538,-6.47284" style="fill:none;stroke:#e01b24;stroke-width:0.665001;stroke-linecap:butt;stroke-linejoin:miter;stroke-miterlimit:4;stroke-dasharray:1.33, 1.33;stroke-dashoffset:0;stroke-opacity:1" sodipodi:nodetypes="ccc"></path><path id="path4505-4" d="m 288.33142,129.39168 -21.98239,6.49111 21.72461,-18.50135" style="fill:none;stroke:#26a269;stroke-width:0.564999;stroke-linecap:butt;stroke-linejoin:miter;stroke-miterlimit:4;stroke-dasharray:1.13, 1.13;stroke-dashoffset:0;stroke-opacity:1" sodipodi:nodetypes="ccc"></path></g><path id="path5526" d="m 310.65109,124.02325 h 10.77232" style="fill:none;stroke:#000000;stroke-width:0.865;stroke-linecap:butt;stroke-linejoin:miter;stroke-miterlimit:4;stroke-dasharray:none;stroke-opacity:1;marker-end:url(#Arrow1Mend)"></path><g inkscape:label="" transform="translate(306.78974,19.59674)" id="g6239"><g id="g1065"><g id="g4332" style="fill:#000000;fill-opacity:1"><use height="100%" width="100%" id="use5154" y="72.399002" x="91.925003" xlink:href="#symbol9321"></use></g><g id="g8826" style="fill:#000000;fill-opacity:1"><use height="100%" width="100%" id="use1003" y="89.932999" x="91.925003" xlink:href="#symbol7969"></use></g><g id="g3225" style="fill:#000000;fill-opacity:1"><use height="100%" width="100%" id="use2112" y="95.911003" x="91.925003" xlink:href="#symbol7969"></use></g><g id="g9525" style="fill:#000000;fill-opacity:1"><use height="100%" width="100%" id="use8259" y="101.888" x="91.925003" xlink:href="#symbol7969"></use></g><g id="g2504" style="fill:#000000;fill-opacity:1"><use height="100%" width="100%" id="use6159" y="107.866" x="91.925003" xlink:href="#symbol7969"></use></g><g id="g5269" style="fill:#000000;fill-opacity:1"><use height="100%" width="100%" id="use9654" y="113.844" x="91.925003" xlink:href="#symbol7969"></use></g><g id="g6329" style="fill:#000000;fill-opacity:1"><use height="100%" width="100%" id="use3167" y="119.821" x="91.925003" xlink:href="#symbol7969"></use></g><g id="g1329" style="fill:#000000;fill-opacity:1"><use height="100%" width="100%" id="use7824" y="126.197" x="91.925003" xlink:href="#symbol5061"></use></g><g id="g9744" style="fill:#000000;fill-opacity:1"><use height="100%" width="100%" id="use5471" y="80.369003" x="100.643" xlink:href="#symbol8183"></use></g><g id="g8324" style="fill:#000000;fill-opacity:1"><use height="100%" width="100%" id="use2802" y="81.863998" x="105.137" xlink:href="#symbol9027"></use></g><g id="g8952" style="fill:#000000;fill-opacity:1"><use height="100%" width="100%" id="use1724" y="80.369003" x="109.607" xlink:href="#symbol6740"></use></g><g id="g8298" style="fill:#000000;fill-opacity:1"><use height="100%" width="100%" id="use4113" y="81.863998" x="114.277" xlink:href="#symbol9027"></use></g><g id="g1399" style="fill:#000000;fill-opacity:1"><use height="100%" width="100%" id="use1718" y="92.323997" x="100.643" xlink:href="#symbol8183"></use></g><g id="g4498" style="fill:#000000;fill-opacity:1"><use height="100%" width="100%" id="use4415" y="93.819" x="105.137" xlink:href="#symbol9027"></use></g><g id="g3570" style="fill:#000000;fill-opacity:1"><use height="100%" width="100%" id="use5295" y="92.323997" x="109.607" xlink:href="#symbol6740"></use></g><g id="g1847" style="fill:#000000;fill-opacity:1"><use height="100%" width="100%" id="use868" y="93.819" x="114.277" xlink:href="#symbol4093"></use></g><g id="g8705" style="fill:#000000;fill-opacity:1"><use height="100%" width="100%" id="use5644" y="104.279" x="100.643" xlink:href="#symbol8183"></use></g><g id="g5517" style="fill:#000000;fill-opacity:1"><use height="100%" width="100%" id="use306" y="105.774" x="105.137" xlink:href="#symbol4093"></use></g><g id="g9650" style="fill:#000000;fill-opacity:1"><use height="100%" width="100%" id="use7101" y="104.279" x="109.607" xlink:href="#symbol6740"></use></g><g id="g7968" style="fill:#000000;fill-opacity:1"><use height="100%" width="100%" id="use5824" y="105.774" x="114.277" xlink:href="#symbol9027"></use></g><g id="g1667" style="fill:#000000;fill-opacity:1"><use height="100%" width="100%" id="use9054" y="116.235" x="100.643" xlink:href="#symbol8183"></use></g><g id="g8211" style="fill:#000000;fill-opacity:1"><use height="100%" width="100%" id="use4695" y="117.729" x="105.137" xlink:href="#symbol4093"></use></g><g id="g8228" style="fill:#000000;fill-opacity:1"><use height="100%" width="100%" id="use829" y="116.235" x="109.607" xlink:href="#symbol6740"></use></g><g id="g3067" style="fill:#000000;fill-opacity:1"><use height="100%" width="100%" id="use8721" y="117.729" x="114.277" xlink:href="#symbol4093"></use></g><g id="g5553" style="fill:#000000;fill-opacity:1"><use height="100%" width="100%" id="use9028" y="128.19" x="100.643" xlink:href="#symbol8183"></use></g><g id="g8559" style="fill:#000000;fill-opacity:1"><use height="100%" width="100%" id="use3553" y="129.68401" x="105.137" xlink:href="#symbol9295"></use></g><g id="g6872" style="fill:#000000;fill-opacity:1"><use height="100%" width="100%" id="use6333" y="128.19" x="109.607" xlink:href="#symbol6740"></use></g><g id="g3952" style="fill:#000000;fill-opacity:1"><use height="100%" width="100%" id="use2036" y="129.68401" x="114.277" xlink:href="#symbol9027"></use></g><g id="g5076" style="fill:#000000;fill-opacity:1"><use height="100%" width="100%" id="use276" y="140.145" x="100.643" xlink:href="#symbol8183"></use></g><g id="g4212" style="fill:#000000;fill-opacity:1"><use height="100%" width="100%" id="use7216" y="141.63901" x="105.137" xlink:href="#symbol9295"></use></g><g id="g9801" style="fill:#000000;fill-opacity:1"><use height="100%" width="100%" id="use6947" y="140.145" x="109.607" xlink:href="#symbol6740"></use></g><g id="g373" style="fill:#000000;fill-opacity:1"><use height="100%" width="100%" id="use1087" y="141.63901" x="114.277" xlink:href="#symbol4093"></use></g><g id="g3468" style="fill:#000000;fill-opacity:1"><use height="100%" width="100%" id="use2369" y="72.399002" x="118.746" xlink:href="#symbol5345"></use></g><g id="g8605" style="fill:#000000;fill-opacity:1"><use height="100%" width="100%" id="use8859" y="89.932999" x="118.746" xlink:href="#symbol217"></use></g><g id="g5258" style="fill:#000000;fill-opacity:1"><use height="100%" width="100%" id="use8637" y="95.911003" x="118.746" xlink:href="#symbol217"></use></g><g id="g80" style="fill:#000000;fill-opacity:1"><use height="100%" width="100%" id="use2005" y="101.888" x="118.746" xlink:href="#symbol217"></use></g><g id="g9074" style="fill:#000000;fill-opacity:1"><use height="100%" width="100%" id="use6483" y="107.866" x="118.746" xlink:href="#symbol217"></use></g><g id="g9131" style="fill:#000000;fill-opacity:1"><use height="100%" width="100%" id="use3227" y="113.844" x="118.746" xlink:href="#symbol217"></use></g><g id="g8902" style="fill:#000000;fill-opacity:1"><use height="100%" width="100%" id="use4724" y="119.821" x="118.746" xlink:href="#symbol217"></use></g><g id="g6952" style="fill:#000000;fill-opacity:1"><use height="100%" width="100%" id="use1230" y="126.197" x="118.746" xlink:href="#symbol4338"></use></g></g></g><path style="fill:none;stroke:#000000;stroke-width:0.865;stroke-linecap:butt;stroke-linejoin:miter;stroke-miterlimit:4;stroke-dasharray:none;stroke-opacity:1;marker-end:url(#Arrow1Mend-0)" d="m 382.0508,123.87204 h 10.77232" id="path5526-9"></path></g></svg> 