<?xml version="1.0" encoding="UTF-8" standalone="no"?> <svg xmlns:ns2="http://www.iki.fi/pav/software/textext/" xmlns:dc="http://purl.org/dc/elements/1.1/" xmlns:cc="http://creativecommons.org/ns#" xmlns:rdf="http://www.w3.org/1999/02/22-rdf-syntax-ns#" xmlns:svg="http://www.w3.org/2000/svg" xmlns="http://www.w3.org/2000/svg" xmlns:sodipodi="http://sodipodi.sourceforge.net/DTD/sodipodi-0.dtd" xmlns:inkscape="http://www.inkscape.org/namespaces/inkscape" inkscape:version="1.0 (4035a4fb49, 2020-05-01)" id="svg4361" version="1.1" viewBox="0 0 73.036858 41.815685" height="41.815685mm" width="73.036858mm"><defs id="defs4355"><marker inkscape:isstock="true" style="overflow:visible" id="Arrow2Lstart-3-0-6" refX="0" refY="0" orient="auto" inkscape:stockid="Arrow2Lstart"><path transform="matrix(1.1,0,0,1.1,1.1,0)" d="M 8.7185878,4.0337352 -2.2072895,0.01601326 8.7185884,-4.0017078 c -1.7454984,2.3720609 -1.7354408,5.6174519 -6e-7,8.035443 z" style="fill:#000000;fill-opacity:1;fill-rule:evenodd;stroke:#000000;stroke-width:0.625;stroke-linejoin:round;stroke-opacity:1" id="path853-8-2-5"></path></marker><marker inkscape:collect="always" inkscape:isstock="true" style="overflow:visible" id="Arrow2Lend-2-8-5" refX="0" refY="0" orient="auto" inkscape:stockid="Arrow2Lend"><path transform="matrix(-1.1,0,0,-1.1,-1.1,0)" d="M 8.7185878,4.0337352 -2.2072895,0.01601326 8.7185884,-4.0017078 c -1.7454984,2.3720609 -1.7354408,5.6174519 -6e-7,8.035443 z" style="fill:#000000;fill-opacity:1;fill-rule:evenodd;stroke:#000000;stroke-width:0.625;stroke-linejoin:round;stroke-opacity:1" id="path856-8-6-0"></path></marker><marker inkscape:stockid="Arrow1Mend" orient="auto" refY="0" refX="0" id="marker6205" style="overflow:visible" inkscape:isstock="true"><path id="path6203" d="M 0,0 5,-5 -12.5,0 5,5 Z" style="fill:#000000;fill-opacity:1;fill-rule:evenodd;stroke:#000000;stroke-width:1pt;stroke-opacity:1" transform="matrix(-0.4,0,0,-0.4,-4,0)"></path></marker><marker inkscape:stockid="Arrow1Mend" orient="auto" refY="0" refX="0" id="marker6610-1-2-8-1" style="overflow:visible" inkscape:isstock="true"><path id="path6608-7-3-14-9" d="M 0,0 5,-5 -12.5,0 5,5 Z" style="fill:#000000;fill-opacity:1;fill-rule:evenodd;stroke:#000000;stroke-width:1pt;stroke-opacity:1" transform="matrix(-0.4,0,0,-0.4,-4,0)"></path></marker><g id="id-1f77926e-d4a0-4a44-aecb-1d67c2556b56"><symbol id="id-513ad4a1-8396-44a1-b413-6ee0f408cf5c" overflow="visible"><path id="id-f652062e-9431-45e5-a1fc-7937bbb958af" d="" style="stroke:none"></path></symbol><symbol id="id-df4c7bb6-14c5-4d1c-8a21-64c9c102668c" overflow="visible"><path id="id-713cf098-8306-4e51-8e56-87f9367d9b5c" d="M 2.109375,-2.9375 C 1.734375,-3 1.09375,-3.109375 1.09375,-3.578125 c 0,-0.625 0.921875,-0.625 1.109375,-0.625 0.75,0 1.125,0.296875 1.171875,0.84375 0.015625,0.15625 0.03125,0.203125 0.234375,0.203125 0.234375,0 0.234375,-0.046875 0.234375,-0.28125 v -0.796875 c 0,-0.1875 0,-0.28125 -0.171875,-0.28125 -0.046875,0 -0.0625,0 -0.453125,0.1875 -0.265625,-0.125 -0.609375,-0.1875 -1,-0.1875 -0.3125,0 -1.84375,0 -1.84375,1.3125 0,0.390625 0.203125,0.65625 0.40625,0.828125 0.390625,0.34375 0.78125,0.40625 1.546875,0.546875 0.359375,0.0625 1.09375,0.1875 1.09375,0.78125 0,0.75 -0.90625,0.75 -1.125,0.75 -1.0625,0 -1.3125,-0.734375 -1.4375,-1.15625 C 0.8125,-1.59375 0.75,-1.59375 0.625,-1.59375 c -0.25,0 -0.25,0.0625 -0.25,0.28125 v 1.09375 c 0,0.1875 0,0.28125 0.1875,0.28125 0.0625,0 0.078125,0 0.296875,-0.15625 0.015625,0 0.234375,-0.140625 0.25,-0.171875 0.46875,0.328125 0.984375,0.328125 1.1875,0.328125 0.3125,0 1.84375,0 1.84375,-1.453125 0,-0.4375 -0.203125,-0.78125 -0.546875,-1.0625 C 3.203125,-2.734375 2.875,-2.796875 2.109375,-2.9375 Z m 0,0" style="stroke:none"></path></symbol></g><g id="id-3f0a56c5-ab90-4c57-9fb5-8a6fed3b084c"><symbol id="id-342ca323-cb40-4740-8ee7-edbbb2052443" overflow="visible"><path id="id-c6f05b74-3d0e-449c-9d4d-68ec731e5f77" d="" style="stroke:none"></path></symbol><symbol id="id-198a22c6-930c-4bd7-af48-ccbd4a165775" overflow="visible"><path id="id-3c4098a7-d3f0-43b4-b73d-ff45248317f8" d="m 4.53125,-4.984375 c 0,-0.65625 -0.171875,-2.046875 -1.1875,-2.046875 -1.390625,0 -2.921875,2.8125 -2.921875,5.09375 0,0.9375 0.28125,2.046875 1.1875,2.046875 1.40625,0 2.921875,-2.859375 2.921875,-5.09375 z M 1.46875,-3.625 C 1.640625,-4.25 1.84375,-5.046875 2.25,-5.765625 2.515625,-6.25 2.875,-6.8125 3.328125,-6.8125 c 0.484375,0 0.546875,0.640625 0.546875,1.203125 0,0.5 -0.078125,1 -0.3125,1.984375 z m 2,0.328125 C 3.359375,-2.84375 3.15625,-2 2.765625,-1.28125 c -0.34375,0.6875 -0.71875,1.171875 -1.15625,1.171875 -0.328125,0 -0.53125,-0.296875 -0.53125,-1.21875 0,-0.421875 0.0625,-1 0.3125,-1.96875 z m 0,0" style="stroke:none"></path></symbol></g><g id="id-47834ac0-3966-4113-9c01-333095ac0822"><symbol overflow="visible" id="id-4c823d65-c9d7-4c4c-9d01-34a87e333614"><path style="stroke:none" d="" id="id-2782558b-5ac0-4ddd-bf04-997b1e1d0131"></path></symbol><symbol overflow="visible" id="id-960d25c2-6de1-4d64-aa63-79e468d88799"><path style="stroke:none" d="m 1.578125,-7.125 c 0,-0.171875 0,-0.359375 -0.1875,-0.359375 -0.203125,0 -0.203125,0.1875 -0.203125,0.359375 v 9.265625 c 0,0.171875 0,0.359375 0.203125,0.359375 0.1875,0 0.1875,-0.1875 0.1875,-0.359375 z m 0,0" id="id-ba999ddb-6e95-40bb-805d-fdcb834613e8"></path></symbol><symbol overflow="visible" id="id-6dc3c2b4-0437-4afe-ba66-8b1099f4a1bd"><path style="stroke:none" d="" id="id-2b107eef-66b7-4471-b036-021c5c76b0a2"></path></symbol><symbol overflow="visible" id="id-8564c8c9-2407-4f8d-9924-020a78c20b38"><path style="stroke:none" d="M 3.890625,-3.734375 C 3.625,-3.71875 3.421875,-3.5 3.421875,-3.28125 c 0,0.140625 0.09375,0.296875 0.3125,0.296875 0.21875,0 0.453125,-0.171875 0.453125,-0.5625 C 4.1875,-4 3.765625,-4.40625 3,-4.40625 c -1.3125,0 -1.6875,1.015625 -1.6875,1.453125 0,0.78125 0.734375,0.921875 1.03125,0.984375 0.515625,0.109375 1.03125,0.21875 1.03125,0.765625 0,0.25 -0.21875,1.09375 -1.421875,1.09375 -0.140625,0 -0.90625,0 -1.140625,-0.53125 0.390625,0.046875 0.640625,-0.25 0.640625,-0.53125 0,-0.21875 -0.171875,-0.34375 -0.375,-0.34375 -0.265625,0 -0.5625,0.203125 -0.5625,0.65625 0,0.5625 0.578125,0.96875 1.421875,0.96875 1.625,0 2.015625,-1.203125 2.015625,-1.65625 0,-0.359375 -0.1875,-0.609375 -0.3125,-0.71875 -0.265625,-0.28125 -0.5625,-0.34375 -1,-0.421875 -0.359375,-0.078125 -0.75,-0.15625 -0.75,-0.609375 C 1.890625,-3.578125 2.125,-4.1875 3,-4.1875 c 0.25,0 0.75,0.078125 0.890625,0.453125 z m 0,0" id="id-075decc8-233c-42a9-add3-e7f74a0100bf"></path></symbol><symbol overflow="visible" id="id-6aa77877-2728-4a2a-9996-d32cc9ce67e9"><path style="stroke:none" d="m 4.53125,-4.984375 c 0,-0.65625 -0.171875,-2.046875 -1.1875,-2.046875 -1.390625,0 -2.921875,2.8125 -2.921875,5.09375 0,0.9375 0.28125,2.046875 1.1875,2.046875 1.40625,0 2.921875,-2.859375 2.921875,-5.09375 z M 1.46875,-3.625 C 1.640625,-4.25 1.84375,-5.046875 2.25,-5.765625 2.515625,-6.25 2.875,-6.8125 3.328125,-6.8125 c 0.484375,0 0.546875,0.640625 0.546875,1.203125 0,0.5 -0.078125,1 -0.3125,1.984375 z m 2,0.328125 C 3.359375,-2.84375 3.15625,-2 2.765625,-1.28125 c -0.34375,0.6875 -0.71875,1.171875 -1.15625,1.171875 -0.328125,0 -0.53125,-0.296875 -0.53125,-1.21875 0,-0.421875 0.0625,-1 0.3125,-1.96875 z m 0,0" id="id-757af7ff-2e63-4a9b-937b-f80593538589"></path></symbol><symbol overflow="visible" id="id-3abd5831-5313-4703-85df-7c068552543f"><path style="stroke:none" d="" id="id-0764b824-af0c-4e47-a2f8-65d2b0982525"></path></symbol><symbol overflow="visible" id="id-81abf067-b735-497a-9164-d457739a0ac0"><path style="stroke:none" d="m 1.171875,-2.171875 c 0,-1.625 0.8125,-2.046875 1.34375,-2.046875 0.09375,0 0.71875,0.015625 1.0625,0.375 -0.40625,0.03125 -0.46875,0.328125 -0.46875,0.453125 0,0.265625 0.1875,0.453125 0.453125,0.453125 0.265625,0 0.46875,-0.15625 0.46875,-0.46875 0,-0.671875 -0.765625,-1.0625 -1.53125,-1.0625 -1.25,0 -2.15625,1.078125 -2.15625,2.3125 0,1.28125 0.984375,2.265625 2.140625,2.265625 1.328125,0 1.65625,-1.203125 1.65625,-1.296875 0,-0.09375 -0.109375,-0.09375 -0.140625,-0.09375 -0.078125,0 -0.109375,0.03125 -0.125,0.09375 -0.28125,0.921875 -0.9375,1.046875 -1.296875,1.046875 -0.53125,0 -1.40625,-0.421875 -1.40625,-2.03125 z m 0,0" id="id-cda6f9f7-c5a9-45fa-bb03-53e4c89a4ef2"></path></symbol><symbol overflow="visible" id="id-046c1475-cf4c-4d7c-ab3d-2cabe507b545"><path style="stroke:none" d="M 4.6875,-2.140625 C 4.6875,-3.40625 3.703125,-4.46875 2.5,-4.46875 c -1.25,0 -2.21875,1.09375 -2.21875,2.328125 0,1.296875 1.03125,2.25 2.203125,2.25 1.203125,0 2.203125,-0.984375 2.203125,-2.25 z m -2.1875,2 c -0.4375,0 -0.875,-0.203125 -1.140625,-0.671875 -0.25,-0.4375 -0.25,-1.046875 -0.25,-1.40625 0,-0.390625 0,-0.921875 0.234375,-1.359375 C 1.609375,-4.03125 2.078125,-4.25 2.484375,-4.25 c 0.4375,0 0.859375,0.21875 1.125,0.65625 0.265625,0.421875 0.265625,1 0.265625,1.375 0,0.359375 0,0.90625 -0.21875,1.34375 C 3.421875,-0.421875 2.984375,-0.140625 2.5,-0.140625 Z m 0,0" id="id-d9444686-59ee-4c36-b950-a983ca554e44"></path></symbol><symbol overflow="visible" id="id-dfac61c7-dbb6-4266-9e49-354554b2624b"><path style="stroke:none" d="m 2.078125,-1.9375 c 0.21875,0.046875 1.03125,0.203125 1.03125,0.921875 0,0.5 -0.34375,0.90625 -1.125,0.90625 -0.84375,0 -1.203125,-0.5625 -1.390625,-1.421875 C 0.5625,-1.65625 0.5625,-1.6875 0.453125,-1.6875 c -0.125,0 -0.125,0.0625 -0.125,0.234375 V -0.125 c 0,0.171875 0,0.234375 0.109375,0.234375 0.046875,0 0.0625,-0.015625 0.25,-0.203125 0.015625,-0.015625 0.015625,-0.03125 0.203125,-0.21875 0.4375,0.40625 0.890625,0.421875 1.09375,0.421875 1.140625,0 1.609375,-0.671875 1.609375,-1.390625 0,-0.515625 -0.296875,-0.828125 -0.421875,-0.9375 C 2.84375,-2.546875 2.453125,-2.625 2.03125,-2.703125 1.46875,-2.8125 0.8125,-2.9375 0.8125,-3.515625 c 0,-0.359375 0.25,-0.765625 1.109375,-0.765625 1.09375,0 1.15625,0.90625 1.171875,1.203125 0,0.09375 0.09375,0.09375 0.109375,0.09375 0.140625,0 0.140625,-0.046875 0.140625,-0.234375 v -1.015625 c 0,-0.15625 0,-0.234375 -0.109375,-0.234375 -0.046875,0 -0.078125,0 -0.203125,0.125 -0.03125,0.03125 -0.125,0.125 -0.171875,0.15625 -0.375,-0.28125 -0.78125,-0.28125 -0.9375,-0.28125 -1.21875,0 -1.59375,0.671875 -1.59375,1.234375 0,0.34375 0.15625,0.625 0.421875,0.84375 0.328125,0.25 0.609375,0.3125 1.328125,0.453125 z m 0,0" id="id-b26924bb-33b0-46ed-9cd0-5921fa3de2b9"></path></symbol></g></defs><metadata id="metadata4358"></metadata><g transform="translate(-46.636327,-40.3243)" id="layer1" inkscape:groupmode="layer" inkscape:label="Layer 1"><g transform="translate(-108.07247,-100.73755)" id="g4101"><path style="fill:#000000;fill-opacity:1;stroke:none;stroke-width:0.705554" d="m 168.65189,178.16466 -0.92099,0.0415 v 0.24892 c 0.3153,0 0.34848,0 0.34848,0.20743 v 1.63455 h -0.36507 v 0.24892 c 0.16594,-0.008 0.42315,-0.0166 0.64718,-0.0166 0.15765,0 0.43146,0.008 0.61399,0.0166 v -0.24892 h -0.32359 z m 0.0498,-0.88781 c 0,-0.23232 -0.19084,-0.40656 -0.40657,-0.40656 -0.23232,0 -0.41486,0.18254 -0.41486,0.40656 0,0.23233 0.18254,0.41487 0.41486,0.41487 0.21573,0 0.40657,-0.18254 0.40657,-0.41487 z m 0,0" id="id-f96201c3-1193-42fe-beb8-fb250a05dfa1-0-9"></path><path style="fill:#000000;fill-opacity:1;stroke:none;stroke-width:0.705554" d="m 157.92201,167.58014 v 0.24892 c 0.0913,0 0.20743,0 0.28211,0.008 0.11616,0.0249 0.11616,0.0913 0.11616,0.20743 v 2.09919 c 0,0.26552 -0.0747,0.64719 -0.38997,0.64719 -0.0913,0 -0.13276,-0.0166 -0.20743,-0.0332 0.0996,-0.0747 0.12446,-0.19084 0.12446,-0.26551 0,-0.18254 -0.14106,-0.33189 -0.33189,-0.33189 -0.19913,0 -0.33189,0.14935 -0.33189,0.34019 0,0.2987 0.32359,0.48123 0.75505,0.48123 0.45634,0 0.95418,-0.2821 0.95418,-0.83802 v -2.60532 z m 0.97078,-0.92929 c 0,-0.22402 -0.18254,-0.40656 -0.40657,-0.40656 -0.23232,0 -0.41486,0.18254 -0.41486,0.40656 0,0.23232 0.18254,0.41486 0.41486,0.41486 0.22403,0 0.40657,-0.18254 0.40657,-0.41486 z m 0,0" id="id-e939ad10-d304-4836-9116-80a14eaa4b51-4-4"></path><path style="fill:none;stroke:#000000;stroke-width:0.264999;stroke-linecap:butt;stroke-linejoin:miter;stroke-miterlimit:4;stroke-dasharray:none;stroke-opacity:1;marker-start:url(#Arrow2Lstart-3-0-6);marker-end:url(#Arrow2Lend-2-8-5)" d="m 155.97571,169.76956 c 0,0.83453 0,11.8504 0,11.8504 h 11.49501" id="path833-7-1-6"></path></g><path style="fill:none;stroke:#000000;stroke-width:0.465;stroke-linecap:butt;stroke-linejoin:miter;stroke-miterlimit:4;stroke-dasharray:none;stroke-opacity:1;marker-end:url(#marker6205)" d="m 63.475773,70.404345 c 2.22482,-3.570372 22.45732,-29.359081 22.45732,-29.359081" id="path872-9-8-7"></path><path id="path872-9-8-0-9" d="M 63.499573,70.384065 C 69.602853,68.047704 118.78728,55.039514 118.78728,55.039514" style="fill:none;stroke:#000000;stroke-width:0.465;stroke-linecap:butt;stroke-linejoin:miter;stroke-miterlimit:4;stroke-dasharray:none;stroke-opacity:1;marker-end:url(#marker6610-1-2-8-1)"></path><path id="path5765" d="m 86.462263,41.045264 5.7125,21.31935" style="fill:none;stroke:#000000;stroke-width:0.465;stroke-linecap:butt;stroke-linejoin:miter;stroke-miterlimit:4;stroke-dasharray:0.93, 0.93;stroke-dashoffset:0;stroke-opacity:1"></path><g id="g7760-8-9" transform="matrix(0.62766035,0,0,0.62766035,99.590663,64.244922)" style="fill:#000000;fill-opacity:1;stroke-width:1.1241"><path style="stroke:none;stroke-width:1.1241" d="m 2.03125,-3.359375 v -1.125 L 0.375,-4.40625 v 0.46875 c 0.609375,0 0.6875,0 0.6875,0.390625 V -0.46875 H 0.375 V 0 c 0.34375,-0.015625 0.796875,-0.03125 1.25,-0.03125 0.375,0 1.015625,0 1.375,0.03125 V -0.46875 H 2.140625 v -1.75 c 0,-0.6875 0.234375,-1.90625 1.234375,-1.90625 0,0.015625 -0.1875,0.171875 -0.1875,0.453125 0,0.40625 0.328125,0.609375 0.609375,0.609375 0.296875,0 0.609375,-0.203125 0.609375,-0.609375 0,-0.53125 -0.53125,-0.8125 -1.0625,-0.8125 -0.6875,0 -1.09375,0.5 -1.3125,1.125 z m 0,0" id="id-33b26eae-b2a2-4434-9527-103c84e9b782-7-0"></path></g><g transform="matrix(0.635,0,0,0.635,71.108073,51.702664)" ns2:version="1.0.1" ns2:texconverter="pdflatex" ns2:pdfconverter="inkscape" ns2:text="$ \\mathbf{s} $" ns2:preamble="C:\\Users\\Thein Lin Aung\\AppData\\Roaming\\inkscape\\extensions\\textext\\default_packages.tex" ns2:scale="1.8" ns2:alignment="middle center" ns2:inkscapeversion="1.0" ns2:jacobian_sqrt="0.635" id="g9049"><defs id="id-5d057ac6-4986-42e8-a054-7078b4224a71"><g id="g5064"><symbol id="symbol5058" overflow="visible"><path id="path5056" d="" style="stroke:none"></path></symbol><symbol id="symbol5062" overflow="visible"><path id="path5060" d="M 2.109375,-2.9375 C 1.734375,-3 1.09375,-3.109375 1.09375,-3.578125 c 0,-0.625 0.921875,-0.625 1.109375,-0.625 0.75,0 1.125,0.296875 1.171875,0.84375 0.015625,0.15625 0.03125,0.203125 0.234375,0.203125 0.234375,0 0.234375,-0.046875 0.234375,-0.28125 v -0.796875 c 0,-0.1875 0,-0.28125 -0.171875,-0.28125 -0.046875,0 -0.0625,0 -0.453125,0.1875 -0.265625,-0.125 -0.609375,-0.1875 -1,-0.1875 -0.3125,0 -1.84375,0 -1.84375,1.3125 0,0.390625 0.203125,0.65625 0.40625,0.828125 0.390625,0.34375 0.78125,0.40625 1.546875,0.546875 0.359375,0.0625 1.09375,0.1875 1.09375,0.78125 0,0.75 -0.90625,0.75 -1.125,0.75 -1.0625,0 -1.3125,-0.734375 -1.4375,-1.15625 C 0.8125,-1.59375 0.75,-1.59375 0.625,-1.59375 c -0.25,0 -0.25,0.0625 -0.25,0.28125 v 1.09375 c 0,0.1875 0,0.28125 0.1875,0.28125 0.0625,0 0.078125,0 0.296875,-0.15625 0.015625,0 0.234375,-0.140625 0.25,-0.171875 0.46875,0.328125 0.984375,0.328125 1.1875,0.328125 0.3125,0 1.84375,0 1.84375,-1.453125 0,-0.4375 -0.203125,-0.78125 -0.546875,-1.0625 C 3.203125,-2.734375 2.875,-2.796875 2.109375,-2.9375 Z m 0,0" style="stroke:none"></path></symbol></g></defs><g transform="translate(-149.087,-130.249)" id="id-9280ac84-6145-48a8-8176-21916e86b9b7"><g id="id-d0eb80b1-5a7c-4521-949b-791fe7d5b2fa" style="fill:#000000;fill-opacity:1"><g transform="translate(148.712,134.765)" id="g9045"><path id="id-51b0a26c-938b-4c27-b6fa-3b6d609ab618" d="M 2.109375,-2.9375 C 1.734375,-3 1.09375,-3.109375 1.09375,-3.578125 c 0,-0.625 0.921875,-0.625 1.109375,-0.625 0.75,0 1.125,0.296875 1.171875,0.84375 0.015625,0.15625 0.03125,0.203125 0.234375,0.203125 0.234375,0 0.234375,-0.046875 0.234375,-0.28125 v -0.796875 c 0,-0.1875 0,-0.28125 -0.171875,-0.28125 -0.046875,0 -0.0625,0 -0.453125,0.1875 -0.265625,-0.125 -0.609375,-0.1875 -1,-0.1875 -0.3125,0 -1.84375,0 -1.84375,1.3125 0,0.390625 0.203125,0.65625 0.40625,0.828125 0.390625,0.34375 0.78125,0.40625 1.546875,0.546875 0.359375,0.0625 1.09375,0.1875 1.09375,0.78125 0,0.75 -0.90625,0.75 -1.125,0.75 -1.0625,0 -1.3125,-0.734375 -1.4375,-1.15625 C 0.8125,-1.59375 0.75,-1.59375 0.625,-1.59375 c -0.25,0 -0.25,0.0625 -0.25,0.28125 v 1.09375 c 0,0.1875 0,0.28125 0.1875,0.28125 0.0625,0 0.078125,0 0.296875,-0.15625 0.015625,0 0.234375,-0.140625 0.25,-0.171875 0.46875,0.328125 0.984375,0.328125 1.1875,0.328125 0.3125,0 1.84375,0 1.84375,-1.453125 0,-0.4375 -0.203125,-0.78125 -0.546875,-1.0625 C 3.203125,-2.734375 2.875,-2.796875 2.109375,-2.9375 Z m 0,0" style="stroke:none"></path></g></g></g></g><g style="stroke-width:1.0526" transform="matrix(0.60326524,0,0,0.60326524,71.691663,61.222764)" ns2:version="1.0.1" ns2:texconverter="pdflatex" ns2:pdfconverter="inkscape" ns2:text="$ \\theta $" ns2:preamble="C:\\Users\\Thein Lin Aung\\AppData\\Roaming\\inkscape\\extensions\\textext\\default_packages.tex" ns2:scale="1.8" ns2:alignment="middle center" ns2:inkscapeversion="1.0" ns2:jacobian_sqrt="0.635" id="g9943"><defs id="id-08667967-2243-420e-9811-523dc89fa7d3"><g id="g5080"><symbol id="symbol5074" overflow="visible"><path id="path5072" d="" style="stroke:none"></path></symbol><symbol id="symbol5078" overflow="visible"><path id="path5076" d="m 4.53125,-4.984375 c 0,-0.65625 -0.171875,-2.046875 -1.1875,-2.046875 -1.390625,0 -2.921875,2.8125 -2.921875,5.09375 0,0.9375 0.28125,2.046875 1.1875,2.046875 1.40625,0 2.921875,-2.859375 2.921875,-5.09375 z M 1.46875,-3.625 C 1.640625,-4.25 1.84375,-5.046875 2.25,-5.765625 2.515625,-6.25 2.875,-6.8125 3.328125,-6.8125 c 0.484375,0 0.546875,0.640625 0.546875,1.203125 0,0.5 -0.078125,1 -0.3125,1.984375 z m 2,0.328125 C 3.359375,-2.84375 3.15625,-2 2.765625,-1.28125 c -0.34375,0.6875 -0.71875,1.171875 -1.15625,1.171875 -0.328125,0 -0.53125,-0.296875 -0.53125,-1.21875 0,-0.421875 0.0625,-1 0.3125,-1.96875 z m 0,0" style="stroke:none"></path></symbol></g></defs><g style="stroke-width:1.0526" transform="translate(-149.134,-127.734)" id="id-05a352e5-d10a-4d8b-bf76-5ada3e13f365"><g id="id-18c207e8-3d89-4e33-a6a8-e880d918aa8f" style="fill:#000000;fill-opacity:1;stroke-width:1.0526"><g style="stroke-width:1.0526" transform="translate(148.712,134.765)" id="g9939"><path id="id-9bd542f7-d2c4-432e-b6dc-4e824e933ccb" d="m 4.53125,-4.984375 c 0,-0.65625 -0.171875,-2.046875 -1.1875,-2.046875 -1.390625,0 -2.921875,2.8125 -2.921875,5.09375 0,0.9375 0.28125,2.046875 1.1875,2.046875 1.40625,0 2.921875,-2.859375 2.921875,-5.09375 z M 1.46875,-3.625 C 1.640625,-4.25 1.84375,-5.046875 2.25,-5.765625 2.515625,-6.25 2.875,-6.8125 3.328125,-6.8125 c 0.484375,0 0.546875,0.640625 0.546875,1.203125 0,0.5 -0.078125,1 -0.3125,1.984375 z m 2,0.328125 C 3.359375,-2.84375 3.15625,-2 2.765625,-1.28125 c -0.34375,0.6875 -0.71875,1.171875 -1.15625,1.171875 -0.328125,0 -0.53125,-0.296875 -0.53125,-1.21875 0,-0.421875 0.0625,-1 0.3125,-1.96875 z m 0,0" style="stroke:none;stroke-width:1.0526"></path></g></g></g></g><path sodipodi:nodetypes="cc" id="path9959" d="m 68.555693,63.680124 c 1.60108,1.32159 2.16297,2.48527 2.59585,4.25627" style="fill:none;stroke:#000000;stroke-width:0.264583px;stroke-linecap:butt;stroke-linejoin:miter;stroke-opacity:1"></path><path style="opacity:0.9;fill:none;stroke:#ff0000;stroke-width:0.165;stroke-linecap:round;stroke-miterlimit:4;stroke-dasharray:none" id="path3466" d="m 63.693793,71.972935 c 0.0477,0.18728 0.1164,0.3716 0.2047,0.543629 0.11775,0.217101 0.30453,0.36797 0.50747,0.500542 0.26331,0.162197 0.56292,0.231208 0.86274,0.288919 0.49903,0.0767 1.00463,0.0926 1.50859,0.102389 0.44726,-0.0021 0.89507,0.01209 1.34229,0.0021 0.31841,-0.007 0.43894,-0.02029 0.75576,-0.044 0.64943,-0.0584 1.28569,-0.20566 1.9147,-0.371819 0.62613,-0.17427 1.2488,-0.36051 1.87373,-0.538961 0.53834,-0.15326 1.07542,-0.309798 1.60536,-0.490199 0.55576,-0.19046 1.11687,-0.36439 1.67885,-0.535361 0.54687,-0.165999 1.10704,-0.271658 1.67396,-0.337089 0.53202,-0.037 1.06934,-0.0862 1.60269,-0.0419 0.0899,0.007 0.17913,0.02101 0.2687,0.0315 0.4241,0.0448 0.81585,0.198342 1.1949,0.384511 0.20456,0.104021 0.35619,0.222239 0.49568,0.402989 0.21883,0.310021 0.15069,0.17149 0.73832,-0.195799 0.015,-0.009 -0.005,-0.0351 -0.006,-0.0527 -0.002,-0.0181 -0.003,-0.0362 -0.004,-0.0543 -0.0153,-0.195329 -0.0205,-0.3912 -0.0237,-0.587039 2.7e-4,-0.22778 0.0362,-0.451731 0.095,-0.671201 0.0464,-0.198411 0.15701,-0.363741 0.26442,-0.53291 0.15635,-0.22742 0.34211,-0.43556 0.5427,-0.62484 0.0386,-0.0291 0.0766,-0.0591 0.1159,-0.0872 0.0417,-0.0299 0.0836,-0.0598 0.12706,-0.087 0.0457,-0.0286 0.18651,-0.108241 0.14032,-0.0804 -0.13657,0.0823 -0.27899,0.15512 -0.41151,0.24375 -0.057,0.0381 0.1224,-0.0616 0.18401,-0.0916 0.0645,-0.0314 0.12956,-0.0616 0.19433,-0.0924 0.40201,-0.18855 0.80771,-0.367781 1.22147,-0.52887 0.52814,-0.18243 1.06491,-0.338209 1.59569,-0.512749 0.522,-0.17076 1.04659,-0.333891 1.57463,-0.484942 0.62215,-0.18886 1.24187,-0.3864 1.85967,-0.589108 0.48985,-0.164731 0.98067,-0.331321 1.4556,-0.535831 0.40877,-0.1993 0.8281,-0.39831 1.18873,-0.67786 0.0426,-0.033 0.16855,-0.14686 0.20908,-0.18308 0.18021,-0.17851 0.32891,-0.38038 0.4428,-0.60641 0.10789,-0.20784 0.15254,-0.43928 0.19158,-0.66803 0.0279,-0.21817 0.0397,-0.43796 0.0453,-0.6577 0.005,-0.14594 0.0169,-0.2656 -0.0426,-0.40179 -0.008,-0.0169 -0.0155,-0.0339 -0.0232,-0.0508 0,0 -0.6026,0.34017 -0.6026,0.34017 v 0 c 0.007,0.0164 0.0149,0.0328 0.0223,0.0492 0.0486,0.11962 0.0355,0.24603 0.0346,0.37307 -0.004,0.21616 -0.0116,0.43303 -0.0469,0.64677 -0.0417,0.22328 -0.087,0.4478 -0.19903,0.64843 -0.11871,0.21694 -0.26827,0.41343 -0.44975,0.58243 -0.0714,0.062 -0.1341,0.11906 -0.21046,0.17502 -0.039,0.0286 -0.1631,0.10364 -0.12018,0.0813 0.9333,-0.48489 0.26994,-0.1668 0.0797,-0.0621 -0.47651,0.21562 -0.97551,0.3801 -1.46836,0.55378 -0.61304,0.20505 -1.23181,0.393071 -1.84916,0.584619 -0.52956,0.14787 -1.05436,0.3126 -1.57703,0.483171 -0.52698,0.17539 -1.0596,0.332391 -1.58818,0.502751 -0.41481,0.159398 -0.82121,0.33723 -1.22406,0.524849 -0.52183,0.244239 -1.04798,0.50166 -1.49623,0.866931 -0.19781,0.196609 -0.38454,0.407178 -0.53861,0.640209 -0.11224,0.173821 -0.21532,0.349351 -0.25855,0.55462 -0.0521,0.22524 -0.0873,0.453599 -0.084,0.685591 0.003,0.19757 0.006,0.395108 0.0126,0.59259 -7.9e-4,0.0159 0.002,0.0322 -0.003,0.0476 -0.002,0.007 -0.0202,0.01781 -0.0141,0.01479 0.20214,-0.10074 0.40218,-0.205632 0.60327,-0.308441 -0.008,-0.003 -0.0167,-0.004 -0.023,-0.009 -0.0193,-0.01669 -0.0769,-0.0945 -0.0866,-0.107291 -0.0616,-0.0803 -0.12743,-0.16387 -0.20543,-0.22942 -0.0949,-0.0798 -0.21347,-0.127371 -0.3166,-0.194281 -0.3894,-0.18532 -0.79031,-0.344818 -1.2232,-0.39175 -0.0911,-0.01119 -0.18192,-0.02561 -0.27339,-0.0335 -0.53634,-0.0466 -1.07617,0.009 -1.61187,0.0356 -0.56818,0.0594 -1.13023,0.158959 -1.67792,0.324889 -0.56165,0.171641 -1.12297,0.344742 -1.67932,0.533022 -0.53106,0.18156 -1.0686,0.341368 -1.60798,0.49629 -0.62512,0.18007 -1.24882,0.365008 -1.87492,0.5417 -0.63019,0.16447 -1.26508,0.3209 -1.91465,0.386188 -0.28102,0.02249 -0.47023,0.0417 -0.75245,0.0477 -0.44214,0.009 -0.88498,-0.0114 -1.32713,-0.01119 -0.49784,-0.0113 -0.99792,-0.02201 -1.49061,-0.101251 -0.29048,-0.0574 -0.58047,-0.123661 -0.83968,-0.273539 -0.19454,-0.123791 -0.37324,-0.26538 -0.48411,-0.472861 -0.0845,-0.16582 -0.15766,-0.343641 -0.18466,-0.5286 0,0 -0.61442,0.32413 -0.61442,0.32413 z"></path><g id="g4040" ns2:jacobian_sqrt="0.256341" ns2:inkscapeversion="1.0" ns2:alignment="middle center" ns2:scale="0.7266365590462363" ns2:preamble="C:\\Users\\A\\AppData\\Roaming\\inkscape\\extensions\\textext\\default_packages.tex" ns2:text="$ |s| \\cos \\theta $" ns2:pdfconverter="inkscape" ns2:texconverter="pdflatex" ns2:version="1.0.1" transform="matrix(0.5097962,-0.0934327,0.0934327,0.5097962,74.287443,73.086733)" style="stroke-width:0.494592"><defs id="id-21304200-d763-4b3a-9fd5-8381283630d2"><g id="g5126"><symbol overflow="visible" id="symbol5092"><path style="stroke:none" d="" id="path5090"></path></symbol><symbol overflow="visible" id="symbol5096"><path style="stroke:none" d="m 1.578125,-7.125 c 0,-0.171875 0,-0.359375 -0.1875,-0.359375 -0.203125,0 -0.203125,0.1875 -0.203125,0.359375 v 9.265625 c 0,0.171875 0,0.359375 0.203125,0.359375 0.1875,0 0.1875,-0.1875 0.1875,-0.359375 z m 0,0" id="path5094"></path></symbol><symbol overflow="visible" id="symbol5100"><path style="stroke:none" d="" id="path5098"></path></symbol><symbol overflow="visible" id="symbol5104"><path style="stroke:none" d="M 3.890625,-3.734375 C 3.625,-3.71875 3.421875,-3.5 3.421875,-3.28125 c 0,0.140625 0.09375,0.296875 0.3125,0.296875 0.21875,0 0.453125,-0.171875 0.453125,-0.5625 C 4.1875,-4 3.765625,-4.40625 3,-4.40625 c -1.3125,0 -1.6875,1.015625 -1.6875,1.453125 0,0.78125 0.734375,0.921875 1.03125,0.984375 0.515625,0.109375 1.03125,0.21875 1.03125,0.765625 0,0.25 -0.21875,1.09375 -1.421875,1.09375 -0.140625,0 -0.90625,0 -1.140625,-0.53125 0.390625,0.046875 0.640625,-0.25 0.640625,-0.53125 0,-0.21875 -0.171875,-0.34375 -0.375,-0.34375 -0.265625,0 -0.5625,0.203125 -0.5625,0.65625 0,0.5625 0.578125,0.96875 1.421875,0.96875 1.625,0 2.015625,-1.203125 2.015625,-1.65625 0,-0.359375 -0.1875,-0.609375 -0.3125,-0.71875 -0.265625,-0.28125 -0.5625,-0.34375 -1,-0.421875 -0.359375,-0.078125 -0.75,-0.15625 -0.75,-0.609375 C 1.890625,-3.578125 2.125,-4.1875 3,-4.1875 c 0.25,0 0.75,0.078125 0.890625,0.453125 z m 0,0" id="path5102"></path></symbol><symbol overflow="visible" id="symbol5108"><path style="stroke:none" d="m 4.53125,-4.984375 c 0,-0.65625 -0.171875,-2.046875 -1.1875,-2.046875 -1.390625,0 -2.921875,2.8125 -2.921875,5.09375 0,0.9375 0.28125,2.046875 1.1875,2.046875 1.40625,0 2.921875,-2.859375 2.921875,-5.09375 z M 1.46875,-3.625 C 1.640625,-4.25 1.84375,-5.046875 2.25,-5.765625 2.515625,-6.25 2.875,-6.8125 3.328125,-6.8125 c 0.484375,0 0.546875,0.640625 0.546875,1.203125 0,0.5 -0.078125,1 -0.3125,1.984375 z m 2,0.328125 C 3.359375,-2.84375 3.15625,-2 2.765625,-1.28125 c -0.34375,0.6875 -0.71875,1.171875 -1.15625,1.171875 -0.328125,0 -0.53125,-0.296875 -0.53125,-1.21875 0,-0.421875 0.0625,-1 0.3125,-1.96875 z m 0,0" id="path5106"></path></symbol><symbol overflow="visible" id="symbol5112"><path style="stroke:none" d="" id="path5110"></path></symbol><symbol overflow="visible" id="symbol5116"><path style="stroke:none" d="m 1.171875,-2.171875 c 0,-1.625 0.8125,-2.046875 1.34375,-2.046875 0.09375,0 0.71875,0.015625 1.0625,0.375 -0.40625,0.03125 -0.46875,0.328125 -0.46875,0.453125 0,0.265625 0.1875,0.453125 0.453125,0.453125 0.265625,0 0.46875,-0.15625 0.46875,-0.46875 0,-0.671875 -0.765625,-1.0625 -1.53125,-1.0625 -1.25,0 -2.15625,1.078125 -2.15625,2.3125 0,1.28125 0.984375,2.265625 2.140625,2.265625 1.328125,0 1.65625,-1.203125 1.65625,-1.296875 0,-0.09375 -0.109375,-0.09375 -0.140625,-0.09375 -0.078125,0 -0.109375,0.03125 -0.125,0.09375 -0.28125,0.921875 -0.9375,1.046875 -1.296875,1.046875 -0.53125,0 -1.40625,-0.421875 -1.40625,-2.03125 z m 0,0" id="path5114"></path></symbol><symbol overflow="visible" id="symbol5120"><path style="stroke:none" d="M 4.6875,-2.140625 C 4.6875,-3.40625 3.703125,-4.46875 2.5,-4.46875 c -1.25,0 -2.21875,1.09375 -2.21875,2.328125 0,1.296875 1.03125,2.25 2.203125,2.25 1.203125,0 2.203125,-0.984375 2.203125,-2.25 z m -2.1875,2 c -0.4375,0 -0.875,-0.203125 -1.140625,-0.671875 -0.25,-0.4375 -0.25,-1.046875 -0.25,-1.40625 0,-0.390625 0,-0.921875 0.234375,-1.359375 C 1.609375,-4.03125 2.078125,-4.25 2.484375,-4.25 c 0.4375,0 0.859375,0.21875 1.125,0.65625 0.265625,0.421875 0.265625,1 0.265625,1.375 0,0.359375 0,0.90625 -0.21875,1.34375 C 3.421875,-0.421875 2.984375,-0.140625 2.5,-0.140625 Z m 0,0" id="path5118"></path></symbol><symbol overflow="visible" id="symbol5124"><path style="stroke:none" d="m 2.078125,-1.9375 c 0.21875,0.046875 1.03125,0.203125 1.03125,0.921875 0,0.5 -0.34375,0.90625 -1.125,0.90625 -0.84375,0 -1.203125,-0.5625 -1.390625,-1.421875 C 0.5625,-1.65625 0.5625,-1.6875 0.453125,-1.6875 c -0.125,0 -0.125,0.0625 -0.125,0.234375 V -0.125 c 0,0.171875 0,0.234375 0.109375,0.234375 0.046875,0 0.0625,-0.015625 0.25,-0.203125 0.015625,-0.015625 0.015625,-0.03125 0.203125,-0.21875 0.4375,0.40625 0.890625,0.421875 1.09375,0.421875 1.140625,0 1.609375,-0.671875 1.609375,-1.390625 0,-0.515625 -0.296875,-0.828125 -0.421875,-0.9375 C 2.84375,-2.546875 2.453125,-2.625 2.03125,-2.703125 1.46875,-2.8125 0.8125,-2.9375 0.8125,-3.515625 c 0,-0.359375 0.25,-0.765625 1.109375,-0.765625 1.09375,0 1.15625,0.90625 1.171875,1.203125 0,0.09375 0.09375,0.09375 0.109375,0.09375 0.140625,0 0.140625,-0.046875 0.140625,-0.234375 v -1.015625 c 0,-0.15625 0,-0.234375 -0.109375,-0.234375 -0.046875,0 -0.078125,0 -0.203125,0.125 -0.03125,0.03125 -0.125,0.125 -0.171875,0.15625 -0.375,-0.28125 -0.78125,-0.28125 -0.9375,-0.28125 -1.21875,0 -1.59375,0.671875 -1.59375,1.234375 0,0.34375 0.15625,0.625 0.421875,0.84375 0.328125,0.25 0.609375,0.3125 1.328125,0.453125 z m 0,0" id="path5122"></path></symbol></g></defs><g id="id-9a3bf1ab-0458-454b-86af-b5a4183da81b" transform="translate(-149.9,-127.281)" style="stroke-width:0.494592"><g style="fill:#000000;fill-opacity:1;stroke-width:0.494592" id="id-5f3875ba-3a17-4c80-ae30-18600bcc43e2"><g id="g4014" transform="translate(148.712,134.765)" style="stroke-width:0.494592"><path style="stroke:none;stroke-width:0.494592" d="m 1.578125,-7.125 c 0,-0.171875 0,-0.359375 -0.1875,-0.359375 -0.203125,0 -0.203125,0.1875 -0.203125,0.359375 v 9.265625 c 0,0.171875 0,0.359375 0.203125,0.359375 0.1875,0 0.1875,-0.1875 0.1875,-0.359375 z m 0,0" id="id-84c67328-fb76-453e-9811-5dc2b7be1de9"></path></g></g><g style="fill:#000000;fill-opacity:1;stroke-width:0.494592" id="id-35f933d7-6778-4209-98fc-e7026fbb3035"><g id="g4018" transform="translate(151.48,134.765)" style="stroke-width:0.494592"><path style="stroke:none;stroke-width:0.494592" d="M 3.890625,-3.734375 C 3.625,-3.71875 3.421875,-3.5 3.421875,-3.28125 c 0,0.140625 0.09375,0.296875 0.3125,0.296875 0.21875,0 0.453125,-0.171875 0.453125,-0.5625 C 4.1875,-4 3.765625,-4.40625 3,-4.40625 c -1.3125,0 -1.6875,1.015625 -1.6875,1.453125 0,0.78125 0.734375,0.921875 1.03125,0.984375 0.515625,0.109375 1.03125,0.21875 1.03125,0.765625 0,0.25 -0.21875,1.09375 -1.421875,1.09375 -0.140625,0 -0.90625,0 -1.140625,-0.53125 0.390625,0.046875 0.640625,-0.25 0.640625,-0.53125 0,-0.21875 -0.171875,-0.34375 -0.375,-0.34375 -0.265625,0 -0.5625,0.203125 -0.5625,0.65625 0,0.5625 0.578125,0.96875 1.421875,0.96875 1.625,0 2.015625,-1.203125 2.015625,-1.65625 0,-0.359375 -0.1875,-0.609375 -0.3125,-0.71875 -0.265625,-0.28125 -0.5625,-0.34375 -1,-0.421875 -0.359375,-0.078125 -0.75,-0.15625 -0.75,-0.609375 C 1.890625,-3.578125 2.125,-4.1875 3,-4.1875 c 0.25,0 0.75,0.078125 0.890625,0.453125 z m 0,0" id="id-71f42be6-4dd0-42a9-848a-9227af5e0d1b"></path></g></g><g style="fill:#000000;fill-opacity:1;stroke-width:0.494592" id="id-b7eccb96-31c1-4c01-9231-bacec437b1fc"><g id="g4022" transform="translate(156.15,134.765)" style="stroke-width:0.494592"><path style="stroke:none;stroke-width:0.494592" d="m 1.578125,-7.125 c 0,-0.171875 0,-0.359375 -0.1875,-0.359375 -0.203125,0 -0.203125,0.1875 -0.203125,0.359375 v 9.265625 c 0,0.171875 0,0.359375 0.203125,0.359375 0.1875,0 0.1875,-0.1875 0.1875,-0.359375 z m 0,0" id="id-1acf1984-e418-44f4-8ef5-c618c1560171"></path></g></g><g style="fill:#000000;fill-opacity:1;stroke-width:0.494592" id="id-efed1468-3d2f-4b23-b534-cbaa15046568"><g id="g4026" transform="translate(160.578,134.765)" style="stroke-width:0.494592"><path style="stroke:none;stroke-width:0.494592" d="m 1.171875,-2.171875 c 0,-1.625 0.8125,-2.046875 1.34375,-2.046875 0.09375,0 0.71875,0.015625 1.0625,0.375 -0.40625,0.03125 -0.46875,0.328125 -0.46875,0.453125 0,0.265625 0.1875,0.453125 0.453125,0.453125 0.265625,0 0.46875,-0.15625 0.46875,-0.46875 0,-0.671875 -0.765625,-1.0625 -1.53125,-1.0625 -1.25,0 -2.15625,1.078125 -2.15625,2.3125 0,1.28125 0.984375,2.265625 2.140625,2.265625 1.328125,0 1.65625,-1.203125 1.65625,-1.296875 0,-0.09375 -0.109375,-0.09375 -0.140625,-0.09375 -0.078125,0 -0.109375,0.03125 -0.125,0.09375 -0.28125,0.921875 -0.9375,1.046875 -1.296875,1.046875 -0.53125,0 -1.40625,-0.421875 -1.40625,-2.03125 z m 0,0" id="id-2278c197-d0e2-4947-a9c3-9a74c48617ed"></path></g><g id="g4029" transform="translate(165.005,134.765)" style="stroke-width:0.494592"><path style="stroke:none;stroke-width:0.494592" d="M 4.6875,-2.140625 C 4.6875,-3.40625 3.703125,-4.46875 2.5,-4.46875 c -1.25,0 -2.21875,1.09375 -2.21875,2.328125 0,1.296875 1.03125,2.25 2.203125,2.25 1.203125,0 2.203125,-0.984375 2.203125,-2.25 z m -2.1875,2 c -0.4375,0 -0.875,-0.203125 -1.140625,-0.671875 -0.25,-0.4375 -0.25,-1.046875 -0.25,-1.40625 0,-0.390625 0,-0.921875 0.234375,-1.359375 C 1.609375,-4.03125 2.078125,-4.25 2.484375,-4.25 c 0.4375,0 0.859375,0.21875 1.125,0.65625 0.265625,0.421875 0.265625,1 0.265625,1.375 0,0.359375 0,0.90625 -0.21875,1.34375 C 3.421875,-0.421875 2.984375,-0.140625 2.5,-0.140625 Z m 0,0" id="id-d244ab97-e179-4dc5-a5b7-ce691d3df727"></path></g><g id="g4032" transform="translate(169.987,134.765)" style="stroke-width:0.494592"><path style="stroke:none;stroke-width:0.494592" d="m 2.078125,-1.9375 c 0.21875,0.046875 1.03125,0.203125 1.03125,0.921875 0,0.5 -0.34375,0.90625 -1.125,0.90625 -0.84375,0 -1.203125,-0.5625 -1.390625,-1.421875 C 0.5625,-1.65625 0.5625,-1.6875 0.453125,-1.6875 c -0.125,0 -0.125,0.0625 -0.125,0.234375 V -0.125 c 0,0.171875 0,0.234375 0.109375,0.234375 0.046875,0 0.0625,-0.015625 0.25,-0.203125 0.015625,-0.015625 0.015625,-0.03125 0.203125,-0.21875 0.4375,0.40625 0.890625,0.421875 1.09375,0.421875 1.140625,0 1.609375,-0.671875 1.609375,-1.390625 0,-0.515625 -0.296875,-0.828125 -0.421875,-0.9375 C 2.84375,-2.546875 2.453125,-2.625 2.03125,-2.703125 1.46875,-2.8125 0.8125,-2.9375 0.8125,-3.515625 c 0,-0.359375 0.25,-0.765625 1.109375,-0.765625 1.09375,0 1.15625,0.90625 1.171875,1.203125 0,0.09375 0.09375,0.09375 0.109375,0.09375 0.140625,0 0.140625,-0.046875 0.140625,-0.234375 v -1.015625 c 0,-0.15625 0,-0.234375 -0.109375,-0.234375 -0.046875,0 -0.078125,0 -0.203125,0.125 -0.03125,0.03125 -0.125,0.125 -0.171875,0.15625 -0.375,-0.28125 -0.78125,-0.28125 -0.9375,-0.28125 -1.21875,0 -1.59375,0.671875 -1.59375,1.234375 0,0.34375 0.15625,0.625 0.421875,0.84375 0.328125,0.25 0.609375,0.3125 1.328125,0.453125 z m 0,0" id="id-35b38ee0-218d-4161-91a6-03bec64fdd49"></path></g></g><g style="fill:#000000;fill-opacity:1;stroke-width:0.494592" id="id-7817df99-e6a4-4fb7-b4e1-d8b384ddea17"><g id="g4036" transform="translate(175.577,134.765)" style="stroke-width:0.494592"><path style="stroke:none;stroke-width:0.494592" d="m 4.53125,-4.984375 c 0,-0.65625 -0.171875,-2.046875 -1.1875,-2.046875 -1.390625,0 -2.921875,2.8125 -2.921875,5.09375 0,0.9375 0.28125,2.046875 1.1875,2.046875 1.40625,0 2.921875,-2.859375 2.921875,-5.09375 z M 1.46875,-3.625 C 1.640625,-4.25 1.84375,-5.046875 2.25,-5.765625 2.515625,-6.25 2.875,-6.8125 3.328125,-6.8125 c 0.484375,0 0.546875,0.640625 0.546875,1.203125 0,0.5 -0.078125,1 -0.3125,1.984375 z m 2,0.328125 C 3.359375,-2.84375 3.15625,-2 2.765625,-1.28125 c -0.34375,0.6875 -0.71875,1.171875 -1.15625,1.171875 -0.328125,0 -0.53125,-0.296875 -0.53125,-1.21875 0,-0.421875 0.0625,-1 0.3125,-1.96875 z m 0,0" id="id-2e8dfc34-9831-46e3-b221-d5735914edd3"></path></g></g></g></g></g></svg> 