<?xml version="1.0" encoding="UTF-8" standalone="no"?> <svg xmlns:dc="http://purl.org/dc/elements/1.1/" xmlns:cc="http://creativecommons.org/ns#" xmlns:rdf="http://www.w3.org/1999/02/22-rdf-syntax-ns#" xmlns:svg="http://www.w3.org/2000/svg" xmlns="http://www.w3.org/2000/svg" xmlns:sodipodi="http://sodipodi.sourceforge.net/DTD/sodipodi-0.dtd" xmlns:inkscape="http://www.inkscape.org/namespaces/inkscape" sodipodi:docname="vector_2r.svg" inkscape:version="1.0 (4035a4fb49, 2020-05-01)" id="svg2290" version="1.1" viewBox="0 0 91.094978 56.100471" height="56.100471mm" width="91.094978mm"><defs id="defs2284"><marker inkscape:isstock="true" style="overflow:visible" id="Arrow2Lstart-3-0" refX="0" refY="0" orient="auto" inkscape:stockid="Arrow2Lstart"><path transform="matrix(1.1,0,0,1.1,1.1,0)" d="M 8.7185878,4.0337352 -2.2072895,0.01601326 8.7185884,-4.0017078 c -1.7454984,2.3720609 -1.7354408,5.6174519 -6e-7,8.035443 z" style="fill:#000000;fill-opacity:1;fill-rule:evenodd;stroke:#000000;stroke-width:0.625;stroke-linejoin:round;stroke-opacity:1" id="path853-8-2"></path></marker><marker inkscape:collect="always" inkscape:isstock="true" style="overflow:visible" id="Arrow2Lend-2-8" refX="0" refY="0" orient="auto" inkscape:stockid="Arrow2Lend"><path transform="matrix(-1.1,0,0,-1.1,-1.1,0)" d="M 8.7185878,4.0337352 -2.2072895,0.01601326 8.7185884,-4.0017078 c -1.7454984,2.3720609 -1.7354408,5.6174519 -6e-7,8.035443 z" style="fill:#000000;fill-opacity:1;fill-rule:evenodd;stroke:#000000;stroke-width:0.625;stroke-linejoin:round;stroke-opacity:1" id="path856-8-6"></path></marker><marker inkscape:isstock="true" style="overflow:visible" id="marker6610-1-2" refX="0" refY="0" orient="auto" inkscape:stockid="Arrow1Mend"><path transform="matrix(-0.4,0,0,-0.4,-4,0)" style="fill:#000000;fill-opacity:1;fill-rule:evenodd;stroke:#000000;stroke-width:1pt;stroke-opacity:1" d="M 0,0 5,-5 -12.5,0 5,5 Z" id="path6608-7-3"></path></marker><marker inkscape:stockid="Arrow1Mend" orient="auto" refY="0" refX="0" id="marker6610-1-2-8" style="overflow:visible" inkscape:isstock="true"><path id="path6608-7-3-14" d="M 0,0 5,-5 -12.5,0 5,5 Z" style="fill:#000000;fill-opacity:1;fill-rule:evenodd;stroke:#000000;stroke-width:1pt;stroke-opacity:1" transform="matrix(-0.4,0,0,-0.4,-4,0)"></path></marker></defs><metadata id="metadata2287"></metadata><g transform="translate(-66.333463,-45.277146)" id="layer1" inkscape:groupmode="layer" inkscape:label="Layer 1"><g transform="matrix(0.6150891,0,0,0.6150891,18.220026,-15.574942)" id="id-d9daa119-327e-46cd-a284-f4c53726a4b8" style="fill:#000000;fill-opacity:1;stroke-width:0.416755"><g style="stroke-width:0.416755" transform="translate(168.217,134.765)" id="g5525"><path id="id-8c912b7d-7519-4c02-9183-77f5e3b5ba6a" d="m 1.265625,-0.765625 1.0625,-1.03125 c 1.546875,-1.375 2.140625,-1.90625 2.140625,-2.90625 0,-1.140625 -0.890625,-1.9375 -2.109375,-1.9375 -1.125,0 -1.859375,0.921875 -1.859375,1.8125 0,0.546875 0.5,0.546875 0.53125,0.546875 0.171875,0 0.515625,-0.109375 0.515625,-0.53125 0,-0.25 -0.1875,-0.515625 -0.53125,-0.515625 -0.078125,0 -0.09375,0 -0.125,0.015625 0.21875,-0.65625 0.765625,-1.015625 1.34375,-1.015625 0.90625,0 1.328125,0.8125 1.328125,1.625 C 3.5625,-3.90625 3.078125,-3.125 2.515625,-2.5 l -1.90625,2.125 C 0.5,-0.265625 0.5,-0.234375 0.5,0 H 4.203125 L 4.46875,-1.734375 H 4.234375 C 4.171875,-1.4375 4.109375,-1 4,-0.84375 3.9375,-0.765625 3.28125,-0.765625 3.0625,-0.765625 Z m 0,0" style="stroke:none;stroke-width:0.416755"></path></g></g><g transform="matrix(0.6150891,0,0,0.6150891,18.220026,-15.574942)" id="id-caabeb4a-4ae0-4bad-8277-7d9664b825a3" style="fill:#000000;fill-opacity:1;stroke-width:0.416755"><g style="stroke-width:0.416755" transform="translate(173.198,134.765)" id="g5529"><path id="id-6e9dd0e4-16b9-472e-ab53-e77159e8320a" d="m 2.03125,-3.359375 v -1.125 L 0.375,-4.40625 v 0.46875 c 0.609375,0 0.6875,0 0.6875,0.390625 V -0.46875 H 0.375 V 0 c 0.34375,-0.015625 0.796875,-0.03125 1.25,-0.03125 0.375,0 1.015625,0 1.375,0.03125 V -0.46875 H 2.140625 v -1.75 c 0,-0.6875 0.234375,-1.90625 1.234375,-1.90625 0,0.015625 -0.1875,0.171875 -0.1875,0.453125 0,0.40625 0.328125,0.609375 0.609375,0.609375 0.296875,0 0.609375,-0.203125 0.609375,-0.609375 0,-0.53125 -0.53125,-0.8125 -1.0625,-0.8125 -0.6875,0 -1.09375,0.5 -1.3125,1.125 z m 0,0" style="stroke:none;stroke-width:0.416755"></path></g></g><path id="id-f96201c3-1193-42fe-beb8-fb250a05dfa1-0" d="m 80.276556,96.664737 -0.92099,0.0415 v 0.24892 c 0.3153,0 0.34848,0 0.34848,0.207431 v 1.634548 h -0.36507 v 0.24892 c 0.16594,-0.008 0.42315,-0.01659 0.64718,-0.01659 0.15765,0 0.43146,0.008 0.61399,0.01659 v -0.24892 h -0.32359 z m 0.0498,-0.887809 c 0,-0.23232 -0.19084,-0.406561 -0.40657,-0.406561 -0.23232,0 -0.41486,0.182541 -0.41486,0.406561 0,0.232328 0.18254,0.414869 0.41486,0.414869 0.21573,0 0.40657,-0.182541 0.40657,-0.414869 z m 0,0" style="fill:#000000;fill-opacity:1;stroke:none;stroke-width:0.705554"></path><path id="id-e939ad10-d304-4836-9116-80a14eaa4b51-4" d="m 69.546676,86.080219 v 0.248917 c 0.0913,0 0.20743,0 0.28211,0.0083 0.11616,0.0249 0.11616,0.09127 0.11616,0.207431 v 2.099191 c 0,0.265519 -0.0747,0.647189 -0.38997,0.647189 -0.0913,0 -0.13276,-0.01659 -0.20743,-0.0332 0.0996,-0.0747 0.12446,-0.190841 0.12446,-0.265509 0,-0.182542 -0.14106,-0.331891 -0.33189,-0.331891 -0.19913,0 -0.33189,0.149349 -0.33189,0.340191 0,0.298698 0.32359,0.481229 0.75505,0.481229 0.45634,0 0.95418,-0.282101 0.95418,-0.83802 v -2.60532 z m 0.97078,-0.929288 c 0,-0.224023 -0.18254,-0.406565 -0.40657,-0.406565 -0.23232,0 -0.41486,0.182542 -0.41486,0.406565 0,0.232322 0.18254,0.414861 0.41486,0.414861 0.22403,0 0.40657,-0.182539 0.40657,-0.414861 z m 0,0" style="fill:#000000;fill-opacity:1;stroke:none;stroke-width:0.705554"></path><path id="path833-7-1" d="m 67.600376,88.269638 c 0,0.834527 0,11.850402 0,11.850402 h 11.49501" style="fill:none;stroke:#000000;stroke-width:0.264999;stroke-linecap:butt;stroke-linejoin:miter;stroke-miterlimit:4;stroke-dasharray:none;stroke-opacity:1;marker-start:url(#Arrow2Lstart-3-0);marker-end:url(#Arrow2Lend-2-8)"></path><path style="fill:none;stroke:#000000;stroke-width:0.465;stroke-linecap:butt;stroke-linejoin:miter;stroke-miterlimit:4;stroke-dasharray:none;stroke-opacity:1;marker-end:url(#marker6610-1-2)" d="M 81.842926,88.516266 C 83.786906,85.906678 101.00789,67.321658 101.00789,67.321658" id="path872-9-8"></path><path style="fill:#000000;fill-opacity:1;stroke:none;stroke-width:0.705554" d="m 93.903172,78.79139 v -0.70612 l -1.03957,0.04904 v 0.294217 c 0.38248,0 0.43152,0 0.43152,0.245179 v 1.932016 h -0.43152 v 0.294217 c 0.21576,-0.0098 0.50017,-0.01961 0.78458,-0.01961 0.23537,0 0.63748,0 0.86304,0.01961 v -0.294217 h -0.5394 v -1.098404 c 0,-0.431517 0.1471,-1.196478 0.77476,-1.196478 0,0.0098 -0.11768,0.107879 -0.11768,0.284409 0,0.254987 0.20595,0.382479 0.38248,0.382479 0.18633,0 0.38249,-0.127492 0.38249,-0.382479 0,-0.333447 -0.33346,-0.509974 -0.6669,-0.509974 -0.43152,0 -0.6865,0.31383 -0.8238,0.706117 z m 0,0" id="id-33b26eae-b2a2-4434-9527-103c84e9b782-7-2"></path><path id="path3563-7" d="M 81.842926,88.516266 H 101.65848" style="fill:none;stroke:#000000;stroke-width:0.264999;stroke-linecap:butt;stroke-linejoin:miter;stroke-miterlimit:4;stroke-dasharray:1.06, 0.53;stroke-dashoffset:0;stroke-opacity:1"></path><path style="fill:none;stroke:#000000;stroke-width:0.264999;stroke-linecap:butt;stroke-linejoin:miter;stroke-miterlimit:4;stroke-dasharray:1.06, 0.53;stroke-dashoffset:0;stroke-opacity:1" d="M 101.58634,66.716313 V 88.164977" id="path3563-25-5"></path><path id="path872-9-8-0" d="m 109.76506,88.540166 c 3.89994,-5.243941 38.448,-42.590339 38.448,-42.590339" style="fill:none;stroke:#000000;stroke-width:0.465;stroke-linecap:butt;stroke-linejoin:miter;stroke-miterlimit:4;stroke-dasharray:none;stroke-opacity:1;marker-end:url(#marker6610-1-2-8)"></path><path style="fill:none;stroke:#000000;stroke-width:0.264999;stroke-linecap:butt;stroke-linejoin:miter;stroke-miterlimit:4;stroke-dasharray:1.06, 0.53;stroke-dashoffset:0;stroke-opacity:1" d="m 109.76506,88.540166 h 39.75319" id="path3563-7-0"></path><path id="path3563-25-5-2" d="M 148.74223,45.949827 V 88.389216" style="fill:none;stroke:#000000;stroke-width:0.264999;stroke-linecap:butt;stroke-linejoin:miter;stroke-miterlimit:4;stroke-dasharray:1.06, 0.53;stroke-dashoffset:0;stroke-opacity:1"></path><g id="g2162" transform="translate(-94.838395,-25.034923)"><g transform="matrix(0.60781003,0,0,0.60781003,94.663077,35.400375)" id="id-ead0ca1c-3525-4f72-9fd6-941cd813378e" style="fill:#000000;fill-opacity:1;stroke-width:1.16082"><g style="stroke-width:1.16082" transform="translate(148.712,134.765)" id="g1986"><path id="id-79a42f5d-8cfa-4ead-aeb8-9d28a8bfe422" d="m 0.875,-0.59375 c -0.03125,0.15625 -0.09375,0.390625 -0.09375,0.4375 0,0.171875 0.140625,0.265625 0.296875,0.265625 0.125,0 0.296875,-0.078125 0.375,-0.28125 C 1.46875,-0.203125 1.796875,-1.5625 1.84375,-1.75 c 0.078125,-0.328125 0.265625,-1.015625 0.3125,-1.296875 0.046875,-0.125 0.328125,-0.59375 0.5625,-0.8125 0.078125,-0.0625 0.375,-0.328125 0.796875,-0.328125 0.265625,0 0.40625,0.125 0.421875,0.125 -0.296875,0.046875 -0.515625,0.28125 -0.515625,0.546875 0,0.15625 0.109375,0.34375 0.375,0.34375 0.265625,0 0.546875,-0.234375 0.546875,-0.59375 0,-0.34375 -0.3125,-0.640625 -0.828125,-0.640625 C 2.875,-4.40625 2.4375,-3.921875 2.25,-3.640625 2.15625,-4.09375 1.796875,-4.40625 1.328125,-4.40625 0.875,-4.40625 0.6875,-4.015625 0.59375,-3.84375 0.421875,-3.5 0.296875,-2.90625 0.296875,-2.875 c 0,0.109375 0.09375,0.109375 0.109375,0.109375 0.109375,0 0.109375,-0.015625 0.171875,-0.234375 0.171875,-0.703125 0.375,-1.1875 0.734375,-1.1875 0.15625,0 0.296875,0.078125 0.296875,0.453125 0,0.21875 -0.03125,0.328125 -0.15625,0.84375 z m 0,0" style="stroke:none;stroke-width:1.16082"></path></g></g><g transform="matrix(0.60781003,0,0,0.60781003,94.663077,35.400375)" id="id-90612ed2-160b-4f81-b340-2ebdcb5359f7" style="fill:#000000;fill-opacity:1;stroke-width:1.16082"><g style="stroke-width:1.16082" transform="translate(153.207,136.259)" id="g1990"><path id="id-35ae6a19-16b0-488c-8ee4-54f7d91e9855" d="m 2.328125,-4.4375 c 0,-0.1875 0,-0.1875 -0.203125,-0.1875 -0.453125,0.4375 -1.078125,0.4375 -1.359375,0.4375 v 0.25 c 0.15625,0 0.625,0 1,-0.1875 v 3.546875 c 0,0.234375 0,0.328125 -0.6875,0.328125 H 0.8125 V 0 c 0.125,0 0.984375,-0.03125 1.234375,-0.03125 0.21875,0 1.09375,0.03125 1.25,0.03125 V -0.25 H 3.03125 c -0.703125,0 -0.703125,-0.09375 -0.703125,-0.328125 z m 0,0" style="stroke:none;stroke-width:1.16082"></path></g></g></g><g id="g2170" transform="translate(-87.820667,-37.28923)"><g transform="matrix(0.60781003,0,0,0.60781003,94.663077,35.400375)" id="id-ff1df070-a7eb-410e-939f-ff1b4160cb08" style="fill:#000000;fill-opacity:1;stroke-width:1.16082"><g style="stroke-width:1.16082" transform="translate(157.676,134.765)" id="g1994"><path id="id-84b649f0-943e-4474-8dd1-d97207404807" d="m 0.875,-0.59375 c -0.03125,0.15625 -0.09375,0.390625 -0.09375,0.4375 0,0.171875 0.140625,0.265625 0.296875,0.265625 0.125,0 0.296875,-0.078125 0.375,-0.28125 C 1.46875,-0.203125 1.796875,-1.5625 1.84375,-1.75 c 0.078125,-0.328125 0.265625,-1.015625 0.3125,-1.296875 0.046875,-0.125 0.328125,-0.59375 0.5625,-0.8125 0.078125,-0.0625 0.375,-0.328125 0.796875,-0.328125 0.265625,0 0.40625,0.125 0.421875,0.125 -0.296875,0.046875 -0.515625,0.28125 -0.515625,0.546875 0,0.15625 0.109375,0.34375 0.375,0.34375 0.265625,0 0.546875,-0.234375 0.546875,-0.59375 0,-0.34375 -0.3125,-0.640625 -0.828125,-0.640625 C 2.875,-4.40625 2.4375,-3.921875 2.25,-3.640625 2.15625,-4.09375 1.796875,-4.40625 1.328125,-4.40625 0.875,-4.40625 0.6875,-4.015625 0.59375,-3.84375 0.421875,-3.5 0.296875,-2.90625 0.296875,-2.875 c 0,0.109375 0.09375,0.109375 0.109375,0.109375 0.109375,0 0.109375,-0.015625 0.171875,-0.234375 0.171875,-0.703125 0.375,-1.1875 0.734375,-1.1875 0.15625,0 0.296875,0.078125 0.296875,0.453125 0,0.21875 -0.03125,0.328125 -0.15625,0.84375 z m 0,0" style="stroke:none;stroke-width:1.16082"></path></g></g><g transform="matrix(0.60781003,0,0,0.60781003,94.663077,35.400375)" id="id-1a857905-f0c6-437f-8994-eea5ec63b20e" style="fill:#000000;fill-opacity:1;stroke-width:1.16082"><g style="stroke-width:1.16082" transform="translate(162.171,136.259)" id="g1998"><path id="id-cfca67fe-6ad7-46e0-8779-7885f3a78462" d="M 3.515625,-1.265625 H 3.28125 c -0.015625,0.15625 -0.09375,0.5625 -0.1875,0.625 C 3.046875,-0.59375 2.515625,-0.59375 2.40625,-0.59375 H 1.125 c 0.734375,-0.640625 0.984375,-0.84375 1.390625,-1.171875 0.515625,-0.40625 1,-0.84375 1,-1.5 0,-0.84375 -0.734375,-1.359375 -1.625,-1.359375 -0.859375,0 -1.453125,0.609375 -1.453125,1.25 0,0.34375 0.296875,0.390625 0.375,0.390625 0.15625,0 0.359375,-0.125 0.359375,-0.375 0,-0.125 -0.046875,-0.375 -0.40625,-0.375 C 0.984375,-4.21875 1.453125,-4.375 1.78125,-4.375 c 0.703125,0 1.0625,0.546875 1.0625,1.109375 0,0.609375 -0.4375,1.078125 -0.65625,1.328125 L 0.515625,-0.265625 C 0.4375,-0.203125 0.4375,-0.1875 0.4375,0 h 2.875 z m 0,0" style="stroke:none;stroke-width:1.16082"></path></g></g></g><g id="g2181" transform="translate(-68.828315,-23.721502)"><g transform="matrix(0.60781003,0,0,0.60781003,94.663077,35.400375)" id="id-2bddefda-dcda-46df-a4be-75f1032a5e42" style="fill:#000000;fill-opacity:1;stroke-width:1.16082"><g style="stroke-width:1.16082" transform="translate(166.64,134.765)" id="g2002"><path id="id-5cbbeca4-9532-4bd5-8013-4c2206a1c9c0" d="m 1.265625,-0.765625 1.0625,-1.03125 c 1.546875,-1.375 2.140625,-1.90625 2.140625,-2.90625 0,-1.140625 -0.890625,-1.9375 -2.109375,-1.9375 -1.125,0 -1.859375,0.921875 -1.859375,1.8125 0,0.546875 0.5,0.546875 0.53125,0.546875 0.171875,0 0.515625,-0.109375 0.515625,-0.53125 0,-0.25 -0.1875,-0.515625 -0.53125,-0.515625 -0.078125,0 -0.09375,0 -0.125,0.015625 0.21875,-0.65625 0.765625,-1.015625 1.34375,-1.015625 0.90625,0 1.328125,0.8125 1.328125,1.625 C 3.5625,-3.90625 3.078125,-3.125 2.515625,-2.5 l -1.90625,2.125 C 0.5,-0.265625 0.5,-0.234375 0.5,0 H 4.203125 L 4.46875,-1.734375 H 4.234375 C 4.171875,-1.4375 4.109375,-1 4,-0.84375 3.9375,-0.765625 3.28125,-0.765625 3.0625,-0.765625 Z m 0,0" style="stroke:none;stroke-width:1.16082"></path></g></g><g transform="matrix(0.60781003,0,0,0.60781003,94.663077,35.400375)" id="id-62d76e87-b8b1-4191-a6af-4e65346a786f" style="fill:#000000;fill-opacity:1;stroke-width:1.16082"><g style="stroke-width:1.16082" transform="translate(171.622,134.765)" id="g2006"><path id="id-4e2f0919-d166-43d1-b9bf-80e33e7eed21" d="m 0.875,-0.59375 c -0.03125,0.15625 -0.09375,0.390625 -0.09375,0.4375 0,0.171875 0.140625,0.265625 0.296875,0.265625 0.125,0 0.296875,-0.078125 0.375,-0.28125 C 1.46875,-0.203125 1.796875,-1.5625 1.84375,-1.75 c 0.078125,-0.328125 0.265625,-1.015625 0.3125,-1.296875 0.046875,-0.125 0.328125,-0.59375 0.5625,-0.8125 0.078125,-0.0625 0.375,-0.328125 0.796875,-0.328125 0.265625,0 0.40625,0.125 0.421875,0.125 -0.296875,0.046875 -0.515625,0.28125 -0.515625,0.546875 0,0.15625 0.109375,0.34375 0.375,0.34375 0.265625,0 0.546875,-0.234375 0.546875,-0.59375 0,-0.34375 -0.3125,-0.640625 -0.828125,-0.640625 C 2.875,-4.40625 2.4375,-3.921875 2.25,-3.640625 2.15625,-4.09375 1.796875,-4.40625 1.328125,-4.40625 0.875,-4.40625 0.6875,-4.015625 0.59375,-3.84375 0.421875,-3.5 0.296875,-2.90625 0.296875,-2.875 c 0,0.109375 0.09375,0.109375 0.109375,0.109375 0.109375,0 0.109375,-0.015625 0.171875,-0.234375 0.171875,-0.703125 0.375,-1.1875 0.734375,-1.1875 0.15625,0 0.296875,0.078125 0.296875,0.453125 0,0.21875 -0.03125,0.328125 -0.15625,0.84375 z m 0,0" style="stroke:none;stroke-width:1.16082"></path></g></g><g transform="matrix(0.60781003,0,0,0.60781003,94.663077,35.400375)" id="id-54cbebc9-04f6-4142-a3e3-db0f6d0742b7" style="fill:#000000;fill-opacity:1;stroke-width:1.16082"><g style="stroke-width:1.16082" transform="translate(176.117,136.259)" id="g2010"><path id="id-b0eb8ce6-33d0-4821-8a01-eb8f5f0fcd54" d="m 2.328125,-4.4375 c 0,-0.1875 0,-0.1875 -0.203125,-0.1875 -0.453125,0.4375 -1.078125,0.4375 -1.359375,0.4375 v 0.25 c 0.15625,0 0.625,0 1,-0.1875 v 3.546875 c 0,0.234375 0,0.328125 -0.6875,0.328125 H 0.8125 V 0 c 0.125,0 0.984375,-0.03125 1.234375,-0.03125 0.21875,0 1.09375,0.03125 1.25,0.03125 V -0.25 H 3.03125 c -0.703125,0 -0.703125,-0.09375 -0.703125,-0.328125 z m 0,0" style="stroke:none;stroke-width:1.16082"></path></g></g></g><g id="g2192" transform="translate(-54.893057,-46.55012)"><g transform="matrix(0.60781003,0,0,0.60781003,94.663077,35.400375)" id="id-c116e9a7-d5ef-41da-b51c-69ec5eb47727" style="fill:#000000;fill-opacity:1;stroke-width:1.16082"><g style="stroke-width:1.16082" transform="translate(180.586,134.765)" id="g2014"><path id="id-5125813e-e272-411d-acc5-77eec0bcb623" d="m 1.265625,-0.765625 1.0625,-1.03125 c 1.546875,-1.375 2.140625,-1.90625 2.140625,-2.90625 0,-1.140625 -0.890625,-1.9375 -2.109375,-1.9375 -1.125,0 -1.859375,0.921875 -1.859375,1.8125 0,0.546875 0.5,0.546875 0.53125,0.546875 0.171875,0 0.515625,-0.109375 0.515625,-0.53125 0,-0.25 -0.1875,-0.515625 -0.53125,-0.515625 -0.078125,0 -0.09375,0 -0.125,0.015625 0.21875,-0.65625 0.765625,-1.015625 1.34375,-1.015625 0.90625,0 1.328125,0.8125 1.328125,1.625 C 3.5625,-3.90625 3.078125,-3.125 2.515625,-2.5 l -1.90625,2.125 C 0.5,-0.265625 0.5,-0.234375 0.5,0 H 4.203125 L 4.46875,-1.734375 H 4.234375 C 4.171875,-1.4375 4.109375,-1 4,-0.84375 3.9375,-0.765625 3.28125,-0.765625 3.0625,-0.765625 Z m 0,0" style="stroke:none;stroke-width:1.16082"></path></g></g><g transform="matrix(0.60781003,0,0,0.60781003,94.663077,35.400375)" id="id-1b422a28-839f-4e94-bbfc-5b2b1595057a" style="fill:#000000;fill-opacity:1;stroke-width:1.16082"><g style="stroke-width:1.16082" transform="translate(185.567,134.765)" id="g2018"><path id="id-00692dcd-0490-4ca9-8dc7-f62d8a1a30d1" d="m 0.875,-0.59375 c -0.03125,0.15625 -0.09375,0.390625 -0.09375,0.4375 0,0.171875 0.140625,0.265625 0.296875,0.265625 0.125,0 0.296875,-0.078125 0.375,-0.28125 C 1.46875,-0.203125 1.796875,-1.5625 1.84375,-1.75 c 0.078125,-0.328125 0.265625,-1.015625 0.3125,-1.296875 0.046875,-0.125 0.328125,-0.59375 0.5625,-0.8125 0.078125,-0.0625 0.375,-0.328125 0.796875,-0.328125 0.265625,0 0.40625,0.125 0.421875,0.125 -0.296875,0.046875 -0.515625,0.28125 -0.515625,0.546875 0,0.15625 0.109375,0.34375 0.375,0.34375 0.265625,0 0.546875,-0.234375 0.546875,-0.59375 0,-0.34375 -0.3125,-0.640625 -0.828125,-0.640625 C 2.875,-4.40625 2.4375,-3.921875 2.25,-3.640625 2.15625,-4.09375 1.796875,-4.40625 1.328125,-4.40625 0.875,-4.40625 0.6875,-4.015625 0.59375,-3.84375 0.421875,-3.5 0.296875,-2.90625 0.296875,-2.875 c 0,0.109375 0.09375,0.109375 0.109375,0.109375 0.109375,0 0.109375,-0.015625 0.171875,-0.234375 0.171875,-0.703125 0.375,-1.1875 0.734375,-1.1875 0.15625,0 0.296875,0.078125 0.296875,0.453125 0,0.21875 -0.03125,0.328125 -0.15625,0.84375 z m 0,0" style="stroke:none;stroke-width:1.16082"></path></g></g><g transform="matrix(0.60781003,0,0,0.60781003,94.663077,35.400375)" id="id-92e5a7a8-359f-4e40-a45d-96c624ae7d4a" style="fill:#000000;fill-opacity:1;stroke-width:1.16082"><g style="stroke-width:1.16082" transform="translate(190.062,136.259)" id="g2022"><path id="id-9c0c67d1-4a7b-4a47-b323-a9c6ce100bf3" d="M 3.515625,-1.265625 H 3.28125 c -0.015625,0.15625 -0.09375,0.5625 -0.1875,0.625 C 3.046875,-0.59375 2.515625,-0.59375 2.40625,-0.59375 H 1.125 c 0.734375,-0.640625 0.984375,-0.84375 1.390625,-1.171875 0.515625,-0.40625 1,-0.84375 1,-1.5 0,-0.84375 -0.734375,-1.359375 -1.625,-1.359375 -0.859375,0 -1.453125,0.609375 -1.453125,1.25 0,0.34375 0.296875,0.390625 0.375,0.390625 0.15625,0 0.359375,-0.125 0.359375,-0.375 0,-0.125 -0.046875,-0.375 -0.40625,-0.375 C 0.984375,-4.21875 1.453125,-4.375 1.78125,-4.375 c 0.703125,0 1.0625,0.546875 1.0625,1.109375 0,0.609375 -0.4375,1.078125 -0.65625,1.328125 L 0.515625,-0.265625 C 0.4375,-0.203125 0.4375,-0.1875 0.4375,0 h 2.875 z m 0,0" style="stroke:none;stroke-width:1.16082"></path></g></g></g></g></svg> 